<svg width="169" height="211" viewBox="0 0 169 211" fill="none" xmlns="http://www.w3.org/2000/svg">
<path d="M91 195L93 193" stroke="black"/>
<path d="M47.8836 114.93L49.6966 113.536C49.7978 113.459 49.8571 113.338 49.8571 113.21C49.8571 112.95 50.0959 112.755 50.3509 112.808L56.2211 114.011C56.5714 114.083 56.9281 114.119 57.2856 114.119H67.084H76.3866H90.1681H99.8151L111.529 113.413L115.437 112.86C119.026 112.353 122.51 114.317 123.933 117.652L124.461 119.005C125.469 121.59 125.778 124.394 125.355 127.135C125.098 128.809 124.572 130.43 123.799 131.936L123.073 133.35C122.043 135.357 120.752 137.218 119.233 138.886L118.682 139.491C117.362 140.942 115.91 142.267 114.345 143.449L110.151 146.617L104.294 151.209L98.0924 155.095L95.5915 156.444C93.0117 157.836 91.127 160.238 90.3891 163.076C90.242 163.641 90.1421 164.218 90.0905 164.8L89.479 171.697V174.932C89.479 176.061 89.2604 177.18 88.8354 178.225L88.4088 179.275C87.9849 180.318 87.2391 181.199 86.2801 181.789L85.9639 181.983C84.9101 182.631 83.6335 182.811 82.4419 182.477C81.2201 182.136 80.2028 181.288 79.6467 180.148L79.4348 179.713C79.2409 179.315 79.0955 178.896 79.0018 178.464L78.7778 177.43C78.5624 176.436 78.4538 175.423 78.4538 174.406V169.496C78.4538 168.611 78.3478 167.73 78.1382 166.87C77.6681 164.942 76.6893 163.176 75.3039 161.756L72.2521 158.627L69.3963 156.007C66.9392 153.753 64.3242 151.678 61.5714 149.796L60.3521 149.046C58.8703 148.134 57.4617 147.109 56.139 145.979L55.0458 145.045C54.3442 144.446 53.5935 143.906 52.8017 143.433C50.8595 142.271 49.1777 140.722 47.8611 138.881L47.3886 138.22C46.5111 136.994 45.7899 135.662 45.2417 134.257C44.4211 132.154 44 129.916 44 127.658V126.129V123.888C44 122.567 44.2323 121.255 44.6863 120.014C44.9174 119.382 45.2045 118.773 45.5443 118.192L46.6021 116.384C46.9315 115.822 47.3666 115.328 47.8836 114.93Z" fill="white" stroke="white"/>
<path d="M132 206L132.397 204.951C133.457 202.148 134 199.175 134 196.178V196.178V193.156V189" stroke="black"/>
<path d="M45 141.167V135L47.1064 137.902L51.6702 142.618L56.5851 146.245L62.2021 150.235L66.766 154.225L71.3298 157.853L74.8404 161.48L78 166.196V172L74.8404 169.098L62.2021 154.225L45 141.167Z" fill="#F4C091" stroke="#F4C091"/>
<path d="M43 179.976L49.5769 154.577L56.1538 151L62 188.203L53.9615 193.569L48.4808 195L43 179.976Z" fill="#F4C091" stroke="#F4C091"/>
<path d="M97 157V158.333L92.2273 167L90 165.333L90.9545 162L92.2273 160L94.1364 158.333L97 157Z" fill="#F4C091" stroke="#F4C091"/>
<path d="M46.8042 114.119L44.9358 117.22C44.3394 118.21 43.8726 119.273 43.5469 120.382V120.382C43.1842 121.617 43 122.897 43 124.185V124.986C43 126.216 43.119 127.444 43.3554 128.651L43.4177 128.969C43.8288 131.068 44.5403 133.097 45.5304 134.993V134.993C46.3763 136.614 47.4187 138.123 48.6338 139.489L48.9697 139.866C49.8304 140.833 50.7612 141.735 51.7546 142.565L54.0667 144.498L57.8708 147.323L62.3667 150.149L65.4792 152.622L69.975 156.507V156.507C71.8148 157.917 73.5082 159.508 75.0296 161.256L75.5083 161.806V161.806C77.0601 163.391 77.9292 165.521 77.9292 167.739V170.284V175.649C77.9292 176.542 78.0569 177.43 78.3085 178.286L78.6034 179.291C78.8419 180.103 79.2763 180.844 79.8684 181.448L80.4268 182.019C81.0412 182.646 81.8825 183 82.7608 183V183C83.4421 183 84.1063 182.787 84.6605 182.391L85.888 181.513C86.797 180.863 87.5591 180.03 88.1251 179.066L88.177 178.978C88.9396 177.679 89.3417 176.201 89.3417 174.696V170.284V166.045V164.336C89.3417 162.695 89.8802 161.099 90.8746 159.793V159.793C91.461 159.023 92.1909 158.374 93.024 157.881L98.3333 154.741L104.904 150.149L112.167 144.498L115.664 141.946C118.156 140.128 120.32 137.899 122.064 135.355L122.776 134.316C123.767 132.869 124.547 131.288 125.091 129.62L125.288 129.019C125.76 127.572 126 126.061 126 124.54V124.54C126 123.019 125.76 121.507 125.288 120.061L124.271 116.945L121.85 112" stroke="black" stroke-width="3"/>
<path d="M91 179.955V174.94L95.0909 182.104V191.418L91 195V191.418V185.328V179.955Z" fill="#F4C091"/>
<path d="M106 185.328L99.8636 171M91 174.94V179.955V185.328V191.418V195L95.0909 191.418V182.104L91 174.94Z" stroke="#F4C091"/>
<path d="M99.614 192.182H94V189.636L114 186V189.636L111.895 190.727L108.035 194L104.877 192.182H99.614Z" fill="#F4C091" stroke="#F4C091"/>
<path d="M119.714 161L114 158.053V156.789L117.81 153L122 155.105L119.714 161Z" fill="#F4C091" stroke="#F4C091"/>
<path d="M120.407 190H130.468C139.06 196.101 138.2 199.634 133.487 206H126.444H119.736H112.358L110.01 202.174C110.01 202.174 108.926 199.456 109.004 197.304L110.01 194.522L111.687 191.739L115.712 190H120.407Z" fill="#8B8077" stroke="black"/>
<path d="M56 195L58 193" stroke="#F4C091" stroke-width="2"/>
<path d="M114 188V190" stroke="black"/>
<path d="M114.384 188.347L114.408 188.327C114.657 188.119 114.984 188.028 115.304 188.076L118.955 188.63C119.112 188.653 119.255 188.736 119.355 188.86C119.65 189.23 119.452 189.781 118.989 189.877L118.495 189.98C118.432 189.993 118.367 190 118.303 190H116.8H115.6H114.627C114.48 190 114.338 189.949 114.226 189.855C114.083 189.736 114 189.559 114 189.373V189.167C114 188.85 114.141 188.549 114.384 188.347Z" fill="#F4C091" stroke="#F4C091"/>
<path d="M113 190L114.658 189.75M120 189.5H117.992C116.876 189.5 115.762 189.584 114.658 189.75V189.75M114.474 184L114.658 189.75" stroke="black" stroke-width="2"/>
<rect x="55" y="191" width="1" height="5" rx="0.5" fill="#F4C091"/>
<path d="M55 197.321V195.858C55 195.134 55.202 194.424 55.5833 193.808C56.1041 192.968 56.9254 192.357 57.8802 192.1L60.5733 191.376C61.5002 191.126 62.4559 191 63.4157 191H65.6303C67.1342 191 68.6329 191.177 70.0956 191.526L72.8416 192.183C73.7147 192.392 74.5326 192.786 75.2396 193.34L76.2446 194.126C77.3349 194.98 77.9026 196.339 77.7428 197.714C77.6825 198.233 77.5206 198.735 77.2663 199.191L76.2443 201.024C75.7896 201.839 75.2572 202.609 74.6546 203.322L73.2461 204.99C72.4728 205.905 71.534 206.667 70.4788 207.234C69.6888 207.659 68.8428 207.971 67.9658 208.16L65.8714 208.61C64.68 208.867 63.4457 208.847 62.2629 208.554C60.4944 208.114 58.929 207.084 57.8261 205.634L57.5218 205.233C56.7771 204.254 56.2315 203.138 55.9157 201.949L55.3025 199.639C55.1017 198.883 55 198.104 55 197.321Z" fill="white" stroke="black"/>
<path d="M106.341 192.176L107.38 192.6C108.059 192.877 108.37 193.665 108.064 194.331C107.987 194.5 107.946 194.683 107.946 194.869V196.804V197.644C107.946 198.795 108.195 199.933 108.676 200.98C108.868 201.398 109.096 201.799 109.357 202.179L109.531 202.431C109.831 202.867 110.08 203.335 110.274 203.828L110.771 205.092C110.921 205.472 110.961 205.887 110.887 206.288C110.747 207.052 110.212 207.685 109.482 207.95L107.545 208.653C106.913 208.883 106.245 209 105.572 209H104.629C103.902 209 103.177 208.929 102.464 208.788L101.919 208.68C100.515 208.402 99.1512 207.945 97.8622 207.321L96.75 206.783L94.7727 205.706C93.8498 205.203 93.0966 204.438 92.6083 203.507C92.2087 202.746 92 201.898 92 201.038V200.5V196.804V195.393C92 194.441 92.5206 193.564 93.3571 193.109L93.6335 192.928C94.5601 192.322 95.6431 192 96.75 192H102.518H105.446C105.753 192 106.057 192.06 106.341 192.176Z" fill="white" stroke="black"/>
<path d="M19.686 164.064L19.3622 160.033C19.1211 157.031 19.1039 154.016 19.3107 151.012C19.5604 147.386 20.1357 143.79 21.0295 140.267L21.4012 138.801L22.4302 133.82L22.7373 132.228C23.2177 129.736 23.9185 127.292 24.8314 124.925L26.2035 119.944C26.8887 116.627 27.8105 113.364 28.9619 110.179L29.2907 109.27L29.9535 107.207C30.3245 106.053 31.6445 105.509 32.7209 106.067L34.5688 106.919C35.3928 107.299 36.1756 107.763 36.9047 108.303C37.7712 108.945 38.713 109.479 39.709 109.892L43.3547 111.404L45.4569 112.222C47.0667 112.848 47.5202 114.911 46.3214 116.155C46.1737 116.308 46.0468 116.48 45.9441 116.667L45.1656 118.08C43.9776 120.236 43.3547 122.658 43.3547 125.12V125.721C43.3547 127.55 43.6512 129.368 44.2329 131.102L45.9195 136.132C46.0383 136.486 46.0988 136.857 46.0988 137.231C46.0988 138.229 46.5301 139.178 47.2817 139.835L52.6163 144.494L59.1337 149.476L65.6512 154.101L70.676 158.445C71.4414 159.106 72.1584 159.822 72.8214 160.586L73.8027 161.717C76.5097 164.837 78 168.828 78 172.959V187.191V192.788C78 193.43 77.4791 193.951 76.8365 193.951C76.6985 193.951 76.5617 193.927 76.4323 193.879L73.2455 192.698C72.3002 192.348 71.33 192.069 70.343 191.865L68.607 191.505C67.3259 191.239 66.0209 191.105 64.7125 191.105H61.3431C60.7915 191.105 60.2464 191.224 59.7454 191.455L58.2089 192.164C56.3979 192.999 54.3314 191.676 54.3314 189.682L55.0174 180.075V170.824V164.218C55.0174 163.407 54.9083 162.6 54.6931 161.819L53.8176 158.64C53.7078 158.242 53.4367 157.907 53.0696 157.716L51.884 157.101C51.436 156.869 50.9012 157.194 50.9012 157.699C50.9012 157.899 50.9903 158.089 51.1444 158.217L52.0728 158.987C52.4309 159.284 52.7209 159.655 52.9229 160.074L53.1186 160.48C53.4653 161.2 53.6454 161.988 53.6454 162.786V165.843V171.536V181.498V191.105V196.57C53.6454 198.464 52.1096 200 50.2151 200L48.4598 199.757C46.2116 199.446 44.0201 198.812 41.9533 197.874C40.3768 197.159 38.884 196.272 37.502 195.229L35.8081 193.951L33.2264 191.809C31.5203 190.393 29.935 188.838 28.4869 187.159L27.754 186.31C25.8151 184.062 24.1989 181.555 22.9522 178.861C21.471 175.66 20.5302 172.236 20.1678 168.728L19.686 164.064Z" fill="#F4C091" stroke="#F4C091"/>
<path d="M128.135 109.719L125.184 110.732C123.986 111.143 123.417 112.511 123.971 113.651L124.845 115.195C125.874 117.011 126.58 118.992 126.933 121.049L126.985 121.356C127.287 123.117 127.296 124.916 127.01 126.68C126.609 129.159 125.637 131.511 124.17 133.55L122.079 136.457C120.341 138.874 118.268 141.031 115.923 142.863L109.394 147.964L98.0245 155.77C97.2762 156.284 96.5724 156.86 95.9206 157.492C92.7753 160.54 91 164.734 91 169.114V171.045C91 172.098 91.0801 173.149 91.2396 174.189L91.4377 175.481C91.8382 178.094 91.8862 180.748 91.5803 183.373L91.0675 187.774C91.0228 188.158 91.0431 188.546 91.1275 188.922C91.6006 191.034 93.8848 192.186 95.8641 191.313L96.4129 191.07C96.7362 190.928 97.0772 190.829 97.4268 190.778L100.056 190.391C101.19 190.224 102.334 190.141 103.48 190.141H108.006H110.345C111.087 190.141 111.815 189.947 112.458 189.579C113.783 188.821 114.6 187.412 114.6 185.886V172.627V164.52C114.6 162.341 115.198 160.204 116.328 158.341L117.952 155.666C118.029 155.538 118.141 155.434 118.274 155.365C118.815 155.087 119.459 155.479 119.459 156.087V156.188C119.459 156.415 119.37 156.633 119.212 156.796L117.55 158.508C116.326 159.769 115.641 161.457 115.641 163.214V167.98V177.273V183.495C115.641 186.178 117.817 188.353 120.5 188.353H128.135L132.751 187.862C136.272 187.487 139.551 185.89 142.018 183.349L142.874 182.467C144.826 180.457 146.331 178.057 147.29 175.424C147.707 174.276 148.019 173.093 148.219 171.888L149.017 167.096C149.671 163.165 150 159.186 150 155.2V151.538C150 146.308 149.498 141.09 148.501 135.955L147.918 132.952L147.466 130.779C146.38 125.563 144.907 120.435 143.059 115.438L140.629 109.719L138.916 106.189C138.421 105.17 137.035 105.011 136.322 105.892C136.187 106.058 136.019 106.195 135.828 106.294L132.647 107.932L128.135 109.719Z" fill="#F4C091" stroke="#F4C091"/>
<path d="M111.436 202.881L112.864 205.993H122.25H134.357C134.629 205.993 134.897 205.995 135.169 205.989C135.971 205.973 137.873 205.895 140.056 205.535C145.122 204.699 149.662 202.785 153.612 199.505C156.514 197.095 159.37 193.826 161.37 190.628C162.709 188.488 163.412 186.179 163.967 182.813C164.074 178.079 163.996 175.277 162.577 168.905C162.505 168.448 162.429 168.017 162.343 167.601C161.041 161.339 156.736 153.706 150.409 154.64V162.842C150.211 166.496 150.015 169.064 149.114 172.052C148.146 175.263 147.541 177.987 145.691 180.784C143.37 184.295 139.688 188.245 135.581 189.164C134.209 189.471 132.497 189.596 130.246 189.589H115.645C114.823 189.713 114.139 189.876 113.47 190.173C110.881 191.32 108.995 194.666 109.035 197.497C109.065 199.642 110.541 200.931 111.436 202.881Z" fill="#F4C091"/>
<path d="M30.8199 104L25.9529 119.335L21.4335 136.096L20.3446 142.319C19.4499 147.433 19 152.614 19 157.805V157.805C19 162.582 19.2357 167.384 20.3104 172.038C21.1303 175.589 22.1271 178.198 23.867 181.03C26.4648 185.292 27.9711 187.292 30.8199 189.589C31.3917 190.187 31.907 190.714 32.3756 191.179C35.4883 194.267 39.3407 197.01 43.3521 198.779V198.779C45.6575 199.797 48.0866 199.931 50.6064 199.931H54.4596M54.4596 199.931V189.589V176.75V173.701C54.4596 167.904 55.4543 161.536 51.6784 157.136V157.136M54.4596 199.931V199.931C55.4997 204.65 59.5331 209.004 64.3653 209C64.953 208.999 65.5832 208.945 66.2794 208.846C70.8566 208.832 72.6389 208.232 74.2752 205.993L76.5349 202.962M78.7946 164.982V176.75V189.589V196.15C78.7946 198.605 78.002 200.994 76.5349 202.962V202.962M76.5349 202.962C82.169 206.026 85.328 205.648 90.9621 202.962M90.9621 202.962V189.589V176.75V164.982M90.9621 202.962C93.7866 206.458 95.5183 208.258 101.044 208.846C107.774 209.142 110.518 208.622 112.864 205.993M112.864 205.993L111.436 202.881C110.541 200.931 109.065 199.642 109.035 197.497V197.497C108.995 194.666 110.881 191.32 113.47 190.173C114.139 189.876 114.823 189.713 115.645 189.589M112.864 205.993H122.25H134.357C134.629 205.993 134.897 205.995 135.169 205.989C135.971 205.973 137.873 205.895 140.056 205.535C145.122 204.699 149.662 202.785 153.612 199.505V199.505C156.514 197.095 159.37 193.826 161.37 190.628C162.709 188.488 163.412 186.179 163.967 182.813C164.074 178.079 163.996 175.277 162.577 168.905C162.505 168.448 162.429 168.017 162.343 167.601C161.041 161.339 156.736 153.706 150.409 154.64V154.64M115.645 189.589H130.246C132.497 189.596 134.209 189.471 135.581 189.164C139.688 188.245 143.37 184.295 145.691 180.784V180.784C147.541 177.987 148.146 175.263 149.114 172.052C150.015 169.064 150.211 166.496 150.409 162.842V154.64M115.645 189.589V176.75V164.982C115.509 161.645 116.053 159.888 119.121 157.136M137.546 104L143.109 115.412L144.133 118.389C146.227 124.477 147.809 130.729 148.86 137.081L149.069 138.346C149.961 143.731 150.409 149.181 150.409 154.64V154.64" stroke="black" stroke-width="3"/>
<path d="M37.9126 109.523L32.0927 106.548C31.0056 105.992 30.6913 104.585 31.4386 103.62C32.1207 102.738 33.4015 102.608 34.2477 103.333L39.2113 107.585C39.6617 107.971 39.7537 108.632 39.4258 109.126C39.0956 109.624 38.4444 109.795 37.9126 109.523Z" fill="#F4C091" stroke="#F4C091" stroke-width="3"/>
<path d="M52 99L48 107" stroke="black" stroke-width="3"/>
<path d="M151 60L155 64" stroke="#F4C091" stroke-width="3"/>
<path d="M26.3834 100.881H17L19.8558 106.789L26.3834 113.963L33.727 118.606L44.3344 122.826L59.4294 127.89L76.5644 129.156L91.6595 130L105.123 129.156L116.954 125.78L125.929 122.826L135.721 117.339L143.064 111.853L150 100.881L140.209 102.147L131.233 100.881L121.85 97.5046L114.098 92.8624L110.018 89.4862L103.491 83.578L97.3712 75.1376L92.4755 66.2752L88.8037 57.4128L85.9479 48.5505L83.5 38L81.0521 48.5505L78.1963 57.4128L75.3405 66.2752L70.0368 75.1376L63.1012 83.578L55.3497 89.4862L48.8221 92.8624L41.0706 97.5046L38.2147 98.7706L32.0951 100.881H26.3834Z" fill="white" stroke="white"/>
<path d="M25.8896 97.4633H17L19.7055 103.05L25.8896 109.835L32.8466 114.225L42.8957 118.216L57.1963 123.005L73.4294 124.202L87.7301 125L100.485 124.202L111.693 121.009L120.196 118.216L129.472 113.028L136.429 107.839L143 97.4633L133.724 98.6605L125.221 97.4633L116.331 94.2706L108.988 89.8807L105.123 86.6881L98.9387 81.1009L93.1411 73.1193L88.5031 64.7385L85.0245 56.3578L82.319 47.9771L80 38L77.681 47.9771L74.9755 56.3578L72.2699 64.7385L67.2454 73.1193L60.6748 81.1009L53.3313 86.6881L47.1472 89.8807L39.8037 94.2706L37.0982 95.4679L31.3006 97.4633H25.8896Z" fill="white" stroke="white"/>
<path d="M84.8621 92V96.3325M84.8621 96.3325C80.5394 101.18 78.2659 101.264 74 96.3325M84.8621 96.3325C89.7964 100.955 91.8417 100.128 95 96.3325" stroke="black" stroke-width="3"/>
<path d="M24.0852 102.616L22.5878 102.338C20.7578 101.998 19.0723 101.116 17.75 99.8062C15.9901 98.0628 15 95.6884 15 93.2112V85.6406V73.4102C15 65.2733 15.739 57.1533 17.208 49.1502L17.3897 48.1602L19.7794 38.2969C21.1039 31.7364 23.0524 25.3174 25.5981 19.1276L26.1519 17.7812L28.5239 11.3196C29.0601 9.85879 29.9112 8.53389 31.0167 7.43879L31.5759 6.88482C33.2041 5.27199 35.4032 4.36719 37.6949 4.36719C39.7565 4.36719 41.751 5.09971 43.3225 6.43404L44.8652 7.74387C45.9254 8.64412 46.8477 9.6952 47.6025 10.8635L52.8367 18.9648L54.9854 22.3705C57.3667 26.1446 61.5174 28.4336 65.9799 28.4336H75.1404H87.4871H99.4355L104.173 29.1041C106.304 29.4055 108.365 28.2163 109.171 26.2214C109.318 25.8565 109.511 25.5116 109.744 25.195L116.96 15.4141L120.818 8.8128C121.166 8.21709 121.559 7.64843 121.992 7.11163L123.754 4.93043C125.25 3.07714 127.505 2 129.887 2C131.822 2 133.689 2.71151 135.133 3.99908L135.549 4.36996C136.425 5.1502 137.145 6.08816 137.673 7.13487L142.446 16.59C144.829 21.3119 146.629 26.3065 147.804 31.4635L151.61 48.1602L154 73.4102V85.01C154 87.0024 153.78 88.9888 153.344 90.9329L152.018 96.8412C151.752 98.0289 151.151 99.1154 150.286 99.9721C149.093 101.154 147.482 101.816 145.803 101.816H144.84H143.319C136.439 101.816 129.63 100.419 123.305 97.7102C119.882 96.2438 116.63 94.4055 113.608 92.2286L109.393 89.1914C104.377 85.2692 99.9917 80.6025 96.3884 75.3534L95.0544 73.4102L91.8682 67.0977L88.2837 57.6289L85.894 50.1328L83.9026 39.4805C82.8423 46.5699 81.1976 53.5595 78.9851 60.3778L78.7249 61.1797C75.3178 69.2278 70.5073 76.6872 64.5636 83.0944L64.0168 83.6839C61.348 86.5608 58.4289 89.1949 55.2939 91.5551L54.3276 92.2825C51.482 94.4249 48.4315 96.2806 45.2207 97.8227L42.1337 99.3054C38.6732 100.967 34.9561 102.031 31.1402 102.451L28.2413 102.77C26.8558 102.923 25.4555 102.871 24.0852 102.616Z" fill="#F4C091" stroke="#F4C091"/>
<path d="M24.0852 102.616L22.5878 102.338C20.7578 101.998 19.0723 101.116 17.75 99.8062C15.9901 98.0628 15 95.6884 15 93.2112V85.6406V73.4102C15 65.2733 15.739 57.1533 17.208 49.1502L17.3897 48.1602L19.7794 38.2969C21.1039 31.7364 23.0524 25.3174 25.5981 19.1276L26.1519 17.7812L28.5239 11.3196C29.0601 9.85879 29.9112 8.53389 31.0167 7.43879L31.5759 6.88482C33.2041 5.27199 35.4032 4.36719 37.6949 4.36719C39.7565 4.36719 41.751 5.09971 43.3225 6.43404L44.8652 7.74387C45.9254 8.64412 46.8477 9.6952 47.6025 10.8635L52.8367 18.9648L54.9854 22.3705C57.3667 26.1446 61.5174 28.4336 65.9799 28.4336H75.1404H87.4871H99.4355L104.173 29.1041C106.304 29.4055 108.365 28.2163 109.171 26.2214C109.318 25.8565 109.511 25.5116 109.744 25.195L116.96 15.4141L120.818 8.8128C121.166 8.21709 121.559 7.64843 121.992 7.11163L123.754 4.93043C125.25 3.07714 127.505 2 129.887 2C131.822 2 133.689 2.71151 135.133 3.99908L135.549 4.36996C136.425 5.1502 137.145 6.08816 137.673 7.13487L142.446 16.59C144.829 21.3119 146.629 26.3065 147.804 31.4635L151.61 48.1602L154 73.4102V85.01C154 87.0024 153.78 88.9888 153.344 90.9329L152.018 96.8412C151.752 98.0289 151.151 99.1154 150.286 99.9721C149.093 101.154 147.482 101.816 145.803 101.816H144.84H143.319C136.439 101.816 129.63 100.419 123.305 97.7102C119.882 96.2438 116.63 94.4055 113.608 92.2286L109.393 89.1914C104.377 85.2692 99.9917 80.6025 96.3884 75.3534L95.0544 73.4102L91.8682 67.0977L88.2837 57.6289L85.894 50.1328L83.9026 39.4805C82.8423 46.5699 81.1976 53.5595 78.9851 60.3778L78.7249 61.1797C75.3178 69.2278 70.5073 76.6872 64.5636 83.0944L64.0168 83.6839C61.348 86.5608 58.4289 89.1949 55.2939 91.5551L54.3276 92.2825C51.482 94.4249 48.4315 96.2806 45.2207 97.8227L42.1337 99.3054C38.6732 100.967 34.9561 102.031 31.1402 102.451L28.2413 102.77C26.8558 102.923 25.4555 102.871 24.0852 102.616Z" fill="#F4C091" stroke="#F4C091"/>
<path d="M118.746 24.7148L116.483 28.3764C116.451 28.4272 116.425 28.4811 116.405 28.5372C116.202 29.0899 116.586 29.6825 117.173 29.7236L121.661 30.0377L128.629 31.2264L135.597 32.4151L140.848 33.5392C141.955 33.7764 143 32.9318 143 31.7987C143 31.6816 142.988 31.5648 142.965 31.45L142.129 27.2642L140.387 22.1132L139.131 18.6848C138.809 17.8064 138.347 16.9859 137.763 16.2551L137.001 15.3016C135.838 13.8469 134.077 13 132.215 13C131.012 13 129.836 13.3538 128.833 14.0175L127.051 15.1968C126.075 15.8426 125.189 16.6151 124.416 17.494L122.375 19.8162C121.03 21.3448 119.817 22.9835 118.746 24.7148Z" fill="#FFFDFE" stroke="#FFFDFE"/>
<path d="M118.746 24.7148L116.483 28.3764C116.451 28.4272 116.425 28.4811 116.405 28.5372C116.202 29.0899 116.586 29.6825 117.173 29.7236L121.661 30.0377L128.629 31.2264L135.597 32.4151L140.848 33.5392C141.955 33.7764 143 32.9318 143 31.7987C143 31.6816 142.988 31.5648 142.965 31.45L142.129 27.2642L140.387 22.1132L139.131 18.6848C138.809 17.8064 138.347 16.9859 137.763 16.2551L137.001 15.3016C135.838 13.8469 134.077 13 132.215 13C131.012 13 129.836 13.3538 128.833 14.0175L127.051 15.1968C126.075 15.8426 125.189 16.6151 124.416 17.494L122.375 19.8162C121.03 21.3448 119.817 22.9835 118.746 24.7148Z" fill="#FFFDFE" stroke="#FFFDFE"/>
<path d="M34.9721 34.3162C32.7773 34.7945 30.2823 35.0841 27.6372 34.9782C25.2214 34.8815 25.9739 31.0982 26.7783 28.5048C27.2803 26.8865 27.8156 25.2768 28.2683 23.644C28.4923 22.8361 28.7308 22.1024 29.0466 21.3845C29.9889 19.2428 30.9535 17.1928 32.5782 15.509C34.8646 13.1393 38.9719 12.9077 41.7982 14.5976C42.9347 15.2772 43.9782 16.146 45.1754 17.2015C46.0751 17.9947 46.9309 18.8347 47.718 19.7398C49.9083 22.2585 54.2043 27.5228 52.6798 28.4233C45.7007 32.5463 42.8922 32.5901 34.9721 34.3162Z" fill="#FFFDFE" stroke="#FFFDFE"/>
<path d="M34.9721 34.3162C32.7773 34.7945 30.2823 35.0841 27.6372 34.9782C25.2214 34.8815 25.9739 31.0982 26.7783 28.5048C27.2803 26.8865 27.8156 25.2768 28.2683 23.644C28.4923 22.8361 28.7308 22.1024 29.0466 21.3845C29.9889 19.2428 30.9535 17.1928 32.5782 15.509C34.8646 13.1393 38.9719 12.9077 41.7982 14.5976C42.9347 15.2772 43.9782 16.146 45.1754 17.2015C46.0751 17.9947 46.9309 18.8347 47.718 19.7398C49.9083 22.2585 54.2043 27.5228 52.6798 28.4233C45.7007 32.5463 42.8922 32.5901 34.9721 34.3162Z" fill="#FFFDFE" stroke="#FFFDFE"/>
<ellipse cx="45" cy="66.5" rx="11" ry="12.5" fill="white"/>
<ellipse cx="45" cy="66.5" rx="11" ry="12.5" fill="white"/>
<ellipse cx="123" cy="66.5" rx="11" ry="12.5" fill="white"/>
<ellipse cx="123" cy="66.5" rx="11" ry="12.5" fill="white"/>
<ellipse cx="45" cy="66" rx="9" ry="10" fill="black"/>
<ellipse cx="46" cy="65" rx="10" ry="11" fill="black"/>
<ellipse cx="124" cy="65" rx="10" ry="11" fill="black"/>
<circle cx="52" cy="59" r="3" fill="white"/>
<ellipse cx="39" cy="71.5" rx="3" ry="2.5" fill="white"/>
<circle cx="130" cy="58" r="3" fill="white"/>
<ellipse cx="119" cy="73.5" rx="3" ry="2.5" fill="white"/>
<circle cx="48" cy="95" r="8" fill="#FF9469"/>
<circle cx="48" cy="95" r="8" fill="#FF9469"/>
<ellipse cx="121.5" cy="95" rx="7.5" ry="8" fill="#FF9469"/>
<ellipse cx="121.5" cy="95" rx="7.5" ry="8" fill="#FF9469"/>
<path d="M89 85H81C81.5695 89.9189 82.4324 91.3935 84.8261 92C87.3053 91.5043 88.4635 90.616 89 85Z" fill="#FF9469" stroke="#FF9469"/>
<path d="M27.8356 10.278H30.1781L32.911 4.36515L38.3767 2L42.6712 3.18257L46.5753 6.73029L49.6986 10.278L53.6027 15.7967L57.8973 20.527L63.363 25.2573L70 28.0166L68.0479 30.7759L57.8973 28.0166L49.6986 18.556L44.2329 12.249L36.4247 10.278L30.9589 14.2199L27.8356 18.556L18.4658 93.4523L16.5137 97L13 87.5394V79.6556V74.5311V66.2531L14.1712 60.3402V56.0042L16.5137 48.5145L18.4658 40.6307L19.637 35.5062L20.4178 30.7759L21.9795 25.2573L23.5411 18.556L25.8836 13.4315L27.8356 10.278Z" fill="#F4C091" stroke="#F4C091"/>
<path d="M27.8356 10.278H30.1781L32.911 4.36515L38.3767 2L42.6712 3.18257L46.5753 6.73029L49.6986 10.278L53.6027 15.7967L57.8973 20.527L63.363 25.2573L70 28.0166L68.0479 30.7759L57.8973 28.0166L49.6986 18.556L44.2329 12.249L36.4247 10.278L30.9589 14.2199L27.8356 18.556L18.4658 93.4523L16.5137 97L13 87.5394V79.6556V74.5311V66.2531L14.1712 60.3402V56.0042L16.5137 48.5145L18.4658 40.6307L19.637 35.5062L20.4178 30.7759L21.9795 25.2573L23.5411 18.556L25.8836 13.4315L27.8356 10.278Z" fill="#F4C091" stroke="#F4C091"/>
<path d="M105.102 26.082L114.636 22.3934L121.119 12.1475L128.746 8.45902L139.042 6L141.331 10.0984L144 15.4262L141.331 18.7049L139.042 15.4262L134.466 10.0984L128.746 10.918L115.78 24.4426L108.153 31L99 29.7705L105.102 26.082Z" fill="#F4C091" stroke="#F4C091"/>
<path d="M105.102 26.082L114.636 22.3934L121.119 12.1475L128.746 8.45902L139.042 6L141.331 10.0984L144 15.4262L141.331 18.7049L139.042 15.4262L134.466 10.0984L128.746 10.918L115.78 24.4426L108.153 31L99 29.7705L105.102 26.082Z" fill="#F4C091" stroke="#F4C091"/>
<path d="M4.36986 69L29 74.8333M0 86.5H29M4.36986 104L29 97.3889" stroke="#8B8077" stroke-width="3"/>
<path d="M4.36986 69L29 74.8333M0 86.5H29M4.36986 104L29 97.3889" stroke="#8B8077" stroke-width="3"/>
<path d="M156 77.8026L153 82L152 56.8158L153.75 53L156 65.2105V77.8026Z" fill="#F4C091" stroke="#F4C091"/>
<path d="M156 77.8026L153 82L152 56.8158L153.75 53L156 65.2105V77.8026Z" fill="#F4C091" stroke="#F4C091"/>
<path d="M165.566 69L152.783 71.7528L140 74.5056M169 86.3034H140M165.566 104L140 95.3483" stroke="#8B8077" stroke-width="3"/>
<path d="M165.566 69L152.783 71.7528L140 74.5056M169 86.3034H140M165.566 104L140 95.3483" stroke="#8B8077" stroke-width="3"/>
<path d="M95.6832 27.1288H96.4284C102.477 27.1288 108.152 24.2032 111.661 19.2761L118.851 9.46012L121.055 6.29473C122.928 3.60405 125.998 2 129.277 2C131.577 2 133.806 2.79129 135.592 4.241L137.645 5.90856C140.489 8.21772 142.535 11.3623 143.494 14.8978L146.813 27.1288L152.006 47.546L154.446 58.5817C155.479 63.2516 156 68.0201 156 72.8028V73.2841C156 79.9038 154.954 86.4819 152.9 92.7751L151.883 95.8936C150.116 101.307 147.349 106.341 143.726 110.734C139.446 115.922 134.069 120.098 127.982 122.959L125.891 123.942C121.221 126.138 116.268 127.675 111.174 128.509L108.257 128.987C104.142 129.661 99.9791 130 95.8092 130H86.4959H76.6095C71.4941 130 66.3895 129.529 61.3603 128.594C56.5564 127.701 51.8403 126.387 47.2664 124.668L40.5592 122.147L35.0151 119.743C29.7361 117.454 25.0922 113.916 21.483 109.435C20.0897 107.705 18.8617 105.848 17.8152 103.889L17.0982 102.546C13.0945 95.0504 11 86.683 11 78.1847V74.2454C11 68.5012 11.577 62.7716 12.7223 57.1428L12.9972 55.7914L16.1928 40.8712L19.3884 27.1288L20.8637 21.9498C21.7402 18.8727 23.0296 15.9285 24.6966 13.1976L25.6916 11.5674C26.5459 10.1679 27.5693 8.87885 28.7387 7.72943L32.5133 4.01917C33.8298 2.72513 35.6019 2 37.4479 2C39.4297 2 41.3196 2.83533 42.6536 4.30086L47.3499 9.46012L54.1405 17.3129C58.3932 23.4602 65.3921 27.1288 72.867 27.1288H73.3141H83.6997H95.6832Z" stroke="black" stroke-width="3"/>
<path d="M95.6832 27.1288H96.4284C102.477 27.1288 108.152 24.2032 111.661 19.2761L118.851 9.46012L121.055 6.29473C122.928 3.60405 125.998 2 129.277 2C131.577 2 133.806 2.79129 135.592 4.241L137.645 5.90856C140.489 8.21772 142.535 11.3623 143.494 14.8978L146.813 27.1288L152.006 47.546L154.446 58.5817C155.479 63.2516 156 68.0201 156 72.8028V73.2841C156 79.9038 154.954 86.4819 152.9 92.7751L151.883 95.8936C150.116 101.307 147.349 106.341 143.726 110.734C139.446 115.922 134.069 120.098 127.982 122.959L125.891 123.942C121.221 126.138 116.268 127.675 111.174 128.509L108.257 128.987C104.142 129.661 99.9791 130 95.8092 130H86.4959H76.6095C71.4941 130 66.3895 129.529 61.3603 128.594C56.5564 127.701 51.8403 126.387 47.2664 124.668L40.5592 122.147L35.0151 119.743C29.7361 117.454 25.0922 113.916 21.483 109.435C20.0897 107.705 18.8617 105.848 17.8152 103.889L17.0982 102.546C13.0945 95.0504 11 86.683 11 78.1847V74.2454C11 68.5012 11.577 62.7716 12.7223 57.1428L12.9972 55.7914L16.1928 40.8712L19.3884 27.1288L20.8637 21.9498C21.7402 18.8727 23.0296 15.9285 24.6966 13.1976L25.6916 11.5674C26.5459 10.1679 27.5693 8.87885 28.7387 7.72943L32.5133 4.01917C33.8298 2.72513 35.6019 2 37.4479 2C39.4297 2 41.3196 2.83533 42.6536 4.30086L47.3499 9.46012L54.1405 17.3129C58.3932 23.4602 65.3921 27.1288 72.867 27.1288H73.3141H83.6997H95.6832Z" stroke="black" stroke-width="3"/>
</svg>
