<svg width="283" height="183" viewBox="0 0 283 183" fill="none" xmlns="http://www.w3.org/2000/svg">
<rect y="83" width="283" height="100" rx="10" fill="#F7F0EA"/>
<path d="M41.3047 128L37.1484 116.727H38.625L41.9844 126.312H42.0156L45.375 116.727H46.8516L42.6953 128H41.3047ZM50.2031 128.156C47.9453 128.156 46.4375 126.523 46.4375 123.938V123.922C46.4375 121.336 47.9531 119.719 50.1953 119.719C52.4375 119.719 53.9609 121.328 53.9609 123.922V123.938C53.9609 126.531 52.4453 128.156 50.2031 128.156ZM50.2109 126.953C51.6406 126.953 52.5703 125.844 52.5703 123.938V123.922C52.5703 122.016 51.6328 120.922 50.1953 120.922C48.7812 120.922 47.8281 122.023 47.8281 123.922V123.938C47.8281 125.852 48.7734 126.953 50.2109 126.953ZM58.7031 128.156C56.3984 128.156 54.9375 126.516 54.9375 123.93V123.922C54.9375 121.359 56.4297 119.719 58.6875 119.719C60.7109 119.719 61.9062 121.062 62.0781 122.453L62.0859 122.516H60.7578L60.7422 122.453C60.5391 121.641 59.8828 120.922 58.6875 120.922C57.2734 120.922 56.3281 122.094 56.3281 123.938V123.945C56.3281 125.836 57.2969 126.953 58.7031 126.953C59.8125 126.953 60.5234 126.328 60.75 125.422L60.7656 125.359H62.1016L62.0938 125.414C61.875 126.961 60.5391 128.156 58.7031 128.156ZM64.2812 118.945L66.0078 116.602H67.3047L69.0312 118.945H67.8594L66.6562 117.32L65.4531 118.945H64.2812ZM66.6953 128.156C64.3594 128.156 62.9531 126.523 62.9531 123.969V123.961C62.9531 121.445 64.3906 119.719 66.6094 119.719C68.8281 119.719 70.1797 121.367 70.1797 123.805V124.305H64.3281C64.3594 125.977 65.2812 126.953 66.7266 126.953C67.7578 126.953 68.4844 126.438 68.7188 125.742L68.7422 125.672H70.0781L70.0625 125.75C69.7969 127.094 68.4688 128.156 66.6953 128.156ZM66.6016 120.922C65.4219 120.922 64.5 121.727 64.3516 123.242H68.7969C68.6641 121.664 67.7891 120.922 66.6016 120.922ZM77.2109 128.156C75.5938 128.156 74.5078 127.18 74.5078 125.703V125.688C74.5078 124.305 75.5859 123.438 77.4531 123.328L79.7812 123.195V122.516C79.7812 121.523 79.1328 120.922 78 120.922C76.9531 120.922 76.2969 121.422 76.1406 122.148L76.125 122.219H74.8125L74.8203 122.133C74.9375 120.797 76.1016 119.719 78.0156 119.719C79.9375 119.719 81.1406 120.758 81.1406 122.383V128H79.7812V126.68H79.75C79.2734 127.57 78.2969 128.156 77.2109 128.156ZM75.8984 125.703C75.8984 126.484 76.5391 126.977 77.5156 126.977C78.7969 126.977 79.7812 126.094 79.7812 124.914V124.25L77.6094 124.383C76.5234 124.445 75.8984 124.93 75.8984 125.688V125.703ZM83.6328 118.5C83.1641 118.5 82.7812 118.117 82.7812 117.648C82.7812 117.172 83.1641 116.797 83.6328 116.797C84.1094 116.797 84.4844 117.172 84.4844 117.648C84.4844 118.117 84.1094 118.5 83.6328 118.5ZM82.9531 128V119.875H84.3125V128H82.9531ZM86.1641 128V119.875H87.5234V121.031H87.5547C87.9922 120.273 88.8203 119.719 90.0547 119.719C91.8359 119.719 92.8672 120.875 92.8672 122.727V128H91.5078V122.969C91.5078 121.648 90.8906 120.922 89.6406 120.922C88.3594 120.922 87.5234 121.836 87.5234 123.219V128H86.1641ZM97.6562 128.156C95.5781 128.156 94.2031 126.5 94.2031 123.938V123.93C94.2031 121.367 95.5938 119.719 97.6328 119.719C98.7812 119.719 99.7266 120.297 100.234 121.234H100.266V116.727H101.625V128H100.266V126.625H100.234C99.7266 127.57 98.8203 128.156 97.6562 128.156ZM97.9219 126.953C99.2969 126.953 100.273 125.758 100.273 123.938V123.93C100.273 122.117 99.2891 120.922 97.9219 120.922C96.4844 120.922 95.5938 122.078 95.5938 123.93V123.938C95.5938 125.805 96.4844 126.953 97.9219 126.953ZM105.836 128.156C104.219 128.156 103.133 127.18 103.133 125.703V125.688C103.133 124.305 104.211 123.438 106.078 123.328L108.406 123.195V122.516C108.406 121.523 107.758 120.922 106.625 120.922C105.578 120.922 104.922 121.422 104.766 122.148L104.75 122.219H103.438L103.445 122.133C103.562 120.797 104.727 119.719 106.641 119.719C108.562 119.719 109.766 120.758 109.766 122.383V128H108.406V126.68H108.375C107.898 127.57 106.922 128.156 105.836 128.156ZM104.523 125.703C104.523 126.484 105.164 126.977 106.141 126.977C107.422 126.977 108.406 126.094 108.406 124.914V124.25L106.234 124.383C105.148 124.445 104.523 124.93 104.523 125.688V125.703ZM114.773 128V119.875H116.133V121.031H116.164C116.602 120.273 117.43 119.719 118.664 119.719C120.445 119.719 121.477 120.875 121.477 122.727V128H120.117V122.969C120.117 121.648 119.5 120.922 118.25 120.922C116.969 120.922 116.133 121.836 116.133 123.219V128H114.773ZM127.5 118.93C127.055 118.93 126.695 118.758 126.406 118.508L126.125 118.266C125.867 118.047 125.648 117.859 125.422 117.859C125.125 117.859 125 118.172 125 118.836V118.914H124.047V118.82C124.047 117.5 124.508 116.836 125.281 116.836C125.719 116.836 126.055 117.008 126.344 117.258L126.625 117.5C126.891 117.727 127.125 117.906 127.359 117.906C127.656 117.906 127.781 117.594 127.781 116.93V116.852H128.734V116.945C128.734 118.266 128.273 118.93 127.5 118.93ZM125.586 128.156C123.969 128.156 122.883 127.18 122.883 125.703V125.688C122.883 124.305 123.961 123.438 125.828 123.328L128.156 123.195V122.516C128.156 121.523 127.508 120.922 126.375 120.922C125.328 120.922 124.672 121.422 124.516 122.148L124.5 122.219H123.188L123.195 122.133C123.312 120.797 124.477 119.719 126.391 119.719C128.312 119.719 129.516 120.758 129.516 122.383V128H128.156V126.68H128.125C127.648 127.57 126.672 128.156 125.586 128.156ZM124.273 125.703C124.273 126.484 124.914 126.977 125.891 126.977C127.172 126.977 128.156 126.094 128.156 124.914V124.25L125.984 124.383C124.898 124.445 124.273 124.93 124.273 125.688V125.703ZM134.609 128.156C132.352 128.156 130.844 126.523 130.844 123.938V123.922C130.844 121.336 132.359 119.719 134.602 119.719C136.844 119.719 138.367 121.328 138.367 123.922V123.938C138.367 126.531 136.852 128.156 134.609 128.156ZM134.617 126.953C136.047 126.953 136.977 125.844 136.977 123.938V123.922C136.977 122.016 136.039 120.922 134.602 120.922C133.188 120.922 132.234 122.023 132.234 123.922V123.938C132.234 125.852 133.18 126.953 134.617 126.953ZM146.391 128.156C144.133 128.156 142.625 126.523 142.625 123.938V123.922C142.625 121.336 144.141 119.719 146.383 119.719C148.625 119.719 150.148 121.328 150.148 123.922V123.938C150.148 126.531 148.633 128.156 146.391 128.156ZM146.398 126.953C147.828 126.953 148.758 125.844 148.758 123.938V123.922C148.758 122.016 147.82 120.922 146.383 120.922C144.969 120.922 144.016 122.023 144.016 123.922V123.938C144.016 125.852 144.961 126.953 146.398 126.953ZM154.297 128.156C152.516 128.156 151.484 127 151.484 125.148V119.875H152.844V124.906C152.844 126.227 153.461 126.953 154.711 126.953C155.992 126.953 156.828 126.039 156.828 124.656V119.875H158.188V128H156.828V126.844H156.797C156.359 127.602 155.531 128.156 154.297 128.156ZM162.602 128.156C161.109 128.156 160.375 127.484 160.375 125.93V121H159.188V119.875H160.375V117.68H161.781V119.875H163.328V121H161.781V125.922C161.781 126.789 162.164 127.031 162.891 127.031C163.055 127.031 163.211 127.008 163.328 127V128.102C163.156 128.125 162.867 128.156 162.602 128.156ZM164.789 128V119.875H166.148V121.25H166.18C166.453 120.312 167.156 119.719 168.07 119.719C168.305 119.719 168.508 119.758 168.617 119.773V121.094C168.508 121.055 168.219 121.016 167.891 121.016C166.836 121.016 166.148 121.75 166.148 122.984V128H164.789ZM171.945 128.156C170.328 128.156 169.242 127.18 169.242 125.703V125.688C169.242 124.305 170.32 123.438 172.188 123.328L174.516 123.195V122.516C174.516 121.523 173.867 120.922 172.734 120.922C171.688 120.922 171.031 121.422 170.875 122.148L170.859 122.219H169.547L169.555 122.133C169.672 120.797 170.836 119.719 172.75 119.719C174.672 119.719 175.875 120.758 175.875 122.383V128H174.516V126.68H174.484C174.008 127.57 173.031 128.156 171.945 128.156ZM170.633 125.703C170.633 126.484 171.273 126.977 172.25 126.977C173.531 126.977 174.516 126.094 174.516 124.914V124.25L172.344 124.383C171.258 124.445 170.633 124.93 170.633 125.688V125.703ZM180.484 128.156C178.57 128.156 177.414 127.18 177.25 125.727L177.242 125.656H178.602L178.617 125.734C178.781 126.547 179.383 127.023 180.492 127.023C181.594 127.023 182.25 126.562 182.25 125.828V125.82C182.25 125.234 181.945 124.906 181.023 124.68L179.734 124.367C178.203 124 177.461 123.289 177.461 122.117V122.109C177.461 120.711 178.688 119.719 180.445 119.719C182.227 119.719 183.359 120.758 183.461 122.117L183.469 122.219H182.172L182.164 122.164C182.055 121.375 181.453 120.852 180.445 120.852C179.461 120.852 178.852 121.328 178.852 122.047V122.055C178.852 122.609 179.219 122.992 180.117 123.211L181.406 123.523C183.047 123.922 183.641 124.57 183.641 125.727V125.734C183.641 127.156 182.297 128.156 180.484 128.156ZM188.336 128V119.875H189.695V121.25H189.727C190 120.312 190.703 119.719 191.617 119.719C191.852 119.719 192.055 119.758 192.164 119.773V121.094C192.055 121.055 191.766 121.016 191.438 121.016C190.383 121.016 189.695 121.75 189.695 122.984V128H188.336ZM196.227 128.156C193.891 128.156 192.484 126.523 192.484 123.969V123.961C192.484 121.445 193.922 119.719 196.141 119.719C198.359 119.719 199.711 121.367 199.711 123.805V124.305H193.859C193.891 125.977 194.812 126.953 196.258 126.953C197.289 126.953 198.016 126.438 198.25 125.742L198.273 125.672H199.609L199.594 125.75C199.328 127.094 198 128.156 196.227 128.156ZM196.133 120.922C194.953 120.922 194.031 121.727 193.883 123.242H198.328C198.195 121.664 197.32 120.922 196.133 120.922ZM204.523 130.891C202.516 130.891 201.25 129.945 200.984 128.742L200.969 128.672H202.336L202.367 128.742C202.625 129.328 203.398 129.688 204.508 129.688C205.938 129.688 206.75 128.898 206.75 127.641V126.602H206.719C206.234 127.5 205.297 128.078 204.133 128.078C202.086 128.078 200.688 126.43 200.688 123.891V123.883C200.688 121.359 202.102 119.719 204.164 119.719C205.312 119.719 206.219 120.344 206.719 121.25H206.75V119.875H208.109V127.773C208.109 129.656 206.727 130.891 204.523 130.891ZM204.43 126.875C205.812 126.875 206.75 125.695 206.75 123.891V123.883C206.75 122.094 205.805 120.922 204.43 120.922C202.984 120.922 202.078 122.078 202.078 123.883V123.891C202.078 125.734 202.984 126.875 204.43 126.875ZM210.633 118.5C210.164 118.5 209.781 118.117 209.781 117.648C209.781 117.172 210.164 116.797 210.633 116.797C211.109 116.797 211.484 117.172 211.484 117.648C211.484 118.117 211.109 118.5 210.633 118.5ZM209.953 128V119.875H211.312V128H209.953ZM216.047 128.156C214.133 128.156 212.977 127.18 212.812 125.727L212.805 125.656H214.164L214.18 125.734C214.344 126.547 214.945 127.023 216.055 127.023C217.156 127.023 217.812 126.562 217.812 125.828V125.82C217.812 125.234 217.508 124.906 216.586 124.68L215.297 124.367C213.766 124 213.023 123.289 213.023 122.117V122.109C213.023 120.711 214.25 119.719 216.008 119.719C217.789 119.719 218.922 120.758 219.023 122.117L219.031 122.219H217.734L217.727 122.164C217.617 121.375 217.016 120.852 216.008 120.852C215.023 120.852 214.414 121.328 214.414 122.047V122.055C214.414 122.609 214.781 122.992 215.68 123.211L216.969 123.523C218.609 123.922 219.203 124.57 219.203 125.727V125.734C219.203 127.156 217.859 128.156 216.047 128.156ZM223.258 128.156C221.766 128.156 221.031 127.484 221.031 125.93V121H219.844V119.875H221.031V117.68H222.438V119.875H223.984V121H222.438V125.922C222.438 126.789 222.82 127.031 223.547 127.031C223.711 127.031 223.867 127.008 223.984 127V128.102C223.812 128.125 223.523 128.156 223.258 128.156ZM225.445 128V119.875H226.805V121.25H226.836C227.109 120.312 227.812 119.719 228.727 119.719C228.961 119.719 229.164 119.758 229.273 119.773V121.094C229.164 121.055 228.875 121.016 228.547 121.016C227.492 121.016 226.805 121.75 226.805 122.984V128H225.445ZM233.359 128.156C231.102 128.156 229.594 126.523 229.594 123.938V123.922C229.594 121.336 231.109 119.719 233.352 119.719C235.594 119.719 237.117 121.328 237.117 123.922V123.938C237.117 126.531 235.602 128.156 233.359 128.156ZM233.367 126.953C234.797 126.953 235.727 125.844 235.727 123.938V123.922C235.727 122.016 234.789 120.922 233.352 120.922C231.938 120.922 230.984 122.023 230.984 123.922V123.938C230.984 125.852 231.93 126.953 233.367 126.953ZM241.266 128.156C239.484 128.156 238.453 127 238.453 125.148V119.875H239.812V124.906C239.812 126.227 240.43 126.953 241.68 126.953C242.961 126.953 243.797 126.039 243.797 124.656V119.875H245.156V128H243.797V126.844H243.766C243.328 127.602 242.5 128.156 241.266 128.156ZM108.742 150.156C107.125 150.156 106.039 149.18 106.039 147.703V147.688C106.039 146.305 107.117 145.438 108.984 145.328L111.312 145.195V144.516C111.312 143.523 110.664 142.922 109.531 142.922C108.484 142.922 107.828 143.422 107.672 144.148L107.656 144.219H106.344L106.352 144.133C106.469 142.797 107.633 141.719 109.547 141.719C111.469 141.719 112.672 142.758 112.672 144.383V150H111.312V148.68H111.281C110.805 149.57 109.828 150.156 108.742 150.156ZM107.43 147.703C107.43 148.484 108.07 148.977 109.047 148.977C110.328 148.977 111.312 148.094 111.312 146.914V146.25L109.141 146.383C108.055 146.445 107.43 146.93 107.43 147.688V147.703ZM117.039 150.156C115.547 150.156 114.812 149.484 114.812 147.93V143H113.625V141.875H114.812V139.68H116.219V141.875H117.766V143H116.219V147.922C116.219 148.789 116.602 149.031 117.328 149.031C117.492 149.031 117.648 149.008 117.766 149V150.102C117.594 150.125 117.305 150.156 117.039 150.156ZM119.992 140.5C119.523 140.5 119.141 140.117 119.141 139.648C119.141 139.172 119.523 138.797 119.992 138.797C120.469 138.797 120.844 139.172 120.844 139.648C120.844 140.117 120.469 140.5 119.992 140.5ZM119.312 150V141.875H120.672V150H119.312ZM124.812 150L121.82 141.875H123.25L125.492 148.555H125.523L127.773 141.875H129.188L126.203 150H124.812ZM131.023 140.5C130.555 140.5 130.172 140.117 130.172 139.648C130.172 139.172 130.555 138.797 131.023 138.797C131.5 138.797 131.875 139.172 131.875 139.648C131.875 140.117 131.5 140.5 131.023 140.5ZM130.344 150V141.875H131.703V150H130.344ZM136.609 150.156C134.531 150.156 133.156 148.5 133.156 145.938V145.93C133.156 143.367 134.547 141.719 136.586 141.719C137.734 141.719 138.68 142.297 139.188 143.234H139.219V138.727H140.578V150H139.219V148.625H139.188C138.68 149.57 137.773 150.156 136.609 150.156ZM136.875 148.953C138.25 148.953 139.227 147.758 139.227 145.938V145.93C139.227 144.117 138.242 142.922 136.875 142.922C135.438 142.922 134.547 144.078 134.547 145.93V145.938C134.547 147.805 135.438 148.953 136.875 148.953ZM144.789 150.156C143.172 150.156 142.086 149.18 142.086 147.703V147.688C142.086 146.305 143.164 145.438 145.031 145.328L147.359 145.195V144.516C147.359 143.523 146.711 142.922 145.578 142.922C144.531 142.922 143.875 143.422 143.719 144.148L143.703 144.219H142.391L142.398 144.133C142.516 142.797 143.68 141.719 145.594 141.719C147.516 141.719 148.719 142.758 148.719 144.383V150H147.359V148.68H147.328C146.852 149.57 145.875 150.156 144.789 150.156ZM143.477 147.703C143.477 148.484 144.117 148.977 145.094 148.977C146.375 148.977 147.359 148.094 147.359 146.914V146.25L145.188 146.383C144.102 146.445 143.477 146.93 143.477 147.688V147.703ZM153.5 150.156C151.422 150.156 150.047 148.5 150.047 145.938V145.93C150.047 143.367 151.438 141.719 153.477 141.719C154.625 141.719 155.57 142.297 156.078 143.234H156.109V138.727H157.469V150H156.109V148.625H156.078C155.57 149.57 154.664 150.156 153.5 150.156ZM153.766 148.953C155.141 148.953 156.117 147.758 156.117 145.938V145.93C156.117 144.117 155.133 142.922 153.766 142.922C152.328 142.922 151.438 144.078 151.438 145.93V145.938C151.438 147.805 152.328 148.953 153.766 148.953ZM162.648 150.156C160.312 150.156 158.906 148.523 158.906 145.969V145.961C158.906 143.445 160.344 141.719 162.562 141.719C164.781 141.719 166.133 143.367 166.133 145.805V146.305H160.281C160.312 147.977 161.234 148.953 162.68 148.953C163.711 148.953 164.438 148.438 164.672 147.742L164.695 147.672H166.031L166.016 147.75C165.75 149.094 164.422 150.156 162.648 150.156ZM162.555 142.922C161.375 142.922 160.453 143.727 160.305 145.242H164.75C164.617 143.664 163.742 142.922 162.555 142.922ZM170.391 150.156C168.477 150.156 167.32 149.18 167.156 147.727L167.148 147.656H168.508L168.523 147.734C168.688 148.547 169.289 149.023 170.398 149.023C171.5 149.023 172.156 148.562 172.156 147.828V147.82C172.156 147.234 171.852 146.906 170.93 146.68L169.641 146.367C168.109 146 167.367 145.289 167.367 144.117V144.109C167.367 142.711 168.594 141.719 170.352 141.719C172.133 141.719 173.266 142.758 173.367 144.117L173.375 144.219H172.078L172.07 144.164C171.961 143.375 171.359 142.852 170.352 142.852C169.367 142.852 168.758 143.328 168.758 144.047V144.055C168.758 144.609 169.125 144.992 170.023 145.211L171.312 145.523C172.953 145.922 173.547 146.57 173.547 147.727V147.734C173.547 149.156 172.203 150.156 170.391 150.156ZM175.797 150.109C175.297 150.109 174.906 149.719 174.906 149.219C174.906 148.719 175.297 148.328 175.797 148.328C176.297 148.328 176.688 148.719 176.688 149.219C176.688 149.719 176.297 150.109 175.797 150.109Z" fill="#999999"/>
<path d="M99.9141 76.1605H93L95.1043 80.5917L99.9141 85.9725L105.325 89.4541L113.141 92.6193L124.264 96.4174L136.89 97.367L148.012 98L157.933 97.367L166.65 94.8349L173.264 92.6193L180.479 88.5046L185.89 84.3899L191 76.1605L183.785 77.1101L177.172 76.1605L170.258 73.6284L164.546 70.1468L161.54 67.6147L156.73 63.1835L152.221 56.8532L148.613 50.2064L145.908 43.5596L143.804 36.9128L142 29L140.196 36.9128L138.092 43.5596L135.988 50.2064L132.08 56.8532L126.969 63.1835L121.258 67.6147L116.448 70.1468L110.736 73.6284L108.632 74.578L104.123 76.1605H99.9141Z" fill="white" stroke="white"/>
<path d="M99.9141 76.1605H93L95.1043 80.5917L99.9141 85.9725L105.325 89.4541L113.141 92.6193L124.264 96.4174L136.89 97.367L148.012 98L157.933 97.367L166.65 94.8349L173.264 92.6193L180.479 88.5046L185.89 84.3899L191 76.1605L183.785 77.1101L177.172 76.1605L170.258 73.6284L164.546 70.1468L161.54 67.6147L156.73 63.1835L152.221 56.8532L148.613 50.2064L145.908 43.5596L143.804 36.9128L142 29L140.196 36.9128L138.092 43.5596L135.988 50.2064L132.08 56.8532L126.969 63.1835L121.258 67.6147L116.448 70.1468L110.736 73.6284L108.632 74.578L104.123 76.1605H99.9141Z" fill="white" stroke="white"/>
<path d="M140.18 80.9003C140.656 78.4663 140.964 74.5395 143.485 73.4116C144.17 73.1052 144.426 72.5536 145.214 72.2768C145.895 72.0372 146.011 71.9648 146.787 71.9346C148.205 71.8793 149.532 71.427 151.015 71.7137" stroke="black" stroke-width="3" stroke-linecap="round"/>
<path d="M140.18 80.9003C140.656 78.4663 140.964 74.5395 143.485 73.4116C144.17 73.1052 144.426 72.5536 145.214 72.2768C145.895 72.0372 146.011 71.9648 146.787 71.9346C148.205 71.8793 149.532 71.427 151.015 71.7137" stroke="black" stroke-width="3" stroke-linecap="round"/>
<path d="M97.6556 76.709L96.6307 76.5138C95.2479 76.2505 93.9782 75.572 92.9906 74.5689C91.715 73.2731 91 71.5277 91 69.7095V63.9375V54.7344C91 48.611 91.5426 42.4997 92.6215 36.4721L92.7536 35.7344L94.5072 28.3125C95.4792 23.3754 96.9112 18.5401 98.7843 13.8699L99.1834 12.875L100.941 7.96645C101.323 6.89747 101.934 5.92463 102.731 5.11552L103.188 4.65084C104.366 3.45477 105.974 2.78125 107.652 2.78125C109.164 2.78125 110.625 3.32816 111.766 4.32106L112.934 5.33851C113.7 6.00508 114.364 6.78011 114.905 7.63896L118.765 13.7656L120.392 16.4101C122.105 19.1945 125.141 20.8906 128.41 20.8906H135.132H144.192H152.442C152.787 20.8906 153.131 20.9155 153.472 20.965L156.37 21.3855C157.968 21.6174 159.516 20.7193 160.107 19.2169C160.213 18.9483 160.352 18.694 160.52 18.4597L165.819 11.0938L168.66 6.10986C168.909 5.67264 169.191 5.25462 169.502 4.85927L170.834 3.16861C171.912 1.79925 173.559 1 175.302 1C176.722 1 178.091 1.53146 179.14 2.48985L179.477 2.79832C180.109 3.3756 180.627 4.06583 181.004 4.83344L184.542 12.02C186.278 15.5461 187.586 19.267 188.439 23.1035L191.246 35.7344L193 54.7344V63.4835C193 64.9694 192.84 66.4508 192.522 67.9023L191.537 72.4057C191.347 73.2738 190.916 74.0704 190.292 74.7036C189.407 75.6029 188.198 76.1094 186.936 76.1094H186.278H185.221C180.136 76.1094 175.106 75.0534 170.451 73.0084C167.955 71.9125 165.59 70.5422 163.398 68.9229L160.266 66.6094C156.586 63.6579 153.378 60.1616 150.754 56.2413L149.745 54.7344L147.407 49.9844L144.777 42.8594L143.023 37.2188L141.562 29.2031C140.784 34.5381 139.575 39.8015 137.949 44.9417L137.762 45.5312L137.696 45.6906C135.226 51.675 131.742 57.1889 127.399 61.9901L126.942 62.4949C125.002 64.6399 122.874 66.6078 120.585 68.3753L119.826 68.9612C117.76 70.556 115.54 71.9402 113.199 73.0933L110.887 74.2317C108.364 75.4741 105.646 76.2706 102.851 76.586L100.729 76.8256C99.7044 76.9412 98.6684 76.9019 97.6556 76.709Z" fill="#F4C091" stroke="#F4C091"/>
<path d="M97.6556 76.709L96.6307 76.5138C95.2479 76.2505 93.9782 75.572 92.9906 74.5689C91.715 73.2731 91 71.5277 91 69.7095V63.9375V54.7344C91 48.611 91.5426 42.4997 92.6215 36.4721L92.7536 35.7344L94.5072 28.3125C95.4792 23.3754 96.9112 18.5401 98.7843 13.8699L99.1834 12.875L100.941 7.96645C101.323 6.89747 101.934 5.92463 102.731 5.11552L103.188 4.65084C104.366 3.45477 105.974 2.78125 107.652 2.78125C109.164 2.78125 110.625 3.32816 111.766 4.32106L112.934 5.33851C113.7 6.00508 114.364 6.78011 114.905 7.63896L118.765 13.7656L120.392 16.4101C122.105 19.1945 125.141 20.8906 128.41 20.8906H135.132H144.192H152.442C152.787 20.8906 153.131 20.9155 153.472 20.965L156.37 21.3855C157.968 21.6174 159.516 20.7193 160.107 19.2169C160.213 18.9483 160.352 18.694 160.52 18.4597L165.819 11.0938L168.66 6.10986C168.909 5.67264 169.191 5.25462 169.502 4.85927L170.834 3.16861C171.912 1.79925 173.559 1 175.302 1C176.722 1 178.091 1.53146 179.14 2.48985L179.477 2.79832C180.109 3.3756 180.627 4.06583 181.004 4.83344L184.542 12.02C186.278 15.5461 187.586 19.267 188.439 23.1035L191.246 35.7344L193 54.7344V63.4835C193 64.9694 192.84 66.4508 192.522 67.9023L191.537 72.4057C191.347 73.2738 190.916 74.0704 190.292 74.7036C189.407 75.6029 188.198 76.1094 186.936 76.1094H186.278H185.221C180.136 76.1094 175.106 75.0534 170.451 73.0084C167.955 71.9125 165.59 70.5422 163.398 68.9229L160.266 66.6094C156.586 63.6579 153.378 60.1616 150.754 56.2413L149.745 54.7344L147.407 49.9844L144.777 42.8594L143.023 37.2188L141.562 29.2031C140.784 34.5381 139.575 39.8015 137.949 44.9417L137.762 45.5312L137.696 45.6906C135.226 51.675 131.742 57.1889 127.399 61.9901L126.942 62.4949C125.002 64.6399 122.874 66.6078 120.585 68.3753L119.826 68.9612C117.76 70.556 115.54 71.9402 113.199 73.0933L110.887 74.2317C108.364 75.4741 105.646 76.2706 102.851 76.586L100.729 76.8256C99.7044 76.9412 98.6684 76.9019 97.6556 76.709Z" fill="#F4C091" stroke="#F4C091"/>
<path d="M167.048 17.9022L165.358 20.7154C165.334 20.7541 165.315 20.795 165.3 20.8375C165.149 21.2607 165.443 21.7111 165.891 21.7434L169.194 21.9811L174.355 22.8868L179.516 23.7925L183.358 24.6384C184.201 24.8241 185 24.1822 185 23.3187C185 23.2322 184.992 23.1459 184.975 23.061L184.355 19.8679L183.065 15.9434L182.123 13.2997C181.892 12.6512 181.559 12.0438 181.137 11.5002L180.53 10.7195C179.687 9.63461 178.39 9 177.016 9C176.123 9 175.25 9.26874 174.512 9.77127L173.171 10.6839C172.458 11.1692 171.813 11.7473 171.252 12.4028L169.711 14.2062C168.723 15.3623 167.832 16.5986 167.048 17.9022Z" fill="#FFFDFE" stroke="#FFFDFE"/>
<path d="M167.048 17.9022L165.358 20.7154C165.334 20.7541 165.315 20.795 165.3 20.8375C165.149 21.2607 165.443 21.7111 165.891 21.7434L169.194 21.9811L174.355 22.8868L179.516 23.7925L183.358 24.6384C184.201 24.8241 185 24.1822 185 23.3187C185 23.2322 184.992 23.1459 184.975 23.061L184.355 19.8679L183.065 15.9434L182.123 13.2997C181.892 12.6512 181.559 12.0438 181.137 11.5002L180.53 10.7195C179.687 9.63461 178.39 9 177.016 9C176.123 9 175.25 9.26874 174.512 9.77127L173.171 10.6839C172.458 11.1692 171.813 11.7473 171.252 12.4028L169.711 14.2062C168.723 15.3623 167.832 16.5986 167.048 17.9022Z" fill="#FFFDFE" stroke="#FFFDFE"/>
<path d="M106.392 25.4527C104.829 25.8335 103.045 26.0664 101.152 25.9832C99.4404 25.9079 99.989 22.9446 100.559 20.9398C100.907 19.7196 101.276 18.5048 101.584 17.2742C101.77 16.5322 101.968 15.8719 102.253 15.219L102.261 15.2007C102.888 13.7597 103.521 12.3055 104.508 11.0824C106.111 9.09569 109.307 8.94305 111.389 10.4203C112.113 10.9342 112.799 11.5716 113.581 12.3312C114.156 12.8892 114.699 13.4743 115.198 14.1011C116.71 16.0009 119.868 20.2091 118.775 20.918C113.956 24.0436 111.972 24.0932 106.392 25.4527Z" fill="#FFFDFE" stroke="#FFFDFE"/>
<path d="M106.392 25.4527C104.829 25.8335 103.045 26.0664 101.152 25.9832C99.4404 25.9079 99.989 22.9446 100.559 20.9398C100.907 19.7196 101.276 18.5048 101.584 17.2742C101.77 16.5322 101.968 15.8719 102.253 15.219L102.261 15.2007C102.888 13.7597 103.521 12.3055 104.508 11.0824C106.111 9.09569 109.307 8.94305 111.389 10.4203C112.113 10.9342 112.799 11.5716 113.581 12.3312C114.156 12.8892 114.699 13.4743 115.198 14.1011C116.71 16.0009 119.868 20.2091 118.775 20.918C113.956 24.0436 111.972 24.0932 106.392 25.4527Z" fill="#FFFDFE" stroke="#FFFDFE"/>
<ellipse cx="115.5" cy="71" rx="5.5" ry="6" fill="#FF9469"/>
<ellipse cx="115.5" cy="71" rx="5.5" ry="6" fill="#FF9469"/>
<circle cx="169" cy="71" r="6" fill="#FF9469"/>
<circle cx="169" cy="71" r="6" fill="#FF9469"/>
<path d="M100.192 7.18672H101.959L104.021 2.76763L108.144 1L111.384 1.88382L114.329 4.53527L116.685 7.18672L119.63 11.3112L122.87 14.8465L126.993 18.3817L132 20.444L130.527 22.5062L122.87 20.444L116.685 13.3734L112.562 8.65975L106.671 7.18672L102.548 10.1328L100.192 13.3734L93.1233 69.3485L91.6507 72L89 64.9295V59.0373V55.2075V49.0207L89.8836 44.6017V41.361L91.6507 35.7635L93.1233 29.8714L94.0068 26.0415L94.5959 22.5062L95.774 18.3817L96.9521 13.3734L98.7192 9.54357L100.192 7.18672Z" fill="#F4C091" stroke="#F4C091"/>
<path d="M100.192 7.18672H101.959L104.021 2.76763L108.144 1L111.384 1.88382L114.329 4.53527L116.685 7.18672L119.63 11.3112L122.87 14.8465L126.993 18.3817L132 20.444L130.527 22.5062L122.87 20.444L116.685 13.3734L112.562 8.65975L106.671 7.18672L102.548 10.1328L100.192 13.3734L93.1233 69.3485L91.6507 72L89 64.9295V59.0373V55.2075V49.0207L89.8836 44.6017V41.361L91.6507 35.7635L93.1233 29.8714L94.0068 26.0415L94.5959 22.5062L95.774 18.3817L96.9521 13.3734L98.7192 9.54357L100.192 7.18672Z" fill="#F4C091" stroke="#F4C091"/>
<path d="M156.61 18.6557L163.814 16.1475L168.712 9.18033L174.475 6.67213L182.254 5L183.983 7.78689L186 11.4098L183.983 13.6393L182.254 11.4098L178.797 7.78689L174.475 8.34426L164.678 17.541L158.915 22L152 21.1639L156.61 18.6557Z" fill="#F4C091" stroke="#F4C091"/>
<path d="M156.61 18.6557L163.814 16.1475L168.712 9.18033L174.475 6.67213L182.254 5L183.983 7.78689L186 11.4098L183.983 13.6393L182.254 11.4098L178.797 7.78689L174.475 8.34426L164.678 17.541L158.915 22L152 21.1639L156.61 18.6557Z" fill="#F4C091" stroke="#F4C091"/>
<path d="M83.1644 51L101 55.5M80 64.5H101M83.1644 78L101 72.9" stroke="#8B8077" stroke-width="3"/>
<path d="M83.1644 51L101 55.5M80 64.5H101M83.1644 78L101 72.9" stroke="#8B8077" stroke-width="3"/>
<path d="M195 58.6711L192 62L191 42.0263L192.75 39L195 48.6842V58.6711Z" fill="#F4C091" stroke="#F4C091"/>
<path d="M195 58.6711L192 62L191 42.0263L192.75 39L195 48.6842V58.6711Z" fill="#F4C091" stroke="#F4C091"/>
<path d="M150.322 20.0429H150.645C155.148 20.0429 159.359 17.8148 161.893 14.092L167.099 6.65337L168.769 4.14305C170.075 2.17974 172.276 1 174.634 1C176.306 1 177.922 1.59417 179.196 2.67637L180.798 4.03808C182.801 5.74004 184.23 8.0187 184.89 10.5629L187.347 20.0429L191.107 35.5153L192.873 43.871C193.622 47.4157 194 51.0287 194 54.6516V55.1265C194 60.075 193.251 64.9949 191.778 69.7191L190.955 72.3557C189.717 76.3263 187.763 80.0366 185.188 83.303C182.039 87.2977 178.036 90.5366 173.472 92.782L172.282 93.3676C168.845 95.0585 165.182 96.2459 161.407 96.8931L159.449 97.2287C156.455 97.742 153.423 98 150.386 98H143.669H136.536C132.815 98 129.104 97.6422 125.452 96.9315C121.984 96.2567 118.586 95.2666 115.298 93.9737L110.405 92.0491L106.56 90.3041C102.627 88.5193 99.1927 85.7959 96.5586 82.3733C95.5712 81.0903 94.7041 79.7192 93.9681 78.2773L93.3897 77.144C90.5044 71.4905 89 65.2337 89 58.8865V55.7485C89 51.3945 89.4184 47.0507 90.2493 42.7768L90.4463 41.7638L92.7603 30.4571L95.0744 20.0429L96.16 16.0545C96.7834 13.7643 97.7049 11.5658 98.9008 9.51555L99.6789 8.18145C100.271 7.16651 100.984 6.22743 101.803 5.38494L104.611 2.49701C105.541 1.53996 106.819 1 108.154 1C109.584 1 110.944 1.61949 111.882 2.69844L115.322 6.65337L120.24 12.6043C123.31 17.249 128.556 20.0429 134.124 20.0429H141.645H150.322Z" stroke="black" stroke-width="2"/>
<path d="M150.322 20.0429H150.645C155.148 20.0429 159.359 17.8148 161.893 14.092L167.099 6.65337L168.769 4.14305C170.075 2.17974 172.276 1 174.634 1C176.306 1 177.922 1.59417 179.196 2.67637L180.798 4.03808C182.801 5.74004 184.23 8.0187 184.89 10.5629L187.347 20.0429L191.107 35.5153L192.873 43.871C193.622 47.4157 194 51.0287 194 54.6516V55.1265C194 60.075 193.251 64.9949 191.778 69.7191L190.955 72.3557C189.717 76.3263 187.763 80.0366 185.188 83.303C182.039 87.2977 178.036 90.5366 173.472 92.782L172.282 93.3676C168.845 95.0585 165.182 96.2459 161.407 96.8931L159.449 97.2287C156.455 97.742 153.423 98 150.386 98H143.669H136.536C132.815 98 129.104 97.6422 125.452 96.9315C121.984 96.2567 118.586 95.2666 115.298 93.9737L110.405 92.0491L106.56 90.3041C102.627 88.5193 99.1927 85.7959 96.5586 82.3733C95.5712 81.0903 94.7041 79.7192 93.9681 78.2773L93.3897 77.144C90.5044 71.4905 89 65.2337 89 58.8865V55.7485C89 51.3945 89.4184 47.0507 90.2493 42.7768L90.4463 41.7638L92.7603 30.4571L95.0744 20.0429L96.16 16.0545C96.7834 13.7643 97.7049 11.5658 98.9008 9.51555L99.6789 8.18145C100.271 7.16651 100.984 6.22743 101.803 5.38494L104.611 2.49701C105.541 1.53996 106.819 1 108.154 1C109.584 1 110.944 1.61949 111.882 2.69844L115.322 6.65337L120.24 12.6043C123.31 17.249 128.556 20.0429 134.124 20.0429H141.645H150.322Z" stroke="black" stroke-width="2"/>
<path d="M201.395 52L191.697 54.0449L182 56.0899M204 64.8539H182M201.395 78L182 71.573" stroke="#8B8077" stroke-width="3"/>
<path d="M201.395 52L191.697 54.0449L182 56.0899M204 64.8539H182M201.395 78L182 71.573" stroke="#8B8077" stroke-width="3"/>
<path d="M128.261 44.1858L127.923 44.6867C124.774 49.3548 117.854 49.2119 114.898 44.4178V44.4178" stroke="black" stroke-width="3"/>
<path d="M128.261 44.1858L127.923 44.6867C124.774 49.3548 117.854 49.2119 114.898 44.4178V44.4178" stroke="black" stroke-width="3"/>
<path d="M169.838 43.4476L169.46 43.9912C166.118 48.7966 158.985 48.725 155.737 43.8535V43.8535" stroke="black" stroke-width="3"/>
<path d="M169.838 43.4476L169.46 43.9912C166.118 48.7966 158.985 48.725 155.737 43.8535V43.8535" stroke="black" stroke-width="3"/>
<ellipse cx="121" cy="52" rx="6" ry="2" fill="#AFCEF2"/>
<ellipse cx="121" cy="52" rx="6" ry="2" fill="#AFCEF2"/>
<ellipse cx="163" cy="52" rx="6" ry="2" fill="#AFCEF2"/>
<ellipse cx="163" cy="52" rx="6" ry="2" fill="#AFCEF2"/>
<path d="M146 59H138C138.569 62.5135 139.432 63.5668 141.826 64C144.305 63.646 145.464 63.0115 146 59Z" fill="#FF9469" stroke="#FF9469"/>
<path d="M146 59H138C138.569 62.5135 139.432 63.5668 141.826 64C144.305 63.646 145.464 63.0115 146 59Z" fill="#FF9469" stroke="#FF9469"/>
</svg>
