<svg width="283" height="170" viewBox="0 0 283 170" fill="none" xmlns="http://www.w3.org/2000/svg">
<rect y="86" width="283" height="84" rx="10" fill="#F7F0EA"/>
<path d="M27.1328 123.109C26.6875 123.109 26.4453 122.93 26.2656 122.461L22.4844 112.617C22.4219 112.461 22.3984 112.336 22.3984 112.227C22.3984 111.859 22.6797 111.617 23.1016 111.617C23.4375 111.617 23.6484 111.773 23.7734 112.117L27.1094 121.289H27.1562L30.4922 112.117C30.625 111.758 30.8125 111.617 31.1562 111.617C31.5703 111.617 31.8672 111.875 31.8672 112.227C31.8672 112.336 31.8359 112.469 31.7812 112.617L27.9922 122.469C27.8125 122.938 27.5781 123.109 27.1328 123.109ZM35.3359 123.141C33.0859 123.141 31.5703 121.523 31.5703 118.938C31.5703 116.344 33.0859 114.734 35.3359 114.734C37.5781 114.734 39.0938 116.344 39.0938 118.938C39.0938 121.523 37.5781 123.141 35.3359 123.141ZM35.3359 121.945C36.7734 121.945 37.7109 120.852 37.7109 118.938C37.7109 117.023 36.7734 115.93 35.3359 115.93C33.8984 115.93 32.9531 117.023 32.9531 118.938C32.9531 120.852 33.8984 121.945 35.3359 121.945ZM43.8203 123.141C41.5703 123.141 40.0703 121.523 40.0703 118.953C40.0703 116.398 41.5547 114.734 43.8047 114.734C45.3359 114.734 46.6719 115.602 46.9844 116.727C47.0156 116.828 47.0312 116.93 47.0312 117.016C47.0312 117.375 46.8047 117.609 46.4531 117.609C46.1562 117.609 45.9922 117.484 45.8047 117.133C45.375 116.328 44.7578 115.93 43.8203 115.93C42.4062 115.93 41.4531 117.117 41.4531 118.938C41.4531 120.805 42.4219 121.945 43.8203 121.945C44.7969 121.945 45.3906 121.523 45.8125 120.742C46.0078 120.375 46.1562 120.266 46.4531 120.266C46.8047 120.266 47.0391 120.508 47.0391 120.859C47.0391 120.961 47.0156 121.078 46.9766 121.203C46.5859 122.328 45.2969 123.141 43.8203 123.141ZM50 113.875C49.7344 113.875 49.5312 113.664 49.5312 113.43C49.5312 113.273 49.5859 113.188 49.6953 113.062L51.0938 111.523C51.3203 111.273 51.4922 111.188 51.7812 111.188C52.0391 111.188 52.2109 111.273 52.4375 111.523L53.8359 113.062C53.9453 113.188 54 113.273 54 113.43C54 113.664 53.7969 113.875 53.5312 113.875C53.3359 113.875 53.2266 113.805 53.0391 113.594L51.7891 112.203H51.7422L50.4922 113.594C50.3047 113.805 50.1953 113.875 50 113.875ZM51.8906 123.141C49.4922 123.141 48.0859 121.594 48.0859 118.969C48.0859 116.406 49.5312 114.734 51.7734 114.734C53.8516 114.734 55.3125 116.289 55.3125 118.516C55.3125 119.008 55.0312 119.305 54.5625 119.305H49.4844C49.4844 120.945 50.3828 121.961 51.8359 121.961C52.8047 121.961 53.3984 121.617 54.0312 120.695C54.1719 120.5 54.3281 120.422 54.5391 120.422C54.8984 120.422 55.1406 120.656 55.1406 121.016C55.1406 121.125 55.1016 121.266 55.0391 121.414C54.5156 122.516 53.375 123.141 51.8906 123.141ZM49.4922 118.242H53.9062C53.875 116.836 53.0078 115.914 51.75 115.914C50.4844 115.914 49.5781 116.844 49.4922 118.242ZM62.3359 123.141C60.7188 123.141 59.6328 122.164 59.6328 120.703C59.6328 119.312 60.7031 118.438 62.5781 118.328L64.9141 118.195V117.516C64.9141 116.523 64.2578 115.93 63.1328 115.93C62.25 115.93 61.6484 116.25 61.1953 117.055C61.0703 117.281 60.8906 117.383 60.6328 117.383C60.2812 117.383 60.0312 117.141 60.0312 116.773C60.0312 116.602 60.0859 116.406 60.1953 116.211C60.6562 115.32 61.8438 114.734 63.1641 114.734C65.0703 114.734 66.2734 115.766 66.2734 117.383V122.453C66.2734 122.859 66.0078 123.141 65.6328 123.141C65.25 123.141 64.9844 122.859 64.9844 122.453V121.602H64.9531C64.4688 122.531 63.4297 123.141 62.3359 123.141ZM62.6406 121.984C63.9219 121.984 64.9141 121.086 64.9141 119.914V119.25L62.7344 119.383C61.6406 119.453 61.0156 119.938 61.0156 120.703C61.0156 121.477 61.6641 121.984 62.6406 121.984ZM68.75 113.508C68.2891 113.508 67.9062 113.125 67.9062 112.664C67.9062 112.195 68.2891 111.82 68.75 111.82C69.2188 111.82 69.6016 112.195 69.6016 112.664C69.6016 113.125 69.2188 113.508 68.75 113.508ZM68.75 123.141C68.3516 123.141 68.0703 122.844 68.0703 122.414V115.461C68.0703 115.031 68.3516 114.734 68.75 114.734C69.1484 114.734 69.4297 115.031 69.4297 115.461V122.414C69.4297 122.844 69.1484 123.141 68.75 123.141ZM71.9453 123.141C71.5469 123.141 71.2656 122.844 71.2656 122.414V115.422C71.2656 115.016 71.5312 114.734 71.9062 114.734C72.2812 114.734 72.5469 115.016 72.5469 115.422V116.172H72.5781C73.0312 115.297 73.8984 114.734 75.1562 114.734C76.9375 114.734 77.9688 115.883 77.9688 117.727V122.414C77.9688 122.844 77.6875 123.141 77.2891 123.141C76.8906 123.141 76.6094 122.844 76.6094 122.414V117.969C76.6094 116.656 75.9922 115.938 74.7422 115.938C73.4609 115.938 72.625 116.844 72.625 118.219V122.414C72.625 122.844 72.3438 123.141 71.9453 123.141ZM82.7812 123.141C80.7109 123.141 79.3047 121.484 79.3047 118.938C79.3047 116.391 80.7031 114.734 82.75 114.734C83.9141 114.734 84.8516 115.305 85.3359 116.195H85.3672V112.312C85.3672 111.883 85.6484 111.586 86.0469 111.586C86.4453 111.586 86.7266 111.883 86.7266 112.312V122.477C86.7266 122.867 86.4531 123.141 86.0625 123.141C85.6797 123.141 85.3672 122.875 85.3672 122.477V121.547H85.3438C84.8984 122.516 84.0547 123.141 82.7812 123.141ZM83.0391 121.945C84.4375 121.945 85.375 120.758 85.375 118.938C85.375 117.125 84.4375 115.93 83.0391 115.93C81.6016 115.93 80.6953 117.102 80.6953 118.938C80.6953 120.781 81.6016 121.945 83.0391 121.945ZM90.9297 123.141C89.3125 123.141 88.2266 122.164 88.2266 120.703C88.2266 119.312 89.2969 118.438 91.1719 118.328L93.5078 118.195V117.516C93.5078 116.523 92.8516 115.93 91.7266 115.93C90.8438 115.93 90.2422 116.25 89.7891 117.055C89.6641 117.281 89.4844 117.383 89.2266 117.383C88.875 117.383 88.625 117.141 88.625 116.773C88.625 116.602 88.6797 116.406 88.7891 116.211C89.25 115.32 90.4375 114.734 91.7578 114.734C93.6641 114.734 94.8672 115.766 94.8672 117.383V122.453C94.8672 122.859 94.6016 123.141 94.2266 123.141C93.8438 123.141 93.5781 122.859 93.5781 122.453V121.602H93.5469C93.0625 122.531 92.0234 123.141 90.9297 123.141ZM91.2344 121.984C92.5156 121.984 93.5078 121.086 93.5078 119.914V119.25L91.3281 119.383C90.2344 119.453 89.6094 119.938 89.6094 120.703C89.6094 121.477 90.2578 121.984 91.2344 121.984ZM100.555 123.141C100.156 123.141 99.875 122.844 99.875 122.414V115.422C99.875 115.016 100.141 114.734 100.516 114.734C100.891 114.734 101.156 115.016 101.156 115.422V116.172H101.188C101.641 115.297 102.508 114.734 103.766 114.734C105.547 114.734 106.578 115.883 106.578 117.727V122.414C106.578 122.844 106.297 123.141 105.898 123.141C105.5 123.141 105.219 122.844 105.219 122.414V117.969C105.219 116.656 104.602 115.938 103.352 115.938C102.07 115.938 101.234 116.844 101.234 118.219V122.414C101.234 122.844 100.953 123.141 100.555 123.141ZM109.414 113.758C109.133 113.758 108.961 113.57 108.961 113.258C108.961 112.203 109.602 111.57 110.461 111.57C111.539 111.57 111.891 112.758 112.477 112.758C112.766 112.758 112.93 112.516 113.008 111.977C113.055 111.609 113.188 111.453 113.469 111.453C113.742 111.453 113.922 111.648 113.922 111.945C113.922 112.961 113.273 113.641 112.469 113.641C111.438 113.641 111.047 112.453 110.453 112.453C110.094 112.453 109.938 112.688 109.875 113.281C109.844 113.602 109.695 113.758 109.414 113.758ZM110.68 123.141C109.062 123.141 107.977 122.164 107.977 120.703C107.977 119.312 109.047 118.438 110.922 118.328L113.258 118.195V117.516C113.258 116.523 112.602 115.93 111.477 115.93C110.594 115.93 109.992 116.25 109.539 117.055C109.414 117.281 109.234 117.383 108.977 117.383C108.625 117.383 108.375 117.141 108.375 116.773C108.375 116.602 108.43 116.406 108.539 116.211C109 115.32 110.188 114.734 111.508 114.734C113.414 114.734 114.617 115.766 114.617 117.383V122.453C114.617 122.859 114.352 123.141 113.977 123.141C113.594 123.141 113.328 122.859 113.328 122.453V121.602H113.297C112.812 122.531 111.773 123.141 110.68 123.141ZM110.984 121.984C112.266 121.984 113.258 121.086 113.258 119.914V119.25L111.078 119.383C109.984 119.453 109.359 119.938 109.359 120.703C109.359 121.477 110.008 121.984 110.984 121.984ZM119.711 123.141C117.461 123.141 115.945 121.523 115.945 118.938C115.945 116.344 117.461 114.734 119.711 114.734C121.953 114.734 123.469 116.344 123.469 118.938C123.469 121.523 121.953 123.141 119.711 123.141ZM119.711 121.945C121.148 121.945 122.086 120.852 122.086 118.938C122.086 117.023 121.148 115.93 119.711 115.93C118.273 115.93 117.328 117.023 117.328 118.938C117.328 120.852 118.273 121.945 119.711 121.945ZM128.805 123.141C128.406 123.141 128.125 122.844 128.125 122.414V115.422C128.125 115.016 128.391 114.734 128.766 114.734C129.141 114.734 129.406 115.016 129.406 115.422V116.203H129.438C129.672 115.359 130.469 114.734 131.281 114.734C131.578 114.734 131.789 114.805 131.922 114.93C132.039 115.039 132.094 115.195 132.094 115.383C132.094 115.594 132.023 115.75 131.883 115.859C131.742 115.977 131.531 116.031 131.234 116.031C130.008 116.031 129.484 116.914 129.484 117.953V122.414C129.484 122.844 129.203 123.141 128.805 123.141ZM136.078 123.141C133.68 123.141 132.273 121.594 132.273 118.969C132.273 116.406 133.719 114.734 135.961 114.734C138.039 114.734 139.5 116.289 139.5 118.516C139.5 119.008 139.219 119.305 138.75 119.305H133.672C133.672 120.945 134.57 121.961 136.023 121.961C136.992 121.961 137.586 121.617 138.219 120.695C138.359 120.5 138.516 120.422 138.727 120.422C139.086 120.422 139.328 120.656 139.328 121.016C139.328 121.125 139.289 121.266 139.227 121.414C138.703 122.516 137.562 123.141 136.078 123.141ZM133.68 118.242H138.094C138.062 116.836 137.195 115.914 135.938 115.914C134.672 115.914 133.766 116.844 133.68 118.242ZM144.156 126.062C142.797 126.047 141.664 125.508 141.094 124.609C140.984 124.438 140.938 124.281 140.938 124.102C140.938 123.758 141.188 123.516 141.547 123.516C141.773 123.516 141.906 123.594 142.117 123.828C142.812 124.594 143.383 124.891 144.211 124.906C145.664 124.93 146.547 124.094 146.547 122.883V121.602H146.516C146.016 122.484 145.047 123.062 143.906 123.062C141.836 123.062 140.477 121.43 140.477 118.906C140.477 116.359 141.836 114.734 143.938 114.734C145.086 114.734 145.984 115.297 146.523 116.211H146.547V115.438C146.547 115.016 146.836 114.734 147.227 114.734C147.617 114.734 147.906 115.016 147.906 115.438V122.836C147.906 124.773 146.469 126.086 144.156 126.062ZM144.18 121.867C145.594 121.867 146.547 120.695 146.547 118.906C146.547 117.117 145.594 115.93 144.18 115.93C142.781 115.93 141.867 117.086 141.867 118.906C141.867 120.727 142.781 121.867 144.18 121.867ZM150.422 113.508C149.961 113.508 149.578 113.125 149.578 112.664C149.578 112.195 149.961 111.82 150.422 111.82C150.891 111.82 151.273 112.195 151.273 112.664C151.273 113.125 150.891 113.508 150.422 113.508ZM150.422 123.141C150.023 123.141 149.742 122.844 149.742 122.414V115.461C149.742 115.031 150.023 114.734 150.422 114.734C150.82 114.734 151.102 115.031 151.102 115.461V122.414C151.102 122.844 150.82 123.141 150.422 123.141ZM155.758 123.141C154.312 123.141 153.18 122.492 152.789 121.477C152.742 121.359 152.727 121.258 152.727 121.156C152.727 120.797 152.992 120.594 153.344 120.594C153.586 120.594 153.781 120.719 153.938 121C154.344 121.711 154.828 122.031 155.867 122.031C156.906 122.031 157.609 121.578 157.609 120.82C157.609 120.234 157.273 119.922 156.359 119.695L155.117 119.383C153.547 118.992 152.789 118.25 152.789 117.109C152.789 115.695 154.031 114.734 155.867 114.734C157.203 114.734 158.391 115.484 158.602 116.461C158.617 116.539 158.625 116.602 158.625 116.664C158.625 116.984 158.422 117.195 158.094 117.195C157.828 117.195 157.641 117.109 157.492 116.828C157.141 116.148 156.617 115.852 155.789 115.852C154.812 115.852 154.133 116.344 154.133 117.039C154.133 117.602 154.57 117.992 155.461 118.211L156.672 118.508C158.367 118.922 158.992 119.516 158.992 120.711C158.992 122.164 157.688 123.141 155.758 123.141ZM160.828 121.125V115.992H160.148C159.758 115.992 159.539 115.789 159.539 115.43C159.539 115.078 159.758 114.875 160.148 114.875H160.828V113.484C160.828 113.055 161.109 112.758 161.508 112.758C161.906 112.758 162.188 113.055 162.188 113.484V114.875H163.234C163.625 114.875 163.844 115.078 163.844 115.43C163.844 115.789 163.625 115.992 163.234 115.992H162.188V120.828C162.188 121.516 162.43 121.844 163.109 121.891L163.227 121.898C163.672 121.93 163.875 122.109 163.875 122.43C163.875 122.844 163.641 123.062 162.883 123.062H162.797C161.484 123.062 160.828 122.422 160.828 121.125ZM165.898 123.141C165.5 123.141 165.219 122.844 165.219 122.414V115.422C165.219 115.016 165.484 114.734 165.859 114.734C166.234 114.734 166.5 115.016 166.5 115.422V116.203H166.531C166.766 115.359 167.562 114.734 168.375 114.734C168.672 114.734 168.883 114.805 169.016 114.93C169.133 115.039 169.188 115.195 169.188 115.383C169.188 115.594 169.117 115.75 168.977 115.859C168.836 115.977 168.625 116.031 168.328 116.031C167.102 116.031 166.578 116.914 166.578 117.953V122.414C166.578 122.844 166.297 123.141 165.898 123.141ZM173.133 123.141C170.883 123.141 169.367 121.523 169.367 118.938C169.367 116.344 170.883 114.734 173.133 114.734C175.375 114.734 176.891 116.344 176.891 118.938C176.891 121.523 175.375 123.141 173.133 123.141ZM173.133 121.945C174.57 121.945 175.508 120.852 175.508 118.938C175.508 117.023 174.57 115.93 173.133 115.93C171.695 115.93 170.75 117.023 170.75 118.938C170.75 120.852 171.695 121.945 173.133 121.945ZM181.039 123.141C179.266 123.141 178.227 121.992 178.227 120.148V115.461C178.227 115.031 178.508 114.734 178.906 114.734C179.305 114.734 179.586 115.031 179.586 115.461V119.906C179.586 121.227 180.203 121.938 181.461 121.938C182.781 121.938 183.578 121.031 183.578 119.648V115.461C183.578 115.031 183.859 114.734 184.258 114.734C184.656 114.734 184.938 115.031 184.938 115.461V122.453C184.938 122.844 184.688 123.141 184.297 123.141C183.906 123.141 183.648 122.844 183.648 122.453V121.68H183.617C183.133 122.617 182.289 123.141 181.039 123.141ZM195.633 123.141C194.016 123.141 192.93 122.164 192.93 120.703C192.93 119.312 194 118.438 195.875 118.328L198.211 118.195V117.516C198.211 116.523 197.555 115.93 196.43 115.93C195.547 115.93 194.945 116.25 194.492 117.055C194.367 117.281 194.188 117.383 193.93 117.383C193.578 117.383 193.328 117.141 193.328 116.773C193.328 116.602 193.383 116.406 193.492 116.211C193.953 115.32 195.141 114.734 196.461 114.734C198.367 114.734 199.57 115.766 199.57 117.383V122.453C199.57 122.859 199.305 123.141 198.93 123.141C198.547 123.141 198.281 122.859 198.281 122.453V121.602H198.25C197.766 122.531 196.727 123.141 195.633 123.141ZM195.938 121.984C197.219 121.984 198.211 121.086 198.211 119.914V119.25L196.031 119.383C194.938 119.453 194.312 119.938 194.312 120.703C194.312 121.477 194.961 121.984 195.938 121.984ZM201.734 121.125V115.992H201.055C200.664 115.992 200.445 115.789 200.445 115.43C200.445 115.078 200.664 114.875 201.055 114.875H201.734V113.484C201.734 113.055 202.016 112.758 202.414 112.758C202.812 112.758 203.094 113.055 203.094 113.484V114.875H204.141C204.531 114.875 204.75 115.078 204.75 115.43C204.75 115.789 204.531 115.992 204.141 115.992H203.094V120.828C203.094 121.516 203.336 121.844 204.016 121.891L204.133 121.898C204.578 121.93 204.781 122.109 204.781 122.43C204.781 122.844 204.547 123.062 203.789 123.062H203.703C202.391 123.062 201.734 122.422 201.734 121.125ZM206.875 113.508C206.414 113.508 206.031 113.125 206.031 112.664C206.031 112.195 206.414 111.82 206.875 111.82C207.344 111.82 207.727 112.195 207.727 112.664C207.727 113.125 207.344 113.508 206.875 113.508ZM206.875 123.141C206.477 123.141 206.195 122.844 206.195 122.414V115.461C206.195 115.031 206.477 114.734 206.875 114.734C207.273 114.734 207.555 115.031 207.555 115.461V122.414C207.555 122.844 207.273 123.141 206.875 123.141ZM212.367 123.141C211.922 123.141 211.672 122.945 211.477 122.453L208.891 115.711C208.844 115.594 208.82 115.477 208.82 115.359C208.82 114.984 209.094 114.734 209.5 114.734C209.805 114.734 210.008 114.898 210.133 115.25L212.359 121.555H212.391L214.625 115.25C214.75 114.898 214.953 114.734 215.25 114.734C215.656 114.734 215.922 114.984 215.922 115.359C215.922 115.477 215.898 115.594 215.852 115.711L213.273 122.453C213.094 122.922 212.805 123.141 212.367 123.141ZM217.875 113.508C217.414 113.508 217.031 113.125 217.031 112.664C217.031 112.195 217.414 111.82 217.875 111.82C218.344 111.82 218.727 112.195 218.727 112.664C218.727 113.125 218.344 113.508 217.875 113.508ZM217.875 123.141C217.477 123.141 217.195 122.844 217.195 122.414V115.461C217.195 115.031 217.477 114.734 217.875 114.734C218.273 114.734 218.555 115.031 218.555 115.461V122.414C218.555 122.844 218.273 123.141 217.875 123.141ZM223.469 123.141C221.398 123.141 219.992 121.484 219.992 118.938C219.992 116.391 221.391 114.734 223.438 114.734C224.602 114.734 225.539 115.305 226.023 116.195H226.055V112.312C226.055 111.883 226.336 111.586 226.734 111.586C227.133 111.586 227.414 111.883 227.414 112.312V122.477C227.414 122.867 227.141 123.141 226.75 123.141C226.367 123.141 226.055 122.875 226.055 122.477V121.547H226.031C225.586 122.516 224.742 123.141 223.469 123.141ZM223.727 121.945C225.125 121.945 226.062 120.758 226.062 118.938C226.062 117.125 225.125 115.93 223.727 115.93C222.289 115.93 221.383 117.102 221.383 118.938C221.383 120.781 222.289 121.945 223.727 121.945ZM231.617 123.141C230 123.141 228.914 122.164 228.914 120.703C228.914 119.312 229.984 118.438 231.859 118.328L234.195 118.195V117.516C234.195 116.523 233.539 115.93 232.414 115.93C231.531 115.93 230.93 116.25 230.477 117.055C230.352 117.281 230.172 117.383 229.914 117.383C229.562 117.383 229.312 117.141 229.312 116.773C229.312 116.602 229.367 116.406 229.477 116.211C229.938 115.32 231.125 114.734 232.445 114.734C234.352 114.734 235.555 115.766 235.555 117.383V122.453C235.555 122.859 235.289 123.141 234.914 123.141C234.531 123.141 234.266 122.859 234.266 122.453V121.602H234.234C233.75 122.531 232.711 123.141 231.617 123.141ZM231.922 121.984C233.203 121.984 234.195 121.086 234.195 119.914V119.25L232.016 119.383C230.922 119.453 230.297 119.938 230.297 120.703C230.297 121.477 230.945 121.984 231.922 121.984ZM240.359 123.141C238.289 123.141 236.883 121.484 236.883 118.938C236.883 116.391 238.281 114.734 240.328 114.734C241.492 114.734 242.43 115.305 242.914 116.195H242.945V112.312C242.945 111.883 243.227 111.586 243.625 111.586C244.023 111.586 244.305 111.883 244.305 112.312V122.477C244.305 122.867 244.031 123.141 243.641 123.141C243.258 123.141 242.945 122.875 242.945 122.477V121.547H242.922C242.477 122.516 241.633 123.141 240.359 123.141ZM240.617 121.945C242.016 121.945 242.953 120.758 242.953 118.938C242.953 117.125 242.016 115.93 240.617 115.93C239.18 115.93 238.273 117.102 238.273 118.938C238.273 120.781 239.18 121.945 240.617 121.945ZM249.547 123.141C247.148 123.141 245.742 121.594 245.742 118.969C245.742 116.406 247.188 114.734 249.43 114.734C251.508 114.734 252.969 116.289 252.969 118.516C252.969 119.008 252.688 119.305 252.219 119.305H247.141C247.141 120.945 248.039 121.961 249.492 121.961C250.461 121.961 251.055 121.617 251.688 120.695C251.828 120.5 251.984 120.422 252.195 120.422C252.555 120.422 252.797 120.656 252.797 121.016C252.797 121.125 252.758 121.266 252.695 121.414C252.172 122.516 251.031 123.141 249.547 123.141ZM247.148 118.242H251.562C251.531 116.836 250.664 115.914 249.406 115.914C248.141 115.914 247.234 116.844 247.148 118.242ZM257.164 123.141C255.719 123.141 254.586 122.492 254.195 121.477C254.148 121.359 254.133 121.258 254.133 121.156C254.133 120.797 254.398 120.594 254.75 120.594C254.992 120.594 255.188 120.719 255.344 121C255.75 121.711 256.234 122.031 257.273 122.031C258.312 122.031 259.016 121.578 259.016 120.82C259.016 120.234 258.68 119.922 257.766 119.695L256.523 119.383C254.953 118.992 254.195 118.25 254.195 117.109C254.195 115.695 255.438 114.734 257.273 114.734C258.609 114.734 259.797 115.484 260.008 116.461C260.023 116.539 260.031 116.602 260.031 116.664C260.031 116.984 259.828 117.195 259.5 117.195C259.234 117.195 259.047 117.109 258.898 116.828C258.547 116.148 258.023 115.852 257.195 115.852C256.219 115.852 255.539 116.344 255.539 117.039C255.539 117.602 255.977 117.992 256.867 118.211L258.078 118.508C259.773 118.922 260.398 119.516 260.398 120.711C260.398 122.164 259.094 123.141 257.164 123.141ZM22.3594 145.141C20.2891 145.141 18.8828 143.484 18.8828 140.938C18.8828 138.391 20.2812 136.734 22.3281 136.734C23.4922 136.734 24.4297 137.305 24.9141 138.195H24.9453V134.312C24.9453 133.883 25.2266 133.586 25.625 133.586C26.0234 133.586 26.3047 133.883 26.3047 134.312V144.477C26.3047 144.867 26.0312 145.141 25.6406 145.141C25.2578 145.141 24.9453 144.875 24.9453 144.477V143.547H24.9219C24.4766 144.516 23.6328 145.141 22.3594 145.141ZM22.6172 143.945C24.0156 143.945 24.9531 142.758 24.9531 140.938C24.9531 139.125 24.0156 137.93 22.6172 137.93C21.1797 137.93 20.2734 139.102 20.2734 140.938C20.2734 142.781 21.1797 143.945 22.6172 143.945ZM31.5469 145.141C29.1484 145.141 27.7422 143.594 27.7422 140.969C27.7422 138.406 29.1875 136.734 31.4297 136.734C33.5078 136.734 34.9688 138.289 34.9688 140.516C34.9688 141.008 34.6875 141.305 34.2188 141.305H29.1406C29.1406 142.945 30.0391 143.961 31.4922 143.961C32.4609 143.961 33.0547 143.617 33.6875 142.695C33.8281 142.5 33.9844 142.422 34.1953 142.422C34.5547 142.422 34.7969 142.656 34.7969 143.016C34.7969 143.125 34.7578 143.266 34.6953 143.414C34.1719 144.516 33.0312 145.141 31.5469 145.141ZM29.1484 140.242H33.5625C33.5312 138.836 32.6641 137.914 31.4062 137.914C30.1406 137.914 29.2344 138.844 29.1484 140.242ZM43.0312 145.141C40.6328 145.141 39.2266 143.594 39.2266 140.969C39.2266 138.406 40.6719 136.734 42.9141 136.734C44.9922 136.734 46.4531 138.289 46.4531 140.516C46.4531 141.008 46.1719 141.305 45.7031 141.305H40.625C40.625 142.945 41.5234 143.961 42.9766 143.961C43.9453 143.961 44.5391 143.617 45.1719 142.695C45.3125 142.5 45.4688 142.422 45.6797 142.422C46.0391 142.422 46.2812 142.656 46.2812 143.016C46.2812 143.125 46.2422 143.266 46.1797 143.414C45.6562 144.516 44.5156 145.141 43.0312 145.141ZM40.6328 140.242H45.0469C45.0156 138.836 44.1484 137.914 42.8906 137.914C41.625 137.914 40.7188 138.844 40.6328 140.242ZM47.9766 145.141C47.6094 145.141 47.3359 144.891 47.3359 144.555C47.3359 144.422 47.3828 144.289 47.4688 144.164L49.8125 140.938L47.5156 137.727C47.4219 137.594 47.375 137.461 47.375 137.312C47.375 136.984 47.6641 136.734 48.0391 136.734C48.2734 136.734 48.4062 136.812 48.5547 137.023L50.5625 139.922H50.5938L52.5547 137.055C52.7109 136.828 52.8594 136.734 53.0781 136.734C53.4609 136.734 53.75 136.984 53.75 137.312C53.75 137.453 53.7031 137.594 53.6172 137.711L51.2969 140.883L53.5859 144.141C53.6797 144.281 53.7266 144.414 53.7266 144.547C53.7266 144.883 53.4453 145.141 53.0781 145.141C52.8594 145.141 52.6797 145.055 52.5625 144.875L50.5469 141.906H50.5156L48.4844 144.875C48.3594 145.055 48.1953 145.141 47.9766 145.141ZM55.8672 147.867C55.4688 147.867 55.1875 147.57 55.1875 147.141V137.422C55.1875 137.016 55.4531 136.734 55.8359 136.734C56.2109 136.734 56.4766 137.016 56.4766 137.422V138.25H56.5078C57.0078 137.336 57.9531 136.734 59.1328 136.734C61.2031 136.734 62.6094 138.391 62.6094 140.938C62.6094 143.484 61.2109 145.141 59.1641 145.141C58 145.141 57.0625 144.57 56.5781 143.68H56.5469V147.141C56.5469 147.57 56.2656 147.867 55.8672 147.867ZM58.8672 143.945C60.3125 143.945 61.2188 142.781 61.2188 140.938C61.2188 139.102 60.3125 137.93 58.8672 137.93C57.4766 137.93 56.5391 139.133 56.5391 140.938C56.5391 142.75 57.4766 143.945 58.8672 143.945ZM64.6641 145.141C64.2656 145.141 63.9844 144.844 63.9844 144.414V137.422C63.9844 137.016 64.25 136.734 64.625 136.734C65 136.734 65.2656 137.016 65.2656 137.422V138.203H65.2969C65.5312 137.359 66.3281 136.734 67.1406 136.734C67.4375 136.734 67.6484 136.805 67.7812 136.93C67.8984 137.039 67.9531 137.195 67.9531 137.383C67.9531 137.594 67.8828 137.75 67.7422 137.859C67.6016 137.977 67.3906 138.031 67.0938 138.031C65.8672 138.031 65.3438 138.914 65.3438 139.953V144.414C65.3438 144.844 65.0625 145.141 64.6641 145.141ZM71.9375 145.141C69.5391 145.141 68.1328 143.594 68.1328 140.969C68.1328 138.406 69.5781 136.734 71.8203 136.734C73.8984 136.734 75.3594 138.289 75.3594 140.516C75.3594 141.008 75.0781 141.305 74.6094 141.305H69.5312C69.5312 142.945 70.4297 143.961 71.8828 143.961C72.8516 143.961 73.4453 143.617 74.0781 142.695C74.2188 142.5 74.375 142.422 74.5859 142.422C74.9453 142.422 75.1875 142.656 75.1875 143.016C75.1875 143.125 75.1484 143.266 75.0859 143.414C74.5625 144.516 73.4219 145.141 71.9375 145.141ZM69.5391 140.242H73.9531C73.9219 138.836 73.0547 137.914 71.7969 137.914C70.5312 137.914 69.625 138.844 69.5391 140.242ZM79.5547 145.141C78.1094 145.141 76.9766 144.492 76.5859 143.477C76.5391 143.359 76.5234 143.258 76.5234 143.156C76.5234 142.797 76.7891 142.594 77.1406 142.594C77.3828 142.594 77.5781 142.719 77.7344 143C78.1406 143.711 78.625 144.031 79.6641 144.031C80.7031 144.031 81.4062 143.578 81.4062 142.82C81.4062 142.234 81.0703 141.922 80.1562 141.695L78.9141 141.383C77.3438 140.992 76.5859 140.25 76.5859 139.109C76.5859 137.695 77.8281 136.734 79.6641 136.734C81 136.734 82.1875 137.484 82.3984 138.461C82.4141 138.539 82.4219 138.602 82.4219 138.664C82.4219 138.984 82.2188 139.195 81.8906 139.195C81.625 139.195 81.4375 139.109 81.2891 138.828C80.9375 138.148 80.4141 137.852 79.5859 137.852C78.6094 137.852 77.9297 138.344 77.9297 139.039C77.9297 139.602 78.3672 139.992 79.2578 140.211L80.4688 140.508C82.1641 140.922 82.7891 141.516 82.7891 142.711C82.7891 144.164 81.4844 145.141 79.5547 145.141ZM87.0078 145.141C85.5625 145.141 84.4297 144.492 84.0391 143.477C83.9922 143.359 83.9766 143.258 83.9766 143.156C83.9766 142.797 84.2422 142.594 84.5938 142.594C84.8359 142.594 85.0312 142.719 85.1875 143C85.5938 143.711 86.0781 144.031 87.1172 144.031C88.1562 144.031 88.8594 143.578 88.8594 142.82C88.8594 142.234 88.5234 141.922 87.6094 141.695L86.3672 141.383C84.7969 140.992 84.0391 140.25 84.0391 139.109C84.0391 137.695 85.2812 136.734 87.1172 136.734C88.4531 136.734 89.6406 137.484 89.8516 138.461C89.8672 138.539 89.875 138.602 89.875 138.664C89.875 138.984 89.6719 139.195 89.3438 139.195C89.0781 139.195 88.8906 139.109 88.7422 138.828C88.3906 138.148 87.8672 137.852 87.0391 137.852C86.0625 137.852 85.3828 138.344 85.3828 139.039C85.3828 139.602 85.8203 139.992 86.7109 140.211L87.9219 140.508C89.6172 140.922 90.2422 141.516 90.2422 142.711C90.2422 144.164 88.9375 145.141 87.0078 145.141ZM92.7422 135.758C92.4609 135.758 92.2891 135.57 92.2891 135.258C92.2891 134.203 92.9297 133.57 93.7891 133.57C94.8672 133.57 95.2188 134.758 95.8047 134.758C96.0938 134.758 96.2578 134.516 96.3359 133.977C96.3828 133.609 96.5156 133.453 96.7969 133.453C97.0703 133.453 97.25 133.648 97.25 133.945C97.25 134.961 96.6016 135.641 95.7969 135.641C94.7656 135.641 94.375 134.453 93.7812 134.453C93.4219 134.453 93.2656 134.688 93.2031 135.281C93.1719 135.602 93.0234 135.758 92.7422 135.758ZM94.0078 145.141C92.3906 145.141 91.3047 144.164 91.3047 142.703C91.3047 141.312 92.375 140.438 94.25 140.328L96.5859 140.195V139.516C96.5859 138.523 95.9297 137.93 94.8047 137.93C93.9219 137.93 93.3203 138.25 92.8672 139.055C92.7422 139.281 92.5625 139.383 92.3047 139.383C91.9531 139.383 91.7031 139.141 91.7031 138.773C91.7031 138.602 91.7578 138.406 91.8672 138.211C92.3281 137.32 93.5156 136.734 94.8359 136.734C96.7422 136.734 97.9453 137.766 97.9453 139.383V144.453C97.9453 144.859 97.6797 145.141 97.3047 145.141C96.9219 145.141 96.6562 144.859 96.6562 144.453V143.602H96.625C96.1406 144.531 95.1016 145.141 94.0078 145.141ZM94.3125 143.984C95.5938 143.984 96.5859 143.086 96.5859 141.914V141.25L94.4062 141.383C93.3125 141.453 92.6875 141.938 92.6875 142.703C92.6875 143.477 93.3359 143.984 94.3125 143.984ZM103.039 145.141C100.789 145.141 99.2734 143.523 99.2734 140.938C99.2734 138.344 100.789 136.734 103.039 136.734C105.281 136.734 106.797 138.344 106.797 140.938C106.797 143.523 105.281 145.141 103.039 145.141ZM103.039 143.945C104.477 143.945 105.414 142.852 105.414 140.938C105.414 139.023 104.477 137.93 103.039 137.93C101.602 137.93 100.656 139.023 100.656 140.938C100.656 142.852 101.602 143.945 103.039 143.945ZM113.82 145.141C112.203 145.141 111.117 144.164 111.117 142.703C111.117 141.312 112.188 140.438 114.062 140.328L116.398 140.195V139.516C116.398 138.523 115.742 137.93 114.617 137.93C113.734 137.93 113.133 138.25 112.68 139.055C112.555 139.281 112.375 139.383 112.117 139.383C111.766 139.383 111.516 139.141 111.516 138.773C111.516 138.602 111.57 138.406 111.68 138.211C112.141 137.32 113.328 136.734 114.648 136.734C116.555 136.734 117.758 137.766 117.758 139.383V144.453C117.758 144.859 117.492 145.141 117.117 145.141C116.734 145.141 116.469 144.859 116.469 144.453V143.602H116.438C115.953 144.531 114.914 145.141 113.82 145.141ZM114.125 143.984C115.406 143.984 116.398 143.086 116.398 141.914V141.25L114.219 141.383C113.125 141.453 112.5 141.938 112.5 142.703C112.5 143.477 113.148 143.984 114.125 143.984ZM120.164 145.141C119.766 145.141 119.484 144.844 119.484 144.414V137.422C119.484 137.016 119.75 136.734 120.125 136.734C120.5 136.734 120.766 137.016 120.766 137.422V138.203H120.797C121.031 137.359 121.828 136.734 122.641 136.734C122.938 136.734 123.148 136.805 123.281 136.93C123.398 137.039 123.453 137.195 123.453 137.383C123.453 137.594 123.383 137.75 123.242 137.859C123.102 137.977 122.891 138.031 122.594 138.031C121.367 138.031 120.844 138.914 120.844 139.953V144.414C120.844 144.844 120.562 145.141 120.164 145.141ZM124.859 143.125V137.992H124.18C123.789 137.992 123.57 137.789 123.57 137.43C123.57 137.078 123.789 136.875 124.18 136.875H124.859V135.484C124.859 135.055 125.141 134.758 125.539 134.758C125.938 134.758 126.219 135.055 126.219 135.484V136.875H127.266C127.656 136.875 127.875 137.078 127.875 137.43C127.875 137.789 127.656 137.992 127.266 137.992H126.219V142.828C126.219 143.516 126.461 143.844 127.141 143.891L127.258 143.898C127.703 143.93 127.906 144.109 127.906 144.43C127.906 144.844 127.672 145.062 126.914 145.062H126.828C125.516 145.062 124.859 144.422 124.859 143.125ZM130.18 135.914C129.906 135.914 129.711 135.734 129.711 135.492C129.711 135.359 129.742 135.266 129.828 135.141L130.992 133.477C131.211 133.164 131.344 133.078 131.594 133.078C131.922 133.078 132.156 133.289 132.156 133.594C132.156 133.758 132.109 133.883 132 134.016L130.656 135.656C130.5 135.852 130.383 135.914 130.18 135.914ZM130 145.141C129.602 145.141 129.32 144.844 129.32 144.414V137.461C129.32 137.031 129.602 136.734 130 136.734C130.398 136.734 130.68 137.031 130.68 137.461V144.414C130.68 144.844 130.398 145.141 130 145.141ZM135.336 145.141C133.891 145.141 132.758 144.492 132.367 143.477C132.32 143.359 132.305 143.258 132.305 143.156C132.305 142.797 132.57 142.594 132.922 142.594C133.164 142.594 133.359 142.719 133.516 143C133.922 143.711 134.406 144.031 135.445 144.031C136.484 144.031 137.188 143.578 137.188 142.82C137.188 142.234 136.852 141.922 135.938 141.695L134.695 141.383C133.125 140.992 132.367 140.25 132.367 139.109C132.367 137.695 133.609 136.734 135.445 136.734C136.781 136.734 137.969 137.484 138.18 138.461C138.195 138.539 138.203 138.602 138.203 138.664C138.203 138.984 138 139.195 137.672 139.195C137.406 139.195 137.219 139.109 137.07 138.828C136.719 138.148 136.195 137.852 135.367 137.852C134.391 137.852 133.711 138.344 133.711 139.039C133.711 139.602 134.148 139.992 135.039 140.211L136.25 140.508C137.945 140.922 138.57 141.516 138.57 142.711C138.57 144.164 137.266 145.141 135.336 145.141ZM140.406 143.125V137.992H139.727C139.336 137.992 139.117 137.789 139.117 137.43C139.117 137.078 139.336 136.875 139.727 136.875H140.406V135.484C140.406 135.055 140.688 134.758 141.086 134.758C141.484 134.758 141.766 135.055 141.766 135.484V136.875H142.812C143.203 136.875 143.422 137.078 143.422 137.43C143.422 137.789 143.203 137.992 142.812 137.992H141.766V142.828C141.766 143.516 142.008 143.844 142.688 143.891L142.805 143.898C143.25 143.93 143.453 144.109 143.453 144.43C143.453 144.844 143.219 145.062 142.461 145.062H142.375C141.062 145.062 140.406 144.422 140.406 143.125ZM145.547 135.508C145.086 135.508 144.703 135.125 144.703 134.664C144.703 134.195 145.086 133.82 145.547 133.82C146.016 133.82 146.398 134.195 146.398 134.664C146.398 135.125 146.016 135.508 145.547 135.508ZM145.547 145.141C145.148 145.141 144.867 144.844 144.867 144.414V137.461C144.867 137.031 145.148 136.734 145.547 136.734C145.945 136.734 146.227 137.031 146.227 137.461V144.414C146.227 144.844 145.945 145.141 145.547 145.141ZM151.414 145.141C149.164 145.141 147.664 143.523 147.664 140.953C147.664 138.398 149.148 136.734 151.398 136.734C152.93 136.734 154.266 137.602 154.578 138.727C154.609 138.828 154.625 138.93 154.625 139.016C154.625 139.375 154.398 139.609 154.047 139.609C153.75 139.609 153.586 139.484 153.398 139.133C152.969 138.328 152.352 137.93 151.414 137.93C150 137.93 149.047 139.117 149.047 140.938C149.047 142.805 150.016 143.945 151.414 143.945C152.391 143.945 152.984 143.523 153.406 142.742C153.602 142.375 153.75 142.266 154.047 142.266C154.398 142.266 154.633 142.508 154.633 142.859C154.633 142.961 154.609 143.078 154.57 143.203C154.18 144.328 152.891 145.141 151.414 145.141ZM158.445 145.141C156.828 145.141 155.742 144.164 155.742 142.703C155.742 141.312 156.812 140.438 158.688 140.328L161.023 140.195V139.516C161.023 138.523 160.367 137.93 159.242 137.93C158.359 137.93 157.758 138.25 157.305 139.055C157.18 139.281 157 139.383 156.742 139.383C156.391 139.383 156.141 139.141 156.141 138.773C156.141 138.602 156.195 138.406 156.305 138.211C156.766 137.32 157.953 136.734 159.273 136.734C161.18 136.734 162.383 137.766 162.383 139.383V144.453C162.383 144.859 162.117 145.141 161.742 145.141C161.359 145.141 161.094 144.859 161.094 144.453V143.602H161.062C160.578 144.531 159.539 145.141 158.445 145.141ZM158.75 143.984C160.031 143.984 161.023 143.086 161.023 141.914V141.25L158.844 141.383C157.75 141.453 157.125 141.938 157.125 142.703C157.125 143.477 157.773 143.984 158.75 143.984ZM170.797 145.141C168.398 145.141 166.992 143.594 166.992 140.969C166.992 138.406 168.438 136.734 170.68 136.734C172.758 136.734 174.219 138.289 174.219 140.516C174.219 141.008 173.938 141.305 173.469 141.305H168.391C168.391 142.945 169.289 143.961 170.742 143.961C171.711 143.961 172.305 143.617 172.938 142.695C173.078 142.5 173.234 142.422 173.445 142.422C173.805 142.422 174.047 142.656 174.047 143.016C174.047 143.125 174.008 143.266 173.945 143.414C173.422 144.516 172.281 145.141 170.797 145.141ZM168.398 140.242H172.812C172.781 138.836 171.914 137.914 170.656 137.914C169.391 137.914 168.484 138.844 168.398 140.242ZM181.242 145.141C179.625 145.141 178.539 144.164 178.539 142.703C178.539 141.312 179.609 140.438 181.484 140.328L183.82 140.195V139.516C183.82 138.523 183.164 137.93 182.039 137.93C181.156 137.93 180.555 138.25 180.102 139.055C179.977 139.281 179.797 139.383 179.539 139.383C179.188 139.383 178.938 139.141 178.938 138.773C178.938 138.602 178.992 138.406 179.102 138.211C179.562 137.32 180.75 136.734 182.07 136.734C183.977 136.734 185.18 137.766 185.18 139.383V144.453C185.18 144.859 184.914 145.141 184.539 145.141C184.156 145.141 183.891 144.859 183.891 144.453V143.602H183.859C183.375 144.531 182.336 145.141 181.242 145.141ZM181.547 143.984C182.828 143.984 183.82 143.086 183.82 141.914V141.25L181.641 141.383C180.547 141.453 179.922 141.938 179.922 142.703C179.922 143.477 180.57 143.984 181.547 143.984ZM187.586 147.867C187.188 147.867 186.906 147.57 186.906 147.141V137.422C186.906 137.016 187.172 136.734 187.555 136.734C187.93 136.734 188.195 137.016 188.195 137.422V138.25H188.227C188.727 137.336 189.672 136.734 190.852 136.734C192.922 136.734 194.328 138.391 194.328 140.938C194.328 143.484 192.93 145.141 190.883 145.141C189.719 145.141 188.781 144.57 188.297 143.68H188.266V147.141C188.266 147.57 187.984 147.867 187.586 147.867ZM190.586 143.945C192.031 143.945 192.938 142.781 192.938 140.938C192.938 139.102 192.031 137.93 190.586 137.93C189.195 137.93 188.258 139.133 188.258 140.938C188.258 142.75 189.195 143.945 190.586 143.945ZM196.383 145.141C195.984 145.141 195.703 144.844 195.703 144.414V137.422C195.703 137.016 195.969 136.734 196.344 136.734C196.719 136.734 196.984 137.016 196.984 137.422V138.203H197.016C197.25 137.359 198.047 136.734 198.859 136.734C199.156 136.734 199.367 136.805 199.5 136.93C199.617 137.039 199.672 137.195 199.672 137.383C199.672 137.594 199.602 137.75 199.461 137.859C199.32 137.977 199.109 138.031 198.812 138.031C197.586 138.031 197.062 138.914 197.062 139.953V144.414C197.062 144.844 196.781 145.141 196.383 145.141ZM203.656 145.141C201.258 145.141 199.852 143.594 199.852 140.969C199.852 138.406 201.297 136.734 203.539 136.734C205.617 136.734 207.078 138.289 207.078 140.516C207.078 141.008 206.797 141.305 206.328 141.305H201.25C201.25 142.945 202.148 143.961 203.602 143.961C204.57 143.961 205.164 143.617 205.797 142.695C205.938 142.5 206.094 142.422 206.305 142.422C206.664 142.422 206.906 142.656 206.906 143.016C206.906 143.125 206.867 143.266 206.805 143.414C206.281 144.516 205.141 145.141 203.656 145.141ZM201.258 140.242H205.672C205.641 138.836 204.773 137.914 203.516 137.914C202.25 137.914 201.344 138.844 201.258 140.242ZM209.133 145.141C208.734 145.141 208.453 144.844 208.453 144.414V137.422C208.453 137.016 208.719 136.734 209.094 136.734C209.469 136.734 209.734 137.016 209.734 137.422V138.172H209.766C210.219 137.297 211.086 136.734 212.344 136.734C214.125 136.734 215.156 137.883 215.156 139.727V144.414C215.156 144.844 214.875 145.141 214.477 145.141C214.078 145.141 213.797 144.844 213.797 144.414V139.969C213.797 138.656 213.18 137.938 211.93 137.938C210.648 137.938 209.812 138.844 209.812 140.219V144.414C209.812 144.844 209.531 145.141 209.133 145.141ZM219.969 145.141C217.898 145.141 216.492 143.484 216.492 140.938C216.492 138.391 217.891 136.734 219.938 136.734C221.102 136.734 222.039 137.305 222.523 138.195H222.555V134.312C222.555 133.883 222.836 133.586 223.234 133.586C223.633 133.586 223.914 133.883 223.914 134.312V144.477C223.914 144.867 223.641 145.141 223.25 145.141C222.867 145.141 222.555 144.875 222.555 144.477V143.547H222.531C222.086 144.516 221.242 145.141 219.969 145.141ZM220.227 143.945C221.625 143.945 222.562 142.758 222.562 140.938C222.562 139.125 221.625 137.93 220.227 137.93C218.789 137.93 217.883 139.102 217.883 140.938C217.883 142.781 218.789 143.945 220.227 143.945ZM226.5 135.508C226.039 135.508 225.656 135.125 225.656 134.664C225.656 134.195 226.039 133.82 226.5 133.82C226.969 133.82 227.352 134.195 227.352 134.664C227.352 135.125 226.969 135.508 226.5 135.508ZM226.5 145.141C226.102 145.141 225.82 144.844 225.82 144.414V137.461C225.82 137.031 226.102 136.734 226.5 136.734C226.898 136.734 227.18 137.031 227.18 137.461V144.414C227.18 144.844 226.898 145.141 226.5 145.141ZM229.562 145C229.125 145 228.836 144.734 228.836 144.328C228.836 144.094 228.891 143.953 229.062 143.727L233.344 138.016V137.992H229.383C228.992 137.992 228.773 137.789 228.773 137.43C228.773 137.078 228.992 136.875 229.383 136.875H234.086C234.602 136.875 234.898 137.133 234.898 137.57C234.898 137.805 234.812 137.984 234.578 138.297L230.414 143.859V143.883H234.383C234.773 143.883 234.992 144.086 234.992 144.438C234.992 144.797 234.773 145 234.383 145H229.562ZM238.867 145.141C237.25 145.141 236.164 144.164 236.164 142.703C236.164 141.312 237.234 140.438 239.109 140.328L241.445 140.195V139.516C241.445 138.523 240.789 137.93 239.664 137.93C238.781 137.93 238.18 138.25 237.727 139.055C237.602 139.281 237.422 139.383 237.164 139.383C236.812 139.383 236.562 139.141 236.562 138.773C236.562 138.602 236.617 138.406 236.727 138.211C237.188 137.32 238.375 136.734 239.695 136.734C241.602 136.734 242.805 137.766 242.805 139.383V144.453C242.805 144.859 242.539 145.141 242.164 145.141C241.781 145.141 241.516 144.859 241.516 144.453V143.602H241.484C241 144.531 239.961 145.141 238.867 145.141ZM239.172 143.984C240.453 143.984 241.445 143.086 241.445 141.914V141.25L239.266 141.383C238.172 141.453 237.547 141.938 237.547 142.703C237.547 143.477 238.195 143.984 239.172 143.984ZM247.609 145.141C245.539 145.141 244.133 143.484 244.133 140.938C244.133 138.391 245.531 136.734 247.578 136.734C248.742 136.734 249.68 137.305 250.164 138.195H250.195V134.312C250.195 133.883 250.477 133.586 250.875 133.586C251.273 133.586 251.555 133.883 251.555 134.312V144.477C251.555 144.867 251.281 145.141 250.891 145.141C250.508 145.141 250.195 144.875 250.195 144.477V143.547H250.172C249.727 144.516 248.883 145.141 247.609 145.141ZM247.867 143.945C249.266 143.945 250.203 142.758 250.203 140.938C250.203 139.125 249.266 137.93 247.867 137.93C246.43 137.93 245.523 139.102 245.523 140.938C245.523 142.781 246.43 143.945 247.867 143.945ZM256.758 145.141C254.508 145.141 252.992 143.523 252.992 140.938C252.992 138.344 254.508 136.734 256.758 136.734C259 136.734 260.516 138.344 260.516 140.938C260.516 143.523 259 145.141 256.758 145.141ZM256.758 143.945C258.195 143.945 259.133 142.852 259.133 140.938C259.133 139.023 258.195 137.93 256.758 137.93C255.32 137.93 254.375 139.023 254.375 140.938C254.375 142.852 255.32 143.945 256.758 143.945ZM262.57 145.078C262.07 145.078 261.68 144.688 261.68 144.188C261.68 143.688 262.07 143.297 262.57 143.297C263.07 143.297 263.461 143.688 263.461 144.188C263.461 144.688 263.07 145.078 262.57 145.078Z" fill="#999999"/>
<path d="M98.9141 76.1605H92L94.1043 80.5917L98.9141 85.9725L104.325 89.4541L112.141 92.6193L123.264 96.4174L135.89 97.367L147.012 98L156.933 97.367L165.65 94.8349L172.264 92.6193L179.479 88.5046L184.89 84.3899L190 76.1605L182.785 77.1101L176.172 76.1605L169.258 73.6284L163.546 70.1468L160.54 67.6147L155.73 63.1835L151.221 56.8532L147.613 50.2064L144.908 43.5596L142.804 36.9128L141 29L139.196 36.9128L137.092 43.5596L134.988 50.2064L131.08 56.8532L125.969 63.1835L120.258 67.6147L115.448 70.1468L109.736 73.6284L107.632 74.578L103.123 76.1605H98.9141Z" fill="white" stroke="white"/>
<path d="M98.9141 76.1605H92L94.1043 80.5917L98.9141 85.9725L104.325 89.4541L112.141 92.6193L123.264 96.4174L135.89 97.367L147.012 98L156.933 97.367L165.65 94.8349L172.264 92.6193L179.479 88.5046L184.89 84.3899L190 76.1605L182.785 77.1101L176.172 76.1605L169.258 73.6284L163.546 70.1468L160.54 67.6147L155.73 63.1835L151.221 56.8532L147.613 50.2064L144.908 43.5596L142.804 36.9128L141 29L139.196 36.9128L137.092 43.5596L134.988 50.2064L131.08 56.8532L125.969 63.1835L120.258 67.6147L115.448 70.1468L109.736 73.6284L107.632 74.578L103.123 76.1605H98.9141Z" fill="white" stroke="white"/>
<path d="M139.18 80.9003C139.656 78.4663 139.964 74.5395 142.485 73.4116C143.17 73.1052 143.426 72.5536 144.214 72.2768C144.895 72.0372 145.011 71.9648 145.787 71.9346C147.205 71.8793 148.532 71.427 150.015 71.7137" stroke="black" stroke-width="3" stroke-linecap="round"/>
<path d="M139.18 80.9003C139.656 78.4663 139.964 74.5395 142.485 73.4116C143.17 73.1052 143.426 72.5536 144.214 72.2768C144.895 72.0372 145.011 71.9648 145.787 71.9346C147.205 71.8793 148.532 71.427 150.015 71.7137" stroke="black" stroke-width="3" stroke-linecap="round"/>
<path d="M96.6556 76.709L95.6307 76.5138C94.2479 76.2505 92.9782 75.572 91.9906 74.5689C90.715 73.2731 90 71.5277 90 69.7095V63.9375V54.7344C90 48.611 90.5426 42.4997 91.6215 36.4721L91.7536 35.7344L93.5072 28.3125C94.4792 23.3754 95.9112 18.5401 97.7843 13.8699L98.1834 12.875L99.9406 7.96645C100.323 6.89747 100.934 5.92463 101.731 5.11552L102.188 4.65084C103.366 3.45477 104.974 2.78125 106.652 2.78125C108.164 2.78125 109.625 3.32816 110.766 4.32106L111.934 5.33851C112.7 6.00508 113.364 6.78011 113.905 7.63896L117.765 13.7656L119.392 16.4101C121.105 19.1945 124.141 20.8906 127.41 20.8906H134.132H143.192H151.442C151.787 20.8906 152.131 20.9155 152.472 20.965L155.37 21.3855C156.968 21.6174 158.516 20.7193 159.107 19.2169C159.213 18.9483 159.352 18.694 159.52 18.4597L164.819 11.0938L167.66 6.10986C167.909 5.67264 168.191 5.25462 168.502 4.85927L169.834 3.16861C170.912 1.79925 172.559 1 174.302 1C175.722 1 177.091 1.53146 178.14 2.48985L178.477 2.79832C179.109 3.3756 179.627 4.06583 180.004 4.83344L183.542 12.02C185.278 15.5461 186.586 19.267 187.439 23.1035L190.246 35.7344L192 54.7344V63.4835C192 64.9694 191.84 66.4508 191.522 67.9023L190.537 72.4057C190.347 73.2738 189.916 74.0704 189.292 74.7036C188.407 75.6029 187.198 76.1094 185.936 76.1094H185.278H184.221C179.136 76.1094 174.106 75.0534 169.451 73.0084C166.955 71.9125 164.59 70.5422 162.398 68.9229L159.266 66.6094C155.586 63.6579 152.378 60.1616 149.754 56.2413L148.745 54.7344L146.407 49.9844L143.777 42.8594L142.023 37.2188L140.562 29.2031C139.784 34.5381 138.575 39.8015 136.949 44.9417L136.762 45.5312L136.696 45.6906C134.226 51.675 130.742 57.1889 126.399 61.9901L125.942 62.4949C124.002 64.6399 121.874 66.6078 119.585 68.3753L118.826 68.9612C116.76 70.556 114.54 71.9402 112.199 73.0933L109.887 74.2317C107.364 75.4741 104.646 76.2706 101.851 76.586L99.7288 76.8256C98.7044 76.9412 97.6684 76.9019 96.6556 76.709Z" fill="#F4C091" stroke="#F4C091"/>
<path d="M96.6556 76.709L95.6307 76.5138C94.2479 76.2505 92.9782 75.572 91.9906 74.5689C90.715 73.2731 90 71.5277 90 69.7095V63.9375V54.7344C90 48.611 90.5426 42.4997 91.6215 36.4721L91.7536 35.7344L93.5072 28.3125C94.4792 23.3754 95.9112 18.5401 97.7843 13.8699L98.1834 12.875L99.9406 7.96645C100.323 6.89747 100.934 5.92463 101.731 5.11552L102.188 4.65084C103.366 3.45477 104.974 2.78125 106.652 2.78125C108.164 2.78125 109.625 3.32816 110.766 4.32106L111.934 5.33851C112.7 6.00508 113.364 6.78011 113.905 7.63896L117.765 13.7656L119.392 16.4101C121.105 19.1945 124.141 20.8906 127.41 20.8906H134.132H143.192H151.442C151.787 20.8906 152.131 20.9155 152.472 20.965L155.37 21.3855C156.968 21.6174 158.516 20.7193 159.107 19.2169C159.213 18.9483 159.352 18.694 159.52 18.4597L164.819 11.0938L167.66 6.10986C167.909 5.67264 168.191 5.25462 168.502 4.85927L169.834 3.16861C170.912 1.79925 172.559 1 174.302 1C175.722 1 177.091 1.53146 178.14 2.48985L178.477 2.79832C179.109 3.3756 179.627 4.06583 180.004 4.83344L183.542 12.02C185.278 15.5461 186.586 19.267 187.439 23.1035L190.246 35.7344L192 54.7344V63.4835C192 64.9694 191.84 66.4508 191.522 67.9023L190.537 72.4057C190.347 73.2738 189.916 74.0704 189.292 74.7036C188.407 75.6029 187.198 76.1094 185.936 76.1094H185.278H184.221C179.136 76.1094 174.106 75.0534 169.451 73.0084C166.955 71.9125 164.59 70.5422 162.398 68.9229L159.266 66.6094C155.586 63.6579 152.378 60.1616 149.754 56.2413L148.745 54.7344L146.407 49.9844L143.777 42.8594L142.023 37.2188L140.562 29.2031C139.784 34.5381 138.575 39.8015 136.949 44.9417L136.762 45.5312L136.696 45.6906C134.226 51.675 130.742 57.1889 126.399 61.9901L125.942 62.4949C124.002 64.6399 121.874 66.6078 119.585 68.3753L118.826 68.9612C116.76 70.556 114.54 71.9402 112.199 73.0933L109.887 74.2317C107.364 75.4741 104.646 76.2706 101.851 76.586L99.7288 76.8256C98.7044 76.9412 97.6684 76.9019 96.6556 76.709Z" fill="#F4C091" stroke="#F4C091"/>
<path d="M166.048 17.9022L164.358 20.7154C164.334 20.7541 164.315 20.795 164.3 20.8375C164.149 21.2607 164.443 21.7111 164.891 21.7434L168.194 21.9811L173.355 22.8868L178.516 23.7925L182.358 24.6384C183.201 24.8241 184 24.1822 184 23.3187C184 23.2322 183.992 23.1459 183.975 23.061L183.355 19.8679L182.065 15.9434L181.123 13.2997C180.892 12.6512 180.559 12.0438 180.137 11.5002L179.53 10.7195C178.687 9.63461 177.39 9 176.016 9C175.123 9 174.25 9.26874 173.512 9.77127L172.171 10.6839C171.458 11.1692 170.813 11.7473 170.252 12.4028L168.711 14.2062C167.723 15.3623 166.832 16.5986 166.048 17.9022Z" fill="#FFFDFE" stroke="#FFFDFE"/>
<path d="M166.048 17.9022L164.358 20.7154C164.334 20.7541 164.315 20.795 164.3 20.8375C164.149 21.2607 164.443 21.7111 164.891 21.7434L168.194 21.9811L173.355 22.8868L178.516 23.7925L182.358 24.6384C183.201 24.8241 184 24.1822 184 23.3187C184 23.2322 183.992 23.1459 183.975 23.061L183.355 19.8679L182.065 15.9434L181.123 13.2997C180.892 12.6512 180.559 12.0438 180.137 11.5002L179.53 10.7195C178.687 9.63461 177.39 9 176.016 9C175.123 9 174.25 9.26874 173.512 9.77127L172.171 10.6839C171.458 11.1692 170.813 11.7473 170.252 12.4028L168.711 14.2062C167.723 15.3623 166.832 16.5986 166.048 17.9022Z" fill="#FFFDFE" stroke="#FFFDFE"/>
<path d="M105.392 25.4527C103.829 25.8335 102.045 26.0664 100.152 25.9832C98.4404 25.9079 98.989 22.9446 99.5594 20.9398C99.9065 19.7196 100.276 18.5048 100.584 17.2742C100.77 16.5322 100.968 15.8719 101.253 15.219L101.261 15.2007C101.888 13.7597 102.521 12.3055 103.508 11.0824C105.111 9.09569 108.307 8.94305 110.389 10.4203C111.113 10.9342 111.799 11.5716 112.581 12.3312C113.156 12.8892 113.699 13.4743 114.198 14.1011C115.71 16.0009 118.868 20.2091 117.775 20.918C112.956 24.0436 110.972 24.0932 105.392 25.4527Z" fill="#FFFDFE" stroke="#FFFDFE"/>
<path d="M105.392 25.4527C103.829 25.8335 102.045 26.0664 100.152 25.9832C98.4404 25.9079 98.989 22.9446 99.5594 20.9398C99.9065 19.7196 100.276 18.5048 100.584 17.2742C100.77 16.5322 100.968 15.8719 101.253 15.219L101.261 15.2007C101.888 13.7597 102.521 12.3055 103.508 11.0824C105.111 9.09569 108.307 8.94305 110.389 10.4203C111.113 10.9342 111.799 11.5716 112.581 12.3312C113.156 12.8892 113.699 13.4743 114.198 14.1011C115.71 16.0009 118.868 20.2091 117.775 20.918C112.956 24.0436 110.972 24.0932 105.392 25.4527Z" fill="#FFFDFE" stroke="#FFFDFE"/>
<ellipse cx="114.5" cy="71" rx="5.5" ry="6" fill="#FF9469"/>
<ellipse cx="114.5" cy="71" rx="5.5" ry="6" fill="#FF9469"/>
<circle cx="168" cy="71" r="6" fill="#FF9469"/>
<circle cx="168" cy="71" r="6" fill="#FF9469"/>
<path d="M99.1918 7.18672H100.959L103.021 2.76763L107.144 1L110.384 1.88382L113.329 4.53527L115.685 7.18672L118.63 11.3112L121.87 14.8465L125.993 18.3817L131 20.444L129.527 22.5062L121.87 20.444L115.685 13.3734L111.562 8.65975L105.671 7.18672L101.548 10.1328L99.1918 13.3734L92.1233 69.3485L90.6507 72L88 64.9295V59.0373V55.2075V49.0207L88.8836 44.6017V41.361L90.6507 35.7635L92.1233 29.8714L93.0068 26.0415L93.5959 22.5062L94.774 18.3817L95.9521 13.3734L97.7192 9.54357L99.1918 7.18672Z" fill="#F4C091" stroke="#F4C091"/>
<path d="M99.1918 7.18672H100.959L103.021 2.76763L107.144 1L110.384 1.88382L113.329 4.53527L115.685 7.18672L118.63 11.3112L121.87 14.8465L125.993 18.3817L131 20.444L129.527 22.5062L121.87 20.444L115.685 13.3734L111.562 8.65975L105.671 7.18672L101.548 10.1328L99.1918 13.3734L92.1233 69.3485L90.6507 72L88 64.9295V59.0373V55.2075V49.0207L88.8836 44.6017V41.361L90.6507 35.7635L92.1233 29.8714L93.0068 26.0415L93.5959 22.5062L94.774 18.3817L95.9521 13.3734L97.7192 9.54357L99.1918 7.18672Z" fill="#F4C091" stroke="#F4C091"/>
<path d="M155.61 18.6557L162.814 16.1475L167.712 9.18033L173.475 6.67213L181.254 5L182.983 7.78689L185 11.4098L182.983 13.6393L181.254 11.4098L177.797 7.78689L173.475 8.34426L163.678 17.541L157.915 22L151 21.1639L155.61 18.6557Z" fill="#F4C091" stroke="#F4C091"/>
<path d="M155.61 18.6557L162.814 16.1475L167.712 9.18033L173.475 6.67213L181.254 5L182.983 7.78689L185 11.4098L182.983 13.6393L181.254 11.4098L177.797 7.78689L173.475 8.34426L163.678 17.541L157.915 22L151 21.1639L155.61 18.6557Z" fill="#F4C091" stroke="#F4C091"/>
<path d="M82.1644 51L100 55.5M79 64.5H100M82.1644 78L100 72.9" stroke="#8B8077" stroke-width="3"/>
<path d="M82.1644 51L100 55.5M79 64.5H100M82.1644 78L100 72.9" stroke="#8B8077" stroke-width="3"/>
<path d="M194 58.6711L191 62L190 42.0263L191.75 39L194 48.6842V58.6711Z" fill="#F4C091" stroke="#F4C091"/>
<path d="M194 58.6711L191 62L190 42.0263L191.75 39L194 48.6842V58.6711Z" fill="#F4C091" stroke="#F4C091"/>
<path d="M149.322 20.0429H149.645C154.148 20.0429 158.359 17.8148 160.893 14.092L166.099 6.65337L167.769 4.14305C169.075 2.17974 171.276 1 173.634 1C175.306 1 176.922 1.59417 178.196 2.67637L179.798 4.03808C181.801 5.74004 183.23 8.0187 183.89 10.5629L186.347 20.0429L190.107 35.5153L191.873 43.871C192.622 47.4157 193 51.0287 193 54.6516V55.1265C193 60.075 192.251 64.9949 190.778 69.7191L189.955 72.3557C188.717 76.3263 186.763 80.0366 184.188 83.303C181.039 87.2977 177.036 90.5366 172.472 92.782L171.282 93.3676C167.845 95.0585 164.182 96.2459 160.407 96.8931L158.449 97.2287C155.455 97.742 152.423 98 149.386 98H142.669H135.536C131.815 98 128.104 97.6422 124.452 96.9315C120.984 96.2567 117.586 95.2666 114.298 93.9737L109.405 92.0491L105.56 90.3041C101.627 88.5193 98.1927 85.7959 95.5586 82.3733C94.5712 81.0903 93.7041 79.7192 92.9681 78.2773L92.3897 77.144C89.5044 71.4905 88 65.2337 88 58.8865V55.7485C88 51.3945 88.4184 47.0507 89.2493 42.7768L89.4463 41.7638L91.7603 30.4571L94.0744 20.0429L95.16 16.0545C95.7834 13.7643 96.7049 11.5658 97.9008 9.51555L98.6789 8.18145C99.2709 7.16651 99.9843 6.22743 100.803 5.38494L103.611 2.49701C104.541 1.53996 105.819 1 107.154 1C108.584 1 109.944 1.61949 110.882 2.69844L114.322 6.65337L119.24 12.6043C122.31 17.249 127.556 20.0429 133.124 20.0429H140.645H149.322Z" stroke="black" stroke-width="2"/>
<path d="M149.322 20.0429H149.645C154.148 20.0429 158.359 17.8148 160.893 14.092L166.099 6.65337L167.769 4.14305C169.075 2.17974 171.276 1 173.634 1C175.306 1 176.922 1.59417 178.196 2.67637L179.798 4.03808C181.801 5.74004 183.23 8.0187 183.89 10.5629L186.347 20.0429L190.107 35.5153L191.873 43.871C192.622 47.4157 193 51.0287 193 54.6516V55.1265C193 60.075 192.251 64.9949 190.778 69.7191L189.955 72.3557C188.717 76.3263 186.763 80.0366 184.188 83.303C181.039 87.2977 177.036 90.5366 172.472 92.782L171.282 93.3676C167.845 95.0585 164.182 96.2459 160.407 96.8931L158.449 97.2287C155.455 97.742 152.423 98 149.386 98H142.669H135.536C131.815 98 128.104 97.6422 124.452 96.9315C120.984 96.2567 117.586 95.2666 114.298 93.9737L109.405 92.0491L105.56 90.3041C101.627 88.5193 98.1927 85.7959 95.5586 82.3733C94.5712 81.0903 93.7041 79.7192 92.9681 78.2773L92.3897 77.144C89.5044 71.4905 88 65.2337 88 58.8865V55.7485C88 51.3945 88.4184 47.0507 89.2493 42.7768L89.4463 41.7638L91.7603 30.4571L94.0744 20.0429L95.16 16.0545C95.7834 13.7643 96.7049 11.5658 97.9008 9.51555L98.6789 8.18145C99.2709 7.16651 99.9843 6.22743 100.803 5.38494L103.611 2.49701C104.541 1.53996 105.819 1 107.154 1C108.584 1 109.944 1.61949 110.882 2.69844L114.322 6.65337L119.24 12.6043C122.31 17.249 127.556 20.0429 133.124 20.0429H140.645H149.322Z" stroke="black" stroke-width="2"/>
<path d="M200.395 52L190.697 54.0449L181 56.0899M203 64.8539H181M200.395 78L181 71.573" stroke="#8B8077" stroke-width="3"/>
<path d="M200.395 52L190.697 54.0449L181 56.0899M203 64.8539H181M200.395 78L181 71.573" stroke="#8B8077" stroke-width="3"/>
<path d="M127.261 44.1858L126.923 44.6867C123.774 49.3548 116.854 49.2119 113.898 44.4178V44.4178" stroke="black" stroke-width="3"/>
<path d="M127.261 44.1858L126.923 44.6867C123.774 49.3548 116.854 49.2119 113.898 44.4178V44.4178" stroke="black" stroke-width="3"/>
<path d="M168.838 43.4476L168.46 43.9912C165.118 48.7966 157.985 48.725 154.737 43.8535V43.8535" stroke="black" stroke-width="3"/>
<path d="M168.838 43.4476L168.46 43.9912C165.118 48.7966 157.985 48.725 154.737 43.8535V43.8535" stroke="black" stroke-width="3"/>
<ellipse cx="120" cy="52" rx="6" ry="2" fill="#AFCEF2"/>
<ellipse cx="120" cy="52" rx="6" ry="2" fill="#AFCEF2"/>
<ellipse cx="162" cy="52" rx="6" ry="2" fill="#AFCEF2"/>
<ellipse cx="162" cy="52" rx="6" ry="2" fill="#AFCEF2"/>
<path d="M145 59H137C137.569 62.5135 138.432 63.5668 140.826 64C143.305 63.646 144.464 63.0115 145 59Z" fill="#FF9469" stroke="#FF9469"/>
<path d="M145 59H137C137.569 62.5135 138.432 63.5668 140.826 64C143.305 63.646 144.464 63.0115 145 59Z" fill="#FF9469" stroke="#FF9469"/>
</svg>
