<svg width="250" height="396" viewBox="0 0 250 396" fill="none" xmlns="http://www.w3.org/2000/svg">
<path d="M190.909 366.497L188 370.519C187.768 370.84 187.511 371.143 187.232 371.425C182.888 375.808 185.22 383.264 191.286 384.391L192.557 384.627C195.42 385.159 198.354 384.165 200.303 382.002L206.61 375.006C208.417 373.002 209.889 370.72 210.972 368.249L212.071 365.742C214.346 360.549 215.55 354.95 215.609 349.28L215.652 345.201C215.704 340.186 214.556 335.231 212.301 330.751C209.923 326.023 206.388 321.972 202.026 318.975L200.238 317.747C195.121 314.232 189.205 312.053 183.03 311.409C180.992 311.196 178.94 311.152 176.894 311.278L165.564 311.973L156.534 312.319C151.982 312.494 147.425 312.162 142.947 311.33L138.023 310.415C135.326 309.914 132.717 309.016 130.282 307.751C125.709 305.375 121.886 301.775 119.24 297.353L117.467 294.389L117.399 294.271C114.512 289.239 107.272 289.186 104.313 294.177C103.334 295.829 103.018 297.791 103.431 299.667L104.604 304.997C105.402 308.626 107.13 311.984 109.619 314.742L110.135 315.314C112.025 317.407 114.263 319.155 116.751 320.481L124.191 324.445C128.422 326.7 132.973 328.293 137.687 329.169C143.383 330.228 149.227 330.222 154.921 329.153L157.072 328.749C160.776 328.054 164.538 327.717 168.306 327.743L174.57 327.787C176.095 327.798 177.616 327.943 179.115 328.222L179.951 328.377C184.351 329.195 188.416 331.277 191.651 334.369L193.736 336.361C196.434 338.94 198.101 342.413 198.426 346.131C198.63 348.458 198.3 350.801 197.462 352.981L195.587 357.86C194.408 360.929 192.835 363.833 190.909 366.497Z" fill="#F4C091" stroke="black" stroke-width="2"/>
<path d="M68.2423 124.748H59L61.8129 130.784L68.2423 138.115L75.4755 142.858L85.9233 147.17L100.791 152.344L117.669 153.638L132.537 154.5L145.798 153.638L157.451 150.188L166.291 147.17L175.936 141.564L183.169 135.959L190 124.748L180.356 126.041L171.515 124.748L162.273 121.298L154.638 116.555L150.62 113.106L144.19 107.069L138.163 98.445L133.34 89.3899L129.724 80.3349L126.911 71.2798L124.5 60.5L122.089 71.2798L119.276 80.3349L116.463 89.3899L111.239 98.445L104.408 107.069L96.773 113.106L90.3436 116.555L82.7086 121.298L79.8957 122.592L73.8681 124.748H68.2423Z" fill="white" stroke="white"/>
<path d="M122.409 107.017L122.578 106.812C122.685 106.681 122.803 106.56 122.931 106.449C124.177 105.366 126.06 105.48 127.167 106.704L127.921 107.537C128.615 108.306 129 109.304 129 110.34V111.791C129 112.288 128.953 112.784 128.861 113.273L127.957 118.038L126.719 123.308C126.619 123.734 126.392 124.119 126.07 124.414L125.81 124.65C124.825 125.549 123.246 125.195 122.739 123.962L122.549 123.316C121.522 119.816 121 116.186 121 112.538V110.95C121 109.515 121.498 108.125 122.409 107.017Z" fill="#EB6A6A" stroke="#EB6A6A" stroke-width="3"/>
<path d="M64.0733 125.106L62.6543 124.838C60.7819 124.483 59.0615 123.568 57.7209 122.213C55.9778 120.453 55 118.075 55 115.597V107.797V95.3242C55 87.0256 55.7394 78.7435 57.2094 70.5761L57.3897 69.5742L59.7794 59.5156C61.104 52.8247 63.0548 46.2732 65.6059 39.9474L66.1519 38.5938L68.5416 31.955C69.0663 30.4974 69.9028 29.1718 70.9926 28.0708L71.6019 27.4553C73.2117 25.8291 75.405 24.9141 77.6932 24.9141C79.754 24.9141 81.7458 25.6566 83.3037 27.0055L84.8852 28.3749C85.9322 29.2815 86.8408 30.3366 87.582 31.5066L92.8367 39.8008L95.039 43.3605C97.3839 47.1505 101.523 49.457 105.98 49.457H115.14H127.487H138.732C139.2 49.457 139.668 49.4906 140.132 49.5576L144.103 50.1306C146.27 50.4433 148.368 49.2272 149.174 47.1913C149.319 46.8256 149.509 46.4794 149.74 46.1607L156.96 36.1797L160.828 29.4301C161.17 28.8343 161.555 28.2649 161.981 27.7265L163.784 25.4499C165.26 23.5865 167.506 22.5 169.883 22.5C171.819 22.5 173.685 23.2215 175.117 24.5235L175.567 24.9327C176.431 25.718 177.14 26.6581 177.658 27.7043L182.468 37.4228C184.837 42.2096 186.623 47.2633 187.788 52.4757L191.61 69.5742L194 95.3242V107.176C194 109.193 193.781 111.205 193.348 113.175L192.009 119.262C191.749 120.446 191.158 121.532 190.305 122.393C189.101 123.609 187.462 124.293 185.751 124.293H184.84H183.381C176.462 124.293 169.618 122.863 163.278 120.094C159.873 118.606 156.644 116.745 153.649 114.545L149.393 111.418C144.377 107.418 140.003 102.675 136.42 97.3532L135.054 95.3242L131.868 88.8867L128.284 79.2305L125.894 71.5859L123.903 60.7227C122.842 67.9529 121.196 75.085 118.98 82.0486L118.725 82.8516L118.649 83.0353C115.273 91.1668 110.518 98.6541 104.594 105.167L103.988 105.833C101.338 108.746 98.4347 111.417 95.3114 113.815L94.2921 114.598C91.4702 116.764 88.4393 118.644 85.2443 120.209L82.1083 121.745C78.6655 123.431 74.9579 124.512 71.1482 124.939L68.2542 125.264C66.8605 125.42 65.4512 125.367 64.0733 125.106Z" fill="#F4C091" stroke="#F4C091"/>
<path d="M158.698 45.6784L156.465 49.6091C156.434 49.662 156.41 49.7177 156.39 49.7754C156.192 50.363 156.601 50.9797 157.219 51.0268L161.452 51.3491L168.161 52.5943L174.871 53.8396L179.738 54.9732C180.894 55.2425 182 54.3647 182 53.1774C182 53.0656 181.99 52.9541 181.97 52.8443L181.161 48.4434L179.484 43.0472L178.232 39.329C177.95 38.4921 177.54 37.7038 177.017 36.9921L176.12 35.7706C175.071 34.3431 173.405 33.5 171.634 33.5C170.467 33.5 169.329 33.8669 168.382 34.5489L166.582 35.8441C165.682 36.4923 164.872 37.258 164.175 38.1208L162.096 40.6934C160.83 42.26 159.693 43.9272 158.698 45.6784Z" fill="#FFFDFE" stroke="#FFFDFE"/>
<path d="M76.444 55.7511C74.379 56.2714 72.0201 56.5904 69.516 56.4772C67.2595 56.3753 67.9883 52.3513 68.7403 49.6387C69.1948 47.9989 69.6776 46.3661 70.0795 44.7126C70.3346 43.6636 70.607 42.7357 71.0065 41.8144C71.8216 39.9346 72.641 38.0043 73.8856 36.3769C75.9857 33.6308 80.3218 33.4343 83.0932 35.5009C84.0171 36.1898 84.8993 37.0371 85.9037 38.0409C86.637 38.7736 87.3308 39.541 87.9658 40.3604C89.9419 42.9107 94.1492 48.6601 92.7036 49.6244C86.4022 53.8275 83.789 53.9006 76.444 55.7511Z" fill="#FFFDFE" stroke="#FFFDFE"/>
<ellipse cx="88.5" cy="117.5" rx="7.5" ry="8" fill="#FF9469"/>
<circle cx="161" cy="117.5" r="8" fill="#FF9469"/>
<path d="M124.897 97.5V102.916M124.897 102.916C120.162 108.976 117.672 109.081 113 102.916M124.897 102.916C130.301 108.693 132.541 107.661 136 102.916" stroke="black" stroke-width="3"/>
<path d="M68.0959 30.9523H70.4795L73.2603 24.9149L78.8219 22.5L83.1918 23.7075L87.1644 27.3299L90.3425 30.9523L94.3151 36.5871L98.6849 41.417L104.247 46.2469L111 49.0643L109.014 51.8817L98.6849 49.0643L90.3425 39.4046L84.7808 32.9647L76.8356 30.9523L71.274 34.9772L68.0959 39.4046L58.5616 115.878L56.5753 119.5L53 109.84V101.79V96.5581V88.1058L54.1918 82.0685V77.6411L56.5753 69.9938L58.5616 61.944L59.7534 56.7116L60.5479 51.8817L62.137 46.2469L63.726 39.4046L66.1096 34.1722L68.0959 30.9523Z" fill="#F4C091" stroke="#F4C091"/>
<path d="M144.237 46.7787L153.983 43.2377L160.61 33.4016L168.407 29.8607L178.932 27.5L181.271 31.4344L184 36.5492L181.271 39.6967L178.932 36.5492L174.254 31.4344L168.407 32.2213L155.153 45.2049L147.356 51.5L138 50.3197L144.237 46.7787Z" fill="#F4C091" stroke="#F4C091"/>
<path d="M45.3699 90.5L70 96.6667M41 109H70M45.3699 127.5L70 120.511" stroke="#8B8077" stroke-width="3"/>
<path d="M196 100.158L191.5 104.5L190 78.4474L192.625 74.5L196 87.1316V100.158Z" fill="#F4C091" stroke="#F4C091"/>
<path d="M135.931 48.2178H136.377C142.461 48.2178 148.152 45.2091 151.579 40.181L158.62 30.135L160.875 26.7493C162.643 24.0947 165.621 22.5 168.811 22.5C171.071 22.5 173.257 23.3027 174.98 24.7649L177.143 26.5998C179.854 28.9003 181.788 31.9819 182.681 35.4234L186.003 48.2178L191.088 69.1135L193.476 80.3983C194.489 85.1851 195 90.0646 195 94.9575V95.5945C195 102.28 193.986 108.927 191.994 115.309L190.885 118.859C189.209 124.227 186.564 129.242 183.08 133.655C178.823 139.048 173.414 143.419 167.248 146.448L165.625 147.246C160.979 149.528 156.029 151.131 150.927 152.004L148.273 152.458C144.225 153.152 140.125 153.5 136.018 153.5H126.934H117.285C112.255 153.5 107.236 153.017 102.297 152.057C97.6075 151.146 93.0106 149.808 88.5638 148.062L81.9477 145.463L76.7406 143.103C71.4265 140.695 66.7849 137.019 63.2234 132.398C61.8872 130.664 60.7136 128.811 59.7175 126.862L58.9376 125.336C55.035 117.699 53 109.246 53 100.671V96.4386C53 90.5586 53.5658 84.6923 54.6895 78.9206L54.9559 77.5521L58.0854 62.2822L61.2149 48.2178L62.6824 42.8339C63.5259 39.7392 64.7726 36.7689 66.3903 33.9992L67.4404 32.2015C68.2421 30.8289 69.208 29.5591 70.3167 28.4202L74.1104 24.5231C75.3696 23.2296 77.0981 22.5 78.9033 22.5C80.8374 22.5 82.6769 23.3372 83.9472 24.7956L88.5978 30.135L95.2479 38.1718C99.4006 44.4451 106.502 48.2178 114.025 48.2178H124.196H135.931Z" stroke="black" stroke-width="3"/>
<path d="M204.447 91.5L191.224 94.3315L178 97.1629M208 109.298H178M204.447 127.5L178 118.601" stroke="#8B8077" stroke-width="3"/>
<path d="M119 108.5C119 108.5 119.414 127.081 124.379 127.494C129.345 127.906 131 108.5 131 108.5" stroke="black" stroke-width="3"/>
<g filter="url(#filter0_d_383_866)">
<rect x="4" y="154.5" width="242" height="145" rx="72.5" fill="#F0E1D5"/>
</g>
<path d="M64.7396 151.946L63.9051 152.709C63.0125 153.525 62.289 154.508 61.7756 155.603L61.6949 155.775C60.6177 158.072 60.5833 160.722 61.6006 163.046L61.7805 163.457C62.2866 164.613 63.09 165.615 64.1089 166.36L65.0081 167.017C66.149 167.851 67.6012 168.136 68.9725 167.794L70.5426 167.403C71.1329 167.256 71.6082 166.819 71.8051 166.243L72.2668 164.893C72.6873 163.663 74.4387 163.698 74.8104 164.943C74.8652 165.127 74.959 165.297 75.0853 165.441L76.3223 166.854C76.504 167.062 76.6626 167.289 76.795 167.531C77.4593 168.745 78.733 169.5 80.1169 169.5H80.5552C81.8279 169.5 83.0419 168.964 83.8994 168.024L84.4981 167.367C84.6186 167.235 84.7097 167.079 84.7654 166.909L86.0765 162.915C86.287 162.274 87.234 162.425 87.234 163.1C87.234 163.216 87.2679 163.329 87.3314 163.426L88.5424 165.271C89.3468 166.496 90.5549 167.401 91.957 167.828C93.0433 168.159 94.199 168.188 95.3009 167.914L95.4085 167.887C97.2306 167.433 98.7389 166.159 99.4919 164.439C99.827 163.673 100 162.846 100 162.01V161.029C100 159.942 99.835 158.861 99.5105 157.823L99.3776 157.398C98.6728 155.144 97.3313 153.141 95.5146 151.632C94.2621 150.592 92.8147 149.811 91.257 149.337L90.6813 149.161C89.2421 148.723 87.746 148.5 86.2415 148.5H82.5532H76.5957H73.6192C72.2085 148.5 70.8069 148.727 69.4682 149.172C67.7147 149.754 66.1036 150.7 64.7396 151.946Z" fill="#F4C091" stroke="black" stroke-width="3"/>
<path d="M158.74 151.946L157.905 152.709C157.013 153.525 156.289 154.508 155.776 155.603L155.695 155.775C154.618 158.072 154.583 160.722 155.601 163.046L155.78 163.457C156.287 164.613 157.09 165.615 158.109 166.36L159.008 167.017C160.149 167.851 161.601 168.136 162.973 167.794L164.543 167.403C165.133 167.256 165.608 166.819 165.805 166.243L166.267 164.893C166.687 163.663 168.439 163.698 168.81 164.943C168.865 165.127 168.959 165.297 169.085 165.441L170.322 166.854C170.504 167.062 170.663 167.289 170.795 167.531C171.459 168.745 172.733 169.5 174.117 169.5H174.555C175.828 169.5 177.042 168.964 177.899 168.024L178.498 167.367C178.619 167.235 178.71 167.079 178.765 166.909L180.076 162.915C180.287 162.274 181.234 162.425 181.234 163.1C181.234 163.216 181.268 163.329 181.331 163.426L182.542 165.271C183.347 166.496 184.555 167.401 185.957 167.828C187.043 168.159 188.199 168.188 189.301 167.914L189.409 167.887C191.231 167.433 192.739 166.159 193.492 164.439C193.827 163.673 194 162.846 194 162.01V161.029C194 159.942 193.835 158.861 193.511 157.823L193.378 157.398C192.673 155.144 191.331 153.141 189.515 151.632C188.262 150.592 186.815 149.811 185.257 149.337L184.681 149.161C183.242 148.723 181.746 148.5 180.242 148.5H176.553H170.596H167.619C166.208 148.5 164.807 148.727 163.468 149.172C161.715 149.754 160.104 150.7 158.74 151.946Z" fill="#F4C091" stroke="black" stroke-width="3"/>
<path d="M206.186 384C201.145 389.338 197.41 390.696 189.444 390.778" stroke="black" stroke-width="2"/>
<path d="M208.297 387.433C203.256 392.771 199.521 394.129 191.555 394.211" stroke="black" stroke-width="2"/>
<path d="M208.297 387.433C203.256 392.771 199.521 394.129 191.555 394.211" stroke="black" stroke-width="2"/>
<path d="M114.677 326.133C107.794 323.577 105.086 320.668 101.9 313.366" stroke="black" stroke-width="2"/>
<path d="M111.561 328.481C104.678 325.925 101.97 323.017 98.7839 315.715" stroke="black" stroke-width="2"/>
<path d="M178 14.5L182.5 1M182.5 19.5L195.5 1M186.5 24.5L202 19.5" stroke="black" stroke-width="2"/>
<path d="M204.664 356.788L204.01 356.508C203.227 356.173 202.384 356 201.533 356C199.192 356 197.044 357.299 195.957 359.372L192.118 366.691L187.961 372.502C187.34 373.37 186.9 374.355 186.668 375.398L186.5 376.151C186.178 377.598 186.408 379.113 187.144 380.4C187.728 381.419 188.6 382.244 189.651 382.769L189.725 382.806C191.253 383.568 193.026 383.67 194.631 383.087L196.125 382.545C197.184 382.16 198.17 381.598 199.041 380.882L204.238 376.608C205.661 375.438 206.849 374.007 207.738 372.393L209.715 368.804C211.119 366.255 210.986 363.135 209.37 360.715C209.085 360.288 208.758 359.89 208.395 359.527L207.722 358.856C206.844 357.978 205.806 357.276 204.664 356.788Z" fill="#8B8077" stroke="#8B8077"/>
<path d="M212 365L211.608 363.53C211.165 361.868 210.327 360.337 209.166 359.067L208.857 358.729C208.115 357.918 207.221 357.26 206.226 356.793V356.793C205.111 356.271 203.895 356 202.664 356H202.318C201.312 356 200.312 356.153 199.351 356.453L196 357.5" stroke="black"/>
<path d="M194.447 383.612L193.577 383.394C192.65 383.163 192 382.33 192 381.374C192 380.309 192.804 379.415 193.864 379.304L201 378.553L198.903 381.444C198.636 381.813 198.32 382.144 197.964 382.429L197.25 383C196.462 383.63 195.426 383.856 194.447 383.612Z" fill="#8B8077"/>
<path d="M201.5 378.5L201 378.553M201 378.553L193.864 379.304C192.804 379.415 192 380.309 192 381.374V381.374C192 382.33 192.65 383.163 193.577 383.394L194.447 383.612C195.426 383.856 196.462 383.63 197.25 383L197.964 382.429C198.32 382.144 198.636 381.813 198.903 381.444L201 378.553Z" stroke="#8B8077"/>
<path d="M193.5 384.5V384.5C195.438 384.5 197.316 383.82 198.805 382.579L199.5 382L206.5 374.5L207.317 373.547C208.767 371.855 210.004 369.992 211 368V368L212.5 365" stroke="black"/>
<ellipse cx="92.5" cy="83" rx="9.5" ry="12" fill="white"/>
<ellipse cx="92.5" cy="83.5" rx="7.5" ry="8.5" fill="black"/>
<ellipse cx="153.5" cy="83" rx="9.5" ry="12" fill="white"/>
<ellipse cx="153.5" cy="83.5" rx="7.5" ry="8.5" fill="black"/>
<circle cx="93.5" cy="80.5" r="2.5" fill="white"/>
<circle cx="153.5" cy="80.5" r="2.5" fill="white"/>
<path d="M62.6523 224.308C61.416 224.308 60.3496 224.038 59.4531 223.499C58.5566 222.96 57.8652 222.192 57.3789 221.196C56.8926 220.2 56.6494 219.022 56.6494 217.663V217.646C56.6494 216.28 56.8926 215.103 57.3789 214.112C57.8711 213.122 58.5654 212.357 59.4619 211.818C60.3643 211.279 61.4277 211.01 62.6523 211.01C63.8828 211.01 64.9463 211.279 65.8428 211.818C66.7393 212.357 67.4307 213.125 67.917 214.121C68.4092 215.111 68.6553 216.286 68.6553 217.646V217.663C68.6553 219.022 68.4121 220.2 67.9258 221.196C67.4395 222.187 66.748 222.954 65.8516 223.499C64.9551 224.038 63.8887 224.308 62.6523 224.308ZM62.6523 222.348C63.4082 222.348 64.0615 222.154 64.6123 221.768C65.1631 221.381 65.5879 220.836 65.8867 220.133C66.1914 219.43 66.3438 218.606 66.3438 217.663V217.646C66.3438 216.69 66.1914 215.864 65.8867 215.167C65.5879 214.464 65.1631 213.922 64.6123 213.541C64.0615 213.16 63.4082 212.97 62.6523 212.97C61.9023 212.97 61.252 213.16 60.7012 213.541C60.1504 213.922 59.7227 214.464 59.418 215.167C59.1133 215.864 58.9609 216.69 58.9609 217.646V217.663C58.9609 218.606 59.1104 219.433 59.4092 220.142C59.708 220.845 60.1328 221.39 60.6836 221.776C61.2344 222.157 61.8906 222.348 62.6523 222.348ZM65.957 225.318L62.0283 220.019H64.2432L68.1719 225.318H65.957ZM74.166 224.193C73.4512 224.193 72.8506 224.056 72.3643 223.78C71.8779 223.499 71.5117 223.092 71.2656 222.559C71.0195 222.02 70.8965 221.372 70.8965 220.616V214.411H73.085V220.115C73.085 220.854 73.2314 221.41 73.5244 221.785C73.8174 222.16 74.2949 222.348 74.957 222.348C75.3086 222.348 75.6191 222.295 75.8887 222.189C76.1582 222.078 76.3838 221.92 76.5654 221.715C76.7529 221.51 76.8906 221.264 76.9785 220.977C77.0723 220.684 77.1191 220.358 77.1191 220.001V214.411H79.3076V224H77.1191V222.541H76.9785C76.832 222.881 76.627 223.177 76.3633 223.429C76.0996 223.675 75.7832 223.865 75.4141 224C75.0449 224.129 74.6289 224.193 74.166 224.193ZM84.5811 224.158C83.9717 224.158 83.4297 224.041 82.9551 223.807C82.4805 223.572 82.1055 223.241 81.8301 222.813C81.5605 222.38 81.4258 221.873 81.4258 221.293V221.275C81.4258 220.701 81.5664 220.209 81.8477 219.799C82.1289 219.389 82.5391 219.066 83.0781 218.832C83.623 218.598 84.2852 218.457 85.0645 218.41L88.6152 218.199V219.641L85.3721 219.852C84.7627 219.887 84.3115 220.016 84.0186 220.238C83.7256 220.461 83.5791 220.769 83.5791 221.161V221.179C83.5791 221.589 83.7344 221.908 84.0449 222.137C84.3555 222.365 84.7539 222.479 85.2402 222.479C85.6797 222.479 86.0723 222.392 86.418 222.216C86.7637 222.04 87.0361 221.803 87.2354 221.504C87.4346 221.199 87.5342 220.856 87.5342 220.476V217.452C87.5342 216.972 87.3818 216.603 87.0771 216.345C86.7725 216.087 86.3242 215.958 85.7324 215.958C85.2285 215.958 84.8184 216.046 84.502 216.222C84.1855 216.397 83.9717 216.644 83.8604 216.96L83.8516 216.995H81.7861L81.7949 216.925C81.8711 216.38 82.082 215.905 82.4277 215.501C82.7793 215.097 83.2451 214.783 83.8252 214.561C84.4053 214.332 85.0762 214.218 85.8379 214.218C86.6582 214.218 87.3555 214.347 87.9297 214.604C88.5098 214.862 88.9492 215.231 89.248 215.712C89.5469 216.192 89.6963 216.77 89.6963 217.443V224H87.5342V222.673H87.3848C87.209 222.983 86.9805 223.25 86.6992 223.473C86.4238 223.695 86.1074 223.865 85.75 223.982C85.3926 224.1 85.0029 224.158 84.5811 224.158ZM92.3682 224V210.702H94.5566V224H92.3682ZM106.167 224.193C105.212 224.193 104.389 223.994 103.697 223.596C103.012 223.191 102.481 222.617 102.106 221.873C101.737 221.129 101.553 220.241 101.553 219.21V219.192C101.553 218.167 101.74 217.282 102.115 216.538C102.49 215.794 103.021 215.223 103.706 214.824C104.397 214.42 105.218 214.218 106.167 214.218C107.122 214.218 107.942 214.417 108.628 214.815C109.319 215.214 109.853 215.785 110.228 216.529C110.603 217.273 110.79 218.161 110.79 219.192V219.21C110.79 220.241 110.603 221.129 110.228 221.873C109.858 222.617 109.328 223.191 108.637 223.596C107.951 223.994 107.128 224.193 106.167 224.193ZM106.167 222.418C106.677 222.418 107.107 222.292 107.459 222.04C107.811 221.782 108.08 221.416 108.268 220.941C108.455 220.461 108.549 219.884 108.549 219.21V219.192C108.549 218.519 108.455 217.944 108.268 217.47C108.08 216.989 107.808 216.623 107.45 216.371C107.099 216.119 106.671 215.993 106.167 215.993C105.663 215.993 105.235 216.119 104.884 216.371C104.532 216.623 104.26 216.989 104.066 217.47C103.879 217.944 103.785 218.519 103.785 219.192V219.21C103.785 219.89 103.879 220.47 104.066 220.95C104.254 221.425 104.523 221.788 104.875 222.04C105.232 222.292 105.663 222.418 106.167 222.418ZM121.328 224.193C120.52 224.193 119.819 224.076 119.228 223.842C118.642 223.607 118.179 223.285 117.839 222.875C117.499 222.459 117.3 221.981 117.241 221.442L117.232 221.416H119.403L119.412 221.434C119.523 221.773 119.74 222.049 120.062 222.26C120.391 222.471 120.824 222.576 121.363 222.576C121.732 222.576 122.052 222.526 122.321 222.427C122.597 222.321 122.813 222.178 122.972 221.996C123.13 221.814 123.209 221.604 123.209 221.363V221.354C123.209 221.073 123.095 220.839 122.866 220.651C122.638 220.458 122.263 220.3 121.741 220.177L120.177 219.834C119.573 219.699 119.072 219.512 118.674 219.271C118.275 219.031 117.977 218.735 117.777 218.384C117.584 218.032 117.487 217.622 117.487 217.153V217.145C117.487 216.564 117.648 216.055 117.971 215.615C118.299 215.176 118.753 214.833 119.333 214.587C119.913 214.341 120.578 214.218 121.328 214.218C122.107 214.218 122.778 214.338 123.341 214.578C123.903 214.812 124.343 215.135 124.659 215.545C124.976 215.955 125.157 216.421 125.204 216.942V216.969H123.139V216.942C123.062 216.632 122.869 216.371 122.559 216.16C122.248 215.943 121.835 215.835 121.319 215.835C120.997 215.835 120.71 215.885 120.458 215.984C120.206 216.078 120.007 216.216 119.86 216.397C119.72 216.573 119.649 216.781 119.649 217.021V217.03C119.649 217.218 119.696 217.382 119.79 217.522C119.89 217.663 120.045 217.786 120.256 217.892C120.467 217.997 120.745 218.091 121.091 218.173L122.638 218.516C123.581 218.727 124.278 219.04 124.729 219.456C125.181 219.872 125.406 220.432 125.406 221.135V221.144C125.406 221.753 125.23 222.289 124.879 222.752C124.527 223.209 124.044 223.563 123.429 223.815C122.819 224.067 122.119 224.193 121.328 224.193ZM131.69 224.193C130.741 224.193 129.924 223.991 129.238 223.587C128.559 223.183 128.034 222.611 127.665 221.873C127.296 221.129 127.111 220.247 127.111 219.228V219.219C127.111 218.211 127.293 217.335 127.656 216.591C128.025 215.841 128.547 215.258 129.221 214.842C129.895 214.426 130.686 214.218 131.594 214.218C132.502 214.218 133.284 214.42 133.94 214.824C134.603 215.223 135.112 215.782 135.47 216.503C135.827 217.224 136.006 218.067 136.006 219.034V219.755H128.21V218.287H134.934L133.896 219.658V218.788C133.896 218.149 133.8 217.619 133.606 217.197C133.413 216.775 133.144 216.459 132.798 216.248C132.458 216.037 132.065 215.932 131.62 215.932C131.169 215.932 130.768 216.043 130.416 216.266C130.07 216.482 129.795 216.805 129.59 217.232C129.391 217.654 129.291 218.173 129.291 218.788V219.667C129.291 220.253 129.391 220.757 129.59 221.179C129.789 221.601 130.07 221.923 130.434 222.146C130.803 222.368 131.239 222.479 131.743 222.479C132.136 222.479 132.473 222.424 132.754 222.312C133.035 222.195 133.264 222.058 133.439 221.899C133.621 221.735 133.744 221.577 133.809 221.425L133.835 221.363H135.909L135.892 221.451C135.815 221.762 135.675 222.078 135.47 222.4C135.271 222.717 134.998 223.013 134.652 223.288C134.312 223.558 133.896 223.777 133.404 223.947C132.912 224.111 132.341 224.193 131.69 224.193ZM141.35 224.193C140.635 224.193 140.034 224.056 139.548 223.78C139.062 223.499 138.695 223.092 138.449 222.559C138.203 222.02 138.08 221.372 138.08 220.616V214.411H140.269V220.115C140.269 220.854 140.415 221.41 140.708 221.785C141.001 222.16 141.479 222.348 142.141 222.348C142.492 222.348 142.803 222.295 143.072 222.189C143.342 222.078 143.567 221.92 143.749 221.715C143.937 221.51 144.074 221.264 144.162 220.977C144.256 220.684 144.303 220.358 144.303 220.001V214.411H146.491V224H144.303V222.541H144.162C144.016 222.881 143.811 223.177 143.547 223.429C143.283 223.675 142.967 223.865 142.598 224C142.229 224.129 141.812 224.193 141.35 224.193ZM153.883 224V214.411H156.062V215.879H156.212C156.44 215.363 156.786 214.959 157.249 214.666C157.712 214.367 158.292 214.218 158.989 214.218C160.062 214.218 160.879 214.528 161.441 215.149C162.01 215.771 162.294 216.652 162.294 217.795V224H160.105V218.296C160.105 217.552 159.947 216.995 159.631 216.626C159.32 216.251 158.837 216.063 158.181 216.063C157.741 216.063 157.363 216.16 157.047 216.354C156.736 216.547 156.493 216.819 156.317 217.171C156.147 217.517 156.062 217.93 156.062 218.41V224H153.883ZM168.991 224.193C168.036 224.193 167.213 223.994 166.521 223.596C165.836 223.191 165.306 222.617 164.931 221.873C164.562 221.129 164.377 220.241 164.377 219.21V219.192C164.377 218.167 164.564 217.282 164.939 216.538C165.314 215.794 165.845 215.223 166.53 214.824C167.222 214.42 168.042 214.218 168.991 214.218C169.946 214.218 170.767 214.417 171.452 214.815C172.144 215.214 172.677 215.785 173.052 216.529C173.427 217.273 173.614 218.161 173.614 219.192V219.21C173.614 220.241 173.427 221.129 173.052 221.873C172.683 222.617 172.152 223.191 171.461 223.596C170.775 223.994 169.952 224.193 168.991 224.193ZM168.991 222.418C169.501 222.418 169.932 222.292 170.283 222.04C170.635 221.782 170.904 221.416 171.092 220.941C171.279 220.461 171.373 219.884 171.373 219.21V219.192C171.373 218.519 171.279 217.944 171.092 217.47C170.904 216.989 170.632 216.623 170.274 216.371C169.923 216.119 169.495 215.993 168.991 215.993C168.487 215.993 168.06 216.119 167.708 216.371C167.356 216.623 167.084 216.989 166.891 217.47C166.703 217.944 166.609 218.519 166.609 219.192V219.21C166.609 219.89 166.703 220.47 166.891 220.95C167.078 221.425 167.348 221.788 167.699 222.04C168.057 222.292 168.487 222.418 168.991 222.418ZM175.785 224V214.411H177.965V215.896H178.114C178.319 215.363 178.65 214.95 179.107 214.657C179.57 214.364 180.118 214.218 180.751 214.218C181.185 214.218 181.574 214.288 181.92 214.429C182.271 214.569 182.573 214.771 182.825 215.035C183.077 215.293 183.271 215.604 183.405 215.967H183.555C183.707 215.615 183.927 215.308 184.214 215.044C184.501 214.78 184.835 214.578 185.216 214.438C185.603 214.291 186.019 214.218 186.464 214.218C187.108 214.218 187.659 214.347 188.116 214.604C188.579 214.856 188.934 215.22 189.18 215.694C189.426 216.169 189.549 216.737 189.549 217.399V224H187.369V217.936C187.369 217.52 187.305 217.174 187.176 216.898C187.047 216.617 186.854 216.409 186.596 216.274C186.338 216.134 186.016 216.063 185.629 216.063C185.248 216.063 184.917 216.148 184.636 216.318C184.354 216.488 184.135 216.72 183.977 217.013C183.824 217.306 183.748 217.64 183.748 218.015V224H181.568V217.777C181.568 217.42 181.498 217.115 181.357 216.863C181.223 216.605 181.023 216.409 180.76 216.274C180.502 216.134 180.194 216.063 179.837 216.063C179.479 216.063 179.157 216.154 178.87 216.336C178.589 216.518 178.366 216.77 178.202 217.092C178.044 217.408 177.965 217.763 177.965 218.155V224H175.785ZM196.202 224.193C195.253 224.193 194.436 223.991 193.75 223.587C193.07 223.183 192.546 222.611 192.177 221.873C191.808 221.129 191.623 220.247 191.623 219.228V219.219C191.623 218.211 191.805 217.335 192.168 216.591C192.537 215.841 193.059 215.258 193.732 214.842C194.406 214.426 195.197 214.218 196.105 214.218C197.014 214.218 197.796 214.42 198.452 214.824C199.114 215.223 199.624 215.782 199.981 216.503C200.339 217.224 200.518 218.067 200.518 219.034V219.755H192.722V218.287H199.445L198.408 219.658V218.788C198.408 218.149 198.312 217.619 198.118 217.197C197.925 216.775 197.655 216.459 197.31 216.248C196.97 216.037 196.577 215.932 196.132 215.932C195.681 215.932 195.279 216.043 194.928 216.266C194.582 216.482 194.307 216.805 194.102 217.232C193.902 217.654 193.803 218.173 193.803 218.788V219.667C193.803 220.253 193.902 220.757 194.102 221.179C194.301 221.601 194.582 221.923 194.945 222.146C195.314 222.368 195.751 222.479 196.255 222.479C196.647 222.479 196.984 222.424 197.266 222.312C197.547 222.195 197.775 222.058 197.951 221.899C198.133 221.735 198.256 221.577 198.32 221.425L198.347 221.363H200.421L200.403 221.451C200.327 221.762 200.187 222.078 199.981 222.4C199.782 222.717 199.51 223.013 199.164 223.288C198.824 223.558 198.408 223.777 197.916 223.947C197.424 224.111 196.853 224.193 196.202 224.193ZM83.5176 246.193C82.5625 246.193 81.7393 245.994 81.0479 245.596C80.3623 245.191 79.832 244.617 79.457 243.873C79.0879 243.129 78.9033 242.241 78.9033 241.21V241.192C78.9033 240.167 79.0908 239.282 79.4658 238.538C79.8408 237.794 80.3711 237.223 81.0566 236.824C81.748 236.42 82.5684 236.218 83.5176 236.218C84.4727 236.218 85.293 236.417 85.9785 236.815C86.6699 237.214 87.2031 237.785 87.5781 238.529C87.9531 239.273 88.1406 240.161 88.1406 241.192V241.21C88.1406 242.241 87.9531 243.129 87.5781 243.873C87.209 244.617 86.6787 245.191 85.9873 245.596C85.3018 245.994 84.4785 246.193 83.5176 246.193ZM83.5176 244.418C84.0273 244.418 84.458 244.292 84.8096 244.04C85.1611 243.782 85.4307 243.416 85.6182 242.941C85.8057 242.461 85.8994 241.884 85.8994 241.21V241.192C85.8994 240.519 85.8057 239.944 85.6182 239.47C85.4307 238.989 85.1582 238.623 84.8008 238.371C84.4492 238.119 84.0215 237.993 83.5176 237.993C83.0137 237.993 82.5859 238.119 82.2344 238.371C81.8828 238.623 81.6104 238.989 81.417 239.47C81.2295 239.944 81.1357 240.519 81.1357 241.192V241.21C81.1357 241.89 81.2295 242.47 81.417 242.95C81.6045 243.425 81.874 243.788 82.2256 244.04C82.583 244.292 83.0137 244.418 83.5176 244.418ZM93.4932 246.193C92.7783 246.193 92.1777 246.056 91.6914 245.78C91.2051 245.499 90.8389 245.092 90.5928 244.559C90.3467 244.02 90.2236 243.372 90.2236 242.616V236.411H92.4121V242.115C92.4121 242.854 92.5586 243.41 92.8516 243.785C93.1445 244.16 93.6221 244.348 94.2842 244.348C94.6357 244.348 94.9463 244.295 95.2158 244.189C95.4854 244.078 95.7109 243.92 95.8926 243.715C96.0801 243.51 96.2178 243.264 96.3057 242.977C96.3994 242.684 96.4463 242.358 96.4463 242.001V236.411H98.6348V246H96.4463V244.541H96.3057C96.1592 244.881 95.9541 245.177 95.6904 245.429C95.4268 245.675 95.1104 245.865 94.7412 246C94.3721 246.129 93.9561 246.193 93.4932 246.193ZM108.654 246.158C108.045 246.158 107.503 246.041 107.028 245.807C106.554 245.572 106.179 245.241 105.903 244.813C105.634 244.38 105.499 243.873 105.499 243.293V243.275C105.499 242.701 105.64 242.209 105.921 241.799C106.202 241.389 106.612 241.066 107.151 240.832C107.696 240.598 108.358 240.457 109.138 240.41L112.688 240.199V241.641L109.445 241.852C108.836 241.887 108.385 242.016 108.092 242.238C107.799 242.461 107.652 242.769 107.652 243.161V243.179C107.652 243.589 107.808 243.908 108.118 244.137C108.429 244.365 108.827 244.479 109.313 244.479C109.753 244.479 110.146 244.392 110.491 244.216C110.837 244.04 111.109 243.803 111.309 243.504C111.508 243.199 111.607 242.856 111.607 242.476V239.452C111.607 238.972 111.455 238.603 111.15 238.345C110.846 238.087 110.397 237.958 109.806 237.958C109.302 237.958 108.892 238.046 108.575 238.222C108.259 238.397 108.045 238.644 107.934 238.96L107.925 238.995H105.859L105.868 238.925C105.944 238.38 106.155 237.905 106.501 237.501C106.853 237.097 107.318 236.783 107.898 236.561C108.479 236.332 109.149 236.218 109.911 236.218C110.731 236.218 111.429 236.347 112.003 236.604C112.583 236.862 113.022 237.231 113.321 237.712C113.62 238.192 113.77 238.77 113.77 239.443V246H111.607V244.673H111.458C111.282 244.983 111.054 245.25 110.772 245.473C110.497 245.695 110.181 245.865 109.823 245.982C109.466 246.1 109.076 246.158 108.654 246.158ZM116.362 249.19V236.411H118.542V237.923H118.691C118.867 237.571 119.096 237.272 119.377 237.026C119.664 236.774 119.995 236.584 120.37 236.455C120.745 236.32 121.158 236.253 121.609 236.253C122.412 236.253 123.106 236.455 123.692 236.859C124.284 237.264 124.741 237.835 125.063 238.573C125.386 239.312 125.547 240.185 125.547 241.192V241.21C125.547 242.229 125.386 243.111 125.063 243.855C124.747 244.594 124.293 245.162 123.701 245.561C123.115 245.959 122.418 246.158 121.609 246.158C121.17 246.158 120.76 246.091 120.379 245.956C119.998 245.815 119.664 245.619 119.377 245.367C119.09 245.115 118.861 244.816 118.691 244.471H118.542V249.19H116.362ZM120.924 244.312C121.422 244.312 121.85 244.189 122.207 243.943C122.564 243.691 122.84 243.334 123.033 242.871C123.227 242.408 123.323 241.854 123.323 241.21V241.192C123.323 240.548 123.227 239.994 123.033 239.531C122.84 239.068 122.564 238.714 122.207 238.468C121.85 238.216 121.422 238.09 120.924 238.09C120.432 238.09 120.004 238.216 119.641 238.468C119.283 238.72 119.005 239.077 118.806 239.54C118.612 239.997 118.516 240.548 118.516 241.192V241.21C118.516 241.849 118.612 242.402 118.806 242.871C119.005 243.334 119.283 243.691 119.641 243.943C120.004 244.189 120.432 244.312 120.924 244.312ZM131.822 246.193C130.873 246.193 130.056 245.991 129.37 245.587C128.69 245.183 128.166 244.611 127.797 243.873C127.428 243.129 127.243 242.247 127.243 241.228V241.219C127.243 240.211 127.425 239.335 127.788 238.591C128.157 237.841 128.679 237.258 129.353 236.842C130.026 236.426 130.817 236.218 131.726 236.218C132.634 236.218 133.416 236.42 134.072 236.824C134.734 237.223 135.244 237.782 135.602 238.503C135.959 239.224 136.138 240.067 136.138 241.034V241.755H128.342V240.287H135.065L134.028 241.658V240.788C134.028 240.149 133.932 239.619 133.738 239.197C133.545 238.775 133.275 238.459 132.93 238.248C132.59 238.037 132.197 237.932 131.752 237.932C131.301 237.932 130.899 238.043 130.548 238.266C130.202 238.482 129.927 238.805 129.722 239.232C129.522 239.654 129.423 240.173 129.423 240.788V241.667C129.423 242.253 129.522 242.757 129.722 243.179C129.921 243.601 130.202 243.923 130.565 244.146C130.935 244.368 131.371 244.479 131.875 244.479C132.268 244.479 132.604 244.424 132.886 244.312C133.167 244.195 133.396 244.058 133.571 243.899C133.753 243.735 133.876 243.577 133.94 243.425L133.967 243.363H136.041L136.023 243.451C135.947 243.762 135.807 244.078 135.602 244.4C135.402 244.717 135.13 245.013 134.784 245.288C134.444 245.558 134.028 245.777 133.536 245.947C133.044 246.111 132.473 246.193 131.822 246.193ZM138.379 246V232.702H140.567V246H138.379ZM143.318 246V236.411H145.498V246H143.318ZM144.417 234.812C144.06 234.812 143.752 234.686 143.494 234.434C143.242 234.182 143.116 233.88 143.116 233.528C143.116 233.171 143.242 232.866 143.494 232.614C143.752 232.362 144.06 232.236 144.417 232.236C144.774 232.236 145.079 232.362 145.331 232.614C145.583 232.866 145.709 233.171 145.709 233.528C145.709 233.88 145.583 234.182 145.331 234.434C145.079 234.686 144.774 234.812 144.417 234.812ZM151.624 246.158C150.827 246.158 150.133 245.959 149.541 245.561C148.949 245.156 148.492 244.585 148.17 243.847C147.848 243.103 147.687 242.224 147.687 241.21V241.192C147.687 240.179 147.845 239.303 148.161 238.564C148.483 237.82 148.938 237.249 149.523 236.851C150.115 236.452 150.815 236.253 151.624 236.253C152.063 236.253 152.474 236.323 152.854 236.464C153.235 236.599 153.569 236.792 153.856 237.044C154.149 237.29 154.378 237.589 154.542 237.94H154.691V232.702H156.871V246H154.691V244.497H154.542C154.366 244.843 154.135 245.142 153.848 245.394C153.566 245.64 153.238 245.83 152.863 245.965C152.488 246.094 152.075 246.158 151.624 246.158ZM152.31 244.312C152.802 244.312 153.227 244.189 153.584 243.943C153.947 243.691 154.226 243.334 154.419 242.871C154.618 242.408 154.718 241.857 154.718 241.219V241.201C154.718 240.557 154.618 240.003 154.419 239.54C154.226 239.077 153.947 238.72 153.584 238.468C153.227 238.216 152.802 238.09 152.31 238.09C151.812 238.09 151.384 238.216 151.026 238.468C150.669 238.72 150.394 239.077 150.2 239.54C150.007 239.997 149.91 240.548 149.91 241.192V241.21C149.91 241.854 150.007 242.411 150.2 242.88C150.394 243.343 150.669 243.697 151.026 243.943C151.384 244.189 151.812 244.312 152.31 244.312ZM163.744 246.193C162.789 246.193 161.966 245.994 161.274 245.596C160.589 245.191 160.059 244.617 159.684 243.873C159.314 243.129 159.13 242.241 159.13 241.21V241.192C159.13 240.167 159.317 239.282 159.692 238.538C160.067 237.794 160.598 237.223 161.283 236.824C161.975 236.42 162.795 236.218 163.744 236.218C164.699 236.218 165.52 236.417 166.205 236.815C166.896 237.214 167.43 237.785 167.805 238.529C168.18 239.273 168.367 240.161 168.367 241.192V241.21C168.367 242.241 168.18 243.129 167.805 243.873C167.436 244.617 166.905 245.191 166.214 245.596C165.528 245.994 164.705 246.193 163.744 246.193ZM163.744 244.418C164.254 244.418 164.685 244.292 165.036 244.04C165.388 243.782 165.657 243.416 165.845 242.941C166.032 242.461 166.126 241.884 166.126 241.21V241.192C166.126 240.519 166.032 239.944 165.845 239.47C165.657 238.989 165.385 238.623 165.027 238.371C164.676 238.119 164.248 237.993 163.744 237.993C163.24 237.993 162.812 238.119 162.461 238.371C162.109 238.623 161.837 238.989 161.644 239.47C161.456 239.944 161.362 240.519 161.362 241.192V241.21C161.362 241.89 161.456 242.47 161.644 242.95C161.831 243.425 162.101 243.788 162.452 244.04C162.81 244.292 163.24 244.418 163.744 244.418ZM172.647 242.036L172.639 241.421C172.615 240.987 172.656 240.606 172.762 240.278C172.867 239.944 173.046 239.646 173.298 239.382C173.556 239.112 173.884 238.857 174.282 238.617C174.646 238.395 174.933 238.187 175.144 237.993C175.36 237.8 175.513 237.595 175.601 237.378C175.694 237.161 175.741 236.909 175.741 236.622V236.604C175.741 236.294 175.662 236.021 175.504 235.787C175.352 235.547 175.138 235.356 174.862 235.216C174.587 235.075 174.262 235.005 173.887 235.005C173.518 235.005 173.192 235.078 172.911 235.225C172.63 235.371 172.407 235.576 172.243 235.84C172.079 236.104 171.988 236.417 171.971 236.78L171.953 236.789L169.896 236.798V236.771C169.926 236.092 170.099 235.482 170.415 234.943C170.737 234.404 171.2 233.982 171.804 233.678C172.407 233.367 173.143 233.212 174.01 233.212C174.812 233.212 175.513 233.355 176.11 233.643C176.714 233.924 177.183 234.313 177.517 234.812C177.851 235.31 178.018 235.881 178.018 236.525V236.543C178.018 236.988 177.944 237.393 177.798 237.756C177.657 238.119 177.449 238.447 177.174 238.74C176.898 239.027 176.559 239.291 176.154 239.531C175.773 239.754 175.475 239.962 175.258 240.155C175.047 240.349 174.897 240.554 174.81 240.771C174.728 240.987 174.687 241.242 174.687 241.535V242.036H172.647ZM173.764 246.211C173.324 246.211 172.973 246.088 172.709 245.842C172.445 245.59 172.313 245.256 172.313 244.84C172.313 244.418 172.445 244.084 172.709 243.838C172.973 243.586 173.324 243.46 173.764 243.46C174.203 243.46 174.555 243.586 174.818 243.838C175.082 244.084 175.214 244.418 175.214 244.84C175.214 245.256 175.082 245.59 174.818 245.842C174.555 246.088 174.203 246.211 173.764 246.211Z" fill="#7A5A3D"/>
<defs>
<filter id="filter0_d_383_866" x="0" y="154.5" width="250" height="153" filterUnits="userSpaceOnUse" color-interpolation-filters="sRGB">
<feFlood flood-opacity="0" result="BackgroundImageFix"/>
<feColorMatrix in="SourceAlpha" type="matrix" values="0 0 0 0 0 0 0 0 0 0 0 0 0 0 0 0 0 0 127 0" result="hardAlpha"/>
<feOffset dy="4"/>
<feGaussianBlur stdDeviation="2"/>
<feComposite in2="hardAlpha" operator="out"/>
<feColorMatrix type="matrix" values="0 0 0 0 0 0 0 0 0 0 0 0 0 0 0 0 0 0 0.25 0"/>
<feBlend mode="normal" in2="BackgroundImageFix" result="effect1_dropShadow_383_866"/>
<feBlend mode="normal" in="SourceGraphic" in2="effect1_dropShadow_383_866" result="shape"/>
</filter>
</defs>
</svg>
