<svg width="283" height="167" viewBox="0 0 283 167" fill="none" xmlns="http://www.w3.org/2000/svg">
<rect y="83" width="283" height="84" rx="10" fill="#F7F0EA"/>
<path d="M27.1328 120.109C26.6875 120.109 26.4453 119.93 26.2656 119.461L22.4844 109.617C22.4219 109.461 22.3984 109.336 22.3984 109.227C22.3984 108.859 22.6797 108.617 23.1016 108.617C23.4375 108.617 23.6484 108.773 23.7734 109.117L27.1094 118.289H27.1562L30.4922 109.117C30.625 108.758 30.8125 108.617 31.1562 108.617C31.5703 108.617 31.8672 108.875 31.8672 109.227C31.8672 109.336 31.8359 109.469 31.7812 109.617L27.9922 119.469C27.8125 119.938 27.5781 120.109 27.1328 120.109ZM35.3359 120.141C33.0859 120.141 31.5703 118.523 31.5703 115.938C31.5703 113.344 33.0859 111.734 35.3359 111.734C37.5781 111.734 39.0938 113.344 39.0938 115.938C39.0938 118.523 37.5781 120.141 35.3359 120.141ZM35.3359 118.945C36.7734 118.945 37.7109 117.852 37.7109 115.938C37.7109 114.023 36.7734 112.93 35.3359 112.93C33.8984 112.93 32.9531 114.023 32.9531 115.938C32.9531 117.852 33.8984 118.945 35.3359 118.945ZM43.8203 120.141C41.5703 120.141 40.0703 118.523 40.0703 115.953C40.0703 113.398 41.5547 111.734 43.8047 111.734C45.3359 111.734 46.6719 112.602 46.9844 113.727C47.0156 113.828 47.0312 113.93 47.0312 114.016C47.0312 114.375 46.8047 114.609 46.4531 114.609C46.1562 114.609 45.9922 114.484 45.8047 114.133C45.375 113.328 44.7578 112.93 43.8203 112.93C42.4062 112.93 41.4531 114.117 41.4531 115.938C41.4531 117.805 42.4219 118.945 43.8203 118.945C44.7969 118.945 45.3906 118.523 45.8125 117.742C46.0078 117.375 46.1562 117.266 46.4531 117.266C46.8047 117.266 47.0391 117.508 47.0391 117.859C47.0391 117.961 47.0156 118.078 46.9766 118.203C46.5859 119.328 45.2969 120.141 43.8203 120.141ZM50 110.875C49.7344 110.875 49.5312 110.664 49.5312 110.43C49.5312 110.273 49.5859 110.188 49.6953 110.062L51.0938 108.523C51.3203 108.273 51.4922 108.188 51.7812 108.188C52.0391 108.188 52.2109 108.273 52.4375 108.523L53.8359 110.062C53.9453 110.188 54 110.273 54 110.43C54 110.664 53.7969 110.875 53.5312 110.875C53.3359 110.875 53.2266 110.805 53.0391 110.594L51.7891 109.203H51.7422L50.4922 110.594C50.3047 110.805 50.1953 110.875 50 110.875ZM51.8906 120.141C49.4922 120.141 48.0859 118.594 48.0859 115.969C48.0859 113.406 49.5312 111.734 51.7734 111.734C53.8516 111.734 55.3125 113.289 55.3125 115.516C55.3125 116.008 55.0312 116.305 54.5625 116.305H49.4844C49.4844 117.945 50.3828 118.961 51.8359 118.961C52.8047 118.961 53.3984 118.617 54.0312 117.695C54.1719 117.5 54.3281 117.422 54.5391 117.422C54.8984 117.422 55.1406 117.656 55.1406 118.016C55.1406 118.125 55.1016 118.266 55.0391 118.414C54.5156 119.516 53.375 120.141 51.8906 120.141ZM49.4922 115.242H53.9062C53.875 113.836 53.0078 112.914 51.75 112.914C50.4844 112.914 49.5781 113.844 49.4922 115.242ZM62.3359 120.141C60.7188 120.141 59.6328 119.164 59.6328 117.703C59.6328 116.312 60.7031 115.438 62.5781 115.328L64.9141 115.195V114.516C64.9141 113.523 64.2578 112.93 63.1328 112.93C62.25 112.93 61.6484 113.25 61.1953 114.055C61.0703 114.281 60.8906 114.383 60.6328 114.383C60.2812 114.383 60.0312 114.141 60.0312 113.773C60.0312 113.602 60.0859 113.406 60.1953 113.211C60.6562 112.32 61.8438 111.734 63.1641 111.734C65.0703 111.734 66.2734 112.766 66.2734 114.383V119.453C66.2734 119.859 66.0078 120.141 65.6328 120.141C65.25 120.141 64.9844 119.859 64.9844 119.453V118.602H64.9531C64.4688 119.531 63.4297 120.141 62.3359 120.141ZM62.6406 118.984C63.9219 118.984 64.9141 118.086 64.9141 116.914V116.25L62.7344 116.383C61.6406 116.453 61.0156 116.938 61.0156 117.703C61.0156 118.477 61.6641 118.984 62.6406 118.984ZM68.75 110.508C68.2891 110.508 67.9062 110.125 67.9062 109.664C67.9062 109.195 68.2891 108.82 68.75 108.82C69.2188 108.82 69.6016 109.195 69.6016 109.664C69.6016 110.125 69.2188 110.508 68.75 110.508ZM68.75 120.141C68.3516 120.141 68.0703 119.844 68.0703 119.414V112.461C68.0703 112.031 68.3516 111.734 68.75 111.734C69.1484 111.734 69.4297 112.031 69.4297 112.461V119.414C69.4297 119.844 69.1484 120.141 68.75 120.141ZM71.9453 120.141C71.5469 120.141 71.2656 119.844 71.2656 119.414V112.422C71.2656 112.016 71.5312 111.734 71.9062 111.734C72.2812 111.734 72.5469 112.016 72.5469 112.422V113.172H72.5781C73.0312 112.297 73.8984 111.734 75.1562 111.734C76.9375 111.734 77.9688 112.883 77.9688 114.727V119.414C77.9688 119.844 77.6875 120.141 77.2891 120.141C76.8906 120.141 76.6094 119.844 76.6094 119.414V114.969C76.6094 113.656 75.9922 112.938 74.7422 112.938C73.4609 112.938 72.625 113.844 72.625 115.219V119.414C72.625 119.844 72.3438 120.141 71.9453 120.141ZM82.7812 120.141C80.7109 120.141 79.3047 118.484 79.3047 115.938C79.3047 113.391 80.7031 111.734 82.75 111.734C83.9141 111.734 84.8516 112.305 85.3359 113.195H85.3672V109.312C85.3672 108.883 85.6484 108.586 86.0469 108.586C86.4453 108.586 86.7266 108.883 86.7266 109.312V119.477C86.7266 119.867 86.4531 120.141 86.0625 120.141C85.6797 120.141 85.3672 119.875 85.3672 119.477V118.547H85.3438C84.8984 119.516 84.0547 120.141 82.7812 120.141ZM83.0391 118.945C84.4375 118.945 85.375 117.758 85.375 115.938C85.375 114.125 84.4375 112.93 83.0391 112.93C81.6016 112.93 80.6953 114.102 80.6953 115.938C80.6953 117.781 81.6016 118.945 83.0391 118.945ZM90.9297 120.141C89.3125 120.141 88.2266 119.164 88.2266 117.703C88.2266 116.312 89.2969 115.438 91.1719 115.328L93.5078 115.195V114.516C93.5078 113.523 92.8516 112.93 91.7266 112.93C90.8438 112.93 90.2422 113.25 89.7891 114.055C89.6641 114.281 89.4844 114.383 89.2266 114.383C88.875 114.383 88.625 114.141 88.625 113.773C88.625 113.602 88.6797 113.406 88.7891 113.211C89.25 112.32 90.4375 111.734 91.7578 111.734C93.6641 111.734 94.8672 112.766 94.8672 114.383V119.453C94.8672 119.859 94.6016 120.141 94.2266 120.141C93.8438 120.141 93.5781 119.859 93.5781 119.453V118.602H93.5469C93.0625 119.531 92.0234 120.141 90.9297 120.141ZM91.2344 118.984C92.5156 118.984 93.5078 118.086 93.5078 116.914V116.25L91.3281 116.383C90.2344 116.453 89.6094 116.938 89.6094 117.703C89.6094 118.477 90.2578 118.984 91.2344 118.984ZM100.555 120.141C100.156 120.141 99.875 119.844 99.875 119.414V112.422C99.875 112.016 100.141 111.734 100.516 111.734C100.891 111.734 101.156 112.016 101.156 112.422V113.172H101.188C101.641 112.297 102.508 111.734 103.766 111.734C105.547 111.734 106.578 112.883 106.578 114.727V119.414C106.578 119.844 106.297 120.141 105.898 120.141C105.5 120.141 105.219 119.844 105.219 119.414V114.969C105.219 113.656 104.602 112.938 103.352 112.938C102.07 112.938 101.234 113.844 101.234 115.219V119.414C101.234 119.844 100.953 120.141 100.555 120.141ZM109.414 110.758C109.133 110.758 108.961 110.57 108.961 110.258C108.961 109.203 109.602 108.57 110.461 108.57C111.539 108.57 111.891 109.758 112.477 109.758C112.766 109.758 112.93 109.516 113.008 108.977C113.055 108.609 113.188 108.453 113.469 108.453C113.742 108.453 113.922 108.648 113.922 108.945C113.922 109.961 113.273 110.641 112.469 110.641C111.438 110.641 111.047 109.453 110.453 109.453C110.094 109.453 109.938 109.688 109.875 110.281C109.844 110.602 109.695 110.758 109.414 110.758ZM110.68 120.141C109.062 120.141 107.977 119.164 107.977 117.703C107.977 116.312 109.047 115.438 110.922 115.328L113.258 115.195V114.516C113.258 113.523 112.602 112.93 111.477 112.93C110.594 112.93 109.992 113.25 109.539 114.055C109.414 114.281 109.234 114.383 108.977 114.383C108.625 114.383 108.375 114.141 108.375 113.773C108.375 113.602 108.43 113.406 108.539 113.211C109 112.32 110.188 111.734 111.508 111.734C113.414 111.734 114.617 112.766 114.617 114.383V119.453C114.617 119.859 114.352 120.141 113.977 120.141C113.594 120.141 113.328 119.859 113.328 119.453V118.602H113.297C112.812 119.531 111.773 120.141 110.68 120.141ZM110.984 118.984C112.266 118.984 113.258 118.086 113.258 116.914V116.25L111.078 116.383C109.984 116.453 109.359 116.938 109.359 117.703C109.359 118.477 110.008 118.984 110.984 118.984ZM119.711 120.141C117.461 120.141 115.945 118.523 115.945 115.938C115.945 113.344 117.461 111.734 119.711 111.734C121.953 111.734 123.469 113.344 123.469 115.938C123.469 118.523 121.953 120.141 119.711 120.141ZM119.711 118.945C121.148 118.945 122.086 117.852 122.086 115.938C122.086 114.023 121.148 112.93 119.711 112.93C118.273 112.93 117.328 114.023 117.328 115.938C117.328 117.852 118.273 118.945 119.711 118.945ZM128.805 120.141C128.406 120.141 128.125 119.844 128.125 119.414V112.422C128.125 112.016 128.391 111.734 128.766 111.734C129.141 111.734 129.406 112.016 129.406 112.422V113.203H129.438C129.672 112.359 130.469 111.734 131.281 111.734C131.578 111.734 131.789 111.805 131.922 111.93C132.039 112.039 132.094 112.195 132.094 112.383C132.094 112.594 132.023 112.75 131.883 112.859C131.742 112.977 131.531 113.031 131.234 113.031C130.008 113.031 129.484 113.914 129.484 114.953V119.414C129.484 119.844 129.203 120.141 128.805 120.141ZM136.078 120.141C133.68 120.141 132.273 118.594 132.273 115.969C132.273 113.406 133.719 111.734 135.961 111.734C138.039 111.734 139.5 113.289 139.5 115.516C139.5 116.008 139.219 116.305 138.75 116.305H133.672C133.672 117.945 134.57 118.961 136.023 118.961C136.992 118.961 137.586 118.617 138.219 117.695C138.359 117.5 138.516 117.422 138.727 117.422C139.086 117.422 139.328 117.656 139.328 118.016C139.328 118.125 139.289 118.266 139.227 118.414C138.703 119.516 137.562 120.141 136.078 120.141ZM133.68 115.242H138.094C138.062 113.836 137.195 112.914 135.938 112.914C134.672 112.914 133.766 113.844 133.68 115.242ZM144.156 123.062C142.797 123.047 141.664 122.508 141.094 121.609C140.984 121.438 140.938 121.281 140.938 121.102C140.938 120.758 141.188 120.516 141.547 120.516C141.773 120.516 141.906 120.594 142.117 120.828C142.812 121.594 143.383 121.891 144.211 121.906C145.664 121.93 146.547 121.094 146.547 119.883V118.602H146.516C146.016 119.484 145.047 120.062 143.906 120.062C141.836 120.062 140.477 118.43 140.477 115.906C140.477 113.359 141.836 111.734 143.938 111.734C145.086 111.734 145.984 112.297 146.523 113.211H146.547V112.438C146.547 112.016 146.836 111.734 147.227 111.734C147.617 111.734 147.906 112.016 147.906 112.438V119.836C147.906 121.773 146.469 123.086 144.156 123.062ZM144.18 118.867C145.594 118.867 146.547 117.695 146.547 115.906C146.547 114.117 145.594 112.93 144.18 112.93C142.781 112.93 141.867 114.086 141.867 115.906C141.867 117.727 142.781 118.867 144.18 118.867ZM150.422 110.508C149.961 110.508 149.578 110.125 149.578 109.664C149.578 109.195 149.961 108.82 150.422 108.82C150.891 108.82 151.273 109.195 151.273 109.664C151.273 110.125 150.891 110.508 150.422 110.508ZM150.422 120.141C150.023 120.141 149.742 119.844 149.742 119.414V112.461C149.742 112.031 150.023 111.734 150.422 111.734C150.82 111.734 151.102 112.031 151.102 112.461V119.414C151.102 119.844 150.82 120.141 150.422 120.141ZM155.758 120.141C154.312 120.141 153.18 119.492 152.789 118.477C152.742 118.359 152.727 118.258 152.727 118.156C152.727 117.797 152.992 117.594 153.344 117.594C153.586 117.594 153.781 117.719 153.938 118C154.344 118.711 154.828 119.031 155.867 119.031C156.906 119.031 157.609 118.578 157.609 117.82C157.609 117.234 157.273 116.922 156.359 116.695L155.117 116.383C153.547 115.992 152.789 115.25 152.789 114.109C152.789 112.695 154.031 111.734 155.867 111.734C157.203 111.734 158.391 112.484 158.602 113.461C158.617 113.539 158.625 113.602 158.625 113.664C158.625 113.984 158.422 114.195 158.094 114.195C157.828 114.195 157.641 114.109 157.492 113.828C157.141 113.148 156.617 112.852 155.789 112.852C154.812 112.852 154.133 113.344 154.133 114.039C154.133 114.602 154.57 114.992 155.461 115.211L156.672 115.508C158.367 115.922 158.992 116.516 158.992 117.711C158.992 119.164 157.688 120.141 155.758 120.141ZM160.828 118.125V112.992H160.148C159.758 112.992 159.539 112.789 159.539 112.43C159.539 112.078 159.758 111.875 160.148 111.875H160.828V110.484C160.828 110.055 161.109 109.758 161.508 109.758C161.906 109.758 162.188 110.055 162.188 110.484V111.875H163.234C163.625 111.875 163.844 112.078 163.844 112.43C163.844 112.789 163.625 112.992 163.234 112.992H162.188V117.828C162.188 118.516 162.43 118.844 163.109 118.891L163.227 118.898C163.672 118.93 163.875 119.109 163.875 119.43C163.875 119.844 163.641 120.062 162.883 120.062H162.797C161.484 120.062 160.828 119.422 160.828 118.125ZM165.898 120.141C165.5 120.141 165.219 119.844 165.219 119.414V112.422C165.219 112.016 165.484 111.734 165.859 111.734C166.234 111.734 166.5 112.016 166.5 112.422V113.203H166.531C166.766 112.359 167.562 111.734 168.375 111.734C168.672 111.734 168.883 111.805 169.016 111.93C169.133 112.039 169.188 112.195 169.188 112.383C169.188 112.594 169.117 112.75 168.977 112.859C168.836 112.977 168.625 113.031 168.328 113.031C167.102 113.031 166.578 113.914 166.578 114.953V119.414C166.578 119.844 166.297 120.141 165.898 120.141ZM173.133 120.141C170.883 120.141 169.367 118.523 169.367 115.938C169.367 113.344 170.883 111.734 173.133 111.734C175.375 111.734 176.891 113.344 176.891 115.938C176.891 118.523 175.375 120.141 173.133 120.141ZM173.133 118.945C174.57 118.945 175.508 117.852 175.508 115.938C175.508 114.023 174.57 112.93 173.133 112.93C171.695 112.93 170.75 114.023 170.75 115.938C170.75 117.852 171.695 118.945 173.133 118.945ZM181.039 120.141C179.266 120.141 178.227 118.992 178.227 117.148V112.461C178.227 112.031 178.508 111.734 178.906 111.734C179.305 111.734 179.586 112.031 179.586 112.461V116.906C179.586 118.227 180.203 118.938 181.461 118.938C182.781 118.938 183.578 118.031 183.578 116.648V112.461C183.578 112.031 183.859 111.734 184.258 111.734C184.656 111.734 184.938 112.031 184.938 112.461V119.453C184.938 119.844 184.688 120.141 184.297 120.141C183.906 120.141 183.648 119.844 183.648 119.453V118.68H183.617C183.133 119.617 182.289 120.141 181.039 120.141ZM195.633 120.141C194.016 120.141 192.93 119.164 192.93 117.703C192.93 116.312 194 115.438 195.875 115.328L198.211 115.195V114.516C198.211 113.523 197.555 112.93 196.43 112.93C195.547 112.93 194.945 113.25 194.492 114.055C194.367 114.281 194.188 114.383 193.93 114.383C193.578 114.383 193.328 114.141 193.328 113.773C193.328 113.602 193.383 113.406 193.492 113.211C193.953 112.32 195.141 111.734 196.461 111.734C198.367 111.734 199.57 112.766 199.57 114.383V119.453C199.57 119.859 199.305 120.141 198.93 120.141C198.547 120.141 198.281 119.859 198.281 119.453V118.602H198.25C197.766 119.531 196.727 120.141 195.633 120.141ZM195.938 118.984C197.219 118.984 198.211 118.086 198.211 116.914V116.25L196.031 116.383C194.938 116.453 194.312 116.938 194.312 117.703C194.312 118.477 194.961 118.984 195.938 118.984ZM201.734 118.125V112.992H201.055C200.664 112.992 200.445 112.789 200.445 112.43C200.445 112.078 200.664 111.875 201.055 111.875H201.734V110.484C201.734 110.055 202.016 109.758 202.414 109.758C202.812 109.758 203.094 110.055 203.094 110.484V111.875H204.141C204.531 111.875 204.75 112.078 204.75 112.43C204.75 112.789 204.531 112.992 204.141 112.992H203.094V117.828C203.094 118.516 203.336 118.844 204.016 118.891L204.133 118.898C204.578 118.93 204.781 119.109 204.781 119.43C204.781 119.844 204.547 120.062 203.789 120.062H203.703C202.391 120.062 201.734 119.422 201.734 118.125ZM206.875 110.508C206.414 110.508 206.031 110.125 206.031 109.664C206.031 109.195 206.414 108.82 206.875 108.82C207.344 108.82 207.727 109.195 207.727 109.664C207.727 110.125 207.344 110.508 206.875 110.508ZM206.875 120.141C206.477 120.141 206.195 119.844 206.195 119.414V112.461C206.195 112.031 206.477 111.734 206.875 111.734C207.273 111.734 207.555 112.031 207.555 112.461V119.414C207.555 119.844 207.273 120.141 206.875 120.141ZM212.367 120.141C211.922 120.141 211.672 119.945 211.477 119.453L208.891 112.711C208.844 112.594 208.82 112.477 208.82 112.359C208.82 111.984 209.094 111.734 209.5 111.734C209.805 111.734 210.008 111.898 210.133 112.25L212.359 118.555H212.391L214.625 112.25C214.75 111.898 214.953 111.734 215.25 111.734C215.656 111.734 215.922 111.984 215.922 112.359C215.922 112.477 215.898 112.594 215.852 112.711L213.273 119.453C213.094 119.922 212.805 120.141 212.367 120.141ZM217.875 110.508C217.414 110.508 217.031 110.125 217.031 109.664C217.031 109.195 217.414 108.82 217.875 108.82C218.344 108.82 218.727 109.195 218.727 109.664C218.727 110.125 218.344 110.508 217.875 110.508ZM217.875 120.141C217.477 120.141 217.195 119.844 217.195 119.414V112.461C217.195 112.031 217.477 111.734 217.875 111.734C218.273 111.734 218.555 112.031 218.555 112.461V119.414C218.555 119.844 218.273 120.141 217.875 120.141ZM223.469 120.141C221.398 120.141 219.992 118.484 219.992 115.938C219.992 113.391 221.391 111.734 223.438 111.734C224.602 111.734 225.539 112.305 226.023 113.195H226.055V109.312C226.055 108.883 226.336 108.586 226.734 108.586C227.133 108.586 227.414 108.883 227.414 109.312V119.477C227.414 119.867 227.141 120.141 226.75 120.141C226.367 120.141 226.055 119.875 226.055 119.477V118.547H226.031C225.586 119.516 224.742 120.141 223.469 120.141ZM223.727 118.945C225.125 118.945 226.062 117.758 226.062 115.938C226.062 114.125 225.125 112.93 223.727 112.93C222.289 112.93 221.383 114.102 221.383 115.938C221.383 117.781 222.289 118.945 223.727 118.945ZM231.617 120.141C230 120.141 228.914 119.164 228.914 117.703C228.914 116.312 229.984 115.438 231.859 115.328L234.195 115.195V114.516C234.195 113.523 233.539 112.93 232.414 112.93C231.531 112.93 230.93 113.25 230.477 114.055C230.352 114.281 230.172 114.383 229.914 114.383C229.562 114.383 229.312 114.141 229.312 113.773C229.312 113.602 229.367 113.406 229.477 113.211C229.938 112.32 231.125 111.734 232.445 111.734C234.352 111.734 235.555 112.766 235.555 114.383V119.453C235.555 119.859 235.289 120.141 234.914 120.141C234.531 120.141 234.266 119.859 234.266 119.453V118.602H234.234C233.75 119.531 232.711 120.141 231.617 120.141ZM231.922 118.984C233.203 118.984 234.195 118.086 234.195 116.914V116.25L232.016 116.383C230.922 116.453 230.297 116.938 230.297 117.703C230.297 118.477 230.945 118.984 231.922 118.984ZM240.359 120.141C238.289 120.141 236.883 118.484 236.883 115.938C236.883 113.391 238.281 111.734 240.328 111.734C241.492 111.734 242.43 112.305 242.914 113.195H242.945V109.312C242.945 108.883 243.227 108.586 243.625 108.586C244.023 108.586 244.305 108.883 244.305 109.312V119.477C244.305 119.867 244.031 120.141 243.641 120.141C243.258 120.141 242.945 119.875 242.945 119.477V118.547H242.922C242.477 119.516 241.633 120.141 240.359 120.141ZM240.617 118.945C242.016 118.945 242.953 117.758 242.953 115.938C242.953 114.125 242.016 112.93 240.617 112.93C239.18 112.93 238.273 114.102 238.273 115.938C238.273 117.781 239.18 118.945 240.617 118.945ZM249.547 120.141C247.148 120.141 245.742 118.594 245.742 115.969C245.742 113.406 247.188 111.734 249.43 111.734C251.508 111.734 252.969 113.289 252.969 115.516C252.969 116.008 252.688 116.305 252.219 116.305H247.141C247.141 117.945 248.039 118.961 249.492 118.961C250.461 118.961 251.055 118.617 251.688 117.695C251.828 117.5 251.984 117.422 252.195 117.422C252.555 117.422 252.797 117.656 252.797 118.016C252.797 118.125 252.758 118.266 252.695 118.414C252.172 119.516 251.031 120.141 249.547 120.141ZM247.148 115.242H251.562C251.531 113.836 250.664 112.914 249.406 112.914C248.141 112.914 247.234 113.844 247.148 115.242ZM257.164 120.141C255.719 120.141 254.586 119.492 254.195 118.477C254.148 118.359 254.133 118.258 254.133 118.156C254.133 117.797 254.398 117.594 254.75 117.594C254.992 117.594 255.188 117.719 255.344 118C255.75 118.711 256.234 119.031 257.273 119.031C258.312 119.031 259.016 118.578 259.016 117.82C259.016 117.234 258.68 116.922 257.766 116.695L256.523 116.383C254.953 115.992 254.195 115.25 254.195 114.109C254.195 112.695 255.438 111.734 257.273 111.734C258.609 111.734 259.797 112.484 260.008 113.461C260.023 113.539 260.031 113.602 260.031 113.664C260.031 113.984 259.828 114.195 259.5 114.195C259.234 114.195 259.047 114.109 258.898 113.828C258.547 113.148 258.023 112.852 257.195 112.852C256.219 112.852 255.539 113.344 255.539 114.039C255.539 114.602 255.977 114.992 256.867 115.211L258.078 115.508C259.773 115.922 260.398 116.516 260.398 117.711C260.398 119.164 259.094 120.141 257.164 120.141ZM60.5547 142.141C58.4844 142.141 57.0781 140.484 57.0781 137.938C57.0781 135.391 58.4766 133.734 60.5234 133.734C61.6875 133.734 62.625 134.305 63.1094 135.195H63.1406V131.312C63.1406 130.883 63.4219 130.586 63.8203 130.586C64.2188 130.586 64.5 130.883 64.5 131.312V141.477C64.5 141.867 64.2266 142.141 63.8359 142.141C63.4531 142.141 63.1406 141.875 63.1406 141.477V140.547H63.1172C62.6719 141.516 61.8281 142.141 60.5547 142.141ZM60.8125 140.945C62.2109 140.945 63.1484 139.758 63.1484 137.938C63.1484 136.125 62.2109 134.93 60.8125 134.93C59.375 134.93 58.4688 136.102 58.4688 137.938C58.4688 139.781 59.375 140.945 60.8125 140.945ZM69.7422 142.141C67.3438 142.141 65.9375 140.594 65.9375 137.969C65.9375 135.406 67.3828 133.734 69.625 133.734C71.7031 133.734 73.1641 135.289 73.1641 137.516C73.1641 138.008 72.8828 138.305 72.4141 138.305H67.3359C67.3359 139.945 68.2344 140.961 69.6875 140.961C70.6562 140.961 71.25 140.617 71.8828 139.695C72.0234 139.5 72.1797 139.422 72.3906 139.422C72.75 139.422 72.9922 139.656 72.9922 140.016C72.9922 140.125 72.9531 140.266 72.8906 140.414C72.3672 141.516 71.2266 142.141 69.7422 142.141ZM67.3438 137.242H71.7578C71.7266 135.836 70.8594 134.914 69.6016 134.914C68.3359 134.914 67.4297 135.844 67.3438 137.242ZM80.6406 142.141C79.1953 142.141 78.0625 141.492 77.6719 140.477C77.625 140.359 77.6094 140.258 77.6094 140.156C77.6094 139.797 77.875 139.594 78.2266 139.594C78.4688 139.594 78.6641 139.719 78.8203 140C79.2266 140.711 79.7109 141.031 80.75 141.031C81.7891 141.031 82.4922 140.578 82.4922 139.82C82.4922 139.234 82.1562 138.922 81.2422 138.695L80 138.383C78.4297 137.992 77.6719 137.25 77.6719 136.109C77.6719 134.695 78.9141 133.734 80.75 133.734C82.0859 133.734 83.2734 134.484 83.4844 135.461C83.5 135.539 83.5078 135.602 83.5078 135.664C83.5078 135.984 83.3047 136.195 82.9766 136.195C82.7109 136.195 82.5234 136.109 82.375 135.828C82.0234 135.148 81.5 134.852 80.6719 134.852C79.6953 134.852 79.0156 135.344 79.0156 136.039C79.0156 136.602 79.4531 136.992 80.3438 137.211L81.5547 137.508C83.25 137.922 83.875 138.516 83.875 139.711C83.875 141.164 82.5703 142.141 80.6406 142.141ZM87.6406 142.141C86.0234 142.141 84.9375 141.164 84.9375 139.703C84.9375 138.312 86.0078 137.438 87.8828 137.328L90.2188 137.195V136.516C90.2188 135.523 89.5625 134.93 88.4375 134.93C87.5547 134.93 86.9531 135.25 86.5 136.055C86.375 136.281 86.1953 136.383 85.9375 136.383C85.5859 136.383 85.3359 136.141 85.3359 135.773C85.3359 135.602 85.3906 135.406 85.5 135.211C85.9609 134.32 87.1484 133.734 88.4688 133.734C90.375 133.734 91.5781 134.766 91.5781 136.383V141.453C91.5781 141.859 91.3125 142.141 90.9375 142.141C90.5547 142.141 90.2891 141.859 90.2891 141.453V140.602H90.2578C89.7734 141.531 88.7344 142.141 87.6406 142.141ZM87.9453 140.984C89.2266 140.984 90.2188 140.086 90.2188 138.914V138.25L88.0391 138.383C86.9453 138.453 86.3203 138.938 86.3203 139.703C86.3203 140.477 86.9688 140.984 87.9453 140.984ZM96.7969 132.914C96.5234 132.914 96.3281 132.734 96.3281 132.492C96.3281 132.359 96.3594 132.266 96.4453 132.141L97.6094 130.477C97.8281 130.164 97.9609 130.078 98.2109 130.078C98.5391 130.078 98.7734 130.289 98.7734 130.594C98.7734 130.758 98.7266 130.883 98.6172 131.016L97.2734 132.656C97.1172 132.852 97 132.914 96.7969 132.914ZM96.0781 142.141C94.3047 142.141 93.2656 140.992 93.2656 139.148V134.461C93.2656 134.031 93.5469 133.734 93.9453 133.734C94.3438 133.734 94.625 134.031 94.625 134.461V138.906C94.625 140.227 95.2422 140.938 96.5 140.938C97.8203 140.938 98.6172 140.031 98.6172 138.648V134.461C98.6172 134.031 98.8984 133.734 99.2969 133.734C99.6953 133.734 99.9766 134.031 99.9766 134.461V141.453C99.9766 141.844 99.7266 142.141 99.3359 142.141C98.9453 142.141 98.6875 141.844 98.6875 141.453V140.68H98.6562C98.1719 141.617 97.3281 142.141 96.0781 142.141ZM104.82 142.141C102.75 142.141 101.344 140.484 101.344 137.938C101.344 135.391 102.742 133.734 104.789 133.734C105.953 133.734 106.891 134.305 107.375 135.195H107.406V131.312C107.406 130.883 107.688 130.586 108.086 130.586C108.484 130.586 108.766 130.883 108.766 131.312V141.477C108.766 141.867 108.492 142.141 108.102 142.141C107.719 142.141 107.406 141.875 107.406 141.477V140.547H107.383C106.938 141.516 106.094 142.141 104.82 142.141ZM105.078 140.945C106.477 140.945 107.414 139.758 107.414 137.938C107.414 136.125 106.477 134.93 105.078 134.93C103.641 134.93 102.734 136.102 102.734 137.938C102.734 139.781 103.641 140.945 105.078 140.945ZM114.008 142.141C111.609 142.141 110.203 140.594 110.203 137.969C110.203 135.406 111.648 133.734 113.891 133.734C115.969 133.734 117.43 135.289 117.43 137.516C117.43 138.008 117.148 138.305 116.68 138.305H111.602C111.602 139.945 112.5 140.961 113.953 140.961C114.922 140.961 115.516 140.617 116.148 139.695C116.289 139.5 116.445 139.422 116.656 139.422C117.016 139.422 117.258 139.656 117.258 140.016C117.258 140.125 117.219 140.266 117.156 140.414C116.633 141.516 115.492 142.141 114.008 142.141ZM111.609 137.242H116.023C115.992 135.836 115.125 134.914 113.867 134.914C112.602 134.914 111.695 135.844 111.609 137.242ZM125.492 142.141C123.094 142.141 121.688 140.594 121.688 137.969C121.688 135.406 123.133 133.734 125.375 133.734C127.453 133.734 128.914 135.289 128.914 137.516C128.914 138.008 128.633 138.305 128.164 138.305H123.086C123.086 139.945 123.984 140.961 125.438 140.961C126.406 140.961 127 140.617 127.633 139.695C127.773 139.5 127.93 139.422 128.141 139.422C128.5 139.422 128.742 139.656 128.742 140.016C128.742 140.125 128.703 140.266 128.641 140.414C128.117 141.516 126.977 142.141 125.492 142.141ZM123.094 137.242H127.508C127.477 135.836 126.609 134.914 125.352 134.914C124.086 134.914 123.18 135.844 123.094 137.242ZM136.648 142.141C134.578 142.141 133.172 140.484 133.172 137.938C133.172 135.391 134.57 133.734 136.617 133.734C137.781 133.734 138.719 134.305 139.203 135.195H139.234V131.312C139.234 130.883 139.516 130.586 139.914 130.586C140.312 130.586 140.594 130.883 140.594 131.312V141.477C140.594 141.867 140.32 142.141 139.93 142.141C139.547 142.141 139.234 141.875 139.234 141.477V140.547H139.211C138.766 141.516 137.922 142.141 136.648 142.141ZM136.906 140.945C138.305 140.945 139.242 139.758 139.242 137.938C139.242 136.125 138.305 134.93 136.906 134.93C135.469 134.93 134.562 136.102 134.562 137.938C134.562 139.781 135.469 140.945 136.906 140.945ZM145.836 142.141C143.438 142.141 142.031 140.594 142.031 137.969C142.031 135.406 143.477 133.734 145.719 133.734C147.797 133.734 149.258 135.289 149.258 137.516C149.258 138.008 148.977 138.305 148.508 138.305H143.43C143.43 139.945 144.328 140.961 145.781 140.961C146.75 140.961 147.344 140.617 147.977 139.695C148.117 139.5 148.273 139.422 148.484 139.422C148.844 139.422 149.086 139.656 149.086 140.016C149.086 140.125 149.047 140.266 148.984 140.414C148.461 141.516 147.32 142.141 145.836 142.141ZM143.438 137.242H147.852C147.82 135.836 146.953 134.914 145.695 134.914C144.43 134.914 143.523 135.844 143.438 137.242ZM154.617 142.141C154.234 142.141 153.984 141.875 153.984 141.477V131.312C153.984 130.883 154.266 130.586 154.664 130.586C155.062 130.586 155.344 130.883 155.344 131.312V135.234H155.375C155.891 134.305 156.836 133.734 157.984 133.734C160.031 133.734 161.414 135.391 161.414 137.938C161.414 140.492 160.039 142.141 157.961 142.141C156.773 142.141 155.844 141.562 155.312 140.625H155.281V141.477C155.281 141.867 155.008 142.141 154.617 142.141ZM157.695 140.945C159.133 140.945 160.023 139.797 160.023 137.938C160.023 136.094 159.133 134.93 157.695 134.93C156.32 134.93 155.336 136.133 155.336 137.938C155.336 139.75 156.32 140.945 157.695 140.945ZM166.195 142.141C163.797 142.141 162.391 140.594 162.391 137.969C162.391 135.406 163.836 133.734 166.078 133.734C168.156 133.734 169.617 135.289 169.617 137.516C169.617 138.008 169.336 138.305 168.867 138.305H163.789C163.789 139.945 164.688 140.961 166.141 140.961C167.109 140.961 167.703 140.617 168.336 139.695C168.477 139.5 168.633 139.422 168.844 139.422C169.203 139.422 169.445 139.656 169.445 140.016C169.445 140.125 169.406 140.266 169.344 140.414C168.82 141.516 167.68 142.141 166.195 142.141ZM163.797 137.242H168.211C168.18 135.836 167.312 134.914 166.055 134.914C164.789 134.914 163.883 135.844 163.797 137.242ZM171.672 142.141C171.258 142.141 170.992 141.828 170.992 141.414V134.422C170.992 134.016 171.258 133.734 171.633 133.734C172.008 133.734 172.273 134.016 172.273 134.422V135.172H172.305C172.688 134.312 173.516 133.734 174.609 133.734C175.719 133.734 176.539 134.297 176.891 135.281H176.922C177.375 134.312 178.328 133.734 179.469 133.734C181.078 133.734 182.117 134.781 182.117 136.391V141.414C182.117 141.828 181.852 142.141 181.438 142.141C181.023 142.141 180.758 141.828 180.758 141.414V136.703C180.758 135.594 180.141 134.938 179.07 134.938C177.992 134.938 177.234 135.734 177.234 136.836V141.414C177.234 141.828 176.969 142.141 176.555 142.141C176.141 142.141 175.875 141.828 175.875 141.414V136.555C175.875 135.578 175.219 134.938 174.211 134.938C173.133 134.938 172.352 135.781 172.352 136.906V141.414C172.352 141.828 172.086 142.141 171.672 142.141ZM184.391 138.062C184.008 138.062 183.719 137.812 183.719 137.43C183.719 137.047 184.008 136.797 184.391 136.797H188.406C188.789 136.797 189.078 137.047 189.078 137.43C189.078 137.812 188.789 138.062 188.406 138.062H184.391ZM194.117 142.141C191.719 142.141 190.312 140.594 190.312 137.969C190.312 135.406 191.758 133.734 194 133.734C196.078 133.734 197.539 135.289 197.539 137.516C197.539 138.008 197.258 138.305 196.789 138.305H191.711C191.711 139.945 192.609 140.961 194.062 140.961C195.031 140.961 195.625 140.617 196.258 139.695C196.398 139.5 196.555 139.422 196.766 139.422C197.125 139.422 197.367 139.656 197.367 140.016C197.367 140.125 197.328 140.266 197.266 140.414C196.742 141.516 195.602 142.141 194.117 142.141ZM191.719 137.242H196.133C196.102 135.836 195.234 134.914 193.977 134.914C192.711 134.914 191.805 135.844 191.719 137.242ZM201.734 142.141C200.289 142.141 199.156 141.492 198.766 140.477C198.719 140.359 198.703 140.258 198.703 140.156C198.703 139.797 198.969 139.594 199.32 139.594C199.562 139.594 199.758 139.719 199.914 140C200.32 140.711 200.805 141.031 201.844 141.031C202.883 141.031 203.586 140.578 203.586 139.82C203.586 139.234 203.25 138.922 202.336 138.695L201.094 138.383C199.523 137.992 198.766 137.25 198.766 136.109C198.766 134.695 200.008 133.734 201.844 133.734C203.18 133.734 204.367 134.484 204.578 135.461C204.594 135.539 204.602 135.602 204.602 135.664C204.602 135.984 204.398 136.195 204.07 136.195C203.805 136.195 203.617 136.109 203.469 135.828C203.117 135.148 202.594 134.852 201.766 134.852C200.789 134.852 200.109 135.344 200.109 136.039C200.109 136.602 200.547 136.992 201.438 137.211L202.648 137.508C204.344 137.922 204.969 138.516 204.969 139.711C204.969 141.164 203.664 142.141 201.734 142.141ZM206.805 140.125V134.992H206.125C205.734 134.992 205.516 134.789 205.516 134.43C205.516 134.078 205.734 133.875 206.125 133.875H206.805V132.484C206.805 132.055 207.086 131.758 207.484 131.758C207.883 131.758 208.164 132.055 208.164 132.484V133.875H209.211C209.602 133.875 209.82 134.078 209.82 134.43C209.82 134.789 209.602 134.992 209.211 134.992H208.164V139.828C208.164 140.516 208.406 140.844 209.086 140.891L209.203 140.898C209.648 140.93 209.852 141.109 209.852 141.43C209.852 141.844 209.617 142.062 208.859 142.062H208.773C207.461 142.062 206.805 141.422 206.805 140.125ZM213.406 142.141C211.789 142.141 210.703 141.164 210.703 139.703C210.703 138.312 211.773 137.438 213.648 137.328L215.984 137.195V136.516C215.984 135.523 215.328 134.93 214.203 134.93C213.32 134.93 212.719 135.25 212.266 136.055C212.141 136.281 211.961 136.383 211.703 136.383C211.352 136.383 211.102 136.141 211.102 135.773C211.102 135.602 211.156 135.406 211.266 135.211C211.727 134.32 212.914 133.734 214.234 133.734C216.141 133.734 217.344 134.766 217.344 136.383V141.453C217.344 141.859 217.078 142.141 216.703 142.141C216.32 142.141 216.055 141.859 216.055 141.453V140.602H216.023C215.539 141.531 214.5 142.141 213.406 142.141ZM213.711 140.984C214.992 140.984 215.984 140.086 215.984 138.914V138.25L213.805 138.383C212.711 138.453 212.086 138.938 212.086 139.703C212.086 140.477 212.734 140.984 213.711 140.984ZM219.75 142.141C219.352 142.141 219.07 141.844 219.07 141.414V134.422C219.07 134.016 219.336 133.734 219.711 133.734C220.086 133.734 220.352 134.016 220.352 134.422V135.203H220.383C220.617 134.359 221.414 133.734 222.227 133.734C222.523 133.734 222.734 133.805 222.867 133.93C222.984 134.039 223.039 134.195 223.039 134.383C223.039 134.594 222.969 134.75 222.828 134.859C222.688 134.977 222.477 135.031 222.18 135.031C220.953 135.031 220.43 135.914 220.43 136.953V141.414C220.43 141.844 220.148 142.141 219.75 142.141ZM224.375 142.078C223.875 142.078 223.484 141.688 223.484 141.188C223.484 140.688 223.875 140.297 224.375 140.297C224.875 140.297 225.266 140.688 225.266 141.188C225.266 141.688 224.875 142.078 224.375 142.078Z" fill="#999999"/>
<path d="M98.9141 76.1605H92L94.1043 80.5917L98.9141 85.9725L104.325 89.4541L112.141 92.6193L123.264 96.4174L135.89 97.367L147.012 98L156.933 97.367L165.65 94.8349L172.264 92.6193L179.479 88.5046L184.89 84.3899L190 76.1605L182.785 77.1101L176.172 76.1605L169.258 73.6284L163.546 70.1468L160.54 67.6147L155.73 63.1835L151.221 56.8532L147.613 50.2064L144.908 43.5596L142.804 36.9128L141 29L139.196 36.9128L137.092 43.5596L134.988 50.2064L131.08 56.8532L125.969 63.1835L120.258 67.6147L115.448 70.1468L109.736 73.6284L107.632 74.578L103.123 76.1605H98.9141Z" fill="white" stroke="white"/>
<path d="M98.9141 76.1605H92L94.1043 80.5917L98.9141 85.9725L104.325 89.4541L112.141 92.6193L123.264 96.4174L135.89 97.367L147.012 98L156.933 97.367L165.65 94.8349L172.264 92.6193L179.479 88.5046L184.89 84.3899L190 76.1605L182.785 77.1101L176.172 76.1605L169.258 73.6284L163.546 70.1468L160.54 67.6147L155.73 63.1835L151.221 56.8532L147.613 50.2064L144.908 43.5596L142.804 36.9128L141 29L139.196 36.9128L137.092 43.5596L134.988 50.2064L131.08 56.8532L125.969 63.1835L120.258 67.6147L115.448 70.1468L109.736 73.6284L107.632 74.578L103.123 76.1605H98.9141Z" fill="white" stroke="white"/>
<path d="M139.18 80.9003C139.656 78.4663 139.964 74.5395 142.485 73.4116C143.17 73.1052 143.426 72.5536 144.214 72.2768C144.895 72.0372 145.011 71.9648 145.787 71.9346C147.205 71.8793 148.532 71.427 150.015 71.7137" stroke="black" stroke-width="3" stroke-linecap="round"/>
<path d="M139.18 80.9003C139.656 78.4663 139.964 74.5395 142.485 73.4116C143.17 73.1052 143.426 72.5536 144.214 72.2768C144.895 72.0372 145.011 71.9648 145.787 71.9346C147.205 71.8793 148.532 71.427 150.015 71.7137" stroke="black" stroke-width="3" stroke-linecap="round"/>
<path d="M96.6556 76.709L95.6307 76.5138C94.2479 76.2505 92.9782 75.572 91.9906 74.5689C90.715 73.2731 90 71.5277 90 69.7095V63.9375V54.7344C90 48.611 90.5426 42.4997 91.6215 36.4721L91.7536 35.7344L93.5072 28.3125C94.4792 23.3754 95.9112 18.5401 97.7843 13.8699L98.1834 12.875L99.9406 7.96645C100.323 6.89747 100.934 5.92463 101.731 5.11552L102.188 4.65084C103.366 3.45477 104.974 2.78125 106.652 2.78125C108.164 2.78125 109.625 3.32816 110.766 4.32106L111.934 5.33851C112.7 6.00508 113.364 6.78011 113.905 7.63896L117.765 13.7656L119.392 16.4101C121.105 19.1945 124.141 20.8906 127.41 20.8906H134.132H143.192H151.442C151.787 20.8906 152.131 20.9155 152.472 20.965L155.37 21.3855C156.968 21.6174 158.516 20.7193 159.107 19.2169C159.213 18.9483 159.352 18.694 159.52 18.4597L164.819 11.0938L167.66 6.10986C167.909 5.67264 168.191 5.25462 168.502 4.85927L169.834 3.16861C170.912 1.79925 172.559 1 174.302 1C175.722 1 177.091 1.53146 178.14 2.48985L178.477 2.79832C179.109 3.3756 179.627 4.06583 180.004 4.83344L183.542 12.02C185.278 15.5461 186.586 19.267 187.439 23.1035L190.246 35.7344L192 54.7344V63.4835C192 64.9694 191.84 66.4508 191.522 67.9023L190.537 72.4057C190.347 73.2738 189.916 74.0704 189.292 74.7036C188.407 75.6029 187.198 76.1094 185.936 76.1094H185.278H184.221C179.136 76.1094 174.106 75.0534 169.451 73.0084C166.955 71.9125 164.59 70.5422 162.398 68.9229L159.266 66.6094C155.586 63.6579 152.378 60.1616 149.754 56.2413L148.745 54.7344L146.407 49.9844L143.777 42.8594L142.023 37.2188L140.562 29.2031C139.784 34.5381 138.575 39.8015 136.949 44.9417L136.762 45.5312L136.696 45.6906C134.226 51.675 130.742 57.1889 126.399 61.9901L125.942 62.4949C124.002 64.6399 121.874 66.6078 119.585 68.3753L118.826 68.9612C116.76 70.556 114.54 71.9402 112.199 73.0933L109.887 74.2317C107.364 75.4741 104.646 76.2706 101.851 76.586L99.7288 76.8256C98.7044 76.9412 97.6684 76.9019 96.6556 76.709Z" fill="#F4C091" stroke="#F4C091"/>
<path d="M96.6556 76.709L95.6307 76.5138C94.2479 76.2505 92.9782 75.572 91.9906 74.5689C90.715 73.2731 90 71.5277 90 69.7095V63.9375V54.7344C90 48.611 90.5426 42.4997 91.6215 36.4721L91.7536 35.7344L93.5072 28.3125C94.4792 23.3754 95.9112 18.5401 97.7843 13.8699L98.1834 12.875L99.9406 7.96645C100.323 6.89747 100.934 5.92463 101.731 5.11552L102.188 4.65084C103.366 3.45477 104.974 2.78125 106.652 2.78125C108.164 2.78125 109.625 3.32816 110.766 4.32106L111.934 5.33851C112.7 6.00508 113.364 6.78011 113.905 7.63896L117.765 13.7656L119.392 16.4101C121.105 19.1945 124.141 20.8906 127.41 20.8906H134.132H143.192H151.442C151.787 20.8906 152.131 20.9155 152.472 20.965L155.37 21.3855C156.968 21.6174 158.516 20.7193 159.107 19.2169C159.213 18.9483 159.352 18.694 159.52 18.4597L164.819 11.0938L167.66 6.10986C167.909 5.67264 168.191 5.25462 168.502 4.85927L169.834 3.16861C170.912 1.79925 172.559 1 174.302 1C175.722 1 177.091 1.53146 178.14 2.48985L178.477 2.79832C179.109 3.3756 179.627 4.06583 180.004 4.83344L183.542 12.02C185.278 15.5461 186.586 19.267 187.439 23.1035L190.246 35.7344L192 54.7344V63.4835C192 64.9694 191.84 66.4508 191.522 67.9023L190.537 72.4057C190.347 73.2738 189.916 74.0704 189.292 74.7036C188.407 75.6029 187.198 76.1094 185.936 76.1094H185.278H184.221C179.136 76.1094 174.106 75.0534 169.451 73.0084C166.955 71.9125 164.59 70.5422 162.398 68.9229L159.266 66.6094C155.586 63.6579 152.378 60.1616 149.754 56.2413L148.745 54.7344L146.407 49.9844L143.777 42.8594L142.023 37.2188L140.562 29.2031C139.784 34.5381 138.575 39.8015 136.949 44.9417L136.762 45.5312L136.696 45.6906C134.226 51.675 130.742 57.1889 126.399 61.9901L125.942 62.4949C124.002 64.6399 121.874 66.6078 119.585 68.3753L118.826 68.9612C116.76 70.556 114.54 71.9402 112.199 73.0933L109.887 74.2317C107.364 75.4741 104.646 76.2706 101.851 76.586L99.7288 76.8256C98.7044 76.9412 97.6684 76.9019 96.6556 76.709Z" fill="#F4C091" stroke="#F4C091"/>
<path d="M166.048 17.9022L164.358 20.7154C164.334 20.7541 164.315 20.795 164.3 20.8375C164.149 21.2607 164.443 21.7111 164.891 21.7434L168.194 21.9811L173.355 22.8868L178.516 23.7925L182.358 24.6384C183.201 24.8241 184 24.1822 184 23.3187C184 23.2322 183.992 23.1459 183.975 23.061L183.355 19.8679L182.065 15.9434L181.123 13.2997C180.892 12.6512 180.559 12.0438 180.137 11.5002L179.53 10.7195C178.687 9.63461 177.39 9 176.016 9C175.123 9 174.25 9.26874 173.512 9.77127L172.171 10.6839C171.458 11.1692 170.813 11.7473 170.252 12.4028L168.711 14.2062C167.723 15.3623 166.832 16.5986 166.048 17.9022Z" fill="#FFFDFE" stroke="#FFFDFE"/>
<path d="M166.048 17.9022L164.358 20.7154C164.334 20.7541 164.315 20.795 164.3 20.8375C164.149 21.2607 164.443 21.7111 164.891 21.7434L168.194 21.9811L173.355 22.8868L178.516 23.7925L182.358 24.6384C183.201 24.8241 184 24.1822 184 23.3187C184 23.2322 183.992 23.1459 183.975 23.061L183.355 19.8679L182.065 15.9434L181.123 13.2997C180.892 12.6512 180.559 12.0438 180.137 11.5002L179.53 10.7195C178.687 9.63461 177.39 9 176.016 9C175.123 9 174.25 9.26874 173.512 9.77127L172.171 10.6839C171.458 11.1692 170.813 11.7473 170.252 12.4028L168.711 14.2062C167.723 15.3623 166.832 16.5986 166.048 17.9022Z" fill="#FFFDFE" stroke="#FFFDFE"/>
<path d="M105.392 25.4527C103.829 25.8335 102.045 26.0664 100.152 25.9832C98.4404 25.9079 98.989 22.9446 99.5594 20.9398C99.9065 19.7196 100.276 18.5048 100.584 17.2742C100.77 16.5322 100.968 15.8719 101.253 15.219L101.261 15.2007C101.888 13.7597 102.521 12.3055 103.508 11.0824C105.111 9.09569 108.307 8.94305 110.389 10.4203C111.113 10.9342 111.799 11.5716 112.581 12.3312C113.156 12.8892 113.699 13.4743 114.198 14.1011C115.71 16.0009 118.868 20.2091 117.775 20.918C112.956 24.0436 110.972 24.0932 105.392 25.4527Z" fill="#FFFDFE" stroke="#FFFDFE"/>
<path d="M105.392 25.4527C103.829 25.8335 102.045 26.0664 100.152 25.9832C98.4404 25.9079 98.989 22.9446 99.5594 20.9398C99.9065 19.7196 100.276 18.5048 100.584 17.2742C100.77 16.5322 100.968 15.8719 101.253 15.219L101.261 15.2007C101.888 13.7597 102.521 12.3055 103.508 11.0824C105.111 9.09569 108.307 8.94305 110.389 10.4203C111.113 10.9342 111.799 11.5716 112.581 12.3312C113.156 12.8892 113.699 13.4743 114.198 14.1011C115.71 16.0009 118.868 20.2091 117.775 20.918C112.956 24.0436 110.972 24.0932 105.392 25.4527Z" fill="#FFFDFE" stroke="#FFFDFE"/>
<ellipse cx="114.5" cy="71" rx="5.5" ry="6" fill="#FF9469"/>
<ellipse cx="114.5" cy="71" rx="5.5" ry="6" fill="#FF9469"/>
<circle cx="168" cy="71" r="6" fill="#FF9469"/>
<circle cx="168" cy="71" r="6" fill="#FF9469"/>
<path d="M99.1918 7.18672H100.959L103.021 2.76763L107.144 1L110.384 1.88382L113.329 4.53527L115.685 7.18672L118.63 11.3112L121.87 14.8465L125.993 18.3817L131 20.444L129.527 22.5062L121.87 20.444L115.685 13.3734L111.562 8.65975L105.671 7.18672L101.548 10.1328L99.1918 13.3734L92.1233 69.3485L90.6507 72L88 64.9295V59.0373V55.2075V49.0207L88.8836 44.6017V41.361L90.6507 35.7635L92.1233 29.8714L93.0068 26.0415L93.5959 22.5062L94.774 18.3817L95.9521 13.3734L97.7192 9.54357L99.1918 7.18672Z" fill="#F4C091" stroke="#F4C091"/>
<path d="M99.1918 7.18672H100.959L103.021 2.76763L107.144 1L110.384 1.88382L113.329 4.53527L115.685 7.18672L118.63 11.3112L121.87 14.8465L125.993 18.3817L131 20.444L129.527 22.5062L121.87 20.444L115.685 13.3734L111.562 8.65975L105.671 7.18672L101.548 10.1328L99.1918 13.3734L92.1233 69.3485L90.6507 72L88 64.9295V59.0373V55.2075V49.0207L88.8836 44.6017V41.361L90.6507 35.7635L92.1233 29.8714L93.0068 26.0415L93.5959 22.5062L94.774 18.3817L95.9521 13.3734L97.7192 9.54357L99.1918 7.18672Z" fill="#F4C091" stroke="#F4C091"/>
<path d="M155.61 18.6557L162.814 16.1475L167.712 9.18033L173.475 6.67213L181.254 5L182.983 7.78689L185 11.4098L182.983 13.6393L181.254 11.4098L177.797 7.78689L173.475 8.34426L163.678 17.541L157.915 22L151 21.1639L155.61 18.6557Z" fill="#F4C091" stroke="#F4C091"/>
<path d="M155.61 18.6557L162.814 16.1475L167.712 9.18033L173.475 6.67213L181.254 5L182.983 7.78689L185 11.4098L182.983 13.6393L181.254 11.4098L177.797 7.78689L173.475 8.34426L163.678 17.541L157.915 22L151 21.1639L155.61 18.6557Z" fill="#F4C091" stroke="#F4C091"/>
<path d="M82.1644 51L100 55.5M79 64.5H100M82.1644 78L100 72.9" stroke="#8B8077" stroke-width="3"/>
<path d="M82.1644 51L100 55.5M79 64.5H100M82.1644 78L100 72.9" stroke="#8B8077" stroke-width="3"/>
<path d="M194 58.6711L191 62L190 42.0263L191.75 39L194 48.6842V58.6711Z" fill="#F4C091" stroke="#F4C091"/>
<path d="M194 58.6711L191 62L190 42.0263L191.75 39L194 48.6842V58.6711Z" fill="#F4C091" stroke="#F4C091"/>
<path d="M149.322 20.0429H149.645C154.148 20.0429 158.359 17.8148 160.893 14.092L166.099 6.65337L167.769 4.14305C169.075 2.17974 171.276 1 173.634 1C175.306 1 176.922 1.59417 178.196 2.67637L179.798 4.03808C181.801 5.74004 183.23 8.0187 183.89 10.5629L186.347 20.0429L190.107 35.5153L191.873 43.871C192.622 47.4157 193 51.0287 193 54.6516V55.1265C193 60.075 192.251 64.9949 190.778 69.7191L189.955 72.3557C188.717 76.3263 186.763 80.0366 184.188 83.303C181.039 87.2977 177.036 90.5366 172.472 92.782L171.282 93.3676C167.845 95.0585 164.182 96.2459 160.407 96.8931L158.449 97.2287C155.455 97.742 152.423 98 149.386 98H142.669H135.536C131.815 98 128.104 97.6422 124.452 96.9315C120.984 96.2567 117.586 95.2666 114.298 93.9737L109.405 92.0491L105.56 90.3041C101.627 88.5193 98.1927 85.7959 95.5586 82.3733C94.5712 81.0903 93.7041 79.7192 92.9681 78.2773L92.3897 77.144C89.5044 71.4905 88 65.2337 88 58.8865V55.7485C88 51.3945 88.4184 47.0507 89.2493 42.7768L89.4463 41.7638L91.7603 30.4571L94.0744 20.0429L95.16 16.0545C95.7834 13.7643 96.7049 11.5658 97.9008 9.51555L98.6789 8.18145C99.2709 7.16651 99.9843 6.22743 100.803 5.38494L103.611 2.49701C104.541 1.53996 105.819 1 107.154 1C108.584 1 109.944 1.61949 110.882 2.69844L114.322 6.65337L119.24 12.6043C122.31 17.249 127.556 20.0429 133.124 20.0429H140.645H149.322Z" stroke="black" stroke-width="2"/>
<path d="M149.322 20.0429H149.645C154.148 20.0429 158.359 17.8148 160.893 14.092L166.099 6.65337L167.769 4.14305C169.075 2.17974 171.276 1 173.634 1C175.306 1 176.922 1.59417 178.196 2.67637L179.798 4.03808C181.801 5.74004 183.23 8.0187 183.89 10.5629L186.347 20.0429L190.107 35.5153L191.873 43.871C192.622 47.4157 193 51.0287 193 54.6516V55.1265C193 60.075 192.251 64.9949 190.778 69.7191L189.955 72.3557C188.717 76.3263 186.763 80.0366 184.188 83.303C181.039 87.2977 177.036 90.5366 172.472 92.782L171.282 93.3676C167.845 95.0585 164.182 96.2459 160.407 96.8931L158.449 97.2287C155.455 97.742 152.423 98 149.386 98H142.669H135.536C131.815 98 128.104 97.6422 124.452 96.9315C120.984 96.2567 117.586 95.2666 114.298 93.9737L109.405 92.0491L105.56 90.3041C101.627 88.5193 98.1927 85.7959 95.5586 82.3733C94.5712 81.0903 93.7041 79.7192 92.9681 78.2773L92.3897 77.144C89.5044 71.4905 88 65.2337 88 58.8865V55.7485C88 51.3945 88.4184 47.0507 89.2493 42.7768L89.4463 41.7638L91.7603 30.4571L94.0744 20.0429L95.16 16.0545C95.7834 13.7643 96.7049 11.5658 97.9008 9.51555L98.6789 8.18145C99.2709 7.16651 99.9843 6.22743 100.803 5.38494L103.611 2.49701C104.541 1.53996 105.819 1 107.154 1C108.584 1 109.944 1.61949 110.882 2.69844L114.322 6.65337L119.24 12.6043C122.31 17.249 127.556 20.0429 133.124 20.0429H140.645H149.322Z" stroke="black" stroke-width="2"/>
<path d="M200.395 52L190.697 54.0449L181 56.0899M203 64.8539H181M200.395 78L181 71.573" stroke="#8B8077" stroke-width="3"/>
<path d="M200.395 52L190.697 54.0449L181 56.0899M203 64.8539H181M200.395 78L181 71.573" stroke="#8B8077" stroke-width="3"/>
<path d="M127.261 44.1858L126.923 44.6867C123.774 49.3548 116.854 49.2119 113.898 44.4178V44.4178" stroke="black" stroke-width="3"/>
<path d="M127.261 44.1858L126.923 44.6867C123.774 49.3548 116.854 49.2119 113.898 44.4178V44.4178" stroke="black" stroke-width="3"/>
<path d="M168.838 43.4476L168.46 43.9912C165.118 48.7966 157.985 48.725 154.737 43.8535V43.8535" stroke="black" stroke-width="3"/>
<path d="M168.838 43.4476L168.46 43.9912C165.118 48.7966 157.985 48.725 154.737 43.8535V43.8535" stroke="black" stroke-width="3"/>
<ellipse cx="120" cy="52" rx="6" ry="2" fill="#AFCEF2"/>
<ellipse cx="120" cy="52" rx="6" ry="2" fill="#AFCEF2"/>
<ellipse cx="162" cy="52" rx="6" ry="2" fill="#AFCEF2"/>
<ellipse cx="162" cy="52" rx="6" ry="2" fill="#AFCEF2"/>
<path d="M145 59H137C137.569 62.5135 138.432 63.5668 140.826 64C143.305 63.646 144.464 63.0115 145 59Z" fill="#FF9469" stroke="#FF9469"/>
<path d="M145 59H137C137.569 62.5135 138.432 63.5668 140.826 64C143.305 63.646 144.464 63.0115 145 59Z" fill="#FF9469" stroke="#FF9469"/>
</svg>
