<svg width="283" height="169" viewBox="0 0 283 169" fill="none" xmlns="http://www.w3.org/2000/svg">
<rect y="85" width="283" height="84" rx="10" fill="#F7F0EA"/>
<path d="M27.1328 122.109C26.6875 122.109 26.4453 121.93 26.2656 121.461L22.4844 111.617C22.4219 111.461 22.3984 111.336 22.3984 111.227C22.3984 110.859 22.6797 110.617 23.1016 110.617C23.4375 110.617 23.6484 110.773 23.7734 111.117L27.1094 120.289H27.1562L30.4922 111.117C30.625 110.758 30.8125 110.617 31.1562 110.617C31.5703 110.617 31.8672 110.875 31.8672 111.227C31.8672 111.336 31.8359 111.469 31.7812 111.617L27.9922 121.469C27.8125 121.938 27.5781 122.109 27.1328 122.109ZM35.3359 122.141C33.0859 122.141 31.5703 120.523 31.5703 117.938C31.5703 115.344 33.0859 113.734 35.3359 113.734C37.5781 113.734 39.0938 115.344 39.0938 117.938C39.0938 120.523 37.5781 122.141 35.3359 122.141ZM35.3359 120.945C36.7734 120.945 37.7109 119.852 37.7109 117.938C37.7109 116.023 36.7734 114.93 35.3359 114.93C33.8984 114.93 32.9531 116.023 32.9531 117.938C32.9531 119.852 33.8984 120.945 35.3359 120.945ZM43.8203 122.141C41.5703 122.141 40.0703 120.523 40.0703 117.953C40.0703 115.398 41.5547 113.734 43.8047 113.734C45.3359 113.734 46.6719 114.602 46.9844 115.727C47.0156 115.828 47.0312 115.93 47.0312 116.016C47.0312 116.375 46.8047 116.609 46.4531 116.609C46.1562 116.609 45.9922 116.484 45.8047 116.133C45.375 115.328 44.7578 114.93 43.8203 114.93C42.4062 114.93 41.4531 116.117 41.4531 117.938C41.4531 119.805 42.4219 120.945 43.8203 120.945C44.7969 120.945 45.3906 120.523 45.8125 119.742C46.0078 119.375 46.1562 119.266 46.4531 119.266C46.8047 119.266 47.0391 119.508 47.0391 119.859C47.0391 119.961 47.0156 120.078 46.9766 120.203C46.5859 121.328 45.2969 122.141 43.8203 122.141ZM50 112.875C49.7344 112.875 49.5312 112.664 49.5312 112.43C49.5312 112.273 49.5859 112.188 49.6953 112.062L51.0938 110.523C51.3203 110.273 51.4922 110.188 51.7812 110.188C52.0391 110.188 52.2109 110.273 52.4375 110.523L53.8359 112.062C53.9453 112.188 54 112.273 54 112.43C54 112.664 53.7969 112.875 53.5312 112.875C53.3359 112.875 53.2266 112.805 53.0391 112.594L51.7891 111.203H51.7422L50.4922 112.594C50.3047 112.805 50.1953 112.875 50 112.875ZM51.8906 122.141C49.4922 122.141 48.0859 120.594 48.0859 117.969C48.0859 115.406 49.5312 113.734 51.7734 113.734C53.8516 113.734 55.3125 115.289 55.3125 117.516C55.3125 118.008 55.0312 118.305 54.5625 118.305H49.4844C49.4844 119.945 50.3828 120.961 51.8359 120.961C52.8047 120.961 53.3984 120.617 54.0312 119.695C54.1719 119.5 54.3281 119.422 54.5391 119.422C54.8984 119.422 55.1406 119.656 55.1406 120.016C55.1406 120.125 55.1016 120.266 55.0391 120.414C54.5156 121.516 53.375 122.141 51.8906 122.141ZM49.4922 117.242H53.9062C53.875 115.836 53.0078 114.914 51.75 114.914C50.4844 114.914 49.5781 115.844 49.4922 117.242ZM62.3359 122.141C60.7188 122.141 59.6328 121.164 59.6328 119.703C59.6328 118.312 60.7031 117.438 62.5781 117.328L64.9141 117.195V116.516C64.9141 115.523 64.2578 114.93 63.1328 114.93C62.25 114.93 61.6484 115.25 61.1953 116.055C61.0703 116.281 60.8906 116.383 60.6328 116.383C60.2812 116.383 60.0312 116.141 60.0312 115.773C60.0312 115.602 60.0859 115.406 60.1953 115.211C60.6562 114.32 61.8438 113.734 63.1641 113.734C65.0703 113.734 66.2734 114.766 66.2734 116.383V121.453C66.2734 121.859 66.0078 122.141 65.6328 122.141C65.25 122.141 64.9844 121.859 64.9844 121.453V120.602H64.9531C64.4688 121.531 63.4297 122.141 62.3359 122.141ZM62.6406 120.984C63.9219 120.984 64.9141 120.086 64.9141 118.914V118.25L62.7344 118.383C61.6406 118.453 61.0156 118.938 61.0156 119.703C61.0156 120.477 61.6641 120.984 62.6406 120.984ZM68.75 112.508C68.2891 112.508 67.9062 112.125 67.9062 111.664C67.9062 111.195 68.2891 110.82 68.75 110.82C69.2188 110.82 69.6016 111.195 69.6016 111.664C69.6016 112.125 69.2188 112.508 68.75 112.508ZM68.75 122.141C68.3516 122.141 68.0703 121.844 68.0703 121.414V114.461C68.0703 114.031 68.3516 113.734 68.75 113.734C69.1484 113.734 69.4297 114.031 69.4297 114.461V121.414C69.4297 121.844 69.1484 122.141 68.75 122.141ZM71.9453 122.141C71.5469 122.141 71.2656 121.844 71.2656 121.414V114.422C71.2656 114.016 71.5312 113.734 71.9062 113.734C72.2812 113.734 72.5469 114.016 72.5469 114.422V115.172H72.5781C73.0312 114.297 73.8984 113.734 75.1562 113.734C76.9375 113.734 77.9688 114.883 77.9688 116.727V121.414C77.9688 121.844 77.6875 122.141 77.2891 122.141C76.8906 122.141 76.6094 121.844 76.6094 121.414V116.969C76.6094 115.656 75.9922 114.938 74.7422 114.938C73.4609 114.938 72.625 115.844 72.625 117.219V121.414C72.625 121.844 72.3438 122.141 71.9453 122.141ZM82.7812 122.141C80.7109 122.141 79.3047 120.484 79.3047 117.938C79.3047 115.391 80.7031 113.734 82.75 113.734C83.9141 113.734 84.8516 114.305 85.3359 115.195H85.3672V111.312C85.3672 110.883 85.6484 110.586 86.0469 110.586C86.4453 110.586 86.7266 110.883 86.7266 111.312V121.477C86.7266 121.867 86.4531 122.141 86.0625 122.141C85.6797 122.141 85.3672 121.875 85.3672 121.477V120.547H85.3438C84.8984 121.516 84.0547 122.141 82.7812 122.141ZM83.0391 120.945C84.4375 120.945 85.375 119.758 85.375 117.938C85.375 116.125 84.4375 114.93 83.0391 114.93C81.6016 114.93 80.6953 116.102 80.6953 117.938C80.6953 119.781 81.6016 120.945 83.0391 120.945ZM90.9297 122.141C89.3125 122.141 88.2266 121.164 88.2266 119.703C88.2266 118.312 89.2969 117.438 91.1719 117.328L93.5078 117.195V116.516C93.5078 115.523 92.8516 114.93 91.7266 114.93C90.8438 114.93 90.2422 115.25 89.7891 116.055C89.6641 116.281 89.4844 116.383 89.2266 116.383C88.875 116.383 88.625 116.141 88.625 115.773C88.625 115.602 88.6797 115.406 88.7891 115.211C89.25 114.32 90.4375 113.734 91.7578 113.734C93.6641 113.734 94.8672 114.766 94.8672 116.383V121.453C94.8672 121.859 94.6016 122.141 94.2266 122.141C93.8438 122.141 93.5781 121.859 93.5781 121.453V120.602H93.5469C93.0625 121.531 92.0234 122.141 90.9297 122.141ZM91.2344 120.984C92.5156 120.984 93.5078 120.086 93.5078 118.914V118.25L91.3281 118.383C90.2344 118.453 89.6094 118.938 89.6094 119.703C89.6094 120.477 90.2578 120.984 91.2344 120.984ZM100.555 122.141C100.156 122.141 99.875 121.844 99.875 121.414V114.422C99.875 114.016 100.141 113.734 100.516 113.734C100.891 113.734 101.156 114.016 101.156 114.422V115.172H101.188C101.641 114.297 102.508 113.734 103.766 113.734C105.547 113.734 106.578 114.883 106.578 116.727V121.414C106.578 121.844 106.297 122.141 105.898 122.141C105.5 122.141 105.219 121.844 105.219 121.414V116.969C105.219 115.656 104.602 114.938 103.352 114.938C102.07 114.938 101.234 115.844 101.234 117.219V121.414C101.234 121.844 100.953 122.141 100.555 122.141ZM109.414 112.758C109.133 112.758 108.961 112.57 108.961 112.258C108.961 111.203 109.602 110.57 110.461 110.57C111.539 110.57 111.891 111.758 112.477 111.758C112.766 111.758 112.93 111.516 113.008 110.977C113.055 110.609 113.188 110.453 113.469 110.453C113.742 110.453 113.922 110.648 113.922 110.945C113.922 111.961 113.273 112.641 112.469 112.641C111.438 112.641 111.047 111.453 110.453 111.453C110.094 111.453 109.938 111.688 109.875 112.281C109.844 112.602 109.695 112.758 109.414 112.758ZM110.68 122.141C109.062 122.141 107.977 121.164 107.977 119.703C107.977 118.312 109.047 117.438 110.922 117.328L113.258 117.195V116.516C113.258 115.523 112.602 114.93 111.477 114.93C110.594 114.93 109.992 115.25 109.539 116.055C109.414 116.281 109.234 116.383 108.977 116.383C108.625 116.383 108.375 116.141 108.375 115.773C108.375 115.602 108.43 115.406 108.539 115.211C109 114.32 110.188 113.734 111.508 113.734C113.414 113.734 114.617 114.766 114.617 116.383V121.453C114.617 121.859 114.352 122.141 113.977 122.141C113.594 122.141 113.328 121.859 113.328 121.453V120.602H113.297C112.812 121.531 111.773 122.141 110.68 122.141ZM110.984 120.984C112.266 120.984 113.258 120.086 113.258 118.914V118.25L111.078 118.383C109.984 118.453 109.359 118.938 109.359 119.703C109.359 120.477 110.008 120.984 110.984 120.984ZM119.711 122.141C117.461 122.141 115.945 120.523 115.945 117.938C115.945 115.344 117.461 113.734 119.711 113.734C121.953 113.734 123.469 115.344 123.469 117.938C123.469 120.523 121.953 122.141 119.711 122.141ZM119.711 120.945C121.148 120.945 122.086 119.852 122.086 117.938C122.086 116.023 121.148 114.93 119.711 114.93C118.273 114.93 117.328 116.023 117.328 117.938C117.328 119.852 118.273 120.945 119.711 120.945ZM128.805 122.141C128.406 122.141 128.125 121.844 128.125 121.414V114.422C128.125 114.016 128.391 113.734 128.766 113.734C129.141 113.734 129.406 114.016 129.406 114.422V115.203H129.438C129.672 114.359 130.469 113.734 131.281 113.734C131.578 113.734 131.789 113.805 131.922 113.93C132.039 114.039 132.094 114.195 132.094 114.383C132.094 114.594 132.023 114.75 131.883 114.859C131.742 114.977 131.531 115.031 131.234 115.031C130.008 115.031 129.484 115.914 129.484 116.953V121.414C129.484 121.844 129.203 122.141 128.805 122.141ZM136.078 122.141C133.68 122.141 132.273 120.594 132.273 117.969C132.273 115.406 133.719 113.734 135.961 113.734C138.039 113.734 139.5 115.289 139.5 117.516C139.5 118.008 139.219 118.305 138.75 118.305H133.672C133.672 119.945 134.57 120.961 136.023 120.961C136.992 120.961 137.586 120.617 138.219 119.695C138.359 119.5 138.516 119.422 138.727 119.422C139.086 119.422 139.328 119.656 139.328 120.016C139.328 120.125 139.289 120.266 139.227 120.414C138.703 121.516 137.562 122.141 136.078 122.141ZM133.68 117.242H138.094C138.062 115.836 137.195 114.914 135.938 114.914C134.672 114.914 133.766 115.844 133.68 117.242ZM144.156 125.062C142.797 125.047 141.664 124.508 141.094 123.609C140.984 123.438 140.938 123.281 140.938 123.102C140.938 122.758 141.188 122.516 141.547 122.516C141.773 122.516 141.906 122.594 142.117 122.828C142.812 123.594 143.383 123.891 144.211 123.906C145.664 123.93 146.547 123.094 146.547 121.883V120.602H146.516C146.016 121.484 145.047 122.062 143.906 122.062C141.836 122.062 140.477 120.43 140.477 117.906C140.477 115.359 141.836 113.734 143.938 113.734C145.086 113.734 145.984 114.297 146.523 115.211H146.547V114.438C146.547 114.016 146.836 113.734 147.227 113.734C147.617 113.734 147.906 114.016 147.906 114.438V121.836C147.906 123.773 146.469 125.086 144.156 125.062ZM144.18 120.867C145.594 120.867 146.547 119.695 146.547 117.906C146.547 116.117 145.594 114.93 144.18 114.93C142.781 114.93 141.867 116.086 141.867 117.906C141.867 119.727 142.781 120.867 144.18 120.867ZM150.422 112.508C149.961 112.508 149.578 112.125 149.578 111.664C149.578 111.195 149.961 110.82 150.422 110.82C150.891 110.82 151.273 111.195 151.273 111.664C151.273 112.125 150.891 112.508 150.422 112.508ZM150.422 122.141C150.023 122.141 149.742 121.844 149.742 121.414V114.461C149.742 114.031 150.023 113.734 150.422 113.734C150.82 113.734 151.102 114.031 151.102 114.461V121.414C151.102 121.844 150.82 122.141 150.422 122.141ZM155.758 122.141C154.312 122.141 153.18 121.492 152.789 120.477C152.742 120.359 152.727 120.258 152.727 120.156C152.727 119.797 152.992 119.594 153.344 119.594C153.586 119.594 153.781 119.719 153.938 120C154.344 120.711 154.828 121.031 155.867 121.031C156.906 121.031 157.609 120.578 157.609 119.82C157.609 119.234 157.273 118.922 156.359 118.695L155.117 118.383C153.547 117.992 152.789 117.25 152.789 116.109C152.789 114.695 154.031 113.734 155.867 113.734C157.203 113.734 158.391 114.484 158.602 115.461C158.617 115.539 158.625 115.602 158.625 115.664C158.625 115.984 158.422 116.195 158.094 116.195C157.828 116.195 157.641 116.109 157.492 115.828C157.141 115.148 156.617 114.852 155.789 114.852C154.812 114.852 154.133 115.344 154.133 116.039C154.133 116.602 154.57 116.992 155.461 117.211L156.672 117.508C158.367 117.922 158.992 118.516 158.992 119.711C158.992 121.164 157.688 122.141 155.758 122.141ZM160.828 120.125V114.992H160.148C159.758 114.992 159.539 114.789 159.539 114.43C159.539 114.078 159.758 113.875 160.148 113.875H160.828V112.484C160.828 112.055 161.109 111.758 161.508 111.758C161.906 111.758 162.188 112.055 162.188 112.484V113.875H163.234C163.625 113.875 163.844 114.078 163.844 114.43C163.844 114.789 163.625 114.992 163.234 114.992H162.188V119.828C162.188 120.516 162.43 120.844 163.109 120.891L163.227 120.898C163.672 120.93 163.875 121.109 163.875 121.43C163.875 121.844 163.641 122.062 162.883 122.062H162.797C161.484 122.062 160.828 121.422 160.828 120.125ZM165.898 122.141C165.5 122.141 165.219 121.844 165.219 121.414V114.422C165.219 114.016 165.484 113.734 165.859 113.734C166.234 113.734 166.5 114.016 166.5 114.422V115.203H166.531C166.766 114.359 167.562 113.734 168.375 113.734C168.672 113.734 168.883 113.805 169.016 113.93C169.133 114.039 169.188 114.195 169.188 114.383C169.188 114.594 169.117 114.75 168.977 114.859C168.836 114.977 168.625 115.031 168.328 115.031C167.102 115.031 166.578 115.914 166.578 116.953V121.414C166.578 121.844 166.297 122.141 165.898 122.141ZM173.133 122.141C170.883 122.141 169.367 120.523 169.367 117.938C169.367 115.344 170.883 113.734 173.133 113.734C175.375 113.734 176.891 115.344 176.891 117.938C176.891 120.523 175.375 122.141 173.133 122.141ZM173.133 120.945C174.57 120.945 175.508 119.852 175.508 117.938C175.508 116.023 174.57 114.93 173.133 114.93C171.695 114.93 170.75 116.023 170.75 117.938C170.75 119.852 171.695 120.945 173.133 120.945ZM181.039 122.141C179.266 122.141 178.227 120.992 178.227 119.148V114.461C178.227 114.031 178.508 113.734 178.906 113.734C179.305 113.734 179.586 114.031 179.586 114.461V118.906C179.586 120.227 180.203 120.938 181.461 120.938C182.781 120.938 183.578 120.031 183.578 118.648V114.461C183.578 114.031 183.859 113.734 184.258 113.734C184.656 113.734 184.938 114.031 184.938 114.461V121.453C184.938 121.844 184.688 122.141 184.297 122.141C183.906 122.141 183.648 121.844 183.648 121.453V120.68H183.617C183.133 121.617 182.289 122.141 181.039 122.141ZM195.633 122.141C194.016 122.141 192.93 121.164 192.93 119.703C192.93 118.312 194 117.438 195.875 117.328L198.211 117.195V116.516C198.211 115.523 197.555 114.93 196.43 114.93C195.547 114.93 194.945 115.25 194.492 116.055C194.367 116.281 194.188 116.383 193.93 116.383C193.578 116.383 193.328 116.141 193.328 115.773C193.328 115.602 193.383 115.406 193.492 115.211C193.953 114.32 195.141 113.734 196.461 113.734C198.367 113.734 199.57 114.766 199.57 116.383V121.453C199.57 121.859 199.305 122.141 198.93 122.141C198.547 122.141 198.281 121.859 198.281 121.453V120.602H198.25C197.766 121.531 196.727 122.141 195.633 122.141ZM195.938 120.984C197.219 120.984 198.211 120.086 198.211 118.914V118.25L196.031 118.383C194.938 118.453 194.312 118.938 194.312 119.703C194.312 120.477 194.961 120.984 195.938 120.984ZM201.734 120.125V114.992H201.055C200.664 114.992 200.445 114.789 200.445 114.43C200.445 114.078 200.664 113.875 201.055 113.875H201.734V112.484C201.734 112.055 202.016 111.758 202.414 111.758C202.812 111.758 203.094 112.055 203.094 112.484V113.875H204.141C204.531 113.875 204.75 114.078 204.75 114.43C204.75 114.789 204.531 114.992 204.141 114.992H203.094V119.828C203.094 120.516 203.336 120.844 204.016 120.891L204.133 120.898C204.578 120.93 204.781 121.109 204.781 121.43C204.781 121.844 204.547 122.062 203.789 122.062H203.703C202.391 122.062 201.734 121.422 201.734 120.125ZM206.875 112.508C206.414 112.508 206.031 112.125 206.031 111.664C206.031 111.195 206.414 110.82 206.875 110.82C207.344 110.82 207.727 111.195 207.727 111.664C207.727 112.125 207.344 112.508 206.875 112.508ZM206.875 122.141C206.477 122.141 206.195 121.844 206.195 121.414V114.461C206.195 114.031 206.477 113.734 206.875 113.734C207.273 113.734 207.555 114.031 207.555 114.461V121.414C207.555 121.844 207.273 122.141 206.875 122.141ZM212.367 122.141C211.922 122.141 211.672 121.945 211.477 121.453L208.891 114.711C208.844 114.594 208.82 114.477 208.82 114.359C208.82 113.984 209.094 113.734 209.5 113.734C209.805 113.734 210.008 113.898 210.133 114.25L212.359 120.555H212.391L214.625 114.25C214.75 113.898 214.953 113.734 215.25 113.734C215.656 113.734 215.922 113.984 215.922 114.359C215.922 114.477 215.898 114.594 215.852 114.711L213.273 121.453C213.094 121.922 212.805 122.141 212.367 122.141ZM217.875 112.508C217.414 112.508 217.031 112.125 217.031 111.664C217.031 111.195 217.414 110.82 217.875 110.82C218.344 110.82 218.727 111.195 218.727 111.664C218.727 112.125 218.344 112.508 217.875 112.508ZM217.875 122.141C217.477 122.141 217.195 121.844 217.195 121.414V114.461C217.195 114.031 217.477 113.734 217.875 113.734C218.273 113.734 218.555 114.031 218.555 114.461V121.414C218.555 121.844 218.273 122.141 217.875 122.141ZM223.469 122.141C221.398 122.141 219.992 120.484 219.992 117.938C219.992 115.391 221.391 113.734 223.438 113.734C224.602 113.734 225.539 114.305 226.023 115.195H226.055V111.312C226.055 110.883 226.336 110.586 226.734 110.586C227.133 110.586 227.414 110.883 227.414 111.312V121.477C227.414 121.867 227.141 122.141 226.75 122.141C226.367 122.141 226.055 121.875 226.055 121.477V120.547H226.031C225.586 121.516 224.742 122.141 223.469 122.141ZM223.727 120.945C225.125 120.945 226.062 119.758 226.062 117.938C226.062 116.125 225.125 114.93 223.727 114.93C222.289 114.93 221.383 116.102 221.383 117.938C221.383 119.781 222.289 120.945 223.727 120.945ZM231.617 122.141C230 122.141 228.914 121.164 228.914 119.703C228.914 118.312 229.984 117.438 231.859 117.328L234.195 117.195V116.516C234.195 115.523 233.539 114.93 232.414 114.93C231.531 114.93 230.93 115.25 230.477 116.055C230.352 116.281 230.172 116.383 229.914 116.383C229.562 116.383 229.312 116.141 229.312 115.773C229.312 115.602 229.367 115.406 229.477 115.211C229.938 114.32 231.125 113.734 232.445 113.734C234.352 113.734 235.555 114.766 235.555 116.383V121.453C235.555 121.859 235.289 122.141 234.914 122.141C234.531 122.141 234.266 121.859 234.266 121.453V120.602H234.234C233.75 121.531 232.711 122.141 231.617 122.141ZM231.922 120.984C233.203 120.984 234.195 120.086 234.195 118.914V118.25L232.016 118.383C230.922 118.453 230.297 118.938 230.297 119.703C230.297 120.477 230.945 120.984 231.922 120.984ZM240.359 122.141C238.289 122.141 236.883 120.484 236.883 117.938C236.883 115.391 238.281 113.734 240.328 113.734C241.492 113.734 242.43 114.305 242.914 115.195H242.945V111.312C242.945 110.883 243.227 110.586 243.625 110.586C244.023 110.586 244.305 110.883 244.305 111.312V121.477C244.305 121.867 244.031 122.141 243.641 122.141C243.258 122.141 242.945 121.875 242.945 121.477V120.547H242.922C242.477 121.516 241.633 122.141 240.359 122.141ZM240.617 120.945C242.016 120.945 242.953 119.758 242.953 117.938C242.953 116.125 242.016 114.93 240.617 114.93C239.18 114.93 238.273 116.102 238.273 117.938C238.273 119.781 239.18 120.945 240.617 120.945ZM249.547 122.141C247.148 122.141 245.742 120.594 245.742 117.969C245.742 115.406 247.188 113.734 249.43 113.734C251.508 113.734 252.969 115.289 252.969 117.516C252.969 118.008 252.688 118.305 252.219 118.305H247.141C247.141 119.945 248.039 120.961 249.492 120.961C250.461 120.961 251.055 120.617 251.688 119.695C251.828 119.5 251.984 119.422 252.195 119.422C252.555 119.422 252.797 119.656 252.797 120.016C252.797 120.125 252.758 120.266 252.695 120.414C252.172 121.516 251.031 122.141 249.547 122.141ZM247.148 117.242H251.562C251.531 115.836 250.664 114.914 249.406 114.914C248.141 114.914 247.234 115.844 247.148 117.242ZM257.164 122.141C255.719 122.141 254.586 121.492 254.195 120.477C254.148 120.359 254.133 120.258 254.133 120.156C254.133 119.797 254.398 119.594 254.75 119.594C254.992 119.594 255.188 119.719 255.344 120C255.75 120.711 256.234 121.031 257.273 121.031C258.312 121.031 259.016 120.578 259.016 119.82C259.016 119.234 258.68 118.922 257.766 118.695L256.523 118.383C254.953 117.992 254.195 117.25 254.195 116.109C254.195 114.695 255.438 113.734 257.273 113.734C258.609 113.734 259.797 114.484 260.008 115.461C260.023 115.539 260.031 115.602 260.031 115.664C260.031 115.984 259.828 116.195 259.5 116.195C259.234 116.195 259.047 116.109 258.898 115.828C258.547 115.148 258.023 114.852 257.195 114.852C256.219 114.852 255.539 115.344 255.539 116.039C255.539 116.602 255.977 116.992 256.867 117.211L258.078 117.508C259.773 117.922 260.398 118.516 260.398 119.711C260.398 121.164 259.094 122.141 257.164 122.141ZM56.7188 144.141C54.6484 144.141 53.2422 142.484 53.2422 139.938C53.2422 137.391 54.6406 135.734 56.6875 135.734C57.8516 135.734 58.7891 136.305 59.2734 137.195H59.3047V133.312C59.3047 132.883 59.5859 132.586 59.9844 132.586C60.3828 132.586 60.6641 132.883 60.6641 133.312V143.477C60.6641 143.867 60.3906 144.141 60 144.141C59.6172 144.141 59.3047 143.875 59.3047 143.477V142.547H59.2812C58.8359 143.516 57.9922 144.141 56.7188 144.141ZM56.9766 142.945C58.375 142.945 59.3125 141.758 59.3125 139.938C59.3125 138.125 58.375 136.93 56.9766 136.93C55.5391 136.93 54.6328 138.102 54.6328 139.938C54.6328 141.781 55.5391 142.945 56.9766 142.945ZM65.9062 144.141C63.5078 144.141 62.1016 142.594 62.1016 139.969C62.1016 137.406 63.5469 135.734 65.7891 135.734C67.8672 135.734 69.3281 137.289 69.3281 139.516C69.3281 140.008 69.0469 140.305 68.5781 140.305H63.5C63.5 141.945 64.3984 142.961 65.8516 142.961C66.8203 142.961 67.4141 142.617 68.0469 141.695C68.1875 141.5 68.3438 141.422 68.5547 141.422C68.9141 141.422 69.1562 141.656 69.1562 142.016C69.1562 142.125 69.1172 142.266 69.0547 142.414C68.5312 143.516 67.3906 144.141 65.9062 144.141ZM63.5078 139.242H67.9219C67.8906 137.836 67.0234 136.914 65.7656 136.914C64.5 136.914 63.5938 137.844 63.5078 139.242ZM77.0625 144.141C74.9922 144.141 73.5859 142.484 73.5859 139.938C73.5859 137.391 74.9844 135.734 77.0312 135.734C78.1953 135.734 79.1328 136.305 79.6172 137.195H79.6484V133.312C79.6484 132.883 79.9297 132.586 80.3281 132.586C80.7266 132.586 81.0078 132.883 81.0078 133.312V143.477C81.0078 143.867 80.7344 144.141 80.3438 144.141C79.9609 144.141 79.6484 143.875 79.6484 143.477V142.547H79.625C79.1797 143.516 78.3359 144.141 77.0625 144.141ZM77.3203 142.945C78.7188 142.945 79.6562 141.758 79.6562 139.938C79.6562 138.125 78.7188 136.93 77.3203 136.93C75.8828 136.93 74.9766 138.102 74.9766 139.938C74.9766 141.781 75.8828 142.945 77.3203 142.945ZM83.5938 134.508C83.1328 134.508 82.75 134.125 82.75 133.664C82.75 133.195 83.1328 132.82 83.5938 132.82C84.0625 132.82 84.4453 133.195 84.4453 133.664C84.4453 134.125 84.0625 134.508 83.5938 134.508ZM83.5938 144.141C83.1953 144.141 82.9141 143.844 82.9141 143.414V136.461C82.9141 136.031 83.1953 135.734 83.5938 135.734C83.9922 135.734 84.2734 136.031 84.2734 136.461V143.414C84.2734 143.844 83.9922 144.141 83.5938 144.141ZM89.0859 144.141C88.6406 144.141 88.3906 143.945 88.1953 143.453L85.6094 136.711C85.5625 136.594 85.5391 136.477 85.5391 136.359C85.5391 135.984 85.8125 135.734 86.2188 135.734C86.5234 135.734 86.7266 135.898 86.8516 136.25L89.0781 142.555H89.1094L91.3438 136.25C91.4688 135.898 91.6719 135.734 91.9688 135.734C92.375 135.734 92.6406 135.984 92.6406 136.359C92.6406 136.477 92.6172 136.594 92.5703 136.711L89.9922 143.453C89.8125 143.922 89.5234 144.141 89.0859 144.141ZM97.0156 144.141C94.6172 144.141 93.2109 142.594 93.2109 139.969C93.2109 137.406 94.6562 135.734 96.8984 135.734C98.9766 135.734 100.438 137.289 100.438 139.516C100.438 140.008 100.156 140.305 99.6875 140.305H94.6094C94.6094 141.945 95.5078 142.961 96.9609 142.961C97.9297 142.961 98.5234 142.617 99.1562 141.695C99.2969 141.5 99.4531 141.422 99.6641 141.422C100.023 141.422 100.266 141.656 100.266 142.016C100.266 142.125 100.227 142.266 100.164 142.414C99.6406 143.516 98.5 144.141 97.0156 144.141ZM94.6172 139.242H99.0312C99 137.836 98.1328 136.914 96.875 136.914C95.6094 136.914 94.7031 137.844 94.6172 139.242ZM102.492 144.141C102.094 144.141 101.812 143.844 101.812 143.414V136.422C101.812 136.016 102.078 135.734 102.453 135.734C102.828 135.734 103.094 136.016 103.094 136.422V137.203H103.125C103.359 136.359 104.156 135.734 104.969 135.734C105.266 135.734 105.477 135.805 105.609 135.93C105.727 136.039 105.781 136.195 105.781 136.383C105.781 136.594 105.711 136.75 105.57 136.859C105.43 136.977 105.219 137.031 104.922 137.031C103.695 137.031 103.172 137.914 103.172 138.953V143.414C103.172 143.844 102.891 144.141 102.492 144.141ZM109.57 144.141C108.125 144.141 106.992 143.492 106.602 142.477C106.555 142.359 106.539 142.258 106.539 142.156C106.539 141.797 106.805 141.594 107.156 141.594C107.398 141.594 107.594 141.719 107.75 142C108.156 142.711 108.641 143.031 109.68 143.031C110.719 143.031 111.422 142.578 111.422 141.82C111.422 141.234 111.086 140.922 110.172 140.695L108.93 140.383C107.359 139.992 106.602 139.25 106.602 138.109C106.602 136.695 107.844 135.734 109.68 135.734C111.016 135.734 112.203 136.484 112.414 137.461C112.43 137.539 112.438 137.602 112.438 137.664C112.438 137.984 112.234 138.195 111.906 138.195C111.641 138.195 111.453 138.109 111.305 137.828C110.953 137.148 110.43 136.852 109.602 136.852C108.625 136.852 107.945 137.344 107.945 138.039C107.945 138.602 108.383 138.992 109.273 139.211L110.484 139.508C112.18 139.922 112.805 140.516 112.805 141.711C112.805 143.164 111.5 144.141 109.57 144.141ZM115.305 134.758C115.023 134.758 114.852 134.57 114.852 134.258C114.852 133.203 115.492 132.57 116.352 132.57C117.43 132.57 117.781 133.758 118.367 133.758C118.656 133.758 118.82 133.516 118.898 132.977C118.945 132.609 119.078 132.453 119.359 132.453C119.633 132.453 119.812 132.648 119.812 132.945C119.812 133.961 119.164 134.641 118.359 134.641C117.328 134.641 116.938 133.453 116.344 133.453C115.984 133.453 115.828 133.688 115.766 134.281C115.734 134.602 115.586 134.758 115.305 134.758ZM116.57 144.141C114.953 144.141 113.867 143.164 113.867 141.703C113.867 140.312 114.938 139.438 116.812 139.328L119.148 139.195V138.516C119.148 137.523 118.492 136.93 117.367 136.93C116.484 136.93 115.883 137.25 115.43 138.055C115.305 138.281 115.125 138.383 114.867 138.383C114.516 138.383 114.266 138.141 114.266 137.773C114.266 137.602 114.32 137.406 114.43 137.211C114.891 136.32 116.078 135.734 117.398 135.734C119.305 135.734 120.508 136.766 120.508 138.383V143.453C120.508 143.859 120.242 144.141 119.867 144.141C119.484 144.141 119.219 143.859 119.219 143.453V142.602H119.188C118.703 143.531 117.664 144.141 116.57 144.141ZM116.875 142.984C118.156 142.984 119.148 142.086 119.148 140.914V140.25L116.969 140.383C115.875 140.453 115.25 140.938 115.25 141.703C115.25 142.477 115.898 142.984 116.875 142.984ZM125.602 144.141C123.352 144.141 121.836 142.523 121.836 139.938C121.836 137.344 123.352 135.734 125.602 135.734C127.844 135.734 129.359 137.344 129.359 139.938C129.359 142.523 127.844 144.141 125.602 144.141ZM125.602 142.945C127.039 142.945 127.977 141.852 127.977 139.938C127.977 138.023 127.039 136.93 125.602 136.93C124.164 136.93 123.219 138.023 123.219 139.938C123.219 141.852 124.164 142.945 125.602 142.945ZM137.422 144.141C135.023 144.141 133.617 142.594 133.617 139.969C133.617 137.406 135.062 135.734 137.305 135.734C139.383 135.734 140.844 137.289 140.844 139.516C140.844 140.008 140.562 140.305 140.094 140.305H135.016C135.016 141.945 135.914 142.961 137.367 142.961C138.336 142.961 138.93 142.617 139.562 141.695C139.703 141.5 139.859 141.422 140.07 141.422C140.43 141.422 140.672 141.656 140.672 142.016C140.672 142.125 140.633 142.266 140.57 142.414C140.047 143.516 138.906 144.141 137.422 144.141ZM135.023 139.242H139.438C139.406 137.836 138.539 136.914 137.281 136.914C136.016 136.914 135.109 137.844 135.023 139.242ZM146.18 144.141C145.781 144.141 145.5 143.844 145.5 143.414V136.422C145.5 136.016 145.766 135.734 146.141 135.734C146.516 135.734 146.781 136.016 146.781 136.422V137.203H146.812C147.047 136.359 147.844 135.734 148.656 135.734C148.953 135.734 149.164 135.805 149.297 135.93C149.414 136.039 149.469 136.195 149.469 136.383C149.469 136.594 149.398 136.75 149.258 136.859C149.117 136.977 148.906 137.031 148.609 137.031C147.383 137.031 146.859 137.914 146.859 138.953V143.414C146.859 143.844 146.578 144.141 146.18 144.141ZM153.453 144.141C151.055 144.141 149.648 142.594 149.648 139.969C149.648 137.406 151.094 135.734 153.336 135.734C155.414 135.734 156.875 137.289 156.875 139.516C156.875 140.008 156.594 140.305 156.125 140.305H151.047C151.047 141.945 151.945 142.961 153.398 142.961C154.367 142.961 154.961 142.617 155.594 141.695C155.734 141.5 155.891 141.422 156.102 141.422C156.461 141.422 156.703 141.656 156.703 142.016C156.703 142.125 156.664 142.266 156.602 142.414C156.078 143.516 154.938 144.141 153.453 144.141ZM151.055 139.242H155.469C155.438 137.836 154.57 136.914 153.312 136.914C152.047 136.914 151.141 137.844 151.055 139.242ZM159 144.141C158.602 144.141 158.32 143.844 158.32 143.414V133.312C158.32 132.883 158.602 132.586 159 132.586C159.398 132.586 159.68 132.883 159.68 133.312V143.414C159.68 143.844 159.398 144.141 159 144.141ZM163.883 144.141C162.266 144.141 161.18 143.164 161.18 141.703C161.18 140.312 162.25 139.438 164.125 139.328L166.461 139.195V138.516C166.461 137.523 165.805 136.93 164.68 136.93C163.797 136.93 163.195 137.25 162.742 138.055C162.617 138.281 162.438 138.383 162.18 138.383C161.828 138.383 161.578 138.141 161.578 137.773C161.578 137.602 161.633 137.406 161.742 137.211C162.203 136.32 163.391 135.734 164.711 135.734C166.617 135.734 167.82 136.766 167.82 138.383V143.453C167.82 143.859 167.555 144.141 167.18 144.141C166.797 144.141 166.531 143.859 166.531 143.453V142.602H166.5C166.016 143.531 164.977 144.141 163.883 144.141ZM164.188 142.984C165.469 142.984 166.461 142.086 166.461 140.914V140.25L164.281 140.383C163.188 140.453 162.562 140.938 162.562 141.703C162.562 142.477 163.211 142.984 164.188 142.984ZM169.852 144.141C169.484 144.141 169.211 143.891 169.211 143.555C169.211 143.422 169.258 143.289 169.344 143.164L171.688 139.938L169.391 136.727C169.297 136.594 169.25 136.461 169.25 136.312C169.25 135.984 169.539 135.734 169.914 135.734C170.148 135.734 170.281 135.812 170.43 136.023L172.438 138.922H172.469L174.43 136.055C174.586 135.828 174.734 135.734 174.953 135.734C175.336 135.734 175.625 135.984 175.625 136.312C175.625 136.453 175.578 136.594 175.492 136.711L173.172 139.883L175.461 143.141C175.555 143.281 175.602 143.414 175.602 143.547C175.602 143.883 175.32 144.141 174.953 144.141C174.734 144.141 174.555 144.055 174.438 143.875L172.422 140.906H172.391L170.359 143.875C170.234 144.055 170.07 144.141 169.852 144.141ZM179.273 144.141C177.656 144.141 176.57 143.164 176.57 141.703C176.57 140.312 177.641 139.438 179.516 139.328L181.852 139.195V138.516C181.852 137.523 181.195 136.93 180.07 136.93C179.188 136.93 178.586 137.25 178.133 138.055C178.008 138.281 177.828 138.383 177.57 138.383C177.219 138.383 176.969 138.141 176.969 137.773C176.969 137.602 177.023 137.406 177.133 137.211C177.594 136.32 178.781 135.734 180.102 135.734C182.008 135.734 183.211 136.766 183.211 138.383V143.453C183.211 143.859 182.945 144.141 182.57 144.141C182.188 144.141 181.922 143.859 181.922 143.453V142.602H181.891C181.406 143.531 180.367 144.141 179.273 144.141ZM179.578 142.984C180.859 142.984 181.852 142.086 181.852 140.914V140.25L179.672 140.383C178.578 140.453 177.953 140.938 177.953 141.703C177.953 142.477 178.602 142.984 179.578 142.984ZM185.617 144.141C185.203 144.141 184.938 143.828 184.938 143.414V136.422C184.938 136.016 185.203 135.734 185.578 135.734C185.953 135.734 186.219 136.016 186.219 136.422V137.172H186.25C186.633 136.312 187.461 135.734 188.555 135.734C189.664 135.734 190.484 136.297 190.836 137.281H190.867C191.32 136.312 192.273 135.734 193.414 135.734C195.023 135.734 196.062 136.781 196.062 138.391V143.414C196.062 143.828 195.797 144.141 195.383 144.141C194.969 144.141 194.703 143.828 194.703 143.414V138.703C194.703 137.594 194.086 136.938 193.016 136.938C191.938 136.938 191.18 137.734 191.18 138.836V143.414C191.18 143.828 190.914 144.141 190.5 144.141C190.086 144.141 189.82 143.828 189.82 143.414V138.555C189.82 137.578 189.164 136.938 188.156 136.938C187.078 136.938 186.297 137.781 186.297 138.906V143.414C186.297 143.828 186.031 144.141 185.617 144.141ZM201.203 144.141C198.805 144.141 197.398 142.594 197.398 139.969C197.398 137.406 198.844 135.734 201.086 135.734C203.164 135.734 204.625 137.289 204.625 139.516C204.625 140.008 204.344 140.305 203.875 140.305H198.797C198.797 141.945 199.695 142.961 201.148 142.961C202.117 142.961 202.711 142.617 203.344 141.695C203.484 141.5 203.641 141.422 203.852 141.422C204.211 141.422 204.453 141.656 204.453 142.016C204.453 142.125 204.414 142.266 204.352 142.414C203.828 143.516 202.688 144.141 201.203 144.141ZM198.805 139.242H203.219C203.188 137.836 202.32 136.914 201.062 136.914C199.797 136.914 198.891 137.844 198.805 139.242ZM206.68 144.141C206.281 144.141 206 143.844 206 143.414V136.422C206 136.016 206.266 135.734 206.641 135.734C207.016 135.734 207.281 136.016 207.281 136.422V137.172H207.312C207.766 136.297 208.633 135.734 209.891 135.734C211.672 135.734 212.703 136.883 212.703 138.727V143.414C212.703 143.844 212.422 144.141 212.023 144.141C211.625 144.141 211.344 143.844 211.344 143.414V138.969C211.344 137.656 210.727 136.938 209.477 136.938C208.195 136.938 207.359 137.844 207.359 139.219V143.414C207.359 143.844 207.078 144.141 206.68 144.141ZM214.875 142.125V136.992H214.195C213.805 136.992 213.586 136.789 213.586 136.43C213.586 136.078 213.805 135.875 214.195 135.875H214.875V134.484C214.875 134.055 215.156 133.758 215.555 133.758C215.953 133.758 216.234 134.055 216.234 134.484V135.875H217.281C217.672 135.875 217.891 136.078 217.891 136.43C217.891 136.789 217.672 136.992 217.281 136.992H216.234V141.828C216.234 142.516 216.477 142.844 217.156 142.891L217.273 142.898C217.719 142.93 217.922 143.109 217.922 143.43C217.922 143.844 217.688 144.062 216.93 144.062H216.844C215.531 144.062 214.875 143.422 214.875 142.125ZM222.398 144.141C220.148 144.141 218.633 142.523 218.633 139.938C218.633 137.344 220.148 135.734 222.398 135.734C224.641 135.734 226.156 137.344 226.156 139.938C226.156 142.523 224.641 144.141 222.398 144.141ZM222.398 142.945C223.836 142.945 224.773 141.852 224.773 139.938C224.773 138.023 223.836 136.93 222.398 136.93C220.961 136.93 220.016 138.023 220.016 139.938C220.016 141.852 220.961 142.945 222.398 142.945ZM228.211 144.078C227.711 144.078 227.32 143.688 227.32 143.188C227.32 142.688 227.711 142.297 228.211 142.297C228.711 142.297 229.102 142.688 229.102 143.188C229.102 143.688 228.711 144.078 228.211 144.078Z" fill="#999999"/>
<path d="M98.9141 76.1605H92L94.1043 80.5917L98.9141 85.9725L104.325 89.4541L112.141 92.6193L123.264 96.4174L135.89 97.367L147.012 98L156.933 97.367L165.65 94.8349L172.264 92.6193L179.479 88.5046L184.89 84.3899L190 76.1605L182.785 77.1101L176.172 76.1605L169.258 73.6284L163.546 70.1468L160.54 67.6147L155.73 63.1835L151.221 56.8532L147.613 50.2064L144.908 43.5596L142.804 36.9128L141 29L139.196 36.9128L137.092 43.5596L134.988 50.2064L131.08 56.8532L125.969 63.1835L120.258 67.6147L115.448 70.1468L109.736 73.6284L107.632 74.578L103.123 76.1605H98.9141Z" fill="white" stroke="white"/>
<path d="M139.18 80.9003C139.656 78.4663 139.964 74.5395 142.485 73.4116C143.17 73.1052 143.426 72.5536 144.214 72.2768C144.895 72.0372 145.011 71.9648 145.787 71.9346C147.205 71.8793 148.532 71.427 150.015 71.7137" stroke="black" stroke-width="3" stroke-linecap="round"/>
<path d="M96.6556 76.709L95.6307 76.5138C94.2479 76.2505 92.9782 75.572 91.9906 74.5689C90.715 73.2731 90 71.5277 90 69.7095V63.9375V54.7344C90 48.611 90.5426 42.4997 91.6215 36.4721L91.7536 35.7344L93.5072 28.3125C94.4792 23.3754 95.9112 18.5401 97.7843 13.8699L98.1834 12.875L99.9406 7.96645C100.323 6.89747 100.934 5.92463 101.731 5.11552L102.188 4.65084C103.366 3.45477 104.974 2.78125 106.652 2.78125C108.164 2.78125 109.625 3.32816 110.766 4.32106L111.934 5.33851C112.7 6.00508 113.364 6.78011 113.905 7.63896L117.765 13.7656L119.392 16.4101C121.105 19.1945 124.141 20.8906 127.41 20.8906H134.132H143.192H151.442C151.787 20.8906 152.131 20.9155 152.472 20.965L155.37 21.3855C156.968 21.6174 158.516 20.7193 159.107 19.2169C159.213 18.9483 159.352 18.694 159.52 18.4597L164.819 11.0938L167.66 6.10986C167.909 5.67264 168.191 5.25462 168.502 4.85927L169.834 3.16861C170.912 1.79925 172.559 1 174.302 1C175.722 1 177.091 1.53146 178.14 2.48985L178.477 2.79832C179.109 3.3756 179.627 4.06583 180.004 4.83344L183.542 12.02C185.278 15.5461 186.586 19.267 187.439 23.1035L190.246 35.7344L192 54.7344V63.4835C192 64.9694 191.84 66.4508 191.522 67.9023L190.537 72.4057C190.347 73.2738 189.916 74.0704 189.292 74.7036C188.407 75.6029 187.198 76.1094 185.936 76.1094H185.278H184.221C179.136 76.1094 174.106 75.0534 169.451 73.0084C166.955 71.9125 164.59 70.5422 162.398 68.9229L159.266 66.6094C155.586 63.6579 152.378 60.1616 149.754 56.2413L148.745 54.7344L146.407 49.9844L143.777 42.8594L142.023 37.2188L140.562 29.2031C139.784 34.5381 138.575 39.8015 136.949 44.9417L136.762 45.5312L136.696 45.6906C134.226 51.675 130.742 57.1889 126.399 61.9901L125.942 62.4949C124.002 64.6399 121.874 66.6078 119.585 68.3753L118.826 68.9612C116.76 70.556 114.54 71.9402 112.199 73.0933L109.887 74.2317C107.364 75.4741 104.646 76.2706 101.851 76.586L99.7288 76.8256C98.7044 76.9412 97.6684 76.9019 96.6556 76.709Z" fill="#F4C091" stroke="#F4C091"/>
<path d="M166.048 17.9022L164.358 20.7154C164.334 20.7541 164.315 20.795 164.3 20.8375C164.149 21.2607 164.443 21.7111 164.891 21.7434L168.194 21.9811L173.355 22.8868L178.516 23.7925L182.358 24.6384C183.201 24.8241 184 24.1822 184 23.3187C184 23.2322 183.992 23.1459 183.975 23.061L183.355 19.8679L182.065 15.9434L181.123 13.2997C180.892 12.6512 180.559 12.0438 180.137 11.5002L179.53 10.7195C178.687 9.63461 177.39 9 176.016 9C175.123 9 174.25 9.26874 173.512 9.77127L172.171 10.6839C171.458 11.1692 170.813 11.7473 170.252 12.4028L168.711 14.2062C167.723 15.3623 166.832 16.5986 166.048 17.9022Z" fill="#FFFDFE" stroke="#FFFDFE"/>
<path d="M105.392 25.4527C103.829 25.8335 102.045 26.0664 100.152 25.9832C98.4404 25.9079 98.989 22.9446 99.5594 20.9398C99.9065 19.7196 100.276 18.5048 100.584 17.2742C100.77 16.5322 100.968 15.8719 101.253 15.219L101.261 15.2007C101.888 13.7597 102.521 12.3055 103.508 11.0824C105.111 9.09569 108.307 8.94305 110.389 10.4203C111.113 10.9342 111.799 11.5716 112.581 12.3312C113.156 12.8892 113.699 13.4743 114.198 14.1011C115.71 16.0009 118.868 20.2091 117.775 20.918C112.956 24.0436 110.972 24.0932 105.392 25.4527Z" fill="#FFFDFE" stroke="#FFFDFE"/>
<ellipse cx="114.5" cy="71" rx="5.5" ry="6" fill="#FF9469"/>
<circle cx="168" cy="71" r="6" fill="#FF9469"/>
<path d="M99.1918 7.18672H100.959L103.021 2.76763L107.144 1L110.384 1.88382L113.329 4.53527L115.685 7.18672L118.63 11.3112L121.87 14.8465L125.993 18.3817L131 20.444L129.527 22.5062L121.87 20.444L115.685 13.3734L111.562 8.65975L105.671 7.18672L101.548 10.1328L99.1918 13.3734L92.1233 69.3485L90.6507 72L88 64.9295V59.0373V55.2075V49.0207L88.8836 44.6017V41.361L90.6507 35.7635L92.1233 29.8714L93.0068 26.0415L93.5959 22.5062L94.774 18.3817L95.9521 13.3734L97.7192 9.54357L99.1918 7.18672Z" fill="#F4C091" stroke="#F4C091"/>
<path d="M155.61 18.6557L162.814 16.1475L167.712 9.18033L173.475 6.67213L181.254 5L182.983 7.78689L185 11.4098L182.983 13.6393L181.254 11.4098L177.797 7.78689L173.475 8.34426L163.678 17.541L157.915 22L151 21.1639L155.61 18.6557Z" fill="#F4C091" stroke="#F4C091"/>
<path d="M82.1644 51L100 55.5M79 64.5H100M82.1644 78L100 72.9" stroke="#8B8077" stroke-width="3"/>
<path d="M194 58.6711L191 62L190 42.0263L191.75 39L194 48.6842V58.6711Z" fill="#F4C091" stroke="#F4C091"/>
<path d="M149.322 20.0429H149.645C154.148 20.0429 158.359 17.8148 160.893 14.092L166.099 6.65337L167.769 4.14305C169.075 2.17974 171.276 1 173.634 1C175.306 1 176.922 1.59417 178.196 2.67637L179.798 4.03808C181.801 5.74004 183.23 8.0187 183.89 10.5629L186.347 20.0429L190.107 35.5153L191.873 43.871C192.622 47.4157 193 51.0287 193 54.6516V55.1265C193 60.075 192.251 64.9949 190.778 69.7191L189.955 72.3557C188.717 76.3263 186.763 80.0366 184.188 83.303C181.039 87.2977 177.036 90.5366 172.472 92.782L171.282 93.3676C167.845 95.0585 164.182 96.2459 160.407 96.8931L158.449 97.2287C155.455 97.742 152.423 98 149.386 98H142.669H135.536C131.815 98 128.104 97.6422 124.452 96.9315C120.984 96.2567 117.586 95.2666 114.298 93.9737L109.405 92.0491L105.56 90.3041C101.627 88.5193 98.1927 85.7959 95.5586 82.3733C94.5712 81.0903 93.7041 79.7192 92.9681 78.2773L92.3897 77.144C89.5044 71.4905 88 65.2337 88 58.8865V55.7485C88 51.3945 88.4184 47.0507 89.2493 42.7768L89.4463 41.7638L91.7603 30.4571L94.0744 20.0429L95.16 16.0545C95.7834 13.7643 96.7049 11.5658 97.9008 9.51555L98.6789 8.18145C99.2709 7.16651 99.9843 6.22743 100.803 5.38494L103.611 2.49701C104.541 1.53996 105.819 1 107.154 1C108.584 1 109.944 1.61949 110.882 2.69844L114.322 6.65337L119.24 12.6043C122.31 17.249 127.556 20.0429 133.124 20.0429H140.645H149.322Z" stroke="black" stroke-width="2"/>
<path d="M200.395 52L190.697 54.0449L181 56.0899M203 64.8539H181M200.395 78L181 71.573" stroke="#8B8077" stroke-width="3"/>
<path d="M127.261 44.1858L126.923 44.6867C123.774 49.3548 116.854 49.2119 113.898 44.4178V44.4178" stroke="black" stroke-width="3"/>
<path d="M168.838 43.4476L168.46 43.9912C165.118 48.7966 157.985 48.725 154.737 43.8535V43.8535" stroke="black" stroke-width="3"/>
<ellipse cx="120" cy="52" rx="6" ry="2" fill="#AFCEF2"/>
<ellipse cx="162" cy="52" rx="6" ry="2" fill="#AFCEF2"/>
<path d="M145 59H137C137.569 62.5135 138.432 63.5668 140.826 64C143.305 63.646 144.464 63.0115 145 59Z" fill="#FF9469" stroke="#FF9469"/>
</svg>
