<svg width="355" height="513" viewBox="0 0 355 513" fill="none" xmlns="http://www.w3.org/2000/svg">
<path d="M20.823 336.955L19.9536 336.091C19.0222 335.164 17.9178 334.429 16.7033 333.928L16.5121 333.849C13.9673 332.8 11.094 332.896 8.62551 334.113L8.18161 334.332C6.95617 334.937 5.9127 335.855 5.15729 336.993L4.48826 338.002C3.64103 339.279 3.40565 340.867 3.84592 342.335L4.34891 344.012C4.53829 344.643 5.03511 345.136 5.66831 345.32L7.15668 345.751C8.5103 346.144 8.5614 348.043 7.23084 348.508C7.03492 348.576 6.856 348.686 6.70623 348.829L5.23511 350.24C5.0193 350.447 4.78151 350.63 4.52599 350.785C3.24251 351.565 2.48759 352.984 2.55757 354.485L2.57945 354.954C2.6437 356.332 3.28583 357.619 4.34807 358.498L5.09242 359.115C5.24147 359.238 5.41495 359.329 5.60146 359.381L9.99877 360.598C10.704 360.794 10.5881 361.827 9.85717 361.861C9.73205 361.867 9.61136 361.909 9.5099 361.982L7.56606 363.389C6.28034 364.319 5.36149 365.671 4.96928 367.209C4.66495 368.402 4.69108 369.656 5.04487 370.836L5.07673 370.942C5.66262 372.896 7.12187 374.467 9.02696 375.196C9.87304 375.52 10.7768 375.665 11.6817 375.623L12.7486 375.573C13.9279 375.519 15.0921 375.286 16.2015 374.882L16.6626 374.714C19.0676 373.84 21.1686 372.289 22.7127 370.248C23.7794 368.838 24.5538 367.23 24.9907 365.517L25.1503 364.891C25.5534 363.31 25.7196 361.679 25.6437 360.05L25.4576 356.059L25.1569 349.611L25.0067 346.392C24.9354 344.864 24.6185 343.357 24.0681 341.93C23.3479 340.062 22.2422 338.367 20.823 336.955Z" fill="#F4C091" stroke="black" stroke-width="3"/>
<path d="M-22.6762 270.978L-31.2804 265.824L-32.0352 273.001L-30.146 283.396L-26.0628 291.835L-18.7458 301.667L-7.79573 314.765L7.19349 325.378L20.5532 334.47L33.3803 341.063L46.1569 344.357L56.0737 346.483L68.1846 346.654L78.0508 345.48L90.6754 338.874L80.9742 334.698L73.4669 328.566L66.7904 320.208L62.3331 311.544L60.5198 306.099L57.9077 296.906L57.1154 285.533L57.6864 274.432L59.3797 264.004L61.8212 254.023L65.6006 242.665L57.332 251.334L49.6531 258.178L41.9743 265.021L32.0508 270.52L20.872 274.722L10.3907 276.072L2.47743 275.692L-7.28099 275.84L-10.6226 275.474L-17.4388 274.115L-22.6762 270.978Z" fill="white" stroke="white"/>
<path d="M37.6599 284.711L37.9306 284.615C38.1039 284.554 38.282 284.507 38.4631 284.475C40.2282 284.164 41.917 285.319 42.2636 287.074L42.4992 288.267C42.7169 289.369 42.5165 290.513 41.9369 291.476L41.1273 292.822C40.8495 293.284 40.5289 293.719 40.1697 294.121L36.6647 298.044L32.5681 302.249C32.2368 302.589 31.8103 302.821 31.3446 302.914L30.9705 302.99C29.5511 303.275 28.2802 302.066 28.4975 300.637L28.682 299.931C29.6811 296.106 31.2234 292.444 33.262 289.055L34.1491 287.581C34.9512 286.247 36.1922 285.233 37.6599 284.711Z" fill="#EB6A6A" stroke="#EB6A6A" stroke-width="3"/>
<path d="M-26.7573 268.987L-27.9314 267.943C-29.4745 266.571 -30.5636 264.763 -31.0545 262.759C-31.6936 260.15 -31.2745 257.394 -29.8885 255.089L-25.5318 247.847L-18.5617 236.26C-13.9243 228.551 -8.60781 221.269 -2.67541 214.502L-1.94735 213.671L5.89832 205.66C10.8706 200.183 16.3475 195.185 22.2569 190.731L23.5225 189.777L29.4549 184.944C30.7594 183.882 32.2803 183.116 33.9114 182.701L34.8187 182.47C37.2276 181.856 39.7812 182.229 41.9116 183.505C43.8302 184.654 45.2695 186.455 45.9663 188.578L46.6725 190.729C47.1409 192.156 47.3973 193.644 47.4336 195.146L47.6905 205.779L47.7515 210.308C47.8165 215.141 50.3809 219.593 54.5302 222.079L63.0582 227.187L74.5525 234.072L85.021 240.342C85.4571 240.603 85.874 240.895 86.2683 241.216L89.6477 243.965C91.4889 245.463 94.1202 245.502 96.0083 244.061C96.3478 243.802 96.7183 243.586 97.1113 243.418L109.41 238.172L116.782 234.06C117.434 233.696 118.111 233.382 118.81 233.119L121.757 232.011C124.174 231.102 126.873 231.345 129.086 232.671C130.888 233.75 132.222 235.461 132.828 237.47L133.017 238.099C133.383 239.311 133.518 240.58 133.415 241.842L132.463 253.548C131.993 259.318 130.831 265.011 129.002 270.506L123.007 288.517L110.842 313.771L104.22 324.78C103.092 326.655 101.764 328.402 100.258 329.991L95.6131 334.896C94.7079 335.852 93.5499 336.532 92.2735 336.857C90.4745 337.315 88.5673 337.037 86.9762 336.084L86.1254 335.574L84.7645 334.759C78.3254 330.902 72.7545 325.759 68.4004 319.651C66.0609 316.37 64.0935 312.838 62.5343 309.123L60.3205 303.847C57.8866 297.334 56.4644 290.488 56.1033 283.544L55.9658 280.901L56.597 273.144L58.656 262.175L60.7033 253.74L64.92 242.538C59.8925 248.664 54.3746 254.371 48.4209 259.604L47.7337 260.208L47.5655 260.332C39.8753 266.007 31.262 270.312 22.1056 273.06L21.1741 273.339C17.078 274.568 12.8808 275.431 8.63221 275.917L7.24972 276.075C3.4103 276.514 -0.463074 276.57 -4.31295 276.242L-8.08772 275.921C-12.2363 275.567 -16.2924 274.504 -20.0784 272.776L-22.9543 271.464C-24.3388 270.832 -25.6206 269.997 -26.7573 268.987Z" fill="#F4C091" stroke="#F4C091"/>
<path d="M105.719 247.966L101.444 250.372C101.387 250.404 101.332 250.442 101.282 250.485C100.77 250.92 100.805 251.721 101.353 252.109L105.115 254.769L110.665 259.667L116.216 264.566L120.115 268.334C121.04 269.229 122.559 269.029 123.223 267.926C123.285 267.822 123.338 267.713 123.381 267.599L125.088 263.06L126.541 257.112L127.453 252.961C127.659 252.026 127.718 251.064 127.629 250.11L127.476 248.479C127.297 246.566 126.218 244.853 124.568 243.865C123.482 243.215 122.218 242.921 120.954 243.026L118.557 243.226C117.356 243.326 116.173 243.586 115.041 243.999L111.67 245.229C109.615 245.979 107.625 246.894 105.719 247.966Z" fill="#FFFDFE" stroke="#FFFDFE"/>
<path d="M17.4747 208.068C15.4365 207.451 13.2498 206.51 11.161 205.125C9.27882 203.876 11.9747 200.801 14.0155 198.862C15.2492 197.69 16.5034 196.539 17.699 195.328C18.4576 194.56 19.1688 193.904 19.9855 193.32C21.6517 192.128 23.3477 190.895 25.2525 190.14C28.4663 188.866 32.2852 190.929 33.5978 194.127C34.0354 195.194 34.3557 196.374 34.7003 197.752C34.9519 198.757 35.1518 199.772 35.2745 200.802C35.6563 204.005 36.3045 211.1 34.5688 211.183C27.0029 211.543 24.7247 210.261 17.4747 208.068Z" fill="#FFFDFE" stroke="#FFFDFE"/>
<ellipse cx="8.13894" cy="8.67283" rx="8.13894" ry="8.67283" transform="matrix(0.857877 0.513856 -0.51547 0.856908 -2.27853 263.927)" fill="#FF9469"/>
<ellipse cx="8.68154" cy="8.67283" rx="8.68154" ry="8.67283" transform="matrix(0.857877 0.513856 -0.51547 0.856908 64.7507 304.077)" fill="#FF9469"/>
<path d="M45.2933 277.258L42.267 282.289M42.267 282.289C34.4731 285.278 32.0962 283.987 31.1918 275.655M42.267 282.289C44.0694 290.67 46.732 290.96 52.6039 288.48" stroke="black" stroke-width="3"/>
<path d="M29.6025 183.763L31.8215 185.092L37.7842 181.034L44.3113 181.892L47.7048 185.45L49.3788 191.031L50.3132 196.168L50.8627 203.618L52.2318 210.542L54.7104 218.13L59.4231 224.513L55.9995 226.023L47.9583 217.646L45.5899 204.02L44.0109 194.936L37.7389 188.636L30.312 189.274L24.8792 191.615L-26.7317 257.34L-30.6052 259.597L-28.5356 248.63L-24.0372 241.152L-21.1132 236.291L-16.3899 228.439L-11.9066 223.495L-9.43244 219.382L-2.93995 213.607L3.40763 207.237L7.44109 203.04L10.8798 198.997L15.508 194.648L20.811 189.178L25.954 185.646L29.6025 183.763Z" fill="#F4C091" stroke="#F4C091"/>
<path d="M91.643 240.924L102.695 243.069L114.361 237.627L123.598 238.685L134.716 242.361L134.695 247.321L134.377 253.594L130.078 254.996L129.659 250.768L128.162 243.408L122.279 240.878L102.684 245.549L91.9079 247.049L83.8575 240.735L91.643 240.924Z" fill="#F4C091" stroke="#F4C091"/>
<path d="M110.003 319.377L103.387 320.901L116.549 295.862L121.199 293.659L117.282 307.275L110.003 319.377Z" fill="#F4C091" stroke="#F4C091"/>
<path d="M83.1061 237.629L83.5269 237.881C89.188 241.272 96.1643 241.649 102.164 238.888L114.333 233.482L118.321 231.597C121.453 230.115 125.118 230.294 128.088 232.073C130.192 233.333 131.778 235.298 132.566 237.618L133.552 240.524C134.791 244.175 134.869 248.12 133.777 251.819L129.721 265.551L122.778 287.798L118.695 299.613C116.963 304.625 114.712 309.443 111.978 313.988L111.623 314.577C107.886 320.789 103.227 326.401 97.8043 331.219L94.7953 333.893C90.2322 337.947 84.9638 341.133 79.2514 343.292C72.278 345.927 64.8037 346.971 57.3765 346.347L55.4078 346.182C49.8091 345.711 44.3078 344.441 39.0725 342.408L36.3435 341.348C32.1879 339.735 28.177 337.773 24.3538 335.483L15.8959 330.417L6.91258 325.036C2.22972 322.231 -2.17232 318.983 -6.23307 315.338C-10.09 311.876 -13.6226 308.07 -16.787 303.967L-21.4934 297.865L-25.0257 292.764C-28.6249 287.567 -30.8904 281.566 -31.6234 275.288C-31.8985 272.931 -31.9555 270.553 -31.7936 268.186L-31.6672 266.338C-31.0331 257.066 -28.2027 248.076 -23.4089 240.107L-21.0465 236.18C-17.7606 230.718 -13.9556 225.583 -9.68436 220.849L-8.67136 219.726L2.77525 207.285L13.5482 195.965L17.9215 191.783C20.4372 189.378 23.2585 187.313 26.313 185.642L28.2919 184.559C29.8068 183.73 31.417 183.088 33.0869 182.648L38.7931 181.144C40.6892 180.645 42.7065 180.931 44.3871 181.937C46.1878 183.016 47.4324 184.82 47.8003 186.884L49.1457 194.436L50.8456 205.61C51.206 213.754 55.7127 221.221 62.7122 225.413L72.1808 231.085L83.1061 237.629Z" stroke="black" stroke-width="3"/>
<path d="M122.705 316.044L108.812 311.3L94.9189 306.557M116.066 334.559L88.1376 317.83M102.587 349.487L82.9387 326.473" stroke="#8B8077" stroke-width="3"/>
<path d="M33.6568 284.188C33.6568 284.188 23.6588 301.68 28.0508 304.833C32.4427 307.985 44.8284 290.88 44.8284 290.88" stroke="black" stroke-width="3"/>
<path d="M141.113 229.765L152.846 219.733M142.508 236.919L164.949 226.982M143.438 243.795L160.662 247.793" stroke="black" stroke-width="2"/>
<ellipse cx="10.3093" cy="13.0093" rx="10.3093" ry="13.0093" transform="matrix(0.857877 0.513856 -0.51547 0.856908 21.0981 229.277)" fill="white"/>
<ellipse cx="8.13894" cy="9.21489" rx="8.13894" ry="9.21489" transform="matrix(0.857877 0.513856 -0.51547 0.856908 20.7247 234.108)" fill="black"/>
<ellipse cx="10.3093" cy="13.0093" rx="10.3093" ry="13.0093" transform="matrix(0.857877 0.513856 -0.51547 0.856908 77.8867 263.293)" fill="white"/>
<ellipse cx="8.13894" cy="9.21489" rx="8.13894" ry="9.21489" transform="matrix(0.857877 0.513856 -0.51547 0.856908 77.5133 268.124)" fill="black"/>
<ellipse cx="2.71298" cy="2.71026" rx="2.71298" ry="2.71026" transform="matrix(0.857877 0.513856 -0.51547 0.856908 24.634 240.241)" fill="white"/>
<ellipse cx="2.71298" cy="2.71026" rx="2.71298" ry="2.71026" transform="matrix(0.857877 0.513856 -0.51547 0.856908 80.4916 273.699)" fill="white"/>
<g filter="url(#filter0_d_362_863)">
<rect x="95" y="33" width="242" height="145" rx="72.5" fill="#F0E1D5"/>
</g>
<path d="M148.103 73V61.7266H152.33C153.449 61.7266 154.403 61.9453 155.189 62.3828C155.981 62.8203 156.585 63.4557 157.002 64.2891C157.423 65.1224 157.634 66.1276 157.634 67.3047V67.3203C157.634 68.5234 157.426 69.5495 157.009 70.3984C156.593 71.2422 155.989 71.888 155.197 72.3359C154.41 72.7786 153.455 73 152.33 73H148.103ZM150.119 71.3047H152.064C152.809 71.3047 153.444 71.151 153.97 70.8438C154.496 70.5365 154.895 70.0885 155.166 69.5C155.442 68.9115 155.58 68.1953 155.58 67.3516V67.3359C155.58 66.513 155.439 65.8099 155.158 65.2266C154.882 64.638 154.481 64.1901 153.955 63.8828C153.429 63.5755 152.798 63.4219 152.064 63.4219H150.119V71.3047ZM164.2 73.1719C163.351 73.1719 162.622 72.9922 162.013 72.6328C161.408 72.2734 160.942 71.763 160.614 71.1016C160.286 70.4401 160.122 69.6562 160.122 68.75V68.7422C160.122 67.8464 160.283 67.0651 160.606 66.3984C160.934 65.7318 161.398 65.2161 161.997 64.8516C162.596 64.4818 163.299 64.2969 164.106 64.2969C164.919 64.2969 165.617 64.4766 166.2 64.8359C166.789 65.1901 167.242 65.6875 167.559 66.3281C167.877 66.9688 168.036 67.7188 168.036 68.5781V69.2188H161.098V67.9141H167.083L166.161 69.1328V68.3594C166.161 67.7917 166.075 67.3203 165.903 66.9453C165.731 66.5703 165.492 66.2891 165.184 66.1016C164.882 65.9141 164.531 65.8203 164.13 65.8203C163.729 65.8203 163.372 65.9193 163.059 66.1172C162.752 66.3099 162.507 66.5964 162.325 66.9766C162.148 67.3516 162.059 67.8125 162.059 68.3594V69.1406C162.059 69.6667 162.148 70.1172 162.325 70.4922C162.502 70.862 162.752 71.1484 163.075 71.3516C163.403 71.5495 163.791 71.6484 164.239 71.6484C164.588 71.6484 164.888 71.599 165.138 71.5C165.393 71.3958 165.598 71.2734 165.755 71.1328C165.911 70.987 166.02 70.849 166.083 70.7188L166.106 70.6641H167.95L167.934 70.7344C167.867 71.0104 167.742 71.2917 167.559 71.5781C167.382 71.8594 167.14 72.1224 166.833 72.3672C166.531 72.6068 166.161 72.8021 165.723 72.9531C165.286 73.099 164.778 73.1719 164.2 73.1719ZM174.008 73.1719C173.284 73.1719 172.659 73.0703 172.133 72.8672C171.612 72.6589 171.201 72.3724 170.898 72.0078C170.596 71.638 170.417 71.2109 170.359 70.7266V70.7109H172.289L172.297 70.7266C172.401 71.0234 172.596 71.2656 172.883 71.4531C173.169 71.6406 173.555 71.7344 174.039 71.7344C174.362 71.7344 174.646 71.6901 174.891 71.6016C175.135 71.5078 175.328 71.3802 175.469 71.2188C175.609 71.0573 175.68 70.8698 175.68 70.6562V70.6406C175.68 70.3906 175.578 70.1823 175.375 70.0156C175.172 69.8438 174.836 69.7057 174.367 69.6016L172.984 69.2891C172.443 69.1693 171.995 69.0026 171.641 68.7891C171.286 68.5755 171.021 68.3125 170.844 68C170.672 67.6875 170.586 67.3229 170.586 66.9062V66.8984C170.586 66.3828 170.729 65.9297 171.016 65.5391C171.307 65.1484 171.711 64.8438 172.227 64.625C172.742 64.4062 173.336 64.2969 174.008 64.2969C174.701 64.2969 175.297 64.401 175.797 64.6094C176.297 64.8177 176.688 65.1042 176.969 65.4688C177.25 65.8333 177.411 66.2474 177.453 66.7109V66.7266H175.625L175.617 66.7031C175.544 66.4323 175.37 66.2031 175.094 66.0156C174.823 65.8229 174.458 65.7266 174 65.7266C173.714 65.7266 173.456 65.7708 173.227 65.8594C173.003 65.9479 172.826 66.0729 172.695 66.2344C172.57 66.3906 172.508 66.5755 172.508 66.7891V66.7969C172.508 66.9635 172.549 67.1094 172.633 67.2344C172.721 67.3594 172.859 67.4688 173.047 67.5625C173.234 67.6562 173.482 67.7396 173.789 67.8125L175.172 68.1172C176.01 68.3047 176.63 68.5833 177.031 68.9531C177.432 69.3229 177.633 69.8203 177.633 70.4453V70.4609C177.633 71.0026 177.477 71.4766 177.164 71.8828C176.852 72.2891 176.422 72.6068 175.875 72.8359C175.328 73.0599 174.706 73.1719 174.008 73.1719ZM184.058 73.1719C183.198 73.1719 182.464 72.9948 181.855 72.6406C181.245 72.2865 180.779 71.776 180.456 71.1094C180.133 70.4427 179.972 69.6458 179.972 68.7188V68.7031C179.972 67.7812 180.133 66.9922 180.456 66.3359C180.779 65.6797 181.245 65.1771 181.855 64.8281C182.464 64.474 183.196 64.2969 184.05 64.2969C184.784 64.2969 185.415 64.4245 185.941 64.6797C186.472 64.9297 186.891 65.2786 187.198 65.7266C187.511 66.1693 187.704 66.6875 187.777 67.2812V67.3125H185.941L185.933 67.2891C185.844 66.8724 185.641 66.5312 185.323 66.2656C185.011 66 184.589 65.8672 184.058 65.8672C183.615 65.8672 183.235 65.9792 182.917 66.2031C182.605 66.4271 182.365 66.75 182.198 67.1719C182.032 67.5938 181.948 68.1042 181.948 68.7031V68.7188C181.948 69.3229 182.032 69.8411 182.198 70.2734C182.37 70.7005 182.613 71.0286 182.925 71.2578C183.238 71.4818 183.615 71.5938 184.058 71.5938C184.563 71.5938 184.969 71.4792 185.277 71.25C185.589 71.0208 185.805 70.6823 185.925 70.2344L185.941 70.2031L187.769 70.1953L187.761 70.2656C187.667 70.8438 187.464 71.3516 187.152 71.7891C186.844 72.2266 186.433 72.5677 185.917 72.8125C185.402 73.0521 184.782 73.1719 184.058 73.1719ZM193.256 73.1719C192.621 73.1719 192.087 73.0495 191.655 72.8047C191.222 72.5547 190.897 72.1927 190.678 71.7188C190.459 71.2396 190.35 70.6615 190.35 69.9844V64.4609H192.295V69.5391C192.295 70.2005 192.426 70.6979 192.686 71.0312C192.946 71.3646 193.371 71.5312 193.959 71.5312C194.272 71.5312 194.548 71.4844 194.788 71.3906C195.032 71.2917 195.235 71.151 195.397 70.9688C195.558 70.7865 195.681 70.5677 195.764 70.3125C195.847 70.0521 195.889 69.7604 195.889 69.4375V64.4609H197.834V73H195.889V71.7031H195.756C195.626 72.0052 195.444 72.2682 195.209 72.4922C194.975 72.7109 194.694 72.8802 194.366 73C194.038 73.1146 193.668 73.1719 193.256 73.1719ZM205.759 73.1406C205.358 73.1406 204.991 73.0833 204.658 72.9688C204.324 72.849 204.03 72.6797 203.775 72.4609C203.525 72.237 203.322 71.9714 203.166 71.6641H203.033V73H201.088V61.1562H203.033V65.8203H203.166C203.317 65.513 203.52 65.2474 203.775 65.0234C204.03 64.7995 204.327 64.6276 204.666 64.5078C205.004 64.3828 205.369 64.3203 205.759 64.3203C206.478 64.3203 207.098 64.5 207.619 64.8594C208.145 65.2135 208.551 65.7214 208.838 66.3828C209.124 67.0391 209.267 67.8203 209.267 68.7266V68.7422C209.267 69.638 209.121 70.4167 208.83 71.0781C208.543 71.7396 208.137 72.25 207.611 72.6094C207.09 72.9635 206.473 73.1406 205.759 73.1406ZM205.15 71.5C205.593 71.5 205.973 71.3906 206.291 71.1719C206.608 70.9479 206.853 70.6302 207.025 70.2188C207.197 69.8073 207.283 69.3151 207.283 68.7422V68.7266C207.283 68.1536 207.197 67.6615 207.025 67.25C206.853 66.8333 206.608 66.5156 206.291 66.2969C205.973 66.0729 205.593 65.9609 205.15 65.9609C204.713 65.9609 204.332 66.0729 204.009 66.2969C203.686 66.5208 203.436 66.8385 203.259 67.25C203.088 67.6615 203.002 68.1536 203.002 68.7266V68.7422C203.002 69.3099 203.088 69.8021 203.259 70.2188C203.436 70.6302 203.684 70.9479 204.002 71.1719C204.324 71.3906 204.707 71.5 205.15 71.5ZM212.013 73V64.4609H213.958V65.7734H214.091C214.236 65.3151 214.497 64.9583 214.872 64.7031C215.252 64.4479 215.723 64.3203 216.286 64.3203C216.432 64.3203 216.575 64.3307 216.716 64.3516C216.861 64.3672 216.981 64.388 217.075 64.4141V66.1562C216.919 66.1198 216.76 66.0938 216.598 66.0781C216.442 66.0573 216.278 66.0469 216.106 66.0469C215.674 66.0469 215.296 66.1276 214.973 66.2891C214.651 66.4505 214.401 66.6823 214.223 66.9844C214.046 67.2812 213.958 67.6328 213.958 68.0391V73H212.013ZM221.688 73.1406C221.151 73.1406 220.669 73.0365 220.242 72.8281C219.82 72.6198 219.487 72.3255 219.242 71.9453C219.003 71.5599 218.883 71.1068 218.883 70.5859V70.5703C218.883 70.0651 219.008 69.6302 219.258 69.2656C219.508 68.8958 219.875 68.6068 220.359 68.3984C220.844 68.1901 221.432 68.0677 222.125 68.0312L225.281 67.8359V69.1172L222.398 69.3047C221.852 69.3359 221.448 69.4505 221.188 69.6484C220.927 69.8464 220.797 70.1224 220.797 70.4766V70.4922C220.797 70.8568 220.935 71.1406 221.211 71.3438C221.492 71.5469 221.849 71.6484 222.281 71.6484C222.672 71.6484 223.021 71.5703 223.328 71.4141C223.635 71.2578 223.878 71.0469 224.055 70.7812C224.232 70.5104 224.32 70.2057 224.32 69.8672V67.1641C224.32 66.737 224.185 66.4115 223.914 66.1875C223.643 65.9583 223.242 65.8438 222.711 65.8438C222.268 65.8438 221.906 65.9219 221.625 66.0781C221.344 66.2292 221.154 66.4453 221.055 66.7266L221.047 66.7578H219.211L219.219 66.6875C219.281 66.2083 219.469 65.7891 219.781 65.4297C220.094 65.0703 220.508 64.7917 221.023 64.5938C221.539 64.3958 222.133 64.2969 222.805 64.2969C223.544 64.2969 224.169 64.4115 224.68 64.6406C225.19 64.8646 225.578 65.1927 225.844 65.625C226.109 66.0521 226.242 66.5651 226.242 67.1641V73H224.32V71.8281H224.188C224.031 72.099 223.828 72.3333 223.578 72.5312C223.333 72.7292 223.052 72.8802 222.734 72.9844C222.417 73.0885 222.068 73.1406 221.688 73.1406ZM234.444 73V64.4609H236.389V65.7734H236.522C236.725 65.3099 237.032 64.9479 237.444 64.6875C237.855 64.4271 238.368 64.2969 238.983 64.2969C239.936 64.2969 240.665 64.5729 241.17 65.125C241.676 65.6771 241.928 66.4609 241.928 67.4766V73H239.983V67.9297C239.983 67.263 239.842 66.763 239.561 66.4297C239.285 66.0964 238.853 65.9297 238.264 65.9297C237.879 65.9297 237.545 66.0156 237.264 66.1875C236.983 66.3594 236.767 66.6016 236.616 66.9141C236.465 67.2266 236.389 67.5964 236.389 68.0234V73H234.444ZM248.713 73.1719C247.864 73.1719 247.132 72.9948 246.517 72.6406C245.903 72.2812 245.429 71.7708 245.095 71.1094C244.767 70.4479 244.603 69.6562 244.603 68.7344V68.7188C244.603 67.8073 244.77 67.0208 245.103 66.3594C245.436 65.6927 245.908 65.1823 246.517 64.8281C247.132 64.474 247.864 64.2969 248.713 64.2969C249.561 64.2969 250.291 64.474 250.9 64.8281C251.515 65.1823 251.989 65.6901 252.322 66.3516C252.655 67.013 252.822 67.8021 252.822 68.7188V68.7344C252.822 69.6562 252.655 70.4479 252.322 71.1094C251.994 71.7708 251.522 72.2812 250.908 72.6406C250.298 72.9948 249.567 73.1719 248.713 73.1719ZM248.713 71.5938C249.16 71.5938 249.541 71.4818 249.853 71.2578C250.171 71.0286 250.413 70.7031 250.58 70.2812C250.746 69.8542 250.83 69.3411 250.83 68.7422V68.7266C250.83 68.1224 250.746 67.6094 250.58 67.1875C250.413 66.7604 250.171 66.4349 249.853 66.2109C249.541 65.9818 249.16 65.8672 248.713 65.8672C248.265 65.8672 247.882 65.9818 247.564 66.2109C247.246 66.4349 247.004 66.7604 246.838 67.1875C246.671 67.6094 246.588 68.1224 246.588 68.7266V68.7422C246.588 69.3411 246.671 69.8542 246.838 70.2812C247.004 70.7083 247.244 71.0339 247.556 71.2578C247.874 71.4818 248.259 71.5938 248.713 71.5938ZM257.528 73L254.489 64.4609H256.567L258.536 71.1016H258.677L260.638 64.4609H262.684L259.653 73H257.528ZM267.172 73.1406C266.635 73.1406 266.154 73.0365 265.727 72.8281C265.305 72.6198 264.971 72.3255 264.727 71.9453C264.487 71.5599 264.367 71.1068 264.367 70.5859V70.5703C264.367 70.0651 264.492 69.6302 264.742 69.2656C264.992 68.8958 265.359 68.6068 265.844 68.3984C266.328 68.1901 266.917 68.0677 267.609 68.0312L270.766 67.8359V69.1172L267.883 69.3047C267.336 69.3359 266.932 69.4505 266.672 69.6484C266.411 69.8464 266.281 70.1224 266.281 70.4766V70.4922C266.281 70.8568 266.419 71.1406 266.695 71.3438C266.977 71.5469 267.333 71.6484 267.766 71.6484C268.156 71.6484 268.505 71.5703 268.812 71.4141C269.12 71.2578 269.362 71.0469 269.539 70.7812C269.716 70.5104 269.805 70.2057 269.805 69.8672V67.1641C269.805 66.737 269.669 66.4115 269.398 66.1875C269.128 65.9583 268.727 65.8438 268.195 65.8438C267.753 65.8438 267.391 65.9219 267.109 66.0781C266.828 66.2292 266.638 66.4453 266.539 66.7266L266.531 66.7578H264.695L264.703 66.6875C264.766 66.2083 264.953 65.7891 265.266 65.4297C265.578 65.0703 265.992 64.7917 266.508 64.5938C267.023 64.3958 267.617 64.2969 268.289 64.2969C269.029 64.2969 269.654 64.4115 270.164 64.6406C270.674 64.8646 271.062 65.1927 271.328 65.625C271.594 66.0521 271.727 66.5651 271.727 67.1641V73H269.805V71.8281H269.672C269.516 72.099 269.312 72.3333 269.062 72.5312C268.818 72.7292 268.536 72.8802 268.219 72.9844C267.901 73.0885 267.552 73.1406 267.172 73.1406ZM278.089 73.1719C277.365 73.1719 276.74 73.0703 276.214 72.8672C275.693 72.6589 275.282 72.3724 274.98 72.0078C274.678 71.638 274.498 71.2109 274.441 70.7266V70.7109H276.37L276.378 70.7266C276.482 71.0234 276.678 71.2656 276.964 71.4531C277.251 71.6406 277.636 71.7344 278.12 71.7344C278.443 71.7344 278.727 71.6901 278.972 71.6016C279.217 71.5078 279.409 71.3802 279.55 71.2188C279.691 71.0573 279.761 70.8698 279.761 70.6562V70.6406C279.761 70.3906 279.659 70.1823 279.456 70.0156C279.253 69.8438 278.917 69.7057 278.448 69.6016L277.066 69.2891C276.524 69.1693 276.076 69.0026 275.722 68.7891C275.368 68.5755 275.102 68.3125 274.925 68C274.753 67.6875 274.667 67.3229 274.667 66.9062V66.8984C274.667 66.3828 274.81 65.9297 275.097 65.5391C275.389 65.1484 275.792 64.8438 276.308 64.625C276.823 64.4062 277.417 64.2969 278.089 64.2969C278.782 64.2969 279.378 64.401 279.878 64.6094C280.378 64.8177 280.769 65.1042 281.05 65.4688C281.331 65.8333 281.493 66.2474 281.534 66.7109V66.7266H279.706L279.698 66.7031C279.626 66.4323 279.451 66.2031 279.175 66.0156C278.904 65.8229 278.54 65.7266 278.081 65.7266C277.795 65.7266 277.537 65.7708 277.308 65.8594C277.084 65.9479 276.907 66.0729 276.777 66.2344C276.652 66.3906 276.589 66.5755 276.589 66.7891V66.7969C276.589 66.9635 276.631 67.1094 276.714 67.2344C276.803 67.3594 276.941 67.4688 277.128 67.5625C277.316 67.6562 277.563 67.7396 277.87 67.8125L279.253 68.1172C280.092 68.3047 280.711 68.5833 281.113 68.9531C281.514 69.3229 281.714 69.8203 281.714 70.4453V70.4609C281.714 71.0026 281.558 71.4766 281.245 71.8828C280.933 72.2891 280.503 72.6068 279.956 72.8359C279.409 73.0599 278.787 73.1719 278.089 73.1719ZM134.484 92.1406C133.948 92.1406 133.466 92.0365 133.039 91.8281C132.617 91.6198 132.284 91.3255 132.039 90.9453C131.799 90.5599 131.68 90.1068 131.68 89.5859V89.5703C131.68 89.0651 131.805 88.6302 132.055 88.2656C132.305 87.8958 132.672 87.6068 133.156 87.3984C133.641 87.1901 134.229 87.0677 134.922 87.0312L138.078 86.8359V88.1172L135.195 88.3047C134.648 88.3359 134.245 88.4505 133.984 88.6484C133.724 88.8464 133.594 89.1224 133.594 89.4766V89.4922C133.594 89.8568 133.732 90.1406 134.008 90.3438C134.289 90.5469 134.646 90.6484 135.078 90.6484C135.469 90.6484 135.818 90.5703 136.125 90.4141C136.432 90.2578 136.674 90.0469 136.852 89.7812C137.029 89.5104 137.117 89.2057 137.117 88.8672V86.1641C137.117 85.737 136.982 85.4115 136.711 85.1875C136.44 84.9583 136.039 84.8438 135.508 84.8438C135.065 84.8438 134.703 84.9219 134.422 85.0781C134.141 85.2292 133.951 85.4453 133.852 85.7266L133.844 85.7578H132.008L132.016 85.6875C132.078 85.2083 132.266 84.7891 132.578 84.4297C132.891 84.0703 133.305 83.7917 133.82 83.5938C134.336 83.3958 134.93 83.2969 135.602 83.2969C136.341 83.2969 136.966 83.4115 137.477 83.6406C137.987 83.8646 138.375 84.1927 138.641 84.625C138.906 85.0521 139.039 85.5651 139.039 86.1641V92H137.117V90.8281H136.984C136.828 91.099 136.625 91.3333 136.375 91.5312C136.13 91.7292 135.849 91.8802 135.531 91.9844C135.214 92.0885 134.865 92.1406 134.484 92.1406ZM145.534 92.0391C144.555 92.0391 143.849 91.8594 143.417 91.5C142.985 91.1406 142.769 90.5521 142.769 89.7344V84.9688H141.441V83.4609H142.769V81.3672H144.745V83.4609H146.542V84.9688H144.745V89.2734C144.745 89.6953 144.834 90.0052 145.011 90.2031C145.193 90.3958 145.485 90.4922 145.886 90.4922C146.027 90.4922 146.141 90.4896 146.23 90.4844C146.323 90.474 146.428 90.4635 146.542 90.4531V91.9531C146.407 91.9792 146.251 92 146.073 92.0156C145.902 92.0312 145.722 92.0391 145.534 92.0391ZM149.311 92V83.4609H151.248V92H149.311ZM150.288 82.0312C149.97 82.0312 149.696 81.9193 149.467 81.6953C149.238 81.4714 149.123 81.2031 149.123 80.8906C149.123 80.5677 149.238 80.2969 149.467 80.0781C149.696 79.8542 149.97 79.7422 150.288 79.7422C150.605 79.7422 150.876 79.8542 151.1 80.0781C151.329 80.2969 151.444 80.5677 151.444 80.8906C151.444 81.2031 151.329 81.4714 151.1 81.6953C150.876 81.9193 150.605 82.0312 150.288 82.0312ZM156.744 92L153.705 83.4609H155.783L157.752 90.1016H157.892L159.853 83.4609H161.9L158.869 92H156.744ZM164.364 92V83.4609H166.302V92H164.364ZM165.341 82.0312C165.023 82.0312 164.749 81.9193 164.52 81.6953C164.291 81.4714 164.177 81.2031 164.177 80.8906C164.177 80.5677 164.291 80.2969 164.52 80.0781C164.749 79.8542 165.023 79.7422 165.341 79.7422C165.658 79.7422 165.929 79.8542 166.153 80.0781C166.382 80.2969 166.497 80.5677 166.497 80.8906C166.497 81.2031 166.382 81.4714 166.153 81.6953C165.929 81.9193 165.658 82.0312 165.341 82.0312ZM172.578 92.1406C171.87 92.1406 171.253 91.9635 170.727 91.6094C170.201 91.25 169.794 90.7396 169.508 90.0781C169.221 89.4167 169.078 88.638 169.078 87.7422V87.7266C169.078 86.8203 169.219 86.0391 169.5 85.3828C169.786 84.7214 170.19 84.2135 170.711 83.8594C171.237 83.5 171.859 83.3203 172.578 83.3203C172.969 83.3203 173.333 83.3828 173.672 83.5078C174.01 83.6276 174.307 83.7995 174.562 84.0234C174.823 84.2474 175.026 84.513 175.172 84.8203H175.312V80.1562H177.25V92H175.312V90.6641H175.172C175.016 90.9714 174.81 91.237 174.555 91.4609C174.305 91.6797 174.013 91.849 173.68 91.9688C173.346 92.0833 172.979 92.1406 172.578 92.1406ZM173.188 90.5C173.63 90.5 174.01 90.3906 174.328 90.1719C174.651 89.9479 174.898 89.6302 175.07 89.2188C175.247 88.8021 175.336 88.3099 175.336 87.7422V87.7266C175.336 87.1536 175.247 86.6615 175.07 86.25C174.898 85.8385 174.651 85.5208 174.328 85.2969C174.01 85.0729 173.63 84.9609 173.188 84.9609C172.75 84.9609 172.37 85.0729 172.047 85.2969C171.729 85.5156 171.484 85.8333 171.312 86.25C171.141 86.6615 171.055 87.1536 171.055 87.7266V87.7422C171.055 88.3151 171.141 88.8073 171.312 89.2188C171.484 89.6302 171.729 89.9479 172.047 90.1719C172.365 90.3906 172.745 90.5 173.188 90.5ZM182.831 92.1406C182.295 92.1406 181.813 92.0365 181.386 91.8281C180.964 91.6198 180.631 91.3255 180.386 90.9453C180.146 90.5599 180.027 90.1068 180.027 89.5859V89.5703C180.027 89.0651 180.152 88.6302 180.402 88.2656C180.652 87.8958 181.019 87.6068 181.503 87.3984C181.987 87.1901 182.576 87.0677 183.269 87.0312L186.425 86.8359V88.1172L183.542 88.3047C182.995 88.3359 182.592 88.4505 182.331 88.6484C182.071 88.8464 181.941 89.1224 181.941 89.4766V89.4922C181.941 89.8568 182.079 90.1406 182.355 90.3438C182.636 90.5469 182.993 90.6484 183.425 90.6484C183.816 90.6484 184.165 90.5703 184.472 90.4141C184.779 90.2578 185.021 90.0469 185.198 89.7812C185.376 89.5104 185.464 89.2057 185.464 88.8672V86.1641C185.464 85.737 185.329 85.4115 185.058 85.1875C184.787 84.9583 184.386 84.8438 183.855 84.8438C183.412 84.8438 183.05 84.9219 182.769 85.0781C182.487 85.2292 182.297 85.4453 182.198 85.7266L182.191 85.7578H180.355L180.362 85.6875C180.425 85.2083 180.612 84.7891 180.925 84.4297C181.237 84.0703 181.652 83.7917 182.167 83.5938C182.683 83.3958 183.277 83.2969 183.948 83.2969C184.688 83.2969 185.313 83.4115 185.823 83.6406C186.334 83.8646 186.722 84.1927 186.987 84.625C187.253 85.0521 187.386 85.5651 187.386 86.1641V92H185.464V90.8281H185.331C185.175 91.099 184.972 91.3333 184.722 91.5312C184.477 91.7292 184.196 91.8802 183.878 91.9844C183.56 92.0885 183.211 92.1406 182.831 92.1406ZM193.6 92.1406C192.892 92.1406 192.274 91.9635 191.748 91.6094C191.222 91.25 190.816 90.7396 190.53 90.0781C190.243 89.4167 190.1 88.638 190.1 87.7422V87.7266C190.1 86.8203 190.241 86.0391 190.522 85.3828C190.808 84.7214 191.212 84.2135 191.733 83.8594C192.259 83.5 192.881 83.3203 193.6 83.3203C193.991 83.3203 194.355 83.3828 194.694 83.5078C195.032 83.6276 195.329 83.7995 195.584 84.0234C195.845 84.2474 196.048 84.513 196.194 84.8203H196.334V80.1562H198.272V92H196.334V90.6641H196.194C196.037 90.9714 195.832 91.237 195.577 91.4609C195.327 91.6797 195.035 91.849 194.702 91.9688C194.368 92.0833 194.001 92.1406 193.6 92.1406ZM194.209 90.5C194.652 90.5 195.032 90.3906 195.35 90.1719C195.673 89.9479 195.92 89.6302 196.092 89.2188C196.269 88.8021 196.358 88.3099 196.358 87.7422V87.7266C196.358 87.1536 196.269 86.6615 196.092 86.25C195.92 85.8385 195.673 85.5208 195.35 85.2969C195.032 85.0729 194.652 84.9609 194.209 84.9609C193.772 84.9609 193.392 85.0729 193.069 85.2969C192.751 85.5156 192.506 85.8333 192.334 86.25C192.162 86.6615 192.077 87.1536 192.077 87.7266V87.7422C192.077 88.3151 192.162 88.8073 192.334 89.2188C192.506 89.6302 192.751 89.9479 193.069 90.1719C193.386 90.3906 193.767 90.5 194.209 90.5ZM205.181 92.1719C204.332 92.1719 203.603 91.9922 202.994 91.6328C202.39 91.2734 201.923 90.763 201.595 90.1016C201.267 89.4401 201.103 88.6562 201.103 87.75V87.7422C201.103 86.8464 201.265 86.0651 201.588 85.3984C201.916 84.7318 202.379 84.2161 202.978 83.8516C203.577 83.4818 204.28 83.2969 205.088 83.2969C205.9 83.2969 206.598 83.4766 207.181 83.8359C207.77 84.1901 208.223 84.6875 208.541 85.3281C208.858 85.9688 209.017 86.7188 209.017 87.5781V88.2188H202.08V86.9141H208.064L207.142 88.1328V87.3594C207.142 86.7917 207.056 86.3203 206.884 85.9453C206.713 85.5703 206.473 85.2891 206.166 85.1016C205.864 84.9141 205.512 84.8203 205.111 84.8203C204.71 84.8203 204.353 84.9193 204.041 85.1172C203.733 85.3099 203.489 85.5964 203.306 85.9766C203.129 86.3516 203.041 86.8125 203.041 87.3594V88.1406C203.041 88.6667 203.129 89.1172 203.306 89.4922C203.483 89.862 203.733 90.1484 204.056 90.3516C204.384 90.5495 204.772 90.6484 205.22 90.6484C205.569 90.6484 205.869 90.599 206.119 90.5C206.374 90.3958 206.58 90.2734 206.736 90.1328C206.892 89.987 207.002 89.849 207.064 89.7188L207.088 89.6641H208.931L208.916 89.7344C208.848 90.0104 208.723 90.2917 208.541 90.5781C208.364 90.8594 208.121 91.1224 207.814 91.3672C207.512 91.6068 207.142 91.8021 206.705 91.9531C206.267 92.099 205.759 92.1719 205.181 92.1719ZM214.989 92.1719C214.265 92.1719 213.64 92.0703 213.114 91.8672C212.593 91.6589 212.182 91.3724 211.88 91.0078C211.578 90.638 211.398 90.2109 211.341 89.7266V89.7109H213.27L213.278 89.7266C213.382 90.0234 213.578 90.2656 213.864 90.4531C214.151 90.6406 214.536 90.7344 215.02 90.7344C215.343 90.7344 215.627 90.6901 215.872 90.6016C216.117 90.5078 216.309 90.3802 216.45 90.2188C216.591 90.0573 216.661 89.8698 216.661 89.6562V89.6406C216.661 89.3906 216.559 89.1823 216.356 89.0156C216.153 88.8438 215.817 88.7057 215.348 88.6016L213.966 88.2891C213.424 88.1693 212.976 88.0026 212.622 87.7891C212.268 87.5755 212.002 87.3125 211.825 87C211.653 86.6875 211.567 86.3229 211.567 85.9062V85.8984C211.567 85.3828 211.71 84.9297 211.997 84.5391C212.289 84.1484 212.692 83.8438 213.208 83.625C213.723 83.4062 214.317 83.2969 214.989 83.2969C215.682 83.2969 216.278 83.401 216.778 83.6094C217.278 83.8177 217.669 84.1042 217.95 84.4688C218.231 84.8333 218.393 85.2474 218.434 85.7109V85.7266H216.606L216.598 85.7031C216.526 85.4323 216.351 85.2031 216.075 85.0156C215.804 84.8229 215.44 84.7266 214.981 84.7266C214.695 84.7266 214.437 84.7708 214.208 84.8594C213.984 84.9479 213.807 85.0729 213.677 85.2344C213.552 85.3906 213.489 85.5755 213.489 85.7891V85.7969C213.489 85.9635 213.531 86.1094 213.614 86.2344C213.703 86.3594 213.841 86.4688 214.028 86.5625C214.216 86.6562 214.463 86.7396 214.77 86.8125L216.153 87.1172C216.992 87.3047 217.611 87.5833 218.012 87.9531C218.414 88.3229 218.614 88.8203 218.614 89.4453V89.4609C218.614 90.0026 218.458 90.4766 218.145 90.8828C217.833 91.2891 217.403 91.6068 216.856 91.8359C216.309 92.0599 215.687 92.1719 214.989 92.1719ZM221.117 94.9766L221.797 90.2812H223.797L222.445 94.9766H221.117ZM232.506 92V83.4609H234.452V84.7734H234.584C234.73 84.3151 234.991 83.9583 235.366 83.7031C235.746 83.4479 236.217 83.3203 236.78 83.3203C236.926 83.3203 237.069 83.3307 237.209 83.3516C237.355 83.3672 237.475 83.388 237.569 83.4141V85.1562C237.412 85.1198 237.254 85.0938 237.092 85.0781C236.936 85.0573 236.772 85.0469 236.6 85.0469C236.168 85.0469 235.79 85.1276 235.467 85.2891C235.144 85.4505 234.894 85.6823 234.717 85.9844C234.54 86.2812 234.452 86.6328 234.452 87.0391V92H232.506ZM243.4 92.1719C242.551 92.1719 241.822 91.9922 241.213 91.6328C240.608 91.2734 240.142 90.763 239.814 90.1016C239.486 89.4401 239.322 88.6562 239.322 87.75V87.7422C239.322 86.8464 239.483 86.0651 239.806 85.3984C240.134 84.7318 240.598 84.2161 241.197 83.8516C241.796 83.4818 242.499 83.2969 243.306 83.2969C244.119 83.2969 244.817 83.4766 245.4 83.8359C245.989 84.1901 246.442 84.6875 246.759 85.3281C247.077 85.9688 247.236 86.7188 247.236 87.5781V88.2188H240.298V86.9141H246.283L245.361 88.1328V87.3594C245.361 86.7917 245.275 86.3203 245.103 85.9453C244.931 85.5703 244.692 85.2891 244.384 85.1016C244.082 84.9141 243.731 84.8203 243.33 84.8203C242.929 84.8203 242.572 84.9193 242.259 85.1172C241.952 85.3099 241.707 85.5964 241.525 85.9766C241.348 86.3516 241.259 86.8125 241.259 87.3594V88.1406C241.259 88.6667 241.348 89.1172 241.525 89.4922C241.702 89.862 241.952 90.1484 242.275 90.3516C242.603 90.5495 242.991 90.6484 243.439 90.6484C243.788 90.6484 244.088 90.599 244.338 90.5C244.593 90.3958 244.798 90.2734 244.955 90.1328C245.111 89.987 245.22 89.849 245.283 89.7188L245.306 89.6641H247.15L247.134 89.7344C247.067 90.0104 246.942 90.2917 246.759 90.5781C246.582 90.8594 246.34 91.1224 246.033 91.3672C245.731 91.6068 245.361 91.8021 244.923 91.9531C244.486 92.099 243.978 92.1719 243.4 92.1719ZM253.653 95C252.903 95 252.255 94.901 251.708 94.7031C251.166 94.5052 250.739 94.224 250.427 93.8594C250.114 93.5 249.924 93.0807 249.856 92.6016L249.864 92.5781H251.802L251.817 92.6016C251.88 92.8724 252.07 93.0938 252.387 93.2656C252.71 93.4427 253.143 93.5312 253.684 93.5312C254.351 93.5312 254.867 93.3828 255.231 93.0859C255.601 92.7891 255.786 92.3672 255.786 91.8203V90.1797H255.653C255.492 90.487 255.281 90.7474 255.02 90.9609C254.765 91.1745 254.471 91.3359 254.137 91.4453C253.809 91.5495 253.447 91.6016 253.052 91.6016C252.333 91.6016 251.71 91.4297 251.184 91.0859C250.658 90.737 250.252 90.2552 249.966 89.6406C249.684 89.026 249.544 88.3151 249.544 87.5078V87.4922C249.544 86.6693 249.687 85.9453 249.973 85.3203C250.26 84.6953 250.666 84.2057 251.192 83.8516C251.723 83.4974 252.356 83.3203 253.091 83.3203C253.486 83.3203 253.848 83.3828 254.177 83.5078C254.51 83.6328 254.802 83.8099 255.052 84.0391C255.307 84.2682 255.515 84.5443 255.677 84.8672H255.778V83.4609H257.723V91.7891C257.723 92.4453 257.557 93.013 257.223 93.4922C256.895 93.9766 256.427 94.349 255.817 94.6094C255.208 94.8698 254.486 95 253.653 95ZM253.653 90.0547C254.101 90.0547 254.486 89.9479 254.809 89.7344C255.132 89.5156 255.38 89.2161 255.552 88.8359C255.729 88.4557 255.817 88.013 255.817 87.5078V87.4922C255.817 86.987 255.729 86.5443 255.552 86.1641C255.38 85.7786 255.132 85.4792 254.809 85.2656C254.486 85.0469 254.101 84.9375 253.653 84.9375C253.2 84.9375 252.815 85.0469 252.497 85.2656C252.184 85.4792 251.945 85.7786 251.778 86.1641C251.617 86.5443 251.536 86.987 251.536 87.4922V87.5078C251.536 88.0078 251.617 88.4505 251.778 88.8359C251.945 89.2161 252.184 89.5156 252.497 89.7344C252.815 89.9479 253.2 90.0547 253.653 90.0547ZM260.93 92V83.4609H262.867V92H260.93ZM261.906 82.0312C261.589 82.0312 261.315 81.9193 261.086 81.6953C260.857 81.4714 260.742 81.2031 260.742 80.8906C260.742 80.5677 260.857 80.2969 261.086 80.0781C261.315 79.8542 261.589 79.7422 261.906 79.7422C262.224 79.7422 262.495 79.8542 262.719 80.0781C262.948 80.2969 263.062 80.5677 263.062 80.8906C263.062 81.2031 262.948 81.4714 262.719 81.6953C262.495 81.9193 262.224 82.0312 261.906 82.0312ZM269.292 92.1719C268.568 92.1719 267.943 92.0703 267.417 91.8672C266.896 91.6589 266.485 91.3724 266.183 91.0078C265.881 90.638 265.701 90.2109 265.644 89.7266V89.7109H267.573L267.581 89.7266C267.685 90.0234 267.881 90.2656 268.167 90.4531C268.454 90.6406 268.839 90.7344 269.323 90.7344C269.646 90.7344 269.93 90.6901 270.175 90.6016C270.42 90.5078 270.613 90.3802 270.753 90.2188C270.894 90.0573 270.964 89.8698 270.964 89.6562V89.6406C270.964 89.3906 270.863 89.1823 270.659 89.0156C270.456 88.8438 270.12 88.7057 269.652 88.6016L268.269 88.2891C267.727 88.1693 267.279 88.0026 266.925 87.7891C266.571 87.5755 266.305 87.3125 266.128 87C265.956 86.6875 265.87 86.3229 265.87 85.9062V85.8984C265.87 85.3828 266.014 84.9297 266.3 84.5391C266.592 84.1484 266.995 83.8438 267.511 83.625C268.027 83.4062 268.62 83.2969 269.292 83.2969C269.985 83.2969 270.581 83.401 271.081 83.6094C271.581 83.8177 271.972 84.1042 272.253 84.4688C272.534 84.8333 272.696 85.2474 272.738 85.7109V85.7266H270.909L270.902 85.7031C270.829 85.4323 270.654 85.2031 270.378 85.0156C270.107 84.8229 269.743 84.7266 269.284 84.7266C268.998 84.7266 268.74 84.7708 268.511 84.8594C268.287 84.9479 268.11 85.0729 267.98 85.2344C267.855 85.3906 267.792 85.5755 267.792 85.7891V85.7969C267.792 85.9635 267.834 86.1094 267.917 86.2344C268.006 86.3594 268.144 86.4688 268.331 86.5625C268.519 86.6562 268.766 86.7396 269.073 86.8125L270.456 87.1172C271.295 87.3047 271.915 87.5833 272.316 87.9531C272.717 88.3229 272.917 88.8203 272.917 89.4453V89.4609C272.917 90.0026 272.761 90.4766 272.448 90.8828C272.136 91.2891 271.706 91.6068 271.159 91.8359C270.613 92.0599 269.99 92.1719 269.292 92.1719ZM278.991 92.0391C278.011 92.0391 277.306 91.8594 276.873 91.5C276.441 91.1406 276.225 90.5521 276.225 89.7344V84.9688H274.897V83.4609H276.225V81.3672H278.202V83.4609H279.998V84.9688H278.202V89.2734C278.202 89.6953 278.29 90.0052 278.467 90.2031C278.649 90.3958 278.941 90.4922 279.342 90.4922C279.483 90.4922 279.597 90.4896 279.686 90.4844C279.78 90.474 279.884 90.4635 279.998 90.4531V91.9531C279.863 91.9792 279.707 92 279.53 92.0156C279.358 92.0312 279.178 92.0391 278.991 92.0391ZM282.744 92V83.4609H284.689V84.7734H284.822C284.968 84.3151 285.228 83.9583 285.603 83.7031C285.983 83.4479 286.455 83.3203 287.017 83.3203C287.163 83.3203 287.306 83.3307 287.447 83.3516C287.593 83.3672 287.712 83.388 287.806 83.4141V85.1562C287.65 85.1198 287.491 85.0938 287.33 85.0781C287.173 85.0573 287.009 85.0469 286.837 85.0469C286.405 85.0469 286.028 85.1276 285.705 85.2891C285.382 85.4505 285.132 85.6823 284.955 85.9844C284.778 86.2812 284.689 86.6328 284.689 87.0391V92H282.744ZM293.637 92.1719C292.789 92.1719 292.059 91.9922 291.45 91.6328C290.846 91.2734 290.38 90.763 290.052 90.1016C289.723 89.4401 289.559 88.6562 289.559 87.75V87.7422C289.559 86.8464 289.721 86.0651 290.044 85.3984C290.372 84.7318 290.835 84.2161 291.434 83.8516C292.033 83.4818 292.736 83.2969 293.544 83.2969C294.356 83.2969 295.054 83.4766 295.637 83.8359C296.226 84.1901 296.679 84.6875 296.997 85.3281C297.315 85.9688 297.473 86.7188 297.473 87.5781V88.2188H290.536V86.9141H296.52L295.598 88.1328V87.3594C295.598 86.7917 295.512 86.3203 295.341 85.9453C295.169 85.5703 294.929 85.2891 294.622 85.1016C294.32 84.9141 293.968 84.8203 293.567 84.8203C293.166 84.8203 292.809 84.9193 292.497 85.1172C292.19 85.3099 291.945 85.5964 291.762 85.9766C291.585 86.3516 291.497 86.8125 291.497 87.3594V88.1406C291.497 88.6667 291.585 89.1172 291.762 89.4922C291.94 89.862 292.19 90.1484 292.512 90.3516C292.841 90.5495 293.229 90.6484 293.677 90.6484C294.026 90.6484 294.325 90.599 294.575 90.5C294.83 90.3958 295.036 90.2734 295.192 90.1328C295.348 89.987 295.458 89.849 295.52 89.7188L295.544 89.6641H297.387L297.372 89.7344C297.304 90.0104 297.179 90.2917 296.997 90.5781C296.82 90.8594 296.578 91.1224 296.27 91.3672C295.968 91.6068 295.598 91.8021 295.161 91.9531C294.723 92.099 294.216 92.1719 293.637 92.1719ZM155.095 111.172C154.371 111.172 153.746 111.07 153.22 110.867C152.699 110.659 152.288 110.372 151.986 110.008C151.684 109.638 151.504 109.211 151.447 108.727V108.711H153.377L153.384 108.727C153.489 109.023 153.684 109.266 153.97 109.453C154.257 109.641 154.642 109.734 155.127 109.734C155.449 109.734 155.733 109.69 155.978 109.602C156.223 109.508 156.416 109.38 156.556 109.219C156.697 109.057 156.767 108.87 156.767 108.656V108.641C156.767 108.391 156.666 108.182 156.463 108.016C156.259 107.844 155.923 107.706 155.455 107.602L154.072 107.289C153.53 107.169 153.082 107.003 152.728 106.789C152.374 106.576 152.108 106.312 151.931 106C151.759 105.688 151.673 105.323 151.673 104.906V104.898C151.673 104.383 151.817 103.93 152.103 103.539C152.395 103.148 152.798 102.844 153.314 102.625C153.83 102.406 154.423 102.297 155.095 102.297C155.788 102.297 156.384 102.401 156.884 102.609C157.384 102.818 157.775 103.104 158.056 103.469C158.338 103.833 158.499 104.247 158.541 104.711V104.727H156.713L156.705 104.703C156.632 104.432 156.457 104.203 156.181 104.016C155.91 103.823 155.546 103.727 155.088 103.727C154.801 103.727 154.543 103.771 154.314 103.859C154.09 103.948 153.913 104.073 153.783 104.234C153.658 104.391 153.595 104.576 153.595 104.789V104.797C153.595 104.964 153.637 105.109 153.72 105.234C153.809 105.359 153.947 105.469 154.134 105.562C154.322 105.656 154.569 105.74 154.877 105.812L156.259 106.117C157.098 106.305 157.718 106.583 158.119 106.953C158.52 107.323 158.72 107.82 158.72 108.445V108.461C158.72 109.003 158.564 109.477 158.252 109.883C157.939 110.289 157.509 110.607 156.963 110.836C156.416 111.06 155.793 111.172 155.095 111.172ZM165.138 111.172C164.289 111.172 163.559 110.992 162.95 110.633C162.346 110.273 161.88 109.763 161.552 109.102C161.223 108.44 161.059 107.656 161.059 106.75V106.742C161.059 105.846 161.221 105.065 161.544 104.398C161.872 103.732 162.335 103.216 162.934 102.852C163.533 102.482 164.236 102.297 165.044 102.297C165.856 102.297 166.554 102.477 167.138 102.836C167.726 103.19 168.179 103.688 168.497 104.328C168.815 104.969 168.973 105.719 168.973 106.578V107.219H162.036V105.914H168.02L167.098 107.133V106.359C167.098 105.792 167.013 105.32 166.841 104.945C166.669 104.57 166.429 104.289 166.122 104.102C165.82 103.914 165.468 103.82 165.067 103.82C164.666 103.82 164.309 103.919 163.997 104.117C163.69 104.31 163.445 104.596 163.263 104.977C163.085 105.352 162.997 105.812 162.997 106.359V107.141C162.997 107.667 163.085 108.117 163.263 108.492C163.44 108.862 163.69 109.148 164.013 109.352C164.341 109.549 164.729 109.648 165.177 109.648C165.526 109.648 165.825 109.599 166.075 109.5C166.33 109.396 166.536 109.273 166.692 109.133C166.848 108.987 166.958 108.849 167.02 108.719L167.044 108.664H168.888L168.872 108.734C168.804 109.01 168.679 109.292 168.497 109.578C168.32 109.859 168.078 110.122 167.77 110.367C167.468 110.607 167.098 110.802 166.661 110.953C166.223 111.099 165.716 111.172 165.138 111.172ZM174.547 111.172C173.911 111.172 173.378 111.049 172.945 110.805C172.513 110.555 172.188 110.193 171.969 109.719C171.75 109.24 171.641 108.661 171.641 107.984V102.461H173.586V107.539C173.586 108.201 173.716 108.698 173.977 109.031C174.237 109.365 174.661 109.531 175.25 109.531C175.562 109.531 175.839 109.484 176.078 109.391C176.323 109.292 176.526 109.151 176.688 108.969C176.849 108.786 176.971 108.568 177.055 108.312C177.138 108.052 177.18 107.76 177.18 107.438V102.461H179.125V111H177.18V109.703H177.047C176.917 110.005 176.734 110.268 176.5 110.492C176.266 110.711 175.984 110.88 175.656 111C175.328 111.115 174.958 111.172 174.547 111.172ZM185.527 111.172C184.803 111.172 184.178 111.07 183.652 110.867C183.131 110.659 182.719 110.372 182.417 110.008C182.115 109.638 181.935 109.211 181.878 108.727V108.711H183.808L183.816 108.727C183.92 109.023 184.115 109.266 184.402 109.453C184.688 109.641 185.073 109.734 185.558 109.734C185.881 109.734 186.165 109.69 186.409 109.602C186.654 109.508 186.847 109.38 186.988 109.219C187.128 109.057 187.198 108.87 187.198 108.656V108.641C187.198 108.391 187.097 108.182 186.894 108.016C186.691 107.844 186.355 107.706 185.886 107.602L184.503 107.289C183.961 107.169 183.514 107.003 183.159 106.789C182.805 106.576 182.54 106.312 182.363 106C182.191 105.688 182.105 105.323 182.105 104.906V104.898C182.105 104.383 182.248 103.93 182.534 103.539C182.826 103.148 183.23 102.844 183.745 102.625C184.261 102.406 184.855 102.297 185.527 102.297C186.219 102.297 186.816 102.401 187.316 102.609C187.816 102.818 188.206 103.104 188.488 103.469C188.769 103.833 188.93 104.247 188.972 104.711V104.727H187.144L187.136 104.703C187.063 104.432 186.889 104.203 186.613 104.016C186.342 103.823 185.977 103.727 185.519 103.727C185.232 103.727 184.974 103.771 184.745 103.859C184.521 103.948 184.344 104.073 184.214 104.234C184.089 104.391 184.027 104.576 184.027 104.789V104.797C184.027 104.964 184.068 105.109 184.152 105.234C184.24 105.359 184.378 105.469 184.566 105.562C184.753 105.656 185.001 105.74 185.308 105.812L186.691 106.117C187.529 106.305 188.149 106.583 188.55 106.953C188.951 107.323 189.152 107.82 189.152 108.445V108.461C189.152 109.003 188.995 109.477 188.683 109.883C188.37 110.289 187.941 110.607 187.394 110.836C186.847 111.06 186.224 111.172 185.527 111.172ZM197.056 111V99.1562H199.002V103.773H199.134C199.338 103.31 199.645 102.948 200.056 102.688C200.468 102.427 200.981 102.297 201.595 102.297C202.231 102.297 202.767 102.422 203.205 102.672C203.642 102.917 203.973 103.276 204.197 103.75C204.426 104.224 204.541 104.799 204.541 105.477V111H202.595V105.93C202.595 105.263 202.455 104.763 202.173 104.43C201.897 104.096 201.465 103.93 200.877 103.93C200.491 103.93 200.158 104.016 199.877 104.188C199.595 104.359 199.379 104.602 199.228 104.914C199.077 105.227 199.002 105.596 199.002 106.023V111H197.056ZM211.325 111.172C210.476 111.172 209.744 110.995 209.13 110.641C208.515 110.281 208.041 109.771 207.708 109.109C207.38 108.448 207.216 107.656 207.216 106.734V106.719C207.216 105.807 207.382 105.021 207.716 104.359C208.049 103.693 208.52 103.182 209.13 102.828C209.744 102.474 210.476 102.297 211.325 102.297C212.174 102.297 212.903 102.474 213.512 102.828C214.127 103.182 214.601 103.69 214.934 104.352C215.268 105.013 215.434 105.802 215.434 106.719V106.734C215.434 107.656 215.268 108.448 214.934 109.109C214.606 109.771 214.135 110.281 213.52 110.641C212.911 110.995 212.179 111.172 211.325 111.172ZM211.325 109.594C211.773 109.594 212.153 109.482 212.466 109.258C212.783 109.029 213.026 108.703 213.192 108.281C213.359 107.854 213.442 107.341 213.442 106.742V106.727C213.442 106.122 213.359 105.609 213.192 105.188C213.026 104.76 212.783 104.435 212.466 104.211C212.153 103.982 211.773 103.867 211.325 103.867C210.877 103.867 210.494 103.982 210.177 104.211C209.859 104.435 209.617 104.76 209.45 105.188C209.283 105.609 209.2 106.122 209.2 106.727V106.742C209.2 107.341 209.283 107.854 209.45 108.281C209.617 108.708 209.856 109.034 210.169 109.258C210.486 109.482 210.872 109.594 211.325 109.594ZM222.938 111.141C222.536 111.141 222.169 111.083 221.836 110.969C221.503 110.849 221.208 110.68 220.953 110.461C220.703 110.237 220.5 109.971 220.344 109.664H220.211V111H218.266V99.1562H220.211V103.82H220.344C220.495 103.513 220.698 103.247 220.953 103.023C221.208 102.799 221.505 102.628 221.844 102.508C222.182 102.383 222.547 102.32 222.938 102.32C223.656 102.32 224.276 102.5 224.797 102.859C225.323 103.214 225.729 103.721 226.016 104.383C226.302 105.039 226.445 105.82 226.445 106.727V106.742C226.445 107.638 226.299 108.417 226.008 109.078C225.721 109.74 225.315 110.25 224.789 110.609C224.268 110.964 223.651 111.141 222.938 111.141ZM222.328 109.5C222.771 109.5 223.151 109.391 223.469 109.172C223.786 108.948 224.031 108.63 224.203 108.219C224.375 107.807 224.461 107.315 224.461 106.742V106.727C224.461 106.154 224.375 105.661 224.203 105.25C224.031 104.833 223.786 104.516 223.469 104.297C223.151 104.073 222.771 103.961 222.328 103.961C221.891 103.961 221.51 104.073 221.188 104.297C220.865 104.521 220.615 104.839 220.438 105.25C220.266 105.661 220.18 106.154 220.18 106.727V106.742C220.18 107.31 220.266 107.802 220.438 108.219C220.615 108.63 220.862 108.948 221.18 109.172C221.503 109.391 221.885 109.5 222.328 109.5ZM233.941 111.141C233.54 111.141 233.172 111.083 232.839 110.969C232.506 110.849 232.211 110.68 231.956 110.461C231.706 110.237 231.503 109.971 231.347 109.664H231.214V111H229.269V99.1562H231.214V103.82H231.347C231.498 103.513 231.701 103.247 231.956 103.023C232.211 102.799 232.508 102.628 232.847 102.508C233.185 102.383 233.55 102.32 233.941 102.32C234.659 102.32 235.279 102.5 235.8 102.859C236.326 103.214 236.732 103.721 237.019 104.383C237.305 105.039 237.448 105.82 237.448 106.727V106.742C237.448 107.638 237.303 108.417 237.011 109.078C236.724 109.74 236.318 110.25 235.792 110.609C235.271 110.964 234.654 111.141 233.941 111.141ZM233.331 109.5C233.774 109.5 234.154 109.391 234.472 109.172C234.79 108.948 235.034 108.63 235.206 108.219C235.378 107.807 235.464 107.315 235.464 106.742V106.727C235.464 106.154 235.378 105.661 235.206 105.25C235.034 104.833 234.79 104.516 234.472 104.297C234.154 104.073 233.774 103.961 233.331 103.961C232.894 103.961 232.514 104.073 232.191 104.297C231.868 104.521 231.618 104.839 231.441 105.25C231.269 105.661 231.183 106.154 231.183 106.727V106.742C231.183 107.31 231.269 107.802 231.441 108.219C231.618 108.63 231.865 108.948 232.183 109.172C232.506 109.391 232.889 109.5 233.331 109.5ZM240.217 111V102.461H242.155V111H240.217ZM241.194 101.031C240.876 101.031 240.603 100.919 240.373 100.695C240.144 100.471 240.03 100.203 240.03 99.8906C240.03 99.5677 240.144 99.2969 240.373 99.0781C240.603 98.8542 240.876 98.7422 241.194 98.7422C241.511 98.7422 241.782 98.8542 242.006 99.0781C242.235 99.2969 242.35 99.5677 242.35 99.8906C242.35 100.203 242.235 100.471 242.006 100.695C241.782 100.919 241.511 101.031 241.194 101.031ZM249.009 111.172C248.16 111.172 247.431 110.992 246.822 110.633C246.218 110.273 245.752 109.763 245.423 109.102C245.095 108.44 244.931 107.656 244.931 106.75V106.742C244.931 105.846 245.093 105.065 245.416 104.398C245.744 103.732 246.207 103.216 246.806 102.852C247.405 102.482 248.108 102.297 248.916 102.297C249.728 102.297 250.426 102.477 251.009 102.836C251.598 103.19 252.051 103.688 252.369 104.328C252.686 104.969 252.845 105.719 252.845 106.578V107.219H245.908V105.914H251.892L250.97 107.133V106.359C250.97 105.792 250.884 105.32 250.713 104.945C250.541 104.57 250.301 104.289 249.994 104.102C249.692 103.914 249.34 103.82 248.939 103.82C248.538 103.82 248.181 103.919 247.869 104.117C247.561 104.31 247.317 104.596 247.134 104.977C246.957 105.352 246.869 105.812 246.869 106.359V107.141C246.869 107.667 246.957 108.117 247.134 108.492C247.311 108.862 247.561 109.148 247.884 109.352C248.213 109.549 248.601 109.648 249.048 109.648C249.397 109.648 249.697 109.599 249.947 109.5C250.202 109.396 250.408 109.273 250.564 109.133C250.72 108.987 250.83 108.849 250.892 108.719L250.916 108.664H252.759L252.744 108.734C252.676 109.01 252.551 109.292 252.369 109.578C252.192 109.859 251.949 110.122 251.642 110.367C251.34 110.607 250.97 110.802 250.533 110.953C250.095 111.099 249.588 111.172 249.009 111.172ZM258.817 111.172C258.093 111.172 257.468 111.07 256.942 110.867C256.421 110.659 256.01 110.372 255.708 110.008C255.406 109.638 255.226 109.211 255.169 108.727V108.711H257.098L257.106 108.727C257.21 109.023 257.406 109.266 257.692 109.453C257.979 109.641 258.364 109.734 258.848 109.734C259.171 109.734 259.455 109.69 259.7 109.602C259.945 109.508 260.138 109.38 260.278 109.219C260.419 109.057 260.489 108.87 260.489 108.656V108.641C260.489 108.391 260.388 108.182 260.184 108.016C259.981 107.844 259.645 107.706 259.177 107.602L257.794 107.289C257.252 107.169 256.804 107.003 256.45 106.789C256.096 106.576 255.83 106.312 255.653 106C255.481 105.688 255.395 105.323 255.395 104.906V104.898C255.395 104.383 255.539 103.93 255.825 103.539C256.117 103.148 256.52 102.844 257.036 102.625C257.552 102.406 258.145 102.297 258.817 102.297C259.51 102.297 260.106 102.401 260.606 102.609C261.106 102.818 261.497 103.104 261.778 103.469C262.059 103.833 262.221 104.247 262.263 104.711V104.727H260.434L260.427 104.703C260.354 104.432 260.179 104.203 259.903 104.016C259.632 103.823 259.268 103.727 258.809 103.727C258.523 103.727 258.265 103.771 258.036 103.859C257.812 103.948 257.635 104.073 257.505 104.234C257.38 104.391 257.317 104.576 257.317 104.789V104.797C257.317 104.964 257.359 105.109 257.442 105.234C257.531 105.359 257.669 105.469 257.856 105.562C258.044 105.656 258.291 105.74 258.598 105.812L259.981 106.117C260.82 106.305 261.44 106.583 261.841 106.953C262.242 107.323 262.442 107.82 262.442 108.445V108.461C262.442 109.003 262.286 109.477 261.973 109.883C261.661 110.289 261.231 110.607 260.684 110.836C260.138 111.06 259.515 111.172 258.817 111.172ZM273.925 111.172C273.076 111.172 272.347 110.992 271.738 110.633C271.133 110.273 270.667 109.763 270.339 109.102C270.011 108.44 269.847 107.656 269.847 106.75V106.742C269.847 105.846 270.008 105.065 270.331 104.398C270.659 103.732 271.123 103.216 271.722 102.852C272.321 102.482 273.024 102.297 273.831 102.297C274.644 102.297 275.342 102.477 275.925 102.836C276.514 103.19 276.967 103.688 277.284 104.328C277.602 104.969 277.761 105.719 277.761 106.578V107.219H270.823V105.914H276.808L275.886 107.133V106.359C275.886 105.792 275.8 105.32 275.628 104.945C275.456 104.57 275.217 104.289 274.909 104.102C274.607 103.914 274.256 103.82 273.855 103.82C273.454 103.82 273.097 103.919 272.784 104.117C272.477 104.31 272.232 104.596 272.05 104.977C271.873 105.352 271.784 105.812 271.784 106.359V107.141C271.784 107.667 271.873 108.117 272.05 108.492C272.227 108.862 272.477 109.148 272.8 109.352C273.128 109.549 273.516 109.648 273.964 109.648C274.313 109.648 274.613 109.599 274.863 109.5C275.118 109.396 275.323 109.273 275.48 109.133C275.636 108.987 275.745 108.849 275.808 108.719L275.831 108.664H277.675L277.659 108.734C277.592 109.01 277.467 109.292 277.284 109.578C277.107 109.859 276.865 110.122 276.558 110.367C276.256 110.607 275.886 110.802 275.448 110.953C275.011 111.099 274.503 111.172 273.925 111.172ZM149.234 130.039C148.255 130.039 147.549 129.859 147.117 129.5C146.685 129.141 146.469 128.552 146.469 127.734V122.969H145.141V121.461H146.469V119.367H148.445V121.461H150.242V122.969H148.445V127.273C148.445 127.695 148.534 128.005 148.711 128.203C148.893 128.396 149.185 128.492 149.586 128.492C149.727 128.492 149.841 128.49 149.93 128.484C150.023 128.474 150.128 128.464 150.242 128.453V129.953C150.107 129.979 149.951 130 149.773 130.016C149.602 130.031 149.422 130.039 149.234 130.039ZM156.597 130.172C155.748 130.172 155.016 129.995 154.402 129.641C153.787 129.281 153.313 128.771 152.98 128.109C152.652 127.448 152.487 126.656 152.487 125.734V125.719C152.487 124.807 152.654 124.021 152.987 123.359C153.321 122.693 153.792 122.182 154.402 121.828C155.016 121.474 155.748 121.297 156.597 121.297C157.446 121.297 158.175 121.474 158.784 121.828C159.399 122.182 159.873 122.69 160.206 123.352C160.54 124.013 160.706 124.802 160.706 125.719V125.734C160.706 126.656 160.54 127.448 160.206 128.109C159.878 128.771 159.407 129.281 158.792 129.641C158.183 129.995 157.451 130.172 156.597 130.172ZM156.597 128.594C157.045 128.594 157.425 128.482 157.737 128.258C158.055 128.029 158.297 127.703 158.464 127.281C158.631 126.854 158.714 126.341 158.714 125.742V125.727C158.714 125.122 158.631 124.609 158.464 124.188C158.297 123.76 158.055 123.435 157.737 123.211C157.425 122.982 157.045 122.867 156.597 122.867C156.149 122.867 155.766 122.982 155.448 123.211C155.131 123.435 154.889 123.76 154.722 124.188C154.555 124.609 154.472 125.122 154.472 125.727V125.742C154.472 126.341 154.555 126.854 154.722 127.281C154.889 127.708 155.128 128.034 155.441 128.258C155.758 128.482 156.144 128.594 156.597 128.594ZM163.459 130V121.461H165.405V122.773H165.537C165.683 122.315 165.944 121.958 166.319 121.703C166.699 121.448 167.17 121.32 167.733 121.32C167.879 121.32 168.022 121.331 168.162 121.352C168.308 121.367 168.428 121.388 168.522 121.414V123.156C168.366 123.12 168.207 123.094 168.045 123.078C167.889 123.057 167.725 123.047 167.553 123.047C167.121 123.047 166.743 123.128 166.42 123.289C166.097 123.451 165.847 123.682 165.67 123.984C165.493 124.281 165.405 124.633 165.405 125.039V130H163.459ZM171.009 130V121.461H172.955V122.773H173.088C173.291 122.31 173.598 121.948 174.009 121.688C174.421 121.427 174.934 121.297 175.548 121.297C176.502 121.297 177.231 121.573 177.736 122.125C178.241 122.677 178.494 123.461 178.494 124.477V130H176.548V124.93C176.548 124.263 176.408 123.763 176.127 123.43C175.851 123.096 175.418 122.93 174.83 122.93C174.444 122.93 174.111 123.016 173.83 123.188C173.548 123.359 173.332 123.602 173.181 123.914C173.03 124.227 172.955 124.596 172.955 125.023V130H171.009ZM185.247 130.172C184.398 130.172 183.669 129.992 183.059 129.633C182.455 129.273 181.989 128.763 181.661 128.102C181.333 127.44 181.169 126.656 181.169 125.75V125.742C181.169 124.846 181.33 124.065 181.653 123.398C181.981 122.732 182.445 122.216 183.044 121.852C183.643 121.482 184.346 121.297 185.153 121.297C185.966 121.297 186.664 121.477 187.247 121.836C187.835 122.19 188.289 122.688 188.606 123.328C188.924 123.969 189.083 124.719 189.083 125.578V126.219H182.145V124.914H188.13L187.208 126.133V125.359C187.208 124.792 187.122 124.32 186.95 123.945C186.778 123.57 186.539 123.289 186.231 123.102C185.929 122.914 185.578 122.82 185.177 122.82C184.776 122.82 184.419 122.919 184.106 123.117C183.799 123.31 183.554 123.596 183.372 123.977C183.195 124.352 183.106 124.812 183.106 125.359V126.141C183.106 126.667 183.195 127.117 183.372 127.492C183.549 127.862 183.799 128.148 184.122 128.352C184.45 128.549 184.838 128.648 185.286 128.648C185.635 128.648 185.934 128.599 186.184 128.5C186.44 128.396 186.645 128.273 186.802 128.133C186.958 127.987 187.067 127.849 187.13 127.719L187.153 127.664H188.997L188.981 127.734C188.914 128.01 188.789 128.292 188.606 128.578C188.429 128.859 188.187 129.122 187.88 129.367C187.578 129.607 187.208 129.802 186.77 129.953C186.333 130.099 185.825 130.172 185.247 130.172ZM200.12 130.172C199.396 130.172 198.771 130.07 198.245 129.867C197.724 129.659 197.313 129.372 197.011 129.008C196.709 128.638 196.529 128.211 196.472 127.727V127.711H198.402L198.409 127.727C198.514 128.023 198.709 128.266 198.995 128.453C199.282 128.641 199.667 128.734 200.152 128.734C200.474 128.734 200.758 128.69 201.003 128.602C201.248 128.508 201.441 128.38 201.581 128.219C201.722 128.057 201.792 127.87 201.792 127.656V127.641C201.792 127.391 201.691 127.182 201.488 127.016C201.284 126.844 200.948 126.706 200.48 126.602L199.097 126.289C198.555 126.169 198.107 126.003 197.753 125.789C197.399 125.576 197.133 125.312 196.956 125C196.784 124.688 196.698 124.323 196.698 123.906V123.898C196.698 123.383 196.842 122.93 197.128 122.539C197.42 122.148 197.823 121.844 198.339 121.625C198.855 121.406 199.448 121.297 200.12 121.297C200.813 121.297 201.409 121.401 201.909 121.609C202.409 121.818 202.8 122.104 203.081 122.469C203.363 122.833 203.524 123.247 203.566 123.711V123.727H201.738L201.73 123.703C201.657 123.432 201.482 123.203 201.206 123.016C200.935 122.823 200.571 122.727 200.113 122.727C199.826 122.727 199.568 122.771 199.339 122.859C199.115 122.948 198.938 123.073 198.808 123.234C198.683 123.391 198.62 123.576 198.62 123.789V123.797C198.62 123.964 198.662 124.109 198.745 124.234C198.834 124.359 198.972 124.469 199.159 124.562C199.347 124.656 199.594 124.74 199.902 124.812L201.284 125.117C202.123 125.305 202.743 125.583 203.144 125.953C203.545 126.323 203.745 126.82 203.745 127.445V127.461C203.745 128.003 203.589 128.477 203.277 128.883C202.964 129.289 202.534 129.607 201.988 129.836C201.441 130.06 200.818 130.172 200.12 130.172ZM210.162 130.172C209.314 130.172 208.584 129.992 207.975 129.633C207.371 129.273 206.905 128.763 206.577 128.102C206.248 127.44 206.084 126.656 206.084 125.75V125.742C206.084 124.846 206.246 124.065 206.569 123.398C206.897 122.732 207.36 122.216 207.959 121.852C208.558 121.482 209.261 121.297 210.069 121.297C210.881 121.297 211.579 121.477 212.162 121.836C212.751 122.19 213.204 122.688 213.522 123.328C213.84 123.969 213.998 124.719 213.998 125.578V126.219H207.061V124.914H213.045L212.123 126.133V125.359C212.123 124.792 212.037 124.32 211.866 123.945C211.694 123.57 211.454 123.289 211.147 123.102C210.845 122.914 210.493 122.82 210.092 122.82C209.691 122.82 209.334 122.919 209.022 123.117C208.715 123.31 208.47 123.596 208.287 123.977C208.11 124.352 208.022 124.812 208.022 125.359V126.141C208.022 126.667 208.11 127.117 208.287 127.492C208.465 127.862 208.715 128.148 209.037 128.352C209.366 128.549 209.754 128.648 210.202 128.648C210.551 128.648 210.85 128.599 211.1 128.5C211.355 128.396 211.561 128.273 211.717 128.133C211.873 127.987 211.983 127.849 212.045 127.719L212.069 127.664H213.912L213.897 127.734C213.829 128.01 213.704 128.292 213.522 128.578C213.345 128.859 213.103 129.122 212.795 129.367C212.493 129.607 212.123 129.802 211.686 129.953C211.248 130.099 210.741 130.172 210.162 130.172ZM219.572 130.172C218.936 130.172 218.403 130.049 217.97 129.805C217.538 129.555 217.213 129.193 216.994 128.719C216.775 128.24 216.666 127.661 216.666 126.984V121.461H218.611V126.539C218.611 127.201 218.741 127.698 219.002 128.031C219.262 128.365 219.686 128.531 220.275 128.531C220.588 128.531 220.864 128.484 221.103 128.391C221.348 128.292 221.551 128.151 221.713 127.969C221.874 127.786 221.996 127.568 222.08 127.312C222.163 127.052 222.205 126.76 222.205 126.438V121.461H224.15V130H222.205V128.703H222.072C221.942 129.005 221.759 129.268 221.525 129.492C221.291 129.711 221.009 129.88 220.681 130C220.353 130.115 219.983 130.172 219.572 130.172ZM235.75 130.039C234.771 130.039 234.065 129.859 233.633 129.5C233.201 129.141 232.984 128.552 232.984 127.734V122.969H231.656V121.461H232.984V119.367H234.961V121.461H236.758V122.969H234.961V127.273C234.961 127.695 235.049 128.005 235.227 128.203C235.409 128.396 235.701 128.492 236.102 128.492C236.242 128.492 236.357 128.49 236.445 128.484C236.539 128.474 236.643 128.464 236.758 128.453V129.953C236.622 129.979 236.466 130 236.289 130.016C236.117 130.031 235.938 130.039 235.75 130.039ZM243.081 130.172C242.232 130.172 241.503 129.992 240.894 129.633C240.29 129.273 239.823 128.763 239.495 128.102C239.167 127.44 239.003 126.656 239.003 125.75V125.742C239.003 124.846 239.165 124.065 239.488 123.398C239.816 122.732 240.279 122.216 240.878 121.852C241.477 121.482 242.18 121.297 242.988 121.297C243.8 121.297 244.498 121.477 245.081 121.836C245.67 122.19 246.123 122.688 246.441 123.328C246.758 123.969 246.917 124.719 246.917 125.578V126.219H239.98V124.914H245.964L245.042 126.133V125.359C245.042 124.792 244.956 124.32 244.784 123.945C244.613 123.57 244.373 123.289 244.066 123.102C243.764 122.914 243.412 122.82 243.011 122.82C242.61 122.82 242.253 122.919 241.941 123.117C241.633 123.31 241.389 123.596 241.206 123.977C241.029 124.352 240.941 124.812 240.941 125.359V126.141C240.941 126.667 241.029 127.117 241.206 127.492C241.383 127.862 241.633 128.148 241.956 128.352C242.284 128.549 242.672 128.648 243.12 128.648C243.469 128.648 243.769 128.599 244.019 128.5C244.274 128.396 244.48 128.273 244.636 128.133C244.792 127.987 244.902 127.849 244.964 127.719L244.988 127.664H246.831L246.816 127.734C246.748 128.01 246.623 128.292 246.441 128.578C246.264 128.859 246.021 129.122 245.714 129.367C245.412 129.607 245.042 129.802 244.605 129.953C244.167 130.099 243.659 130.172 243.081 130.172ZM249.662 130V121.461H251.608V122.789H251.741C251.923 122.315 252.217 121.948 252.623 121.688C253.035 121.427 253.522 121.297 254.084 121.297C254.47 121.297 254.816 121.359 255.123 121.484C255.436 121.609 255.704 121.786 255.928 122.016C256.152 122.245 256.324 122.518 256.444 122.836H256.584C256.725 122.529 256.92 122.26 257.17 122.031C257.426 121.797 257.722 121.617 258.061 121.492C258.405 121.362 258.774 121.297 259.17 121.297C259.743 121.297 260.233 121.411 260.639 121.641C261.051 121.865 261.366 122.188 261.584 122.609C261.808 123.031 261.92 123.536 261.92 124.125V130H259.975V124.602C259.975 124.227 259.918 123.917 259.803 123.672C259.694 123.427 259.524 123.242 259.295 123.117C259.066 122.992 258.777 122.93 258.428 122.93C258.09 122.93 257.795 123.008 257.545 123.164C257.295 123.315 257.1 123.521 256.959 123.781C256.824 124.042 256.756 124.336 256.756 124.664V130H254.811V124.461C254.811 124.143 254.748 123.87 254.623 123.641C254.504 123.411 254.327 123.237 254.092 123.117C253.863 122.992 253.59 122.93 253.272 122.93C252.954 122.93 252.668 123.013 252.412 123.18C252.162 123.341 251.965 123.565 251.819 123.852C251.678 124.133 251.608 124.451 251.608 124.805V130H249.662ZM265.009 132.836V121.461H266.955V122.797H267.087C267.244 122.49 267.447 122.227 267.697 122.008C267.952 121.789 268.246 121.62 268.58 121.5C268.913 121.38 269.28 121.32 269.681 121.32C270.395 121.32 271.012 121.5 271.533 121.859C272.059 122.219 272.465 122.729 272.752 123.391C273.043 124.047 273.189 124.826 273.189 125.727V125.742C273.189 126.648 273.046 127.43 272.759 128.086C272.473 128.742 272.067 129.25 271.541 129.609C271.02 129.964 270.4 130.141 269.681 130.141C269.291 130.141 268.926 130.081 268.587 129.961C268.249 129.836 267.952 129.661 267.697 129.438C267.442 129.214 267.239 128.948 267.087 128.641H266.955V132.836H265.009ZM269.072 128.5C269.515 128.5 269.895 128.391 270.212 128.172C270.53 127.948 270.775 127.63 270.947 127.219C271.119 126.802 271.205 126.31 271.205 125.742V125.727C271.205 125.148 271.119 124.654 270.947 124.242C270.775 123.831 270.53 123.516 270.212 123.297C269.895 123.073 269.515 122.961 269.072 122.961C268.629 122.961 268.246 123.073 267.923 123.297C267.606 123.516 267.358 123.831 267.181 124.242C267.009 124.654 266.923 125.146 266.923 125.719V125.734C266.923 126.307 267.009 126.802 267.181 127.219C267.358 127.63 267.608 127.948 267.931 128.172C268.254 128.391 268.634 128.5 269.072 128.5ZM279.637 130.172C278.789 130.172 278.057 129.995 277.442 129.641C276.828 129.281 276.354 128.771 276.02 128.109C275.692 127.448 275.528 126.656 275.528 125.734V125.719C275.528 124.807 275.695 124.021 276.028 123.359C276.361 122.693 276.833 122.182 277.442 121.828C278.057 121.474 278.789 121.297 279.637 121.297C280.486 121.297 281.216 121.474 281.825 121.828C282.44 122.182 282.914 122.69 283.247 123.352C283.58 124.013 283.747 124.802 283.747 125.719V125.734C283.747 126.656 283.58 127.448 283.247 128.109C282.919 128.771 282.447 129.281 281.833 129.641C281.223 129.995 280.492 130.172 279.637 130.172ZM279.637 128.594C280.085 128.594 280.466 128.482 280.778 128.258C281.096 128.029 281.338 127.703 281.505 127.281C281.671 126.854 281.755 126.341 281.755 125.742V125.727C281.755 125.122 281.671 124.609 281.505 124.188C281.338 123.76 281.096 123.435 280.778 123.211C280.466 122.982 280.085 122.867 279.637 122.867C279.19 122.867 278.807 122.982 278.489 123.211C278.171 123.435 277.929 123.76 277.762 124.188C277.596 124.609 277.512 125.122 277.512 125.727V125.742C277.512 126.341 277.596 126.854 277.762 127.281C277.929 127.708 278.169 128.034 278.481 128.258C278.799 128.482 279.184 128.594 279.637 128.594ZM130.812 149V137.156H132.758V149H130.812ZM136.027 149V140.461H137.964V149H136.027ZM137.003 139.031C136.685 139.031 136.412 138.919 136.183 138.695C135.954 138.471 135.839 138.203 135.839 137.891C135.839 137.568 135.954 137.297 136.183 137.078C136.412 136.854 136.685 136.742 137.003 136.742C137.321 136.742 137.592 136.854 137.816 137.078C138.045 137.297 138.159 137.568 138.159 137.891C138.159 138.203 138.045 138.471 137.816 138.695C137.592 138.919 137.321 139.031 137.003 139.031ZM143.459 149L140.42 140.461H142.498L144.467 147.102H144.608L146.569 140.461H148.616L145.584 149H143.459ZM151.056 149V140.461H153.002V141.773H153.134C153.28 141.315 153.541 140.958 153.916 140.703C154.296 140.448 154.767 140.32 155.33 140.32C155.476 140.32 155.619 140.331 155.759 140.352C155.905 140.367 156.025 140.388 156.119 140.414V142.156C155.962 142.12 155.804 142.094 155.642 142.078C155.486 142.057 155.322 142.047 155.15 142.047C154.718 142.047 154.34 142.128 154.017 142.289C153.694 142.451 153.444 142.682 153.267 142.984C153.09 143.281 153.002 143.633 153.002 144.039V149H151.056ZM161.95 149.172C161.101 149.172 160.372 148.992 159.763 148.633C159.158 148.273 158.692 147.763 158.364 147.102C158.036 146.44 157.872 145.656 157.872 144.75V144.742C157.872 143.846 158.033 143.065 158.356 142.398C158.684 141.732 159.148 141.216 159.747 140.852C160.346 140.482 161.049 140.297 161.856 140.297C162.669 140.297 163.367 140.477 163.95 140.836C164.539 141.19 164.992 141.688 165.309 142.328C165.627 142.969 165.786 143.719 165.786 144.578V145.219H158.848V143.914H164.833L163.911 145.133V144.359C163.911 143.792 163.825 143.32 163.653 142.945C163.481 142.57 163.242 142.289 162.934 142.102C162.632 141.914 162.281 141.82 161.88 141.82C161.479 141.82 161.122 141.919 160.809 142.117C160.502 142.31 160.257 142.596 160.075 142.977C159.898 143.352 159.809 143.812 159.809 144.359V145.141C159.809 145.667 159.898 146.117 160.075 146.492C160.252 146.862 160.502 147.148 160.825 147.352C161.153 147.549 161.541 147.648 161.989 147.648C162.338 147.648 162.638 147.599 162.888 147.5C163.143 147.396 163.348 147.273 163.505 147.133C163.661 146.987 163.77 146.849 163.833 146.719L163.856 146.664H165.7L165.684 146.734C165.617 147.01 165.492 147.292 165.309 147.578C165.132 147.859 164.89 148.122 164.583 148.367C164.281 148.607 163.911 148.802 163.473 148.953C163.036 149.099 162.528 149.172 161.95 149.172ZM173.597 149V140.461H175.542V141.789H175.675C175.857 141.315 176.152 140.948 176.558 140.688C176.969 140.427 177.456 140.297 178.019 140.297C178.404 140.297 178.751 140.359 179.058 140.484C179.37 140.609 179.639 140.786 179.862 141.016C180.086 141.245 180.258 141.518 180.378 141.836H180.519C180.659 141.529 180.855 141.26 181.105 141.031C181.36 140.797 181.657 140.617 181.995 140.492C182.339 140.362 182.709 140.297 183.105 140.297C183.678 140.297 184.167 140.411 184.573 140.641C184.985 140.865 185.3 141.188 185.519 141.609C185.743 142.031 185.855 142.536 185.855 143.125V149H183.909V143.602C183.909 143.227 183.852 142.917 183.737 142.672C183.628 142.427 183.459 142.242 183.23 142.117C183.001 141.992 182.711 141.93 182.362 141.93C182.024 141.93 181.73 142.008 181.48 142.164C181.23 142.315 181.034 142.521 180.894 142.781C180.758 143.042 180.691 143.336 180.691 143.664V149H178.745V143.461C178.745 143.143 178.683 142.87 178.558 142.641C178.438 142.411 178.261 142.237 178.027 142.117C177.797 141.992 177.524 141.93 177.206 141.93C176.889 141.93 176.602 142.013 176.347 142.18C176.097 142.341 175.899 142.565 175.753 142.852C175.612 143.133 175.542 143.451 175.542 143.805V149H173.597ZM191.272 149.141C190.735 149.141 190.254 149.036 189.827 148.828C189.405 148.62 189.071 148.326 188.827 147.945C188.587 147.56 188.467 147.107 188.467 146.586V146.57C188.467 146.065 188.592 145.63 188.842 145.266C189.092 144.896 189.459 144.607 189.944 144.398C190.428 144.19 191.017 144.068 191.709 144.031L194.866 143.836V145.117L191.983 145.305C191.436 145.336 191.032 145.451 190.772 145.648C190.511 145.846 190.381 146.122 190.381 146.477V146.492C190.381 146.857 190.519 147.141 190.795 147.344C191.077 147.547 191.433 147.648 191.866 147.648C192.256 147.648 192.605 147.57 192.912 147.414C193.22 147.258 193.462 147.047 193.639 146.781C193.816 146.51 193.905 146.206 193.905 145.867V143.164C193.905 142.737 193.769 142.411 193.498 142.188C193.228 141.958 192.827 141.844 192.295 141.844C191.853 141.844 191.491 141.922 191.209 142.078C190.928 142.229 190.738 142.445 190.639 142.727L190.631 142.758H188.795L188.803 142.688C188.866 142.208 189.053 141.789 189.366 141.43C189.678 141.07 190.092 140.792 190.608 140.594C191.123 140.396 191.717 140.297 192.389 140.297C193.129 140.297 193.754 140.411 194.264 140.641C194.774 140.865 195.162 141.193 195.428 141.625C195.694 142.052 195.827 142.565 195.827 143.164V149H193.905V147.828H193.772C193.616 148.099 193.412 148.333 193.162 148.531C192.918 148.729 192.636 148.88 192.319 148.984C192.001 149.089 191.652 149.141 191.272 149.141ZM198.986 149V140.461H200.923V149H198.986ZM199.963 139.031C199.645 139.031 199.371 138.919 199.142 138.695C198.913 138.471 198.798 138.203 198.798 137.891C198.798 137.568 198.913 137.297 199.142 137.078C199.371 136.854 199.645 136.742 199.963 136.742C200.28 136.742 200.551 136.854 200.775 137.078C201.004 137.297 201.119 137.568 201.119 137.891C201.119 138.203 201.004 138.471 200.775 138.695C200.551 138.919 200.28 139.031 199.963 139.031ZM207.348 149.172C206.624 149.172 205.999 149.07 205.473 148.867C204.953 148.659 204.541 148.372 204.239 148.008C203.937 147.638 203.757 147.211 203.7 146.727V146.711H205.63L205.637 146.727C205.742 147.023 205.937 147.266 206.223 147.453C206.51 147.641 206.895 147.734 207.38 147.734C207.703 147.734 207.986 147.69 208.231 147.602C208.476 147.508 208.669 147.38 208.809 147.219C208.95 147.057 209.02 146.87 209.02 146.656V146.641C209.02 146.391 208.919 146.182 208.716 146.016C208.512 145.844 208.177 145.706 207.708 145.602L206.325 145.289C205.783 145.169 205.335 145.003 204.981 144.789C204.627 144.576 204.361 144.312 204.184 144C204.012 143.688 203.927 143.323 203.927 142.906V142.898C203.927 142.383 204.07 141.93 204.356 141.539C204.648 141.148 205.052 140.844 205.567 140.625C206.083 140.406 206.677 140.297 207.348 140.297C208.041 140.297 208.637 140.401 209.137 140.609C209.637 140.818 210.028 141.104 210.309 141.469C210.591 141.833 210.752 142.247 210.794 142.711V142.727H208.966L208.958 142.703C208.885 142.432 208.71 142.203 208.434 142.016C208.164 141.823 207.799 141.727 207.341 141.727C207.054 141.727 206.796 141.771 206.567 141.859C206.343 141.948 206.166 142.073 206.036 142.234C205.911 142.391 205.848 142.576 205.848 142.789V142.797C205.848 142.964 205.89 143.109 205.973 143.234C206.062 143.359 206.2 143.469 206.387 143.562C206.575 143.656 206.822 143.74 207.13 143.812L208.512 144.117C209.351 144.305 209.971 144.583 210.372 144.953C210.773 145.323 210.973 145.82 210.973 146.445V146.461C210.973 147.003 210.817 147.477 210.505 147.883C210.192 148.289 209.762 148.607 209.216 148.836C208.669 149.06 208.046 149.172 207.348 149.172ZM221.878 149.141C221.17 149.141 220.553 148.964 220.027 148.609C219.501 148.25 219.094 147.74 218.808 147.078C218.521 146.417 218.378 145.638 218.378 144.742V144.727C218.378 143.82 218.519 143.039 218.8 142.383C219.086 141.721 219.49 141.214 220.011 140.859C220.537 140.5 221.159 140.32 221.878 140.32C222.269 140.32 222.633 140.383 222.972 140.508C223.31 140.628 223.607 140.799 223.863 141.023C224.123 141.247 224.326 141.513 224.472 141.82H224.613V137.156H226.55V149H224.613V147.664H224.472C224.316 147.971 224.11 148.237 223.855 148.461C223.605 148.68 223.313 148.849 222.98 148.969C222.646 149.083 222.279 149.141 221.878 149.141ZM222.488 147.5C222.93 147.5 223.31 147.391 223.628 147.172C223.951 146.948 224.198 146.63 224.37 146.219C224.547 145.802 224.636 145.31 224.636 144.742V144.727C224.636 144.154 224.547 143.661 224.37 143.25C224.198 142.839 223.951 142.521 223.628 142.297C223.31 142.073 222.93 141.961 222.488 141.961C222.05 141.961 221.67 142.073 221.347 142.297C221.029 142.516 220.784 142.833 220.613 143.25C220.441 143.661 220.355 144.154 220.355 144.727V144.742C220.355 145.315 220.441 145.807 220.613 146.219C220.784 146.63 221.029 146.948 221.347 147.172C221.665 147.391 222.045 147.5 222.488 147.5ZM229.827 149V140.461H231.764V149H229.827ZM230.803 139.031C230.485 139.031 230.212 138.919 229.983 138.695C229.754 138.471 229.639 138.203 229.639 137.891C229.639 137.568 229.754 137.297 229.983 137.078C230.212 136.854 230.485 136.742 230.803 136.742C231.121 136.742 231.392 136.854 231.616 137.078C231.845 137.297 231.959 137.568 231.959 137.891C231.959 138.203 231.845 138.471 231.616 138.695C231.392 138.919 231.121 139.031 230.803 139.031ZM237.259 149L234.22 140.461H236.298L238.267 147.102H238.408L240.369 140.461H242.416L239.384 149H237.259ZM248.169 149.172C247.32 149.172 246.591 148.992 245.981 148.633C245.377 148.273 244.911 147.763 244.583 147.102C244.255 146.44 244.091 145.656 244.091 144.75V144.742C244.091 143.846 244.252 143.065 244.575 142.398C244.903 141.732 245.367 141.216 245.966 140.852C246.565 140.482 247.268 140.297 248.075 140.297C248.887 140.297 249.585 140.477 250.169 140.836C250.757 141.19 251.21 141.688 251.528 142.328C251.846 142.969 252.005 143.719 252.005 144.578V145.219H245.067V143.914H251.052L250.13 145.133V144.359C250.13 143.792 250.044 143.32 249.872 142.945C249.7 142.57 249.46 142.289 249.153 142.102C248.851 141.914 248.499 141.82 248.098 141.82C247.697 141.82 247.341 141.919 247.028 142.117C246.721 142.31 246.476 142.596 246.294 142.977C246.117 143.352 246.028 143.812 246.028 144.359V145.141C246.028 145.667 246.117 146.117 246.294 146.492C246.471 146.862 246.721 147.148 247.044 147.352C247.372 147.549 247.76 147.648 248.208 147.648C248.557 147.648 248.856 147.599 249.106 147.5C249.361 147.396 249.567 147.273 249.723 147.133C249.88 146.987 249.989 146.849 250.052 146.719L250.075 146.664H251.919L251.903 146.734C251.835 147.01 251.71 147.292 251.528 147.578C251.351 147.859 251.109 148.122 250.802 148.367C250.499 148.607 250.13 148.802 249.692 148.953C249.255 149.099 248.747 149.172 248.169 149.172ZM254.75 149V140.461H256.695V141.773H256.828C256.974 141.315 257.234 140.958 257.609 140.703C257.99 140.448 258.461 140.32 259.023 140.32C259.169 140.32 259.312 140.331 259.453 140.352C259.599 140.367 259.719 140.388 259.812 140.414V142.156C259.656 142.12 259.497 142.094 259.336 142.078C259.18 142.057 259.016 142.047 258.844 142.047C258.411 142.047 258.034 142.128 257.711 142.289C257.388 142.451 257.138 142.682 256.961 142.984C256.784 143.281 256.695 143.633 256.695 144.039V149H254.75ZM265.738 149.039C264.758 149.039 264.053 148.859 263.62 148.5C263.188 148.141 262.972 147.552 262.972 146.734V141.969H261.644V140.461H262.972V138.367H264.948V140.461H266.745V141.969H264.948V146.273C264.948 146.695 265.037 147.005 265.214 147.203C265.396 147.396 265.688 147.492 266.089 147.492C266.23 147.492 266.344 147.49 266.433 147.484C266.527 147.474 266.631 147.464 266.745 147.453V148.953C266.61 148.979 266.454 149 266.277 149.016C266.105 149.031 265.925 149.039 265.738 149.039ZM269.514 149V140.461H271.452V149H269.514ZM270.491 139.031C270.173 139.031 269.899 138.919 269.67 138.695C269.441 138.471 269.327 138.203 269.327 137.891C269.327 137.568 269.441 137.297 269.67 137.078C269.899 136.854 270.173 136.742 270.491 136.742C270.808 136.742 271.079 136.854 271.303 137.078C271.532 137.297 271.647 137.568 271.647 137.891C271.647 138.203 271.532 138.471 271.303 138.695C271.079 138.919 270.808 139.031 270.491 139.031ZM277.728 149.141C277.02 149.141 276.403 148.964 275.877 148.609C275.351 148.25 274.944 147.74 274.658 147.078C274.371 146.417 274.228 145.638 274.228 144.742V144.727C274.228 143.82 274.369 143.039 274.65 142.383C274.936 141.721 275.34 141.214 275.861 140.859C276.387 140.5 277.009 140.32 277.728 140.32C278.119 140.32 278.483 140.383 278.822 140.508C279.16 140.628 279.457 140.799 279.712 141.023C279.973 141.247 280.176 141.513 280.322 141.82H280.462V137.156H282.4V149H280.462V147.664H280.322C280.166 147.971 279.96 148.237 279.705 148.461C279.455 148.68 279.163 148.849 278.83 148.969C278.496 149.083 278.129 149.141 277.728 149.141ZM278.337 147.5C278.78 147.5 279.16 147.391 279.478 147.172C279.801 146.948 280.048 146.63 280.22 146.219C280.397 145.802 280.486 145.31 280.486 144.742V144.727C280.486 144.154 280.397 143.661 280.22 143.25C280.048 142.839 279.801 142.521 279.478 142.297C279.16 142.073 278.78 141.961 278.337 141.961C277.9 141.961 277.52 142.073 277.197 142.297C276.879 142.516 276.634 142.833 276.462 143.25C276.291 143.661 276.205 144.154 276.205 144.727V144.742C276.205 145.315 276.291 145.807 276.462 146.219C276.634 146.63 276.879 146.948 277.197 147.172C277.515 147.391 277.895 147.5 278.337 147.5ZM289.341 149.172C288.492 149.172 287.76 148.995 287.145 148.641C286.531 148.281 286.057 147.771 285.723 147.109C285.395 146.448 285.231 145.656 285.231 144.734V144.719C285.231 143.807 285.398 143.021 285.731 142.359C286.065 141.693 286.536 141.182 287.145 140.828C287.76 140.474 288.492 140.297 289.341 140.297C290.19 140.297 290.919 140.474 291.528 140.828C292.143 141.182 292.617 141.69 292.95 142.352C293.283 143.013 293.45 143.802 293.45 144.719V144.734C293.45 145.656 293.283 146.448 292.95 147.109C292.622 147.771 292.151 148.281 291.536 148.641C290.927 148.995 290.195 149.172 289.341 149.172ZM289.341 147.594C289.789 147.594 290.169 147.482 290.481 147.258C290.799 147.029 291.041 146.703 291.208 146.281C291.374 145.854 291.458 145.341 291.458 144.742V144.727C291.458 144.122 291.374 143.609 291.208 143.188C291.041 142.76 290.799 142.435 290.481 142.211C290.169 141.982 289.789 141.867 289.341 141.867C288.893 141.867 288.51 141.982 288.192 142.211C287.874 142.435 287.632 142.76 287.466 143.188C287.299 143.609 287.216 144.122 287.216 144.727V144.742C287.216 145.341 287.299 145.854 287.466 146.281C287.632 146.708 287.872 147.034 288.184 147.258C288.502 147.482 288.887 147.594 289.341 147.594ZM296.828 145.273L296.648 137.719H298.805L298.625 145.273H296.828ZM297.734 149.195C297.339 149.195 297.023 149.086 296.789 148.867C296.555 148.643 296.438 148.344 296.438 147.969C296.438 147.594 296.555 147.297 296.789 147.078C297.023 146.854 297.339 146.742 297.734 146.742C298.13 146.742 298.445 146.854 298.68 147.078C298.914 147.297 299.031 147.594 299.031 147.969C299.031 148.344 298.914 148.643 298.68 148.867C298.445 149.086 298.13 149.195 297.734 149.195Z" fill="#7A5A3D"/>
<circle cx="104.5" cy="171.5" r="6.5" fill="#F0E1D5"/>
<circle cx="90.5" cy="186.5" r="4.5" fill="#F0E1D5"/>
<circle cx="79" cy="200" r="3" fill="#F0E1D5"/>
<path d="M74.9087 483.497L72.0004 487.519C71.7679 487.84 71.5108 488.143 71.2315 488.425C66.8881 492.808 69.2197 500.264 75.2862 501.391L76.5574 501.627C79.4202 502.159 82.3539 501.165 84.3035 499.002L90.6101 492.006C92.4165 490.002 93.8893 487.72 94.9721 485.249L96.0706 482.742C98.3461 477.549 99.5496 471.95 99.609 466.28L99.6518 462.201C99.7044 457.186 98.5556 452.231 96.3014 447.751C93.9227 443.023 90.3881 438.972 86.0257 435.975L84.238 434.747C79.1208 431.232 73.2051 429.053 67.0301 428.409C64.992 428.196 62.9398 428.152 60.8944 428.278L49.5639 428.973L40.5338 429.319C35.9822 429.494 31.4254 429.162 26.9472 428.33L22.0233 427.415C19.3257 426.914 16.7171 426.016 14.2823 424.751C9.70924 422.375 5.8863 418.775 3.24004 414.353L1.46678 411.389L1.39877 411.271C-1.48764 406.239 -8.72816 406.186 -11.6868 411.177C-12.6662 412.829 -12.9816 414.791 -12.569 416.667L-11.3964 421.997C-10.5984 425.626 -8.86988 428.984 -6.38084 431.742L-5.86454 432.314C-3.97547 434.407 -1.73679 436.155 0.751451 437.481L8.1907 441.445C12.4217 443.7 16.9732 445.293 21.6868 446.169C27.3832 447.228 33.2265 447.222 38.921 446.153L41.0721 445.749C44.7759 445.054 48.538 444.717 52.3065 444.743L58.5698 444.787C60.0948 444.798 61.6159 444.943 63.1152 445.222L63.9513 445.377C68.3506 446.195 72.4162 448.277 75.6508 451.369L77.7355 453.361C80.4337 455.94 82.101 459.413 82.4262 463.131C82.6296 465.458 82.2999 467.801 81.4621 469.981L79.5874 474.86C78.4082 477.929 76.8354 480.833 74.9087 483.497Z" fill="#F4C091" stroke="black" stroke-width="2"/>
<path d="M90.1859 501C85.1454 506.338 81.4102 507.696 73.4441 507.778" stroke="black" stroke-width="2"/>
<path d="M92.2966 504.433C87.2562 509.771 83.521 511.129 75.5548 511.211" stroke="black" stroke-width="2"/>
<path d="M92.2966 504.433C87.2562 509.771 83.521 511.129 75.5548 511.211" stroke="black" stroke-width="2"/>
<path d="M88.664 473.788L88.0102 473.508C87.2272 473.173 86.3844 473 85.5328 473C83.1919 473 81.0443 474.299 79.9569 476.372L76.1176 483.691L71.9612 489.502C71.3398 490.371 70.9 491.356 70.668 492.398L70.5005 493.151C70.1785 494.598 70.4081 496.113 71.1443 497.4C71.7278 498.42 72.6001 499.244 73.6513 499.769L73.7254 499.806C75.2528 500.568 77.0263 500.67 78.631 500.087L80.1246 499.545C81.1841 499.16 82.1704 498.598 83.041 497.882L88.2377 493.608C89.661 492.438 90.8488 491.007 91.7379 489.393L93.7147 485.804C95.1188 483.255 94.9858 480.135 93.3699 477.715C93.0848 477.288 92.7582 476.89 92.3948 476.527L91.7223 475.856C90.8436 474.978 89.8056 474.276 88.664 473.788Z" fill="#8B8077" stroke="#8B8077"/>
<path d="M96 482L95.6081 480.53C95.1648 478.868 94.3272 477.337 93.1662 476.067L92.8569 475.729C92.1151 474.918 91.2211 474.26 90.2256 473.793V473.793C89.1111 473.271 87.8953 473 86.6643 473H86.3179C85.3118 473 84.3115 473.153 83.3512 473.453L80 474.5" stroke="black"/>
<path d="M78.4475 500.612L77.5771 500.394C76.6502 500.163 76 499.33 76 498.374C76 497.309 76.8044 496.415 77.8641 496.304L85 495.553L82.9029 498.444C82.6355 498.813 82.3198 499.144 81.9641 499.429L81.2496 500C80.4622 500.63 79.4258 500.856 78.4475 500.612Z" fill="#8B8077"/>
<path d="M85.5 495.5L85 495.553M85 495.553L77.8641 496.304C76.8044 496.415 76 497.309 76 498.374V498.374C76 499.33 76.6502 500.163 77.5771 500.394L78.4475 500.612C79.4258 500.856 80.4622 500.63 81.2496 500L81.9641 499.429C82.3198 499.144 82.6355 498.813 82.9029 498.444L85 495.553Z" stroke="#8B8077"/>
<path d="M77.5 501.5V501.5C79.4384 501.5 81.3155 500.82 82.8047 499.579L83.5 499L90.5 491.5L91.3172 490.547C92.7669 488.855 94.0038 486.992 95 485V485L96.5 482" stroke="black"/>
<defs>
<filter id="filter0_d_362_863" x="91" y="33" width="250" height="153" filterUnits="userSpaceOnUse" color-interpolation-filters="sRGB">
<feFlood flood-opacity="0" result="BackgroundImageFix"/>
<feColorMatrix in="SourceAlpha" type="matrix" values="0 0 0 0 0 0 0 0 0 0 0 0 0 0 0 0 0 0 127 0" result="hardAlpha"/>
<feOffset dy="4"/>
<feGaussianBlur stdDeviation="2"/>
<feComposite in2="hardAlpha" operator="out"/>
<feColorMatrix type="matrix" values="0 0 0 0 0 0 0 0 0 0 0 0 0 0 0 0 0 0 0.25 0"/>
<feBlend mode="normal" in2="BackgroundImageFix" result="effect1_dropShadow_362_863"/>
<feBlend mode="normal" in="SourceGraphic" in2="effect1_dropShadow_362_863" result="shape"/>
</filter>
</defs>
</svg>
