<svg width="250" height="396" viewBox="0 0 250 396" fill="none" xmlns="http://www.w3.org/2000/svg">
<path d="M190.909 366.497L188 370.519C187.768 370.84 187.511 371.143 187.232 371.425C182.888 375.808 185.22 383.264 191.286 384.391L192.557 384.627C195.42 385.159 198.354 384.165 200.303 382.002L206.61 375.006C208.417 373.002 209.889 370.72 210.972 368.249L212.071 365.742C214.346 360.549 215.55 354.95 215.609 349.28L215.652 345.201C215.704 340.186 214.556 335.231 212.301 330.751C209.923 326.023 206.388 321.972 202.026 318.975L200.238 317.747C195.121 314.232 189.205 312.053 183.03 311.409C180.992 311.196 178.94 311.152 176.894 311.278L165.564 311.973L156.534 312.319C151.982 312.494 147.425 312.162 142.947 311.33L138.023 310.415C135.326 309.914 132.717 309.016 130.282 307.751C125.709 305.375 121.886 301.775 119.24 297.353L117.467 294.389L117.399 294.271C114.512 289.239 107.272 289.186 104.313 294.177C103.334 295.829 103.018 297.791 103.431 299.667L104.604 304.997C105.402 308.626 107.13 311.984 109.619 314.742L110.135 315.314C112.025 317.407 114.263 319.155 116.751 320.481L124.191 324.445C128.422 326.7 132.973 328.293 137.687 329.169C143.383 330.228 149.227 330.222 154.921 329.153L157.072 328.749C160.776 328.054 164.538 327.717 168.306 327.743L174.57 327.787C176.095 327.798 177.616 327.943 179.115 328.222L179.951 328.377C184.351 329.195 188.416 331.277 191.651 334.369L193.736 336.361C196.434 338.94 198.101 342.413 198.426 346.131C198.63 348.458 198.3 350.801 197.462 352.981L195.587 357.86C194.408 360.929 192.835 363.833 190.909 366.497Z" fill="#F4C091" stroke="black" stroke-width="2"/>
<g filter="url(#filter0_d_0_1)">
<rect x="4" y="154.5" width="242" height="145" rx="72.5" fill="#F0E1D5"/>
</g>
<path d="M64.7396 151.946L63.9051 152.709C63.0125 153.525 62.289 154.508 61.7756 155.603L61.6949 155.775C60.6177 158.072 60.5833 160.722 61.6006 163.046L61.7805 163.457C62.2866 164.613 63.09 165.615 64.1089 166.36L65.0081 167.017C66.149 167.851 67.6012 168.136 68.9725 167.794L70.5426 167.403C71.1329 167.256 71.6082 166.819 71.8051 166.243L72.2668 164.893C72.6873 163.663 74.4387 163.698 74.8104 164.943C74.8652 165.127 74.959 165.297 75.0853 165.441L76.3223 166.854C76.504 167.062 76.6626 167.289 76.795 167.531C77.4593 168.745 78.733 169.5 80.1169 169.5H80.5552C81.8279 169.5 83.0419 168.964 83.8994 168.024L84.4981 167.367C84.6186 167.235 84.7097 167.079 84.7654 166.909L86.0765 162.915C86.287 162.274 87.234 162.425 87.234 163.1C87.234 163.216 87.2679 163.329 87.3314 163.426L88.5424 165.271C89.3468 166.496 90.5549 167.401 91.957 167.828C93.0433 168.159 94.199 168.188 95.3009 167.914L95.4085 167.887C97.2306 167.433 98.7389 166.159 99.4919 164.439C99.827 163.673 100 162.846 100 162.01V161.029C100 159.942 99.835 158.861 99.5105 157.823L99.3776 157.398C98.6728 155.144 97.3313 153.141 95.5146 151.632C94.2621 150.592 92.8147 149.811 91.257 149.337L90.6813 149.161C89.2421 148.723 87.746 148.5 86.2415 148.5H82.5532H76.5957H73.6192C72.2085 148.5 70.8069 148.727 69.4682 149.172C67.7147 149.754 66.1036 150.7 64.7396 151.946Z" fill="#F4C091" stroke="black" stroke-width="3"/>
<path d="M158.74 151.946L157.905 152.709C157.013 153.525 156.289 154.508 155.776 155.603L155.695 155.775C154.618 158.072 154.583 160.722 155.601 163.046L155.78 163.457C156.287 164.613 157.09 165.615 158.109 166.36L159.008 167.017C160.149 167.851 161.601 168.136 162.973 167.794L164.543 167.403C165.133 167.256 165.608 166.819 165.805 166.243L166.267 164.893C166.687 163.663 168.439 163.698 168.81 164.943C168.865 165.127 168.959 165.297 169.085 165.441L170.322 166.854C170.504 167.062 170.663 167.289 170.795 167.531C171.459 168.745 172.733 169.5 174.117 169.5H174.555C175.828 169.5 177.042 168.964 177.899 168.024L178.498 167.367C178.619 167.235 178.71 167.079 178.765 166.909L180.076 162.915C180.287 162.274 181.234 162.425 181.234 163.1C181.234 163.216 181.268 163.329 181.331 163.426L182.542 165.271C183.347 166.496 184.555 167.401 185.957 167.828C187.043 168.159 188.199 168.188 189.301 167.914L189.409 167.887C191.231 167.433 192.739 166.159 193.492 164.439C193.827 163.673 194 162.846 194 162.01V161.029C194 159.942 193.835 158.861 193.511 157.823L193.378 157.398C192.673 155.144 191.331 153.141 189.515 151.632C188.262 150.592 186.815 149.811 185.257 149.337L184.681 149.161C183.242 148.723 181.746 148.5 180.242 148.5H176.553H170.596H167.619C166.208 148.5 164.807 148.727 163.468 149.172C161.715 149.754 160.104 150.7 158.74 151.946Z" fill="#F4C091" stroke="black" stroke-width="3"/>
<path d="M206.186 384C201.145 389.338 197.41 390.696 189.444 390.778" stroke="black" stroke-width="2"/>
<path d="M208.297 387.433C203.256 392.771 199.521 394.129 191.555 394.211" stroke="black" stroke-width="2"/>
<path d="M208.297 387.433C203.256 392.771 199.521 394.129 191.555 394.211" stroke="black" stroke-width="2"/>
<path d="M114.677 326.133C107.794 323.577 105.086 320.668 101.9 313.366" stroke="black" stroke-width="2"/>
<path d="M111.561 328.481C104.678 325.925 101.97 323.017 98.7839 315.715" stroke="black" stroke-width="2"/>
<path d="M204.664 356.788L204.01 356.508C203.227 356.173 202.384 356 201.533 356C199.192 356 197.044 357.299 195.957 359.372L192.118 366.691L187.961 372.502C187.34 373.37 186.9 374.355 186.668 375.398L186.5 376.151C186.178 377.598 186.408 379.113 187.144 380.4C187.728 381.419 188.6 382.244 189.651 382.769L189.725 382.806C191.253 383.568 193.026 383.67 194.631 383.087L196.125 382.545C197.184 382.16 198.17 381.598 199.041 380.882L204.238 376.608C205.661 375.438 206.849 374.007 207.738 372.393L209.715 368.804C211.119 366.255 210.986 363.135 209.37 360.715C209.085 360.288 208.758 359.89 208.395 359.527L207.722 358.856C206.844 357.978 205.806 357.276 204.664 356.788Z" fill="#8B8077" stroke="#8B8077"/>
<path d="M212 365L211.608 363.53C211.165 361.868 210.327 360.337 209.166 359.067L208.857 358.729C208.115 357.918 207.221 357.26 206.226 356.793V356.793C205.111 356.271 203.895 356 202.664 356H202.318C201.312 356 200.312 356.153 199.351 356.453L196 357.5" stroke="black"/>
<path d="M194.447 383.612L193.577 383.394C192.65 383.163 192 382.33 192 381.374C192 380.309 192.804 379.415 193.864 379.304L201 378.553L198.903 381.444C198.636 381.813 198.32 382.144 197.964 382.429L197.25 383C196.462 383.63 195.426 383.856 194.447 383.612Z" fill="#8B8077"/>
<path d="M201.5 378.5L201 378.553M201 378.553L193.864 379.304C192.804 379.415 192 380.309 192 381.374V381.374C192 382.33 192.65 383.163 193.577 383.394L194.447 383.612C195.426 383.856 196.462 383.63 197.25 383L197.964 382.429C198.32 382.144 198.636 381.813 198.903 381.444L201 378.553Z" stroke="#8B8077"/>
<path d="M193.5 384.5V384.5C195.438 384.5 197.316 383.82 198.805 382.579L199.5 382L206.5 374.5L207.317 373.547C208.767 371.855 210.004 369.992 211 368V368L212.5 365" stroke="black"/>
<path d="M68.2423 124.748H59L61.8129 130.784L68.2423 138.115L75.4755 142.858L85.9233 147.17L100.791 152.344L117.669 153.638L132.537 154.5L145.798 153.638L157.451 150.188L166.291 147.17L175.936 141.564L183.169 135.959L190 124.748L180.356 126.041L171.515 124.748L162.273 121.298L154.638 116.555L150.62 113.106L144.19 107.069L138.163 98.445L133.34 89.3899L129.724 80.3349L126.911 71.2798L124.5 60.5L122.089 71.2798L119.276 80.3349L116.463 89.3899L111.239 98.445L104.408 107.069L96.773 113.106L90.3436 116.555L82.7086 121.298L79.8957 122.592L73.8681 124.748H68.2423Z" fill="white" stroke="white"/>
<path d="M122.409 107.017L122.578 106.812C122.685 106.681 122.803 106.56 122.931 106.449C124.177 105.366 126.06 105.48 127.167 106.704L127.921 107.537C128.615 108.306 129 109.304 129 110.34V111.791C129 112.288 128.953 112.784 128.861 113.273L127.957 118.038L126.719 123.308C126.619 123.734 126.392 124.119 126.07 124.414L125.81 124.65C124.825 125.549 123.246 125.195 122.739 123.962L122.549 123.316C121.522 119.816 121 116.186 121 112.538V110.95C121 109.515 121.498 108.125 122.409 107.017Z" fill="#EB6A6A" stroke="#EB6A6A" stroke-width="3"/>
<path d="M64.0733 125.106L62.6543 124.838C60.7819 124.483 59.0615 123.568 57.7209 122.213C55.9778 120.453 55 118.075 55 115.597V107.797V95.3242C55 87.0256 55.7394 78.7435 57.2094 70.5761L57.3897 69.5742L59.7794 59.5156C61.104 52.8247 63.0548 46.2732 65.6059 39.9474L66.1519 38.5938L68.5416 31.955C69.0663 30.4974 69.9028 29.1718 70.9926 28.0708L71.6019 27.4553C73.2117 25.8291 75.405 24.9141 77.6932 24.9141C79.754 24.9141 81.7458 25.6566 83.3037 27.0055L84.8852 28.3749C85.9322 29.2815 86.8408 30.3366 87.582 31.5066L92.8367 39.8008L95.039 43.3605C97.3839 47.1505 101.523 49.457 105.98 49.457H115.14H127.487H138.732C139.2 49.457 139.668 49.4906 140.132 49.5576L144.103 50.1306C146.27 50.4433 148.368 49.2272 149.174 47.1913C149.319 46.8256 149.509 46.4794 149.74 46.1607L156.96 36.1797L160.828 29.4301C161.17 28.8343 161.555 28.2649 161.981 27.7265L163.784 25.4499C165.26 23.5865 167.506 22.5 169.883 22.5C171.819 22.5 173.685 23.2215 175.117 24.5235L175.567 24.9327C176.431 25.718 177.14 26.6581 177.658 27.7043L182.468 37.4228C184.837 42.2096 186.623 47.2633 187.788 52.4757L191.61 69.5742L194 95.3242V107.176C194 109.193 193.781 111.205 193.348 113.175L192.009 119.262C191.749 120.446 191.158 121.532 190.305 122.393C189.101 123.609 187.462 124.293 185.751 124.293H184.84H183.381C176.462 124.293 169.618 122.863 163.278 120.094C159.873 118.606 156.644 116.745 153.649 114.545L149.393 111.418C144.377 107.418 140.003 102.675 136.42 97.3532L135.054 95.3242L131.868 88.8867L128.284 79.2305L125.894 71.5859L123.903 60.7227C122.842 67.9529 121.196 75.085 118.98 82.0486L118.725 82.8516L118.649 83.0353C115.273 91.1668 110.518 98.6541 104.594 105.167L103.988 105.833C101.338 108.746 98.4347 111.417 95.3114 113.815L94.2921 114.598C91.4702 116.764 88.4393 118.644 85.2443 120.209L82.1083 121.745C78.6655 123.431 74.9579 124.512 71.1482 124.939L68.2542 125.264C66.8605 125.42 65.4512 125.367 64.0733 125.106Z" fill="#F4C091" stroke="#F4C091"/>
<path d="M158.698 45.6784L156.465 49.6091C156.434 49.662 156.41 49.7177 156.39 49.7754C156.192 50.363 156.601 50.9797 157.219 51.0268L161.452 51.3491L168.161 52.5943L174.871 53.8396L179.738 54.9732C180.894 55.2425 182 54.3647 182 53.1774C182 53.0656 181.99 52.9541 181.97 52.8443L181.161 48.4434L179.484 43.0472L178.232 39.329C177.95 38.4921 177.54 37.7038 177.017 36.9921L176.12 35.7706C175.071 34.3431 173.405 33.5 171.634 33.5C170.467 33.5 169.329 33.8669 168.382 34.5489L166.582 35.8441C165.682 36.4923 164.872 37.258 164.175 38.1208L162.096 40.6934C160.83 42.26 159.693 43.9272 158.698 45.6784Z" fill="#FFFDFE" stroke="#FFFDFE"/>
<path d="M76.444 55.7511C74.379 56.2714 72.0201 56.5904 69.516 56.4772C67.2595 56.3753 67.9883 52.3513 68.7403 49.6387C69.1948 47.9989 69.6776 46.3661 70.0795 44.7126C70.3346 43.6636 70.607 42.7357 71.0065 41.8144C71.8216 39.9346 72.641 38.0043 73.8856 36.3769C75.9857 33.6308 80.3218 33.4343 83.0932 35.5009C84.0171 36.1898 84.8993 37.0371 85.9037 38.0409C86.637 38.7736 87.3308 39.541 87.9658 40.3604C89.9419 42.9107 94.1492 48.6601 92.7036 49.6244C86.4022 53.8275 83.789 53.9006 76.444 55.7511Z" fill="#FFFDFE" stroke="#FFFDFE"/>
<path d="M124.897 97.5V102.916M124.897 102.916C120.162 108.976 117.672 109.081 113 102.916M124.897 102.916C130.301 108.693 132.541 107.661 136 102.916" stroke="black" stroke-width="3"/>
<path d="M68.0959 30.9523H70.4795L73.2603 24.9149L78.8219 22.5L83.1918 23.7075L87.1644 27.3299L90.3425 30.9523L94.3151 36.5871L98.6849 41.417L104.247 46.2469L111 49.0643L109.014 51.8817L98.6849 49.0643L90.3425 39.4046L84.7808 32.9647L76.8356 30.9523L71.274 34.9772L68.0959 39.4046L58.5616 115.878L56.5753 119.5L53 109.84V101.79V96.5581V88.1058L54.1918 82.0685V77.6411L56.5753 69.9938L58.5616 61.944L59.7534 56.7116L60.5479 51.8817L62.137 46.2469L63.726 39.4046L66.1096 34.1722L68.0959 30.9523Z" fill="#F4C091" stroke="#F4C091"/>
<path d="M144.237 46.7787L153.983 43.2377L160.61 33.4016L168.407 29.8607L178.932 27.5L181.271 31.4344L184 36.5492L181.271 39.6967L178.932 36.5492L174.254 31.4344L168.407 32.2213L155.153 45.2049L147.356 51.5L138 50.3197L144.237 46.7787Z" fill="#F4C091" stroke="#F4C091"/>
<path d="M45.3699 90.5L70 96.6667M41 109H70M45.3699 127.5L70 120.511" stroke="#8B8077" stroke-width="3"/>
<path d="M196 100.158L191.5 104.5L190 78.4474L192.625 74.5L196 87.1316V100.158Z" fill="#F4C091" stroke="#F4C091"/>
<path d="M135.931 48.2178H136.377C142.461 48.2178 148.152 45.2091 151.579 40.181L158.62 30.135L160.875 26.7493C162.643 24.0947 165.621 22.5 168.811 22.5C171.071 22.5 173.257 23.3027 174.98 24.7649L177.143 26.5998C179.854 28.9003 181.788 31.9819 182.681 35.4234L186.003 48.2178L191.088 69.1135L193.476 80.3983C194.489 85.1851 195 90.0646 195 94.9575V95.5945C195 102.28 193.986 108.927 191.994 115.309L190.885 118.859C189.209 124.227 186.564 129.242 183.08 133.655C178.823 139.048 173.414 143.419 167.248 146.448L165.625 147.246C160.979 149.528 156.029 151.131 150.927 152.004L148.273 152.458C144.225 153.152 140.125 153.5 136.018 153.5H126.934H117.285C112.255 153.5 107.236 153.017 102.297 152.057C97.6075 151.146 93.0106 149.808 88.5638 148.062L81.9477 145.463L76.7406 143.103C71.4265 140.695 66.7849 137.019 63.2234 132.398C61.8872 130.664 60.7136 128.811 59.7175 126.862L58.9376 125.336C55.035 117.699 53 109.246 53 100.671V96.4386C53 90.5586 53.5658 84.6923 54.6895 78.9206L54.9559 77.5521L58.0854 62.2822L61.2149 48.2178L62.6824 42.8339C63.5259 39.7392 64.7726 36.7689 66.3903 33.9992L67.4404 32.2015C68.2421 30.8289 69.208 29.5591 70.3167 28.4202L74.1104 24.5231C75.3696 23.2296 77.0981 22.5 78.9033 22.5C80.8374 22.5 82.6769 23.3372 83.9472 24.7956L88.5978 30.135L95.2479 38.1718C99.4006 44.4451 106.502 48.2178 114.025 48.2178H124.196H135.931Z" stroke="black" stroke-width="3"/>
<path d="M204.447 91.5L191.224 94.3315L178 97.1629M208 109.298H178M204.447 127.5L178 118.601" stroke="#8B8077" stroke-width="3"/>
<path d="M178 14.5L182.5 1M182.5 19.5L195.5 1M186.5 24.5L202 19.5" stroke="black" stroke-width="2"/>
<path d="M91 70L105 79.5L89 84.5" stroke="black" stroke-width="3"/>
<path d="M159.563 84.4662L143.43 79.3681L157.331 70" stroke="black" stroke-width="3"/>
<defs>
<filter id="filter0_d_0_1" x="0" y="154.5" width="250" height="153" filterUnits="userSpaceOnUse" color-interpolation-filters="sRGB">
<feFlood flood-opacity="0" result="BackgroundImageFix"/>
<feColorMatrix in="SourceAlpha" type="matrix" values="0 0 0 0 0 0 0 0 0 0 0 0 0 0 0 0 0 0 127 0" result="hardAlpha"/>
<feOffset dy="4"/>
<feGaussianBlur stdDeviation="2"/>
<feComposite in2="hardAlpha" operator="out"/>
<feColorMatrix type="matrix" values="0 0 0 0 0 0 0 0 0 0 0 0 0 0 0 0 0 0 0.25 0"/>
<feBlend mode="normal" in2="BackgroundImageFix" result="effect1_dropShadow_0_1"/>
<feBlend mode="normal" in="SourceGraphic" in2="effect1_dropShadow_0_1" result="shape"/>
</filter>
</defs>
</svg>

