<svg width="250" height="398" viewBox="0 0 250 398" fill="none" xmlns="http://www.w3.org/2000/svg">
<path d="M190.909 368.497L188 372.519C187.768 372.84 187.511 373.143 187.232 373.425C182.888 377.808 185.22 385.264 191.286 386.391L192.557 386.627C195.42 387.159 198.354 386.165 200.303 384.002L206.61 377.006C208.417 375.002 209.889 372.72 210.972 370.249L212.071 367.742C214.346 362.549 215.55 356.95 215.609 351.28L215.652 347.201C215.704 342.186 214.556 337.231 212.301 332.751C209.923 328.023 206.388 323.972 202.026 320.975L200.238 319.747C195.121 316.232 189.205 314.053 183.03 313.409C180.992 313.196 178.94 313.152 176.894 313.278L165.564 313.973L156.534 314.319C151.982 314.494 147.425 314.162 142.947 313.33L138.023 312.415C135.326 311.914 132.717 311.016 130.282 309.751C125.709 307.375 121.886 303.775 119.24 299.353L117.467 296.389L117.399 296.271C114.512 291.239 107.272 291.186 104.313 296.177C103.334 297.829 103.018 299.791 103.431 301.667L104.604 306.997C105.402 310.626 107.13 313.984 109.619 316.742L110.135 317.314C112.025 319.407 114.263 321.155 116.751 322.481L124.191 326.445C128.422 328.7 132.973 330.293 137.687 331.169C143.383 332.228 149.227 332.222 154.921 331.153L157.072 330.749C160.776 330.054 164.538 329.717 168.306 329.743L174.57 329.787C176.095 329.798 177.616 329.943 179.115 330.222L179.951 330.377C184.351 331.195 188.416 333.277 191.651 336.369L193.736 338.361C196.434 340.94 198.101 344.413 198.426 348.131C198.63 350.458 198.3 352.801 197.462 354.981L195.587 359.86C194.408 362.929 192.835 365.833 190.909 368.497Z" fill="#F4C091" stroke="black" stroke-width="2"/>
<g filter="url(#filter0_d_382_865)">
<rect x="4" y="156.5" width="242" height="145" rx="72.5" fill="#F0E1D5"/>
</g>
<path d="M64.7396 153.946L63.9051 154.709C63.0125 155.525 62.289 156.508 61.7756 157.603L61.6949 157.775C60.6177 160.072 60.5833 162.722 61.6006 165.046L61.7805 165.457C62.2866 166.613 63.09 167.615 64.1089 168.36L65.0081 169.017C66.149 169.851 67.6012 170.136 68.9725 169.794L70.5426 169.403C71.1329 169.256 71.6082 168.819 71.8051 168.243L72.2668 166.893C72.6873 165.663 74.4387 165.698 74.8104 166.943C74.8652 167.127 74.959 167.297 75.0853 167.441L76.3223 168.854C76.504 169.062 76.6626 169.289 76.795 169.531C77.4593 170.745 78.733 171.5 80.1169 171.5H80.5552C81.8279 171.5 83.0419 170.964 83.8994 170.024L84.4981 169.367C84.6186 169.235 84.7097 169.079 84.7654 168.909L86.0765 164.915C86.287 164.274 87.234 164.425 87.234 165.1C87.234 165.216 87.2679 165.329 87.3314 165.426L88.5424 167.271C89.3468 168.496 90.5549 169.401 91.957 169.828C93.0433 170.159 94.199 170.188 95.3009 169.914L95.4085 169.887C97.2306 169.433 98.7389 168.159 99.4919 166.439C99.827 165.673 100 164.846 100 164.01V163.029C100 161.942 99.835 160.861 99.5105 159.823L99.3776 159.398C98.6728 157.144 97.3313 155.141 95.5146 153.632C94.2621 152.592 92.8147 151.811 91.257 151.337L90.6813 151.161C89.2421 150.723 87.746 150.5 86.2415 150.5H82.5532H76.5957H73.6192C72.2085 150.5 70.8069 150.727 69.4682 151.172C67.7147 151.754 66.1036 152.7 64.7396 153.946Z" fill="#F4C091" stroke="black" stroke-width="3"/>
<path d="M158.74 153.946L157.905 154.709C157.013 155.525 156.289 156.508 155.776 157.603L155.695 157.775C154.618 160.072 154.583 162.722 155.601 165.046L155.78 165.457C156.287 166.613 157.09 167.615 158.109 168.36L159.008 169.017C160.149 169.851 161.601 170.136 162.973 169.794L164.543 169.403C165.133 169.256 165.608 168.819 165.805 168.243L166.267 166.893C166.687 165.663 168.439 165.698 168.81 166.943C168.865 167.127 168.959 167.297 169.085 167.441L170.322 168.854C170.504 169.062 170.663 169.289 170.795 169.531C171.459 170.745 172.733 171.5 174.117 171.5H174.555C175.828 171.5 177.042 170.964 177.899 170.024L178.498 169.367C178.619 169.235 178.71 169.079 178.765 168.909L180.076 164.915C180.287 164.274 181.234 164.425 181.234 165.1C181.234 165.216 181.268 165.329 181.331 165.426L182.542 167.271C183.347 168.496 184.555 169.401 185.957 169.828C187.043 170.159 188.199 170.188 189.301 169.914L189.409 169.887C191.231 169.433 192.739 168.159 193.492 166.439C193.827 165.673 194 164.846 194 164.01V163.029C194 161.942 193.835 160.861 193.511 159.823L193.378 159.398C192.673 157.144 191.331 155.141 189.515 153.632C188.262 152.592 186.815 151.811 185.257 151.337L184.681 151.161C183.242 150.723 181.746 150.5 180.242 150.5H176.553H170.596H167.619C166.208 150.5 164.807 150.727 163.468 151.172C161.715 151.754 160.104 152.7 158.74 153.946Z" fill="#F4C091" stroke="black" stroke-width="3"/>
<path d="M206.186 386C201.145 391.338 197.41 392.696 189.444 392.778" stroke="black" stroke-width="2"/>
<path d="M208.297 389.433C203.256 394.771 199.521 396.129 191.555 396.211" stroke="black" stroke-width="2"/>
<path d="M208.297 389.433C203.256 394.771 199.521 396.129 191.555 396.211" stroke="black" stroke-width="2"/>
<path d="M114.677 328.133C107.794 325.577 105.086 322.668 101.9 315.366" stroke="black" stroke-width="2"/>
<path d="M111.561 330.481C104.678 327.925 101.97 325.017 98.7839 317.715" stroke="black" stroke-width="2"/>
<path d="M204.664 358.788L204.01 358.508C203.227 358.173 202.384 358 201.533 358C199.192 358 197.044 359.299 195.957 361.372L192.118 368.691L187.961 374.502C187.34 375.37 186.9 376.355 186.668 377.398L186.5 378.151C186.178 379.598 186.408 381.113 187.144 382.4C187.728 383.419 188.6 384.244 189.651 384.769L189.725 384.806C191.253 385.568 193.026 385.67 194.631 385.087L196.125 384.545C197.184 384.16 198.17 383.598 199.041 382.882L204.238 378.608C205.661 377.438 206.849 376.007 207.738 374.393L209.715 370.804C211.119 368.255 210.986 365.135 209.37 362.715C209.085 362.288 208.758 361.89 208.395 361.527L207.722 360.856C206.844 359.978 205.806 359.276 204.664 358.788Z" fill="#8B8077" stroke="#8B8077"/>
<path d="M212 367L211.608 365.53C211.165 363.868 210.327 362.337 209.166 361.067L208.857 360.729C208.115 359.918 207.221 359.26 206.226 358.793V358.793C205.111 358.271 203.895 358 202.664 358H202.318C201.312 358 200.312 358.153 199.351 358.453L196 359.5" stroke="black"/>
<path d="M194.447 385.612L193.577 385.394C192.65 385.163 192 384.33 192 383.374C192 382.309 192.804 381.415 193.864 381.304L201 380.553L198.903 383.444C198.636 383.813 198.32 384.144 197.964 384.429L197.25 385C196.462 385.63 195.426 385.856 194.447 385.612Z" fill="#8B8077"/>
<path d="M201.5 380.5L201 380.553M201 380.553L193.864 381.304C192.804 381.415 192 382.309 192 383.374V383.374C192 384.33 192.65 385.163 193.577 385.394L194.447 385.612C195.426 385.856 196.462 385.63 197.25 385L197.964 384.429C198.32 384.144 198.636 383.813 198.903 383.444L201 380.553Z" stroke="#8B8077"/>
<path d="M193.5 386.5V386.5C195.438 386.5 197.316 385.82 198.805 384.579L199.5 384L206.5 376.5L207.317 375.547C208.767 373.855 210.004 371.992 211 370V370L212.5 367" stroke="black"/>
<path d="M68.2423 126.748H59L61.8129 132.784L68.2423 140.115L75.4755 144.858L85.9233 149.17L100.791 154.344L117.669 155.638L132.537 156.5L145.798 155.638L157.451 152.188L166.291 149.17L175.936 143.564L183.169 137.959L190 126.748L180.356 128.041L171.515 126.748L162.273 123.298L154.638 118.555L150.62 115.106L144.19 109.069L138.163 100.445L133.34 91.3899L129.724 82.3349L126.911 73.2798L124.5 62.5L122.089 73.2798L119.276 82.3349L116.463 91.3899L111.239 100.445L104.408 109.069L96.773 115.106L90.3436 118.555L82.7086 123.298L79.8957 124.592L73.8681 126.748H68.2423Z" fill="white" stroke="white"/>
<path d="M122.409 109.017L122.578 108.812C122.685 108.681 122.803 108.56 122.931 108.449C124.177 107.366 126.06 107.48 127.167 108.704L127.921 109.537C128.615 110.306 129 111.304 129 112.34V113.791C129 114.288 128.953 114.784 128.861 115.273L127.957 120.038L126.719 125.308C126.619 125.734 126.392 126.119 126.07 126.414L125.81 126.65C124.825 127.549 123.246 127.195 122.739 125.962L122.549 125.316C121.522 121.816 121 118.186 121 114.538V112.95C121 111.515 121.498 110.125 122.409 109.017Z" fill="#EB6A6A" stroke="#EB6A6A" stroke-width="3"/>
<path d="M64.0733 127.106L62.6543 126.838C60.7819 126.483 59.0615 125.568 57.7209 124.213C55.9778 122.453 55 120.075 55 117.597V109.797V97.3242C55 89.0256 55.7394 80.7435 57.2094 72.5761L57.3897 71.5742L59.7794 61.5156C61.104 54.8247 63.0548 48.2732 65.6059 41.9474L66.1519 40.5938L68.5416 33.955C69.0663 32.4974 69.9028 31.1718 70.9926 30.0708L71.6019 29.4553C73.2117 27.8291 75.405 26.9141 77.6932 26.9141C79.754 26.9141 81.7458 27.6566 83.3037 29.0055L84.8852 30.3749C85.9322 31.2815 86.8408 32.3366 87.582 33.5066L92.8367 41.8008L95.039 45.3605C97.3839 49.1505 101.523 51.457 105.98 51.457H115.14H127.487H138.732C139.2 51.457 139.668 51.4906 140.132 51.5576L144.103 52.1306C146.27 52.4433 148.368 51.2272 149.174 49.1913C149.319 48.8256 149.509 48.4794 149.74 48.1607L156.96 38.1797L160.828 31.4301C161.17 30.8343 161.555 30.2649 161.981 29.7265L163.784 27.4499C165.26 25.5865 167.506 24.5 169.883 24.5C171.819 24.5 173.685 25.2215 175.117 26.5235L175.567 26.9327C176.431 27.718 177.14 28.6581 177.658 29.7043L182.468 39.4228C184.837 44.2096 186.623 49.2633 187.788 54.4757L191.61 71.5742L194 97.3242V109.176C194 111.193 193.781 113.205 193.348 115.175L192.009 121.262C191.749 122.446 191.158 123.532 190.305 124.393C189.101 125.609 187.462 126.293 185.751 126.293H184.84H183.381C176.462 126.293 169.618 124.863 163.278 122.094C159.873 120.606 156.644 118.745 153.649 116.545L149.393 113.418C144.377 109.418 140.003 104.675 136.42 99.3532L135.054 97.3242L131.868 90.8867L128.284 81.2305L125.894 73.5859L123.903 62.7227C122.842 69.9529 121.196 77.085 118.98 84.0486L118.725 84.8516L118.649 85.0353C115.273 93.1668 110.518 100.654 104.594 107.167L103.988 107.833C101.338 110.746 98.4347 113.417 95.3114 115.815L94.2921 116.598C91.4702 118.764 88.4393 120.644 85.2443 122.209L82.1083 123.745C78.6655 125.431 74.9579 126.512 71.1482 126.939L68.2542 127.264C66.8605 127.42 65.4512 127.367 64.0733 127.106Z" fill="#F4C091" stroke="#F4C091"/>
<path d="M158.698 47.6784L156.465 51.6091C156.434 51.662 156.41 51.7177 156.39 51.7754C156.192 52.363 156.601 52.9797 157.219 53.0268L161.452 53.3491L168.161 54.5943L174.871 55.8396L179.738 56.9732C180.894 57.2425 182 56.3647 182 55.1774C182 55.0656 181.99 54.9541 181.97 54.8443L181.161 50.4434L179.484 45.0472L178.232 41.329C177.95 40.4921 177.54 39.7038 177.017 38.9921L176.12 37.7706C175.071 36.3431 173.405 35.5 171.634 35.5C170.467 35.5 169.329 35.8669 168.382 36.5489L166.582 37.8441C165.682 38.4923 164.872 39.258 164.175 40.1208L162.096 42.6934C160.83 44.26 159.693 45.9272 158.698 47.6784Z" fill="#FFFDFE" stroke="#FFFDFE"/>
<path d="M76.444 57.7511C74.379 58.2714 72.0201 58.5904 69.516 58.4772C67.2595 58.3753 67.9883 54.3513 68.7403 51.6387C69.1948 49.9989 69.6776 48.3661 70.0795 46.7126C70.3346 45.6636 70.607 44.7357 71.0065 43.8144C71.8216 41.9346 72.641 40.0043 73.8856 38.3769C75.9857 35.6308 80.3218 35.4343 83.0932 37.5009C84.0171 38.1898 84.8993 39.0371 85.9037 40.0409C86.637 40.7736 87.3308 41.541 87.9658 42.3604C89.9419 44.9107 94.1492 50.6601 92.7036 51.6244C86.4022 55.8275 83.789 55.9006 76.444 57.7511Z" fill="#FFFDFE" stroke="#FFFDFE"/>
<path d="M124.897 99.5V104.916M124.897 104.916C120.162 110.976 117.672 111.081 113 104.916M124.897 104.916C130.301 110.693 132.541 109.661 136 104.916" stroke="black" stroke-width="3"/>
<path d="M68.0959 32.9523H70.4795L73.2603 26.9149L78.8219 24.5L83.1918 25.7075L87.1644 29.3299L90.3425 32.9523L94.3151 38.5871L98.6849 43.417L104.247 48.2469L111 51.0643L109.014 53.8817L98.6849 51.0643L90.3425 41.4046L84.7808 34.9647L76.8356 32.9523L71.274 36.9772L68.0959 41.4046L58.5616 117.878L56.5753 121.5L53 111.84V103.79V98.5581V90.1058L54.1918 84.0685V79.6411L56.5753 71.9938L58.5616 63.944L59.7534 58.7116L60.5479 53.8817L62.137 48.2469L63.726 41.4046L66.1096 36.1722L68.0959 32.9523Z" fill="#F4C091" stroke="#F4C091"/>
<path d="M144.237 48.7787L153.983 45.2377L160.61 35.4016L168.407 31.8607L178.932 29.5L181.271 33.4344L184 38.5492L181.271 41.6967L178.932 38.5492L174.254 33.4344L168.407 34.2213L155.153 47.2049L147.356 53.5L138 52.3197L144.237 48.7787Z" fill="#F4C091" stroke="#F4C091"/>
<path d="M45.3699 92.5L70 98.6667M41 111H70M45.3699 129.5L70 122.511" stroke="#8B8077" stroke-width="3"/>
<path d="M196 102.158L191.5 106.5L190 80.4474L192.625 76.5L196 89.1316V102.158Z" fill="#F4C091" stroke="#F4C091"/>
<path d="M135.931 50.2178H136.377C142.461 50.2178 148.152 47.2091 151.579 42.181L158.62 32.135L160.875 28.7493C162.643 26.0947 165.621 24.5 168.811 24.5C171.071 24.5 173.257 25.3027 174.98 26.7649L177.143 28.5998C179.854 30.9003 181.788 33.9819 182.681 37.4234L186.003 50.2178L191.088 71.1135L193.476 82.3983C194.489 87.1851 195 92.0646 195 96.9575V97.5945C195 104.28 193.986 110.927 191.994 117.309L190.885 120.859C189.209 126.227 186.564 131.242 183.08 135.655C178.823 141.048 173.414 145.419 167.248 148.448L165.625 149.246C160.979 151.528 156.029 153.131 150.927 154.004L148.273 154.458C144.225 155.152 140.125 155.5 136.018 155.5H126.934H117.285C112.255 155.5 107.236 155.017 102.297 154.057C97.6075 153.146 93.0106 151.808 88.5638 150.062L81.9477 147.463L76.7406 145.103C71.4265 142.695 66.7849 139.019 63.2234 134.398C61.8872 132.664 60.7136 130.811 59.7175 128.862L58.9376 127.336C55.035 119.699 53 111.246 53 102.671V98.4386C53 92.5586 53.5658 86.6923 54.6895 80.9206L54.9559 79.5521L58.0854 64.2822L61.2149 50.2178L62.6824 44.8339C63.5259 41.7392 64.7726 38.7689 66.3903 35.9992L67.4404 34.2015C68.2421 32.8289 69.208 31.5591 70.3167 30.4202L74.1104 26.5231C75.3696 25.2296 77.0981 24.5 78.9033 24.5C80.8374 24.5 82.6769 25.3372 83.9472 26.7956L88.5978 32.135L95.2479 40.1718C99.4006 46.4451 106.502 50.2178 114.025 50.2178H124.196H135.931Z" stroke="black" stroke-width="3"/>
<path d="M204.447 93.5L191.224 96.3315L178 99.1629M208 111.298H178M204.447 129.5L178 120.601" stroke="#8B8077" stroke-width="3"/>
<path d="M176 14.5L180.5 1M180.5 19.5L193.5 1M184.5 24.5L200 19.5" stroke="black" stroke-width="2"/>
<path d="M91 72L105 81.5L89 86.5" stroke="black" stroke-width="3"/>
<path d="M159.563 86.4662L143.43 81.368L157.331 72" stroke="black" stroke-width="3"/>
<path d="M30.1758 219V207.022H37.9287V208.823H32.3174V212.069H37.6216V213.771H32.3174V217.199H37.9287V219H30.1758ZM43.374 219.183C42.6989 219.183 42.1317 219.053 41.6724 218.792C41.2131 218.527 40.8672 218.142 40.6348 217.639C40.4023 217.13 40.2861 216.515 40.2861 215.796V209.927H42.353V215.323C42.353 216.026 42.4914 216.554 42.7681 216.908C43.0448 217.262 43.4958 217.439 44.1211 217.439C44.4531 217.439 44.7464 217.39 45.001 217.29C45.2611 217.185 45.4769 217.035 45.6484 216.842C45.82 216.648 45.95 216.416 46.0386 216.145C46.1271 215.868 46.1714 215.558 46.1714 215.215V209.927H48.2383V219H46.1714V217.622H46.0303C45.8919 217.943 45.6982 218.222 45.4492 218.46C45.2002 218.693 44.9014 218.873 44.5527 219C44.2041 219.122 43.8112 219.183 43.374 219.183ZM58.7222 219.183C57.953 219.183 57.2889 219.075 56.73 218.859C56.1766 218.638 55.7394 218.333 55.4185 217.946C55.0975 217.553 54.9066 217.099 54.8457 216.584V216.568H56.896L56.9043 216.584C57.015 216.9 57.2225 217.157 57.5269 217.356C57.8312 217.556 58.2407 217.655 58.7554 217.655C59.0985 217.655 59.4001 217.608 59.6602 217.514C59.9202 217.415 60.125 217.279 60.2744 217.107C60.4238 216.936 60.4985 216.737 60.4985 216.51V216.493C60.4985 216.228 60.3906 216.006 60.1748 215.829C59.959 215.646 59.6021 215.5 59.104 215.389L57.6348 215.057C57.0592 214.93 56.5833 214.753 56.207 214.526C55.8307 214.299 55.5485 214.02 55.3604 213.688C55.1777 213.355 55.0864 212.968 55.0864 212.525V212.517C55.0864 211.969 55.2386 211.488 55.543 211.073C55.8529 210.658 56.2817 210.334 56.8296 210.102C57.3774 209.869 58.0083 209.753 58.7222 209.753C59.4582 209.753 60.0918 209.864 60.623 210.085C61.1543 210.306 61.5693 210.611 61.8682 210.998C62.167 211.385 62.3385 211.825 62.3828 212.318V212.334H60.4404L60.4321 212.31C60.3547 212.022 60.1693 211.778 59.876 211.579C59.5882 211.374 59.2008 211.272 58.7139 211.272C58.4095 211.272 58.1356 211.319 57.8921 211.413C57.6541 211.507 57.466 211.64 57.3276 211.812C57.1948 211.978 57.1284 212.174 57.1284 212.401V212.409C57.1284 212.586 57.1727 212.741 57.2612 212.874C57.3553 213.007 57.502 213.123 57.7012 213.223C57.9004 213.322 58.1632 213.411 58.4897 213.488L59.959 213.812C60.8499 214.011 61.5085 214.307 61.9346 214.7C62.3607 215.093 62.5737 215.622 62.5737 216.286V216.302C62.5737 216.878 62.4077 217.381 62.0757 217.813C61.7437 218.245 61.2871 218.582 60.7061 218.826C60.125 219.064 59.4637 219.183 58.7222 219.183ZM68.5752 219.183C67.6732 219.183 66.8957 218.994 66.2427 218.618C65.5897 218.236 65.0861 217.694 64.7319 216.991C64.3833 216.288 64.209 215.447 64.209 214.468V214.451C64.209 213.483 64.3861 212.647 64.7402 211.944C65.0944 211.236 65.5952 210.694 66.2427 210.317C66.8957 209.941 67.6732 209.753 68.5752 209.753C69.4772 209.753 70.252 209.941 70.8994 210.317C71.5524 210.694 72.056 211.233 72.4102 211.936C72.7643 212.639 72.9414 213.477 72.9414 214.451V214.468C72.9414 215.447 72.7643 216.288 72.4102 216.991C72.0615 217.694 71.5607 218.236 70.9077 218.618C70.2603 218.994 69.4827 219.183 68.5752 219.183ZM68.5752 217.506C69.0511 217.506 69.4551 217.387 69.7871 217.149C70.1247 216.905 70.382 216.56 70.5591 216.111C70.7362 215.658 70.8247 215.112 70.8247 214.476V214.459C70.8247 213.818 70.7362 213.272 70.5591 212.824C70.382 212.37 70.1247 212.025 69.7871 211.787C69.4551 211.543 69.0511 211.421 68.5752 211.421C68.0993 211.421 67.6925 211.543 67.355 211.787C67.0174 212.025 66.7601 212.37 66.583 212.824C66.4059 213.272 66.3174 213.818 66.3174 214.459V214.476C66.3174 215.112 66.4059 215.658 66.583 216.111C66.7601 216.565 67.0146 216.911 67.3467 217.149C67.6842 217.387 68.0938 217.506 68.5752 217.506ZM78.0215 219.183C77.3464 219.183 76.7791 219.053 76.3198 218.792C75.8605 218.527 75.5146 218.142 75.2822 217.639C75.0498 217.13 74.9336 216.515 74.9336 215.796V209.927H77.0005V215.323C77.0005 216.026 77.1388 216.554 77.4155 216.908C77.6922 217.262 78.1432 217.439 78.7686 217.439C79.1006 217.439 79.3939 217.39 79.6484 217.29C79.9085 217.185 80.1243 217.035 80.2959 216.842C80.4674 216.648 80.5975 216.416 80.686 216.145C80.7746 215.868 80.8188 215.558 80.8188 215.215V209.927H82.8857V219H80.8188V217.622H80.6777C80.5394 217.943 80.3457 218.222 80.0967 218.46C79.8477 218.693 79.5488 218.873 79.2002 219C78.8516 219.122 78.4587 219.183 78.0215 219.183ZM93.8594 219.183C92.9574 219.183 92.1799 218.994 91.5269 218.618C90.8739 218.236 90.3703 217.694 90.0161 216.991C89.6675 216.288 89.4932 215.447 89.4932 214.468V214.451C89.4932 213.483 89.6702 212.647 90.0244 211.944C90.3786 211.236 90.8794 210.694 91.5269 210.317C92.1799 209.941 92.9574 209.753 93.8594 209.753C94.7614 209.753 95.5361 209.941 96.1836 210.317C96.8366 210.694 97.3402 211.233 97.6943 211.936C98.0485 212.639 98.2256 213.477 98.2256 214.451V214.468C98.2256 215.447 98.0485 216.288 97.6943 216.991C97.3457 217.694 96.8449 218.236 96.1919 218.618C95.5444 218.994 94.7669 219.183 93.8594 219.183ZM93.8594 217.506C94.3353 217.506 94.7393 217.387 95.0713 217.149C95.4089 216.905 95.6662 216.56 95.8433 216.111C96.0203 215.658 96.1089 215.112 96.1089 214.476V214.459C96.1089 213.818 96.0203 213.272 95.8433 212.824C95.6662 212.37 95.4089 212.025 95.0713 211.787C94.7393 211.543 94.3353 211.421 93.8594 211.421C93.3835 211.421 92.9767 211.543 92.6392 211.787C92.3016 212.025 92.0443 212.37 91.8672 212.824C91.6901 213.272 91.6016 213.818 91.6016 214.459V214.476C91.6016 215.112 91.6901 215.658 91.8672 216.111C92.0443 216.565 92.2988 216.911 92.6309 217.149C92.9684 217.387 93.3779 217.506 93.8594 217.506ZM106.12 215.041V213.314H109.307C110.076 213.314 110.674 213.118 111.1 212.725C111.526 212.326 111.739 211.767 111.739 211.048V211.031C111.739 210.306 111.526 209.747 111.1 209.354C110.674 208.962 110.076 208.765 109.307 208.765H106.12V207.022H109.83C110.644 207.022 111.355 207.188 111.963 207.52C112.572 207.852 113.048 208.32 113.391 208.923C113.734 209.521 113.906 210.221 113.906 211.023V211.04C113.906 211.836 113.734 212.536 113.391 213.14C113.048 213.737 112.572 214.205 111.963 214.542C111.355 214.875 110.644 215.041 109.83 215.041H106.12ZM105.049 219V207.022H107.19V219H105.049ZM118.197 219.149C117.627 219.149 117.115 219.039 116.662 218.817C116.213 218.596 115.859 218.283 115.599 217.879C115.345 217.47 115.217 216.988 115.217 216.435V216.418C115.217 215.882 115.35 215.42 115.616 215.032C115.881 214.639 116.271 214.332 116.786 214.111C117.301 213.889 117.926 213.759 118.662 213.721L122.016 213.513V214.875L118.953 215.074C118.372 215.107 117.943 215.229 117.666 215.439C117.389 215.649 117.251 215.943 117.251 216.319V216.335C117.251 216.723 117.398 217.024 117.691 217.24C117.99 217.456 118.369 217.564 118.828 217.564C119.243 217.564 119.614 217.481 119.94 217.315C120.267 217.149 120.524 216.925 120.712 216.643C120.901 216.355 120.995 216.031 120.995 215.671V212.799C120.995 212.346 120.851 212 120.563 211.762C120.275 211.518 119.849 211.396 119.285 211.396C118.814 211.396 118.43 211.479 118.131 211.646C117.832 211.806 117.63 212.036 117.525 212.334L117.517 212.368H115.566L115.574 212.293C115.641 211.784 115.84 211.338 116.172 210.957C116.504 210.575 116.944 210.279 117.492 210.068C118.04 209.858 118.67 209.753 119.384 209.753C120.17 209.753 120.834 209.875 121.376 210.118C121.919 210.356 122.331 210.705 122.613 211.164C122.896 211.618 123.037 212.163 123.037 212.799V219H120.995V217.755H120.854C120.688 218.043 120.472 218.292 120.206 218.502C119.946 218.712 119.647 218.873 119.31 218.983C118.972 219.094 118.601 219.149 118.197 219.149ZM126.921 219L124.456 209.927H126.531L128.034 216.75H128.183L129.926 209.927H131.894L133.645 216.75H133.794L135.297 209.927H137.347L134.882 219H132.724L130.956 212.426H130.814L129.055 219H126.921ZM139.215 219V206.416H141.282V219H139.215ZM147.798 219.183C146.896 219.183 146.118 218.994 145.465 218.618C144.812 218.236 144.309 217.694 143.955 216.991C143.606 216.288 143.432 215.447 143.432 214.468V214.451C143.432 213.483 143.609 212.647 143.963 211.944C144.317 211.236 144.818 210.694 145.465 210.317C146.118 209.941 146.896 209.753 147.798 209.753C148.7 209.753 149.475 209.941 150.122 210.317C150.775 210.694 151.279 211.233 151.633 211.936C151.987 212.639 152.164 213.477 152.164 214.451V214.468C152.164 215.447 151.987 216.288 151.633 216.991C151.284 217.694 150.783 218.236 150.13 218.618C149.483 218.994 148.705 219.183 147.798 219.183ZM147.798 217.506C148.274 217.506 148.678 217.387 149.01 217.149C149.347 216.905 149.605 216.56 149.782 216.111C149.959 215.658 150.047 215.112 150.047 214.476V214.459C150.047 213.818 149.959 213.272 149.782 212.824C149.605 212.37 149.347 212.025 149.01 211.787C148.678 211.543 148.274 211.421 147.798 211.421C147.322 211.421 146.915 211.543 146.578 211.787C146.24 212.025 145.983 212.37 145.806 212.824C145.629 213.272 145.54 213.818 145.54 214.459V214.476C145.54 215.112 145.629 215.658 145.806 216.111C145.983 216.565 146.237 216.911 146.569 217.149C146.907 217.387 147.316 217.506 147.798 217.506ZM162.656 219.183C161.754 219.183 160.979 218.992 160.332 218.61C159.69 218.228 159.195 217.686 158.846 216.983C158.498 216.28 158.323 215.447 158.323 214.484V214.476C158.323 213.524 158.495 212.694 158.838 211.986C159.187 211.278 159.679 210.73 160.315 210.342C160.952 209.949 161.699 209.753 162.557 209.753C163.42 209.753 164.161 209.944 164.781 210.326C165.407 210.702 165.888 211.23 166.226 211.911C166.563 212.592 166.732 213.389 166.732 214.302V214.982H159.361V213.596H165.719L164.74 214.891V214.069C164.74 213.466 164.648 212.965 164.466 212.567C164.283 212.168 164.029 211.87 163.702 211.67C163.381 211.471 163.008 211.372 162.582 211.372C162.155 211.372 161.776 211.477 161.444 211.687C161.118 211.892 160.858 212.196 160.664 212.6C160.476 212.999 160.382 213.488 160.382 214.069V214.899C160.382 215.458 160.476 215.937 160.664 216.335C160.852 216.728 161.118 217.033 161.461 217.249C161.81 217.459 162.222 217.564 162.698 217.564C163.069 217.564 163.387 217.511 163.652 217.406C163.924 217.296 164.142 217.166 164.308 217.016C164.474 216.861 164.59 216.715 164.657 216.576L164.682 216.518H166.641L166.624 216.593C166.552 216.886 166.419 217.185 166.226 217.489C166.037 217.788 165.78 218.068 165.454 218.328C165.133 218.582 164.74 218.79 164.275 218.95C163.81 219.105 163.271 219.183 162.656 219.183ZM175.771 219L172.542 209.927H174.75L176.842 216.983H176.992L179.075 209.927H181.25L178.029 219H175.771ZM186.546 219.183C185.644 219.183 184.866 218.994 184.213 218.618C183.56 218.236 183.057 217.694 182.703 216.991C182.354 216.288 182.18 215.447 182.18 214.468V214.451C182.18 213.483 182.357 212.647 182.711 211.944C183.065 211.236 183.566 210.694 184.213 210.317C184.866 209.941 185.644 209.753 186.546 209.753C187.448 209.753 188.223 209.941 188.87 210.317C189.523 210.694 190.027 211.233 190.381 211.936C190.735 212.639 190.912 213.477 190.912 214.451V214.468C190.912 215.447 190.735 216.288 190.381 216.991C190.032 217.694 189.531 218.236 188.878 218.618C188.231 218.994 187.453 219.183 186.546 219.183ZM186.546 217.506C187.022 217.506 187.426 217.387 187.758 217.149C188.095 216.905 188.353 216.56 188.53 216.111C188.707 215.658 188.795 215.112 188.795 214.476V214.459C188.795 213.818 188.707 213.272 188.53 212.824C188.353 212.37 188.095 212.025 187.758 211.787C187.426 211.543 187.022 211.421 186.546 211.421C186.07 211.421 185.663 211.543 185.326 211.787C184.988 212.025 184.731 212.37 184.554 212.824C184.377 213.272 184.288 213.818 184.288 214.459V214.476C184.288 215.112 184.377 215.658 184.554 216.111C184.731 216.565 184.985 216.911 185.317 217.149C185.655 217.387 186.064 217.506 186.546 217.506ZM195.992 219.183C195.317 219.183 194.75 219.053 194.291 218.792C193.831 218.527 193.485 218.142 193.253 217.639C193.021 217.13 192.904 216.515 192.904 215.796V209.927H194.971V215.323C194.971 216.026 195.11 216.554 195.386 216.908C195.663 217.262 196.114 217.439 196.739 217.439C197.071 217.439 197.365 217.39 197.619 217.29C197.879 217.185 198.095 217.035 198.267 216.842C198.438 216.648 198.568 216.416 198.657 216.145C198.745 215.868 198.79 215.558 198.79 215.215V209.927H200.856V219H198.79V217.622H198.648C198.51 217.943 198.316 218.222 198.067 218.46C197.818 218.693 197.52 218.873 197.171 219C196.822 219.122 196.429 219.183 195.992 219.183ZM211.481 219.042C210.441 219.042 209.691 218.851 209.232 218.469C208.773 218.087 208.543 217.462 208.543 216.593V211.529H207.132V209.927H208.543V207.703H210.643V209.927H212.552V211.529H210.643V216.103C210.643 216.551 210.737 216.881 210.925 217.091C211.119 217.296 211.429 217.398 211.855 217.398C212.004 217.398 212.126 217.395 212.22 217.39C212.32 217.379 212.431 217.368 212.552 217.356V218.95C212.408 218.978 212.242 219 212.054 219.017C211.872 219.033 211.681 219.042 211.481 219.042ZM218.421 219.183C217.519 219.183 216.744 218.992 216.097 218.61C215.455 218.228 214.959 217.686 214.611 216.983C214.262 216.28 214.088 215.447 214.088 214.484V214.476C214.088 213.524 214.259 212.694 214.603 211.986C214.951 211.278 215.444 210.73 216.08 210.342C216.716 209.949 217.464 209.753 218.321 209.753C219.185 209.753 219.926 209.944 220.546 210.326C221.171 210.702 221.653 211.23 221.99 211.911C222.328 212.592 222.497 213.389 222.497 214.302V214.982H215.125V213.596H221.484L220.504 214.891V214.069C220.504 213.466 220.413 212.965 220.23 212.567C220.048 212.168 219.793 211.87 219.467 211.67C219.146 211.471 218.772 211.372 218.346 211.372C217.92 211.372 217.541 211.477 217.209 211.687C216.882 211.892 216.622 212.196 216.429 212.6C216.241 212.999 216.146 213.488 216.146 214.069V214.899C216.146 215.458 216.241 215.937 216.429 216.335C216.617 216.728 216.882 217.033 217.226 217.249C217.574 217.459 217.986 217.564 218.462 217.564C218.833 217.564 219.151 217.511 219.417 217.406C219.688 217.296 219.907 217.166 220.073 217.016C220.239 216.861 220.355 216.715 220.421 216.576L220.446 216.518H222.405L222.389 216.593C222.317 216.886 222.184 217.185 221.99 217.489C221.802 217.788 221.545 218.068 221.218 218.328C220.897 218.582 220.504 218.79 220.04 218.95C219.575 219.105 219.035 219.183 218.421 219.183ZM35.397 241.149C34.827 241.149 34.3151 241.039 33.8613 240.817C33.4131 240.596 33.0589 240.283 32.7988 239.879C32.5443 239.47 32.417 238.988 32.417 238.435V238.418C32.417 237.882 32.5498 237.42 32.8154 237.032C33.0811 236.639 33.4712 236.332 33.9858 236.111C34.5005 235.889 35.1258 235.759 35.8618 235.721L39.2153 235.513V236.875L36.1523 237.074C35.5713 237.107 35.1424 237.229 34.8657 237.439C34.589 237.649 34.4507 237.943 34.4507 238.319V238.335C34.4507 238.723 34.5973 239.024 34.8906 239.24C35.1895 239.456 35.5685 239.564 36.0278 239.564C36.4429 239.564 36.8136 239.481 37.1401 239.315C37.4666 239.149 37.724 238.925 37.9121 238.643C38.1003 238.355 38.1943 238.031 38.1943 237.671V234.799C38.1943 234.346 38.0505 234 37.7627 233.762C37.4749 233.518 37.0488 233.396 36.4844 233.396C36.014 233.396 35.6294 233.479 35.3306 233.646C35.0317 233.806 34.8298 234.036 34.7246 234.334L34.7163 234.368H32.7656L32.7739 234.293C32.8403 233.784 33.0396 233.338 33.3716 232.957C33.7036 232.575 34.1436 232.279 34.6914 232.068C35.2393 231.858 35.8701 231.753 36.584 231.753C37.3698 231.753 38.0339 231.875 38.5762 232.118C39.1185 232.356 39.5308 232.705 39.813 233.164C40.0952 233.618 40.2363 234.163 40.2363 234.799V241H38.1943V239.755H38.0532C37.8872 240.043 37.6714 240.292 37.4058 240.502C37.1457 240.712 36.8468 240.873 36.5093 240.983C36.1717 241.094 35.8009 241.149 35.397 241.149ZM41.7388 244.096C41.6558 244.096 41.5672 244.093 41.4731 244.088C41.3791 244.088 41.3016 244.085 41.2407 244.08V242.453C41.2795 242.458 41.321 242.461 41.3652 242.461C41.4095 242.461 41.4565 242.461 41.5063 242.461C41.9491 242.461 42.2645 242.375 42.4526 242.204C42.6408 242.032 42.7349 241.739 42.7349 241.324V231.927H44.8018V241.349C44.8018 242.278 44.5444 242.967 44.0298 243.416C43.5207 243.869 42.757 244.096 41.7388 244.096ZM43.7642 230.408C43.4321 230.408 43.1444 230.289 42.9009 230.051C42.6574 229.813 42.5356 229.528 42.5356 229.196C42.5356 228.853 42.6574 228.565 42.9009 228.333C43.1444 228.095 43.4321 227.976 43.7642 227.976C44.1073 227.976 44.3978 228.095 44.6357 228.333C44.8737 228.565 44.9927 228.853 44.9927 229.196C44.9927 229.528 44.8737 229.813 44.6357 230.051C44.3978 230.289 44.1073 230.408 43.7642 230.408ZM50.355 241.183C49.6799 241.183 49.1126 241.053 48.6533 240.792C48.194 240.527 47.8481 240.142 47.6157 239.639C47.3833 239.13 47.2671 238.515 47.2671 237.796V231.927H49.334V237.323C49.334 238.026 49.4723 238.554 49.749 238.908C50.0257 239.262 50.4767 239.439 51.1021 239.439C51.4341 239.439 51.7274 239.39 51.9819 239.29C52.242 239.185 52.4578 239.035 52.6294 238.842C52.8009 238.648 52.931 238.416 53.0195 238.145C53.1081 237.868 53.1523 237.558 53.1523 237.215V231.927H55.2192V241H53.1523V239.622H53.0112C52.8729 239.943 52.6792 240.222 52.4302 240.46C52.1812 240.693 51.8823 240.873 51.5337 241C51.1851 241.122 50.7922 241.183 50.355 241.183ZM61.0132 241.149C60.2606 241.149 59.6048 240.961 59.0459 240.585C58.487 240.203 58.0553 239.661 57.751 238.958C57.4466 238.255 57.2944 237.428 57.2944 236.476V236.459C57.2944 235.497 57.4438 234.667 57.7427 233.969C58.047 233.266 58.4759 232.727 59.0293 232.351C59.5882 231.969 60.2495 231.778 61.0132 231.778C61.4282 231.778 61.8156 231.844 62.1753 231.977C62.535 232.104 62.8504 232.287 63.1216 232.525C63.3983 232.763 63.6141 233.045 63.769 233.372H63.9185V228.416H65.9771V241H63.9185V239.581H63.769C63.603 239.907 63.3844 240.189 63.1133 240.427C62.8477 240.66 62.5378 240.84 62.1836 240.967C61.8294 241.089 61.4393 241.149 61.0132 241.149ZM61.6606 239.406C62.131 239.406 62.535 239.29 62.8726 239.058C63.2157 238.82 63.4785 238.482 63.6611 238.045C63.8493 237.602 63.9434 237.079 63.9434 236.476V236.459C63.9434 235.851 63.8493 235.328 63.6611 234.891C63.4785 234.453 63.2157 234.116 62.8726 233.878C62.535 233.64 62.131 233.521 61.6606 233.521C61.1958 233.521 60.7918 233.64 60.4487 233.878C60.1112 234.11 59.8511 234.448 59.6685 234.891C59.4858 235.328 59.3945 235.851 59.3945 236.459V236.476C59.3945 237.085 59.4858 237.608 59.6685 238.045C59.8511 238.482 60.1112 238.82 60.4487 239.058C60.7863 239.29 61.1903 239.406 61.6606 239.406ZM71.0571 241.149C70.4871 241.149 69.9753 241.039 69.5215 240.817C69.0732 240.596 68.7191 240.283 68.459 239.879C68.2044 239.47 68.0771 238.988 68.0771 238.435V238.418C68.0771 237.882 68.21 237.42 68.4756 237.032C68.7412 236.639 69.1313 236.332 69.646 236.111C70.1606 235.889 70.786 235.759 71.522 235.721L74.8755 235.513V236.875L71.8125 237.074C71.2314 237.107 70.8026 237.229 70.5259 237.439C70.2492 237.649 70.1108 237.943 70.1108 238.319V238.335C70.1108 238.723 70.2575 239.024 70.5508 239.24C70.8496 239.456 71.2287 239.564 71.688 239.564C72.103 239.564 72.4738 239.481 72.8003 239.315C73.1268 239.149 73.3841 238.925 73.5723 238.643C73.7604 238.355 73.8545 238.031 73.8545 237.671V234.799C73.8545 234.346 73.7106 234 73.4229 233.762C73.1351 233.518 72.709 233.396 72.1445 233.396C71.6742 233.396 71.2896 233.479 70.9907 233.646C70.6919 233.806 70.4899 234.036 70.3848 234.334L70.3765 234.368H68.4258L68.4341 234.293C68.5005 233.784 68.6997 233.338 69.0317 232.957C69.3638 232.575 69.8037 232.279 70.3516 232.068C70.8994 231.858 71.5303 231.753 72.2441 231.753C73.0299 231.753 73.694 231.875 74.2363 232.118C74.7786 232.356 75.1909 232.705 75.4731 233.164C75.7554 233.618 75.8965 234.163 75.8965 234.799V241H73.8545V239.755H73.7134C73.5474 240.043 73.3315 240.292 73.0659 240.502C72.8058 240.712 72.507 240.873 72.1694 240.983C71.8319 241.094 71.4611 241.149 71.0571 241.149ZM78.3784 241V231.927H80.4453V233.322H80.5864C80.7414 232.835 81.0181 232.456 81.4165 232.185C81.8205 231.913 82.3213 231.778 82.9189 231.778C83.0739 231.778 83.2261 231.789 83.3755 231.811C83.5304 231.828 83.6577 231.85 83.7573 231.877V233.729C83.5913 233.69 83.4225 233.662 83.251 233.646C83.085 233.623 82.9106 233.612 82.728 233.612C82.2687 233.612 81.8675 233.698 81.5244 233.87C81.1813 234.041 80.9157 234.287 80.7275 234.608C80.5394 234.924 80.4453 235.297 80.4453 235.729V241H78.3784ZM92.4399 241.149C91.87 241.149 91.3581 241.039 90.9043 240.817C90.4561 240.596 90.1019 240.283 89.8418 239.879C89.5872 239.47 89.46 238.988 89.46 238.435V238.418C89.46 237.882 89.5928 237.42 89.8584 237.032C90.124 236.639 90.5142 236.332 91.0288 236.111C91.5435 235.889 92.1688 235.759 92.9048 235.721L96.2583 235.513V236.875L93.1953 237.074C92.6143 237.107 92.1854 237.229 91.9087 237.439C91.632 237.649 91.4937 237.943 91.4937 238.319V238.335C91.4937 238.723 91.6403 239.024 91.9336 239.24C92.2324 239.456 92.6115 239.564 93.0708 239.564C93.4858 239.564 93.8566 239.481 94.1831 239.315C94.5096 239.149 94.7669 238.925 94.9551 238.643C95.1432 238.355 95.2373 238.031 95.2373 237.671V234.799C95.2373 234.346 95.0934 234 94.8057 233.762C94.5179 233.518 94.0918 233.396 93.5273 233.396C93.057 233.396 92.6724 233.479 92.3735 233.646C92.0747 233.806 91.8727 234.036 91.7676 234.334L91.7593 234.368H89.8086L89.8169 234.293C89.8833 233.784 90.0825 233.338 90.4146 232.957C90.7466 232.575 91.1865 232.279 91.7344 232.068C92.2822 231.858 92.9131 231.753 93.627 231.753C94.4128 231.753 95.0768 231.875 95.6191 232.118C96.1615 232.356 96.5737 232.705 96.856 233.164C97.1382 233.618 97.2793 234.163 97.2793 234.799V241H95.2373V239.755H95.0962C94.9302 240.043 94.7144 240.292 94.4487 240.502C94.1886 240.712 93.8898 240.873 93.5522 240.983C93.2147 241.094 92.8439 241.149 92.4399 241.149ZM108.211 241.183C107.309 241.183 106.532 240.994 105.879 240.618C105.226 240.236 104.722 239.694 104.368 238.991C104.02 238.288 103.845 237.447 103.845 236.468V236.451C103.845 235.483 104.022 234.647 104.376 233.944C104.731 233.236 105.231 232.694 105.879 232.317C106.532 231.941 107.309 231.753 108.211 231.753C109.113 231.753 109.888 231.941 110.536 232.317C111.189 232.694 111.692 233.233 112.046 233.936C112.401 234.639 112.578 235.477 112.578 236.451V236.468C112.578 237.447 112.401 238.288 112.046 238.991C111.698 239.694 111.197 240.236 110.544 240.618C109.896 240.994 109.119 241.183 108.211 241.183ZM108.211 239.506C108.687 239.506 109.091 239.387 109.423 239.149C109.761 238.905 110.018 238.56 110.195 238.111C110.372 237.658 110.461 237.112 110.461 236.476V236.459C110.461 235.818 110.372 235.272 110.195 234.824C110.018 234.37 109.761 234.025 109.423 233.787C109.091 233.543 108.687 233.421 108.211 233.421C107.736 233.421 107.329 233.543 106.991 233.787C106.654 234.025 106.396 234.37 106.219 234.824C106.042 235.272 105.954 235.818 105.954 236.459V236.476C105.954 237.112 106.042 237.658 106.219 238.111C106.396 238.565 106.651 238.911 106.983 239.149C107.32 239.387 107.73 239.506 108.211 239.506ZM118.222 241.042C117.182 241.042 116.432 240.851 115.973 240.469C115.513 240.087 115.284 239.462 115.284 238.593V233.529H113.873V231.927H115.284V229.703H117.384V231.927H119.293V233.529H117.384V238.103C117.384 238.551 117.478 238.881 117.666 239.091C117.86 239.296 118.17 239.398 118.596 239.398C118.745 239.398 118.867 239.395 118.961 239.39C119.061 239.379 119.171 239.368 119.293 239.356V240.95C119.149 240.978 118.983 241 118.795 241.017C118.612 241.033 118.421 241.042 118.222 241.042ZM121.385 241V231.927H123.443V241H121.385ZM122.422 230.408C122.085 230.408 121.794 230.289 121.551 230.051C121.307 229.813 121.186 229.528 121.186 229.196C121.186 228.853 121.307 228.565 121.551 228.333C121.794 228.095 122.085 227.976 122.422 227.976C122.76 227.976 123.048 228.095 123.286 228.333C123.529 228.565 123.651 228.853 123.651 229.196C123.651 229.528 123.529 229.813 123.286 230.051C123.048 230.289 122.76 230.408 122.422 230.408ZM125.992 241V231.927H128.059V233.338H128.2C128.393 232.835 128.706 232.445 129.138 232.168C129.575 231.891 130.092 231.753 130.69 231.753C131.099 231.753 131.467 231.819 131.794 231.952C132.126 232.085 132.411 232.273 132.649 232.517C132.887 232.76 133.069 233.051 133.197 233.388H133.346C133.496 233.062 133.703 232.777 133.969 232.533C134.24 232.284 134.555 232.093 134.915 231.96C135.28 231.822 135.673 231.753 136.094 231.753C136.702 231.753 137.223 231.875 137.654 232.118C138.091 232.356 138.426 232.699 138.659 233.147C138.897 233.596 139.016 234.132 139.016 234.758V241H136.949V235.264C136.949 234.866 136.888 234.536 136.766 234.276C136.65 234.016 136.47 233.82 136.227 233.687C135.983 233.554 135.676 233.488 135.305 233.488C134.945 233.488 134.633 233.571 134.367 233.737C134.102 233.897 133.894 234.116 133.745 234.393C133.601 234.669 133.529 234.982 133.529 235.331V241H131.462V235.115C131.462 234.777 131.396 234.487 131.263 234.243C131.135 234 130.947 233.814 130.698 233.687C130.455 233.554 130.164 233.488 129.827 233.488C129.489 233.488 129.185 233.576 128.914 233.753C128.648 233.925 128.438 234.163 128.283 234.467C128.133 234.766 128.059 235.104 128.059 235.48V241H125.992ZM141.473 241V231.927H143.531V241H141.473ZM142.51 230.408C142.173 230.408 141.882 230.289 141.639 230.051C141.395 229.813 141.273 229.528 141.273 229.196C141.273 228.853 141.395 228.565 141.639 228.333C141.882 228.095 142.173 227.976 142.51 227.976C142.848 227.976 143.136 228.095 143.374 228.333C143.617 228.565 143.739 228.853 143.739 229.196C143.739 229.528 143.617 229.813 143.374 230.051C143.136 230.289 142.848 230.408 142.51 230.408ZM145.872 241V239.738L150.711 233.67V233.529H145.914V231.927H153.152V233.305L148.487 239.265V239.406H153.227V241H145.872ZM158.016 241.149C157.446 241.149 156.934 241.039 156.48 240.817C156.032 240.596 155.678 240.283 155.418 239.879C155.163 239.47 155.036 238.988 155.036 238.435V238.418C155.036 237.882 155.169 237.42 155.435 237.032C155.7 236.639 156.09 236.332 156.605 236.111C157.12 235.889 157.745 235.759 158.481 235.721L161.834 235.513V236.875L158.771 237.074C158.19 237.107 157.762 237.229 157.485 237.439C157.208 237.649 157.07 237.943 157.07 238.319V238.335C157.07 238.723 157.216 239.024 157.51 239.24C157.809 239.456 158.188 239.564 158.647 239.564C159.062 239.564 159.433 239.481 159.759 239.315C160.086 239.149 160.343 238.925 160.531 238.643C160.719 238.355 160.813 238.031 160.813 237.671V234.799C160.813 234.346 160.67 234 160.382 233.762C160.094 233.518 159.668 233.396 159.104 233.396C158.633 233.396 158.249 233.479 157.95 233.646C157.651 233.806 157.449 234.036 157.344 234.334L157.335 234.368H155.385L155.393 234.293C155.459 233.784 155.659 233.338 155.991 232.957C156.323 232.575 156.763 232.279 157.311 232.068C157.858 231.858 158.489 231.753 159.203 231.753C159.989 231.753 160.653 231.875 161.195 232.118C161.738 232.356 162.15 232.705 162.432 233.164C162.714 233.618 162.855 234.163 162.855 234.799V241H160.813V239.755H160.672C160.506 240.043 160.291 240.292 160.025 240.502C159.765 240.712 159.466 240.873 159.128 240.983C158.791 241.094 158.42 241.149 158.016 241.149ZM165.337 241V231.927H167.404V233.322H167.545C167.7 232.835 167.977 232.456 168.375 232.185C168.779 231.913 169.28 231.778 169.878 231.778C170.033 231.778 170.185 231.789 170.334 231.811C170.489 231.828 170.617 231.85 170.716 231.877V233.729C170.55 233.69 170.382 233.662 170.21 233.646C170.044 233.623 169.87 233.612 169.687 233.612C169.228 233.612 168.826 233.698 168.483 233.87C168.14 234.041 167.875 234.287 167.687 234.608C167.498 234.924 167.404 235.297 167.404 235.729V241H165.337ZM180.843 241.183C179.941 241.183 179.164 240.994 178.511 240.618C177.858 240.236 177.354 239.694 177 238.991C176.651 238.288 176.477 237.447 176.477 236.468V236.451C176.477 235.483 176.654 234.647 177.008 233.944C177.362 233.236 177.863 232.694 178.511 232.317C179.164 231.941 179.941 231.753 180.843 231.753C181.745 231.753 182.52 231.941 183.167 232.317C183.82 232.694 184.324 233.233 184.678 233.936C185.032 234.639 185.209 235.477 185.209 236.451V236.468C185.209 237.447 185.032 238.288 184.678 238.991C184.33 239.694 183.829 240.236 183.176 240.618C182.528 240.994 181.751 241.183 180.843 241.183ZM180.843 239.506C181.319 239.506 181.723 239.387 182.055 239.149C182.393 238.905 182.65 238.56 182.827 238.111C183.004 237.658 183.093 237.112 183.093 236.476V236.459C183.093 235.818 183.004 235.272 182.827 234.824C182.65 234.37 182.393 234.025 182.055 233.787C181.723 233.543 181.319 233.421 180.843 233.421C180.367 233.421 179.961 233.543 179.623 233.787C179.285 234.025 179.028 234.37 178.851 234.824C178.674 235.272 178.585 235.818 178.585 236.459V236.476C178.585 237.112 178.674 237.658 178.851 238.111C179.028 238.565 179.283 238.911 179.615 239.149C179.952 239.387 180.362 239.506 180.843 239.506ZM195.245 241.183C194.476 241.183 193.812 241.075 193.253 240.859C192.7 240.638 192.262 240.333 191.941 239.946C191.62 239.553 191.43 239.099 191.369 238.584V238.568H193.419L193.427 238.584C193.538 238.9 193.745 239.157 194.05 239.356C194.354 239.556 194.764 239.655 195.278 239.655C195.621 239.655 195.923 239.608 196.183 239.514C196.443 239.415 196.648 239.279 196.797 239.107C196.947 238.936 197.021 238.737 197.021 238.51V238.493C197.021 238.228 196.914 238.006 196.698 237.829C196.482 237.646 196.125 237.5 195.627 237.389L194.158 237.057C193.582 236.93 193.106 236.753 192.73 236.526C192.354 236.299 192.071 236.02 191.883 235.688C191.701 235.355 191.609 234.968 191.609 234.525V234.517C191.609 233.969 191.762 233.488 192.066 233.073C192.376 232.658 192.805 232.334 193.353 232.102C193.9 231.869 194.531 231.753 195.245 231.753C195.981 231.753 196.615 231.864 197.146 232.085C197.677 232.306 198.092 232.611 198.391 232.998C198.69 233.385 198.861 233.825 198.906 234.318V234.334H196.963L196.955 234.31C196.878 234.022 196.692 233.778 196.399 233.579C196.111 233.374 195.724 233.272 195.237 233.272C194.932 233.272 194.659 233.319 194.415 233.413C194.177 233.507 193.989 233.64 193.851 233.812C193.718 233.978 193.651 234.174 193.651 234.401V234.409C193.651 234.586 193.696 234.741 193.784 234.874C193.878 235.007 194.025 235.123 194.224 235.223C194.423 235.322 194.686 235.411 195.013 235.488L196.482 235.812C197.373 236.011 198.031 236.307 198.458 236.7C198.884 237.093 199.097 237.622 199.097 238.286V238.302C199.097 238.878 198.931 239.381 198.599 239.813C198.267 240.245 197.81 240.582 197.229 240.826C196.648 241.064 195.987 241.183 195.245 241.183ZM205.065 241.183C204.163 241.183 203.388 240.992 202.741 240.61C202.099 240.228 201.604 239.686 201.255 238.983C200.906 238.28 200.732 237.447 200.732 236.484V236.476C200.732 235.524 200.903 234.694 201.247 233.986C201.595 233.278 202.088 232.73 202.724 232.342C203.361 231.949 204.108 231.753 204.965 231.753C205.829 231.753 206.57 231.944 207.19 232.326C207.815 232.702 208.297 233.23 208.634 233.911C208.972 234.592 209.141 235.389 209.141 236.302V236.982H201.77V235.596H208.128L207.148 236.891V236.069C207.148 235.466 207.057 234.965 206.875 234.567C206.692 234.168 206.437 233.87 206.111 233.67C205.79 233.471 205.416 233.372 204.99 233.372C204.564 233.372 204.185 233.477 203.853 233.687C203.527 233.892 203.266 234.196 203.073 234.6C202.885 234.999 202.791 235.488 202.791 236.069V236.899C202.791 237.458 202.885 237.937 203.073 238.335C203.261 238.728 203.527 239.033 203.87 239.249C204.218 239.459 204.631 239.564 205.106 239.564C205.477 239.564 205.795 239.511 206.061 239.406C206.332 239.296 206.551 239.166 206.717 239.016C206.883 238.861 206.999 238.715 207.065 238.576L207.09 238.518H209.049L209.033 238.593C208.961 238.886 208.828 239.185 208.634 239.489C208.446 239.788 208.189 240.068 207.862 240.328C207.541 240.582 207.148 240.79 206.684 240.95C206.219 241.105 205.679 241.183 205.065 241.183ZM214.212 241.183C213.537 241.183 212.97 241.053 212.511 240.792C212.051 240.527 211.706 240.142 211.473 239.639C211.241 239.13 211.125 238.515 211.125 237.796V231.927H213.191V237.323C213.191 238.026 213.33 238.554 213.606 238.908C213.883 239.262 214.334 239.439 214.959 239.439C215.292 239.439 215.585 239.39 215.839 239.29C216.099 239.185 216.315 239.035 216.487 238.842C216.658 238.648 216.788 238.416 216.877 238.145C216.965 237.868 217.01 237.558 217.01 237.215V231.927H219.077V241H217.01V239.622H216.869C216.73 239.943 216.537 240.222 216.288 240.46C216.039 240.693 215.74 240.873 215.391 241C215.042 241.122 214.65 241.183 214.212 241.183ZM81.1011 263.042C80.0607 263.042 79.3109 262.851 78.8516 262.469C78.3923 262.087 78.1626 261.462 78.1626 260.593V255.529H76.7515V253.927H78.1626V251.703H80.2627V253.927H82.1719V255.529H80.2627V260.103C80.2627 260.551 80.3568 260.881 80.5449 261.091C80.7386 261.296 81.0485 261.398 81.4746 261.398C81.624 261.398 81.7458 261.395 81.8398 261.39C81.9395 261.379 82.0501 261.368 82.1719 261.356V262.95C82.028 262.978 81.862 263 81.6738 263.017C81.4912 263.033 81.3003 263.042 81.1011 263.042ZM88.0405 263.183C87.1385 263.183 86.3638 262.992 85.7163 262.61C85.0744 262.228 84.5791 261.686 84.2305 260.983C83.8818 260.28 83.7075 259.447 83.7075 258.484V258.476C83.7075 257.524 83.8791 256.694 84.2222 255.986C84.5708 255.278 85.0633 254.73 85.6997 254.342C86.3361 253.949 87.0832 253.753 87.9409 253.753C88.8042 253.753 89.5457 253.944 90.1655 254.326C90.7909 254.702 91.2723 255.23 91.6099 255.911C91.9474 256.592 92.1162 257.389 92.1162 258.302V258.982H84.7451V257.596H91.1035L90.124 258.891V258.069C90.124 257.466 90.0327 256.965 89.8501 256.567C89.6675 256.168 89.4129 255.87 89.0864 255.67C88.7655 255.471 88.3919 255.372 87.9658 255.372C87.5397 255.372 87.1606 255.477 86.8286 255.687C86.5021 255.892 86.242 256.196 86.0483 256.6C85.8602 256.999 85.7661 257.488 85.7661 258.069V258.899C85.7661 259.458 85.8602 259.937 86.0483 260.335C86.2365 260.728 86.5021 261.033 86.8452 261.249C87.1938 261.459 87.6061 261.564 88.082 261.564C88.4528 261.564 88.771 261.511 89.0366 261.406C89.3078 261.296 89.5264 261.166 89.6924 261.016C89.8584 260.861 89.9746 260.715 90.041 260.576L90.0659 260.518H92.0249L92.0083 260.593C91.9364 260.886 91.8035 261.185 91.6099 261.489C91.4217 261.788 91.1644 262.068 90.8379 262.328C90.5169 262.582 90.124 262.79 89.6592 262.95C89.1943 263.105 88.6548 263.183 88.0405 263.183ZM94.1831 263V253.927H96.25V255.338H96.3911C96.5848 254.835 96.8975 254.445 97.3291 254.168C97.7663 253.891 98.2837 253.753 98.8813 253.753C99.2909 253.753 99.6589 253.819 99.9854 253.952C100.317 254.085 100.602 254.273 100.84 254.517C101.078 254.76 101.261 255.051 101.388 255.388H101.538C101.687 255.062 101.895 254.777 102.16 254.533C102.431 254.284 102.747 254.093 103.106 253.96C103.472 253.822 103.865 253.753 104.285 253.753C104.894 253.753 105.414 253.875 105.846 254.118C106.283 254.356 106.618 254.699 106.85 255.147C107.088 255.596 107.207 256.132 107.207 256.758V263H105.14V257.264C105.14 256.866 105.079 256.536 104.958 256.276C104.841 256.016 104.661 255.82 104.418 255.687C104.174 255.554 103.867 255.488 103.497 255.488C103.137 255.488 102.824 255.571 102.559 255.737C102.293 255.897 102.085 256.116 101.936 256.393C101.792 256.669 101.72 256.982 101.72 257.331V263H99.6533V257.115C99.6533 256.777 99.5869 256.487 99.4541 256.243C99.3268 256 99.1387 255.814 98.8896 255.687C98.6462 255.554 98.3556 255.488 98.0181 255.488C97.6805 255.488 97.3761 255.576 97.105 255.753C96.8394 255.925 96.6291 256.163 96.4741 256.467C96.3247 256.766 96.25 257.104 96.25 257.48V263H94.1831ZM109.639 266.013V253.927H111.706V255.347H111.847C112.013 255.02 112.229 254.741 112.495 254.508C112.766 254.276 113.078 254.096 113.433 253.969C113.787 253.841 114.177 253.778 114.603 253.778C115.361 253.778 116.017 253.969 116.57 254.351C117.129 254.732 117.561 255.275 117.865 255.978C118.175 256.675 118.33 257.502 118.33 258.459V258.476C118.33 259.439 118.178 260.269 117.874 260.966C117.569 261.664 117.138 262.203 116.579 262.585C116.025 262.961 115.367 263.149 114.603 263.149C114.188 263.149 113.801 263.086 113.441 262.958C113.081 262.826 112.766 262.64 112.495 262.402C112.223 262.164 112.008 261.882 111.847 261.556H111.706V266.013H109.639ZM113.956 261.406C114.426 261.406 114.83 261.29 115.167 261.058C115.505 260.82 115.765 260.482 115.948 260.045C116.13 259.602 116.222 259.079 116.222 258.476V258.459C116.222 257.845 116.13 257.319 115.948 256.882C115.765 256.445 115.505 256.11 115.167 255.878C114.83 255.64 114.426 255.521 113.956 255.521C113.485 255.521 113.078 255.64 112.735 255.878C112.398 256.11 112.135 256.445 111.947 256.882C111.764 257.319 111.673 257.842 111.673 258.451V258.468C111.673 259.076 111.764 259.602 111.947 260.045C112.135 260.482 112.401 260.82 112.744 261.058C113.087 261.29 113.491 261.406 113.956 261.406ZM124.332 263.183C123.43 263.183 122.652 262.994 121.999 262.618C121.346 262.236 120.842 261.694 120.488 260.991C120.14 260.288 119.965 259.447 119.965 258.468V258.451C119.965 257.483 120.142 256.647 120.497 255.944C120.851 255.236 121.352 254.694 121.999 254.317C122.652 253.941 123.43 253.753 124.332 253.753C125.234 253.753 126.008 253.941 126.656 254.317C127.309 254.694 127.812 255.233 128.167 255.936C128.521 256.639 128.698 257.477 128.698 258.451V258.468C128.698 259.447 128.521 260.288 128.167 260.991C127.818 261.694 127.317 262.236 126.664 262.618C126.017 262.994 125.239 263.183 124.332 263.183ZM124.332 261.506C124.807 261.506 125.211 261.387 125.543 261.149C125.881 260.905 126.138 260.56 126.315 260.111C126.493 259.658 126.581 259.112 126.581 258.476V258.459C126.581 257.818 126.493 257.272 126.315 256.824C126.138 256.37 125.881 256.025 125.543 255.787C125.211 255.543 124.807 255.421 124.332 255.421C123.856 255.421 123.449 255.543 123.111 255.787C122.774 256.025 122.516 256.37 122.339 256.824C122.162 257.272 122.074 257.818 122.074 258.459V258.476C122.074 259.112 122.162 259.658 122.339 260.111C122.516 260.565 122.771 260.911 123.103 261.149C123.441 261.387 123.85 261.506 124.332 261.506ZM135.388 263V250.416H137.455V263H135.388ZM140.078 263V253.927H142.137V263H140.078ZM141.116 252.408C140.778 252.408 140.488 252.289 140.244 252.051C140.001 251.813 139.879 251.528 139.879 251.196C139.879 250.853 140.001 250.565 140.244 250.333C140.488 250.095 140.778 249.976 141.116 249.976C141.453 249.976 141.741 250.095 141.979 250.333C142.222 250.565 142.344 250.853 142.344 251.196C142.344 251.528 142.222 251.813 141.979 252.051C141.741 252.289 141.453 252.408 141.116 252.408ZM147.125 263L143.896 253.927H146.104L148.196 260.983H148.346L150.429 253.927H152.604L149.383 263H147.125ZM154.347 263V253.927H156.414V255.322H156.555C156.71 254.835 156.987 254.456 157.385 254.185C157.789 253.913 158.29 253.778 158.888 253.778C159.043 253.778 159.195 253.789 159.344 253.811C159.499 253.828 159.626 253.85 159.726 253.877V255.729C159.56 255.69 159.391 255.662 159.22 255.646C159.054 255.623 158.879 255.612 158.697 255.612C158.237 255.612 157.836 255.698 157.493 255.87C157.15 256.041 156.884 256.287 156.696 256.608C156.508 256.924 156.414 257.297 156.414 257.729V263H154.347ZM165.072 263.183C164.17 263.183 163.395 262.992 162.748 262.61C162.106 262.228 161.61 261.686 161.262 260.983C160.913 260.28 160.739 259.447 160.739 258.484V258.476C160.739 257.524 160.91 256.694 161.253 255.986C161.602 255.278 162.095 254.73 162.731 254.342C163.367 253.949 164.114 253.753 164.972 253.753C165.835 253.753 166.577 253.944 167.197 254.326C167.822 254.702 168.304 255.23 168.641 255.911C168.979 256.592 169.147 257.389 169.147 258.302V258.982H161.776V257.596H168.135L167.155 258.891V258.069C167.155 257.466 167.064 256.965 166.881 256.567C166.699 256.168 166.444 255.87 166.118 255.67C165.797 255.471 165.423 255.372 164.997 255.372C164.571 255.372 164.192 255.477 163.86 255.687C163.533 255.892 163.273 256.196 163.08 256.6C162.891 256.999 162.797 257.488 162.797 258.069V258.899C162.797 259.458 162.891 259.937 163.08 260.335C163.268 260.728 163.533 261.033 163.876 261.249C164.225 261.459 164.637 261.564 165.113 261.564C165.484 261.564 165.802 261.511 166.068 261.406C166.339 261.296 166.558 261.166 166.724 261.016C166.89 260.861 167.006 260.715 167.072 260.576L167.097 260.518H169.056L169.04 260.593C168.968 260.886 168.835 261.185 168.641 261.489C168.453 261.788 168.196 262.068 167.869 262.328C167.548 262.582 167.155 262.79 166.69 262.95C166.226 263.105 165.686 263.183 165.072 263.183ZM171.878 259.041L171.688 251.014H173.979L173.788 259.041H171.878ZM172.841 263.208C172.421 263.208 172.086 263.091 171.837 262.859C171.588 262.621 171.463 262.303 171.463 261.904C171.463 261.506 171.588 261.19 171.837 260.958C172.086 260.72 172.421 260.601 172.841 260.601C173.262 260.601 173.597 260.72 173.846 260.958C174.095 261.19 174.219 261.506 174.219 261.904C174.219 262.303 174.095 262.621 173.846 262.859C173.597 263.091 173.262 263.208 172.841 263.208Z" fill="#7A5A3D"/>
<defs>
<filter id="filter0_d_382_865" x="0" y="156.5" width="250" height="153" filterUnits="userSpaceOnUse" color-interpolation-filters="sRGB">
<feFlood flood-opacity="0" result="BackgroundImageFix"/>
<feColorMatrix in="SourceAlpha" type="matrix" values="0 0 0 0 0 0 0 0 0 0 0 0 0 0 0 0 0 0 127 0" result="hardAlpha"/>
<feOffset dy="4"/>
<feGaussianBlur stdDeviation="2"/>
<feComposite in2="hardAlpha" operator="out"/>
<feColorMatrix type="matrix" values="0 0 0 0 0 0 0 0 0 0 0 0 0 0 0 0 0 0 0.25 0"/>
<feBlend mode="normal" in2="BackgroundImageFix" result="effect1_dropShadow_382_865"/>
<feBlend mode="normal" in="SourceGraphic" in2="effect1_dropShadow_382_865" result="shape"/>
</filter>
</defs>
</svg>
